<svg version="1.0" xmlns="http://www.w3.org/2000/svg"
 width="24" viewBox="0 0 7590.000000 7418.000000"
 preserveAspectRatio="xMidYMid meet">

<g transform="translate(0.000000,7418.000000) scale(0.100000,-0.100000)"
fill="#ffffff" stroke="none">
<path d="M38377 74168 c-3 -7 -1574 -3775 -3492 -8373 -1919 -4598 -3490
-8371 -3492 -8385 -3 -15 68 -238 183 -575 l187 -550 6808 -16275 c6561
-15687 6807 -16275 6783 -16278 -13 -2 -24 -5 -24 -7 0 -2 81 -185 181 -407
99 -222 902 -2129 1783 -4238 1447 -3461 1615 -3869 1723 -4180 563 -1612 915
-3128 1053 -4530 163 -1666 28 -3169 -430 -4778 -104 -367 -212 -681 -369
-1074 -545 -1362 -1207 -2328 -2006 -2928 -608 -457 -1276 -692 -2057 -726
l-158 -7 0 -429 0 -428 15420 0 15420 0 0 429 0 428 -142 7 c-566 28 -1148
190 -1763 491 -1048 514 -2197 1447 -3380 2745 -1374 1508 -2494 2998 -3567
4745 -888 1447 -1776 3168 -2487 4825 -67 157 -5784 13835 -12705 30395
l-12583 30110 -441 3 c-346 2 -441 0 -445 -10z"/>
<path d="M12645 12737 c-298 -639 -753 -1515 -1128 -2172 -1401 -2453 -3192
-4721 -5102 -6460 -1788 -1629 -3479 -2662 -5000 -3055 -431 -111 -815 -169
-1243 -186 l-172 -7 0 -429 0 -428 10690 0 10690 0 0 428 0 429 -167 7 c-1113
46 -2208 442 -3413 1234 -242 158 -389 264 -795 568 -568 425 -827 647 -1241
1059 -383 382 -587 615 -877 1000 -803 1069 -1325 2279 -1561 3615 -44 249
-40 221 -332 2580 -136 1097 -250 1998 -253 2002 -3 4 -46 -79 -96 -185z"/>
</g>
</svg>
