<svg xmlns="http://www.w3.org/2000/svg" width="201" height="201"><g data-name="Group 1168" transform="translate(-384 -1392)" fill="#282f49"><rect data-name="Rectangle 2206" width="12" height="2" rx="1" transform="rotate(90 -500.5 891.5)"/><rect data-name="Rectangle 2271" width="12" height="2" rx="1" transform="rotate(90 -554.5 945.5)"/><rect data-name="Rectangle 2238" width="12" height="2" rx="1" transform="rotate(90 -527.5 918.5)"/><rect data-name="Rectangle 2278" width="12" height="2" rx="1" transform="rotate(90 -581.5 972.5)"/><rect data-name="Rectangle 2222" width="12" height="2" rx="1" transform="rotate(90 -514 905)"/><rect data-name="Rectangle 2272" width="12" height="2" rx="1" transform="rotate(90 -568 959)"/><rect data-name="Rectangle 2241" width="12" height="2" rx="1" transform="rotate(90 -541 932)"/><rect data-name="Rectangle 2288" width="12" height="2" rx="1" transform="rotate(90 -595 986)"/><rect data-name="Rectangle 2214" width="12" height="2" rx="1" transform="rotate(90 -446.5 945.5)"/><rect data-name="Rectangle 2289" width="12" height="2" rx="1" transform="rotate(90 -500.5 999.5)"/><rect data-name="Rectangle 2256" width="12" height="2" rx="1" transform="rotate(90 -473.5 972.5)"/><rect data-name="Rectangle 2290" width="12" height="2" rx="1" transform="rotate(90 -527.5 1026.5)"/><rect data-name="Rectangle 2231" width="12" height="2" rx="1" transform="rotate(90 -460 959)"/><rect data-name="Rectangle 2291" width="12" height="2" rx="1" transform="rotate(90 -514 1013)"/><rect data-name="Rectangle 2257" width="12" height="2" rx="1" transform="rotate(90 -487 986)"/><rect data-name="Rectangle 2292" width="12" height="2" rx="1" transform="rotate(90 -541 1040)"/><rect data-name="Rectangle 2210" width="12" height="2" rx="1" transform="rotate(90 -473.5 918.5)"/><rect data-name="Rectangle 2279" width="12" height="2" rx="1" transform="rotate(90 -527.5 972.5)"/><rect data-name="Rectangle 2248" width="12" height="2" rx="1" transform="rotate(90 -500.5 945.5)"/><rect data-name="Rectangle 2280" width="12" height="2" rx="1" transform="rotate(90 -554.5 999.5)"/><rect data-name="Rectangle 2226" width="12" height="2" rx="1" transform="rotate(90 -487 932)"/><rect data-name="Rectangle 2281" width="12" height="2" rx="1" transform="rotate(90 -541 986)"/><rect data-name="Rectangle 2249" width="12" height="2" rx="1" transform="rotate(90 -514 959)"/><rect data-name="Rectangle 2293" width="12" height="2" rx="1" transform="rotate(90 -568 1013)"/><rect data-name="Rectangle 2219" width="12" height="2" rx="1" transform="rotate(90 -419.5 972.5)"/><rect data-name="Rectangle 2310" width="12" height="2" rx="1" transform="rotate(90 -473.5 1026.5)"/><rect data-name="Rectangle 2262" width="12" height="2" rx="1" transform="rotate(90 -446.5 999.5)"/><rect data-name="Rectangle 2311" width="12" height="2" rx="1" transform="rotate(90 -500.5 1053.5)"/><rect data-name="Rectangle 2232" width="12" height="2" rx="1" transform="rotate(90 -433 986)"/><rect data-name="Rectangle 2312" width="12" height="2" rx="1" transform="rotate(90 -487 1040)"/><rect data-name="Rectangle 2263" width="12" height="2" rx="1" transform="rotate(90 -460 1013)"/><rect data-name="Rectangle 2313" width="12" height="2" rx="1" transform="rotate(90 -514 1067)"/><rect data-name="Rectangle 2209" width="12" height="2" rx="1" transform="rotate(90 -487 905)"/><rect data-name="Rectangle 2273" width="12" height="2" rx="1" transform="rotate(90 -541 959)"/><rect data-name="Rectangle 2242" width="12" height="2" rx="1" transform="rotate(90 -514 932)"/><rect data-name="Rectangle 2282" width="12" height="2" rx="1" transform="rotate(90 -568 986)"/><rect data-name="Rectangle 2223" width="12" height="2" rx="1" transform="rotate(90 -500.5 918.5)"/><rect data-name="Rectangle 2274" width="12" height="2" rx="1" transform="rotate(90 -554.5 972.5)"/><rect data-name="Rectangle 2243" width="12" height="2" rx="1" transform="rotate(90 -527.5 945.5)"/><rect data-name="Rectangle 2294" width="12" height="2" rx="1" transform="rotate(90 -581.5 999.5)"/><rect data-name="Rectangle 2217" width="12" height="2" rx="1" transform="rotate(90 -433 959)"/><rect data-name="Rectangle 2314" width="12" height="2" rx="1" transform="rotate(90 -487 1013)"/><rect data-name="Rectangle 2258" width="12" height="2" rx="1" transform="rotate(90 -460 986)"/><rect data-name="Rectangle 2315" width="12" height="2" rx="1" transform="rotate(90 -514 1040)"/><rect data-name="Rectangle 2233" width="12" height="2" rx="1" transform="rotate(90 -446.5 972.5)"/><rect data-name="Rectangle 2316" width="12" height="2" rx="1" transform="rotate(90 -500.5 1026.5)"/><rect data-name="Rectangle 2259" width="12" height="2" rx="1" transform="rotate(90 -473.5 999.5)"/><rect data-name="Rectangle 2317" width="12" height="2" rx="1" transform="rotate(90 -527.5 1053.5)"/><rect data-name="Rectangle 2211" width="12" height="2" rx="1" transform="rotate(90 -460 932)"/><rect data-name="Rectangle 2295" width="12" height="2" rx="1" transform="rotate(90 -514 986)"/><rect data-name="Rectangle 2250" width="12" height="2" rx="1" transform="rotate(90 -487 959)"/><rect data-name="Rectangle 2296" width="12" height="2" rx="1" transform="rotate(90 -541 1013)"/><rect data-name="Rectangle 2227" width="12" height="2" rx="1" transform="rotate(90 -473.5 945.5)"/><rect data-name="Rectangle 2297" width="12" height="2" rx="1" transform="rotate(90 -527.5 999.5)"/><rect data-name="Rectangle 2251" width="12" height="2" rx="1" transform="rotate(90 -500.5 972.5)"/><rect data-name="Rectangle 2298" width="12" height="2" rx="1" transform="rotate(90 -554.5 1026.5)"/><rect data-name="Rectangle 2221" width="12" height="2" rx="1" transform="rotate(90 -406 986)"/><rect data-name="Rectangle 2318" width="12" height="2" rx="1" transform="rotate(90 -460 1040)"/><rect data-name="Rectangle 2264" width="12" height="2" rx="1" transform="rotate(90 -433 1013)"/><rect data-name="Rectangle 2319" width="12" height="2" rx="1" transform="rotate(90 -487 1067)"/><rect data-name="Rectangle 2236" width="12" height="2" rx="1" transform="rotate(90 -419.5 999.5)"/><rect data-name="Rectangle 2320" width="12" height="2" rx="1" transform="rotate(90 -473.5 1053.5)"/><rect data-name="Rectangle 2265" width="12" height="2" rx="1" transform="rotate(90 -446.5 1026.5)"/><rect data-name="Rectangle 2321" width="12" height="2" rx="1" transform="rotate(90 -500.5 1080.5)"/><rect data-name="Rectangle 2207" width="12" height="2" rx="1" transform="rotate(-180 198 699.5)"/><rect data-name="Rectangle 2270" width="12" height="2" rx="1" transform="rotate(-180 198 753.5)"/><rect data-name="Rectangle 2239" width="12" height="2" rx="1" transform="rotate(-180 198 726.5)"/><rect data-name="Rectangle 2283" width="12" height="2" rx="1" transform="rotate(-180 198 780.5)"/><rect data-name="Rectangle 2224" width="12" height="2" rx="1" transform="rotate(-180 198 713)"/><rect data-name="Rectangle 2275" width="12" height="2" rx="1" transform="rotate(-180 198 767)"/><rect data-name="Rectangle 2244" width="12" height="2" rx="1" transform="rotate(-180 198 740)"/><rect data-name="Rectangle 2299" width="12" height="2" rx="1" transform="rotate(-180 198 794)"/><rect data-name="Rectangle 2215" width="12" height="2" rx="1" transform="rotate(-180 252 699.5)"/><rect data-name="Rectangle 2300" width="12" height="2" rx="1" transform="rotate(-180 252 753.5)"/><rect data-name="Rectangle 2252" width="12" height="2" rx="1" transform="rotate(-180 252 726.5)"/><rect data-name="Rectangle 2301" width="12" height="2" rx="1" transform="rotate(-180 252 780.5)"/><rect data-name="Rectangle 2228" width="12" height="2" rx="1" transform="rotate(-180 252 713)"/><rect data-name="Rectangle 2302" width="12" height="2" rx="1" transform="rotate(-180 252 767)"/><rect data-name="Rectangle 2253" width="12" height="2" rx="1" transform="rotate(-180 252 740)"/><rect data-name="Rectangle 2303" width="12" height="2" rx="1" transform="rotate(-180 252 794)"/><rect data-name="Rectangle 2212" width="12" height="2" rx="1" transform="rotate(-180 225 699.5)"/><rect data-name="Rectangle 2284" width="12" height="2" rx="1" transform="rotate(-180 225 753.5)"/><rect data-name="Rectangle 2245" width="12" height="2" rx="1" transform="rotate(-180 225 726.5)"/><rect data-name="Rectangle 2285" width="12" height="2" rx="1" transform="rotate(-180 225 780.5)"/><rect data-name="Rectangle 2229" width="12" height="2" rx="1" transform="rotate(-180 225 713)"/><rect data-name="Rectangle 2286" width="12" height="2" rx="1" transform="rotate(-180 225 767)"/><rect data-name="Rectangle 2246" width="12" height="2" rx="1" transform="rotate(-180 225 740)"/><rect data-name="Rectangle 2304" width="12" height="2" rx="1" transform="rotate(-180 225 794)"/><rect data-name="Rectangle 2218" width="12" height="2" rx="1" transform="rotate(-180 279 699.5)"/><rect data-name="Rectangle 2322" width="12" height="2" rx="1" transform="rotate(-180 279 753.5)"/><rect data-name="Rectangle 2266" width="12" height="2" rx="1" transform="rotate(-180 279 726.5)"/><rect data-name="Rectangle 2323" width="12" height="2" rx="1" transform="rotate(-180 279 780.5)"/><rect data-name="Rectangle 2234" width="12" height="2" rx="1" transform="rotate(-180 279 713)"/><rect data-name="Rectangle 2324" width="12" height="2" rx="1" transform="rotate(-180 279 767)"/><rect data-name="Rectangle 2267" width="12" height="2" rx="1" transform="rotate(-180 279 740)"/><rect data-name="Rectangle 2325" width="12" height="2" rx="1" transform="rotate(-180 279 794)"/><rect data-name="Rectangle 2208" width="12" height="2" rx="1" transform="rotate(-180 211.5 699.5)"/><rect data-name="Rectangle 2276" width="12" height="2" rx="1" transform="rotate(-180 211.5 753.5)"/><rect data-name="Rectangle 2240" width="12" height="2" rx="1" transform="rotate(-180 211.5 726.5)"/><rect data-name="Rectangle 2287" width="12" height="2" rx="1" transform="rotate(-180 211.5 780.5)"/><rect data-name="Rectangle 2225" width="12" height="2" rx="1" transform="rotate(-180 211.5 713)"/><rect data-name="Rectangle 2277" width="12" height="2" rx="1" transform="rotate(-180 211.5 767)"/><rect data-name="Rectangle 2247" width="12" height="2" rx="1" transform="rotate(-180 211.5 740)"/><rect data-name="Rectangle 2305" width="12" height="2" rx="1" transform="rotate(-180 211.5 794)"/><rect data-name="Rectangle 2216" width="12" height="2" rx="1" transform="rotate(-180 265.5 699.5)"/><rect data-name="Rectangle 2326" width="12" height="2" rx="1" transform="rotate(-180 265.5 753.5)"/><rect data-name="Rectangle 2260" width="12" height="2" rx="1" transform="rotate(-180 265.5 726.5)"/><rect data-name="Rectangle 2327" width="12" height="2" rx="1" transform="rotate(-180 265.5 780.5)"/><rect data-name="Rectangle 2235" width="12" height="2" rx="1" transform="rotate(-180 265.5 713)"/><rect data-name="Rectangle 2328" width="12" height="2" rx="1" transform="rotate(-180 265.5 767)"/><rect data-name="Rectangle 2261" width="12" height="2" rx="1" transform="rotate(-180 265.5 740)"/><rect data-name="Rectangle 2329" width="12" height="2" rx="1" transform="rotate(-180 265.5 794)"/><rect data-name="Rectangle 2213" width="12" height="2" rx="1" transform="rotate(-180 238.5 699.5)"/><rect data-name="Rectangle 2306" width="12" height="2" rx="1" transform="rotate(-180 238.5 753.5)"/><rect data-name="Rectangle 2254" width="12" height="2" rx="1" transform="rotate(-180 238.5 726.5)"/><rect data-name="Rectangle 2307" width="12" height="2" rx="1" transform="rotate(-180 238.5 780.5)"/><rect data-name="Rectangle 2230" width="12" height="2" rx="1" transform="rotate(-180 238.5 713)"/><rect data-name="Rectangle 2308" width="12" height="2" rx="1" transform="rotate(-180 238.5 767)"/><rect data-name="Rectangle 2255" width="12" height="2" rx="1" transform="rotate(-180 238.5 740)"/><rect data-name="Rectangle 2309" width="12" height="2" rx="1" transform="rotate(-180 238.5 794)"/><rect data-name="Rectangle 2220" width="12" height="2" rx="1" transform="rotate(-180 292.5 699.5)"/><rect data-name="Rectangle 2330" width="12" height="2" rx="1" transform="rotate(-180 292.5 753.5)"/><rect data-name="Rectangle 2268" width="12" height="2" rx="1" transform="rotate(-180 292.5 726.5)"/><rect data-name="Rectangle 2331" width="12" height="2" rx="1" transform="rotate(-180 292.5 780.5)"/><rect data-name="Rectangle 2237" width="12" height="2" rx="1" transform="rotate(-180 292.5 713)"/><rect data-name="Rectangle 2332" width="12" height="2" rx="1" transform="rotate(-180 292.5 767)"/><rect data-name="Rectangle 2269" width="12" height="2" rx="1" transform="rotate(-180 292.5 740)"/><rect data-name="Rectangle 2333" width="12" height="2" rx="1" transform="rotate(-180 292.5 794)"/></g></svg>