<?xml version="1.0" standalone="no"?>
<!DOCTYPE svg PUBLIC "-//W3C//DTD SVG 20010904//EN"
 "http://www.w3.org/TR/2001/REC-SVG-20010904/DTD/svg10.dtd">
<svg version="1.0" xmlns="http://www.w3.org/2000/svg"
 width="2560.000000pt" height="2560.000000pt" viewBox="0 0 2560.000000 2560.000000"
 preserveAspectRatio="xMidYMid meet">

<g transform="translate(0.000000,2560.000000) scale(0.100000,-0.100000)"
fill="#000000" stroke="none">
<path d="M12060 25140 c0 -5 11 -10 24 -10 14 0 32 -8 41 -17 15 -15 17 -34
11 -157 -3 -78 -9 -214 -12 -303 -4 -89 -12 -172 -18 -185 -6 -13 -25 -30 -41
-38 l-30 -15 50 -6 c76 -11 155 -10 155 1 0 6 -7 10 -15 10 -30 0 -64 24 -74
52 -9 25 1 484 11 493 2 2 98 -126 213 -284 173 -235 215 -287 237 -289 l26
-3 6 93 c3 51 9 202 14 335 9 255 11 266 59 284 49 19 22 29 -78 29 -96 0
-123 -11 -60 -23 17 -4 38 -18 47 -32 15 -23 16 -47 8 -238 l-9 -212 -188 256
c-177 241 -191 257 -225 263 -58 9 -152 7 -152 -4z"/>
<path d="M11365 25129 c-71 -3 -154 -7 -182 -8 -29 0 -53 -5 -53 -11 0 -5 10
-10 23 -10 13 0 31 -6 41 -13 16 -12 20 -46 33 -320 9 -168 13 -317 9 -332 -5
-18 -15 -27 -36 -32 -17 -3 -30 -10 -30 -16 0 -7 43 -8 128 -4 70 4 198 10
284 13 l157 7 -5 61 c-3 34 -7 89 -10 124 -3 34 -10 62 -15 62 -5 0 -9 -10 -9
-23 0 -45 -31 -128 -61 -162 -33 -37 -105 -59 -176 -53 -52 4 -59 25 -67 196
l-6 142 36 0 c52 0 92 -28 117 -82 12 -27 26 -48 30 -48 5 0 6 21 3 48 -3 26
-8 91 -12 145 -3 53 -9 97 -13 97 -4 0 -13 -19 -20 -42 -18 -58 -60 -98 -104
-98 l-34 0 -6 68 c-11 112 -8 247 5 260 19 19 154 15 188 -5 32 -19 63 -69 79
-130 16 -59 36 -56 27 3 -3 26 -6 75 -6 110 l0 64 -92 -2 c-51 -1 -151 -5
-223 -9z"/>
<path d="M13095 25086 c-2 -6 -6 -50 -9 -97 -3 -47 -9 -100 -12 -117 -11 -55
10 -35 51 51 48 99 83 127 157 127 l48 0 -5 -37 c-3 -21 -21 -165 -40 -320
-18 -155 -39 -291 -45 -302 -11 -22 -45 -35 -77 -29 -11 2 -21 -1 -22 -7 -1
-6 58 -17 136 -27 76 -9 159 -19 186 -22 58 -8 61 5 5 24 -43 15 -43 15 -46
70 -3 52 62 617 71 627 3 2 24 -1 48 -7 74 -20 112 -80 126 -200 7 -57 20 -65
27 -17 2 17 11 73 19 122 8 50 14 92 12 93 -2 2 -131 19 -287 38 -156 18 -296
35 -311 37 -16 2 -30 -1 -32 -7z"/>
<path d="M10485 25052 c-154 -19 -281 -35 -282 -36 0 -1 5 -37 12 -81 7 -44
16 -102 20 -129 8 -60 18 -50 33 32 6 35 19 80 29 100 21 44 75 82 114 82 33
0 26 33 74 -353 26 -210 33 -293 25 -307 -13 -24 -41 -40 -69 -40 -12 0 -21
-4 -21 -10 0 -14 23 -13 200 10 85 11 161 20 168 20 6 0 12 5 12 10 0 6 -20
10 -45 10 -36 0 -48 5 -60 24 -11 17 -28 123 -55 338 -21 172 -36 316 -33 321
8 13 74 8 108 -9 39 -18 78 -71 104 -140 20 -51 50 -77 38 -33 -4 13 -10 70
-14 127 l-6 102 -36 -1 c-20 -1 -162 -17 -316 -37z"/>
<path d="M9767 24941 c-78 -16 -102 -34 -51 -38 41 -3 52 -10 67 -40 17 -34
93 -391 84 -399 -3 -3 -113 84 -245 195 l-240 200 -86 -16 c-85 -17 -113 -33
-56 -33 20 0 34 -7 43 -22 17 -28 127 -548 127 -600 0 -29 -6 -42 -32 -62 -40
-31 -29 -32 79 -9 85 18 115 33 66 33 -19 0 -43 9 -58 23 -23 19 -31 49 -75
256 -27 129 -48 236 -47 237 2 2 126 -100 277 -226 235 -197 279 -229 300
-224 14 3 26 6 26 7 1 1 -27 137 -62 302 -72 342 -75 375 -39 403 46 37 38 38
-78 13z"/>
<path d="M14673 24796 c-166 -54 -263 -201 -264 -398 0 -63 5 -89 27 -138 45
-102 153 -180 273 -199 47 -7 70 -5 174 14 39 8 43 3 37 -49 -1 -11 3 -17 11
-14 12 4 73 247 65 256 -10 9 -23 -9 -36 -48 -32 -95 -125 -159 -216 -146
-109 15 -155 78 -162 222 -9 197 92 427 204 464 127 42 261 -72 252 -214 -1
-31 1 -57 6 -58 5 -2 24 52 42 120 25 96 29 122 18 122 -8 0 -14 -6 -14 -13 0
-7 -6 -22 -14 -33 -14 -18 -17 -17 -63 28 -26 26 -70 57 -98 69 -62 28 -181
35 -242 15z"/>
<path d="M8540 24644 c-106 -29 -201 -108 -241 -202 -76 -175 9 -423 176 -510
44 -24 61 -27 150 -27 91 0 106 3 166 31 87 41 141 92 178 165 39 78 48 162
27 253 -55 237 -233 350 -456 290z m96 -35 c119 -57 217 -264 218 -459 1 -73
-3 -93 -25 -135 -20 -41 -34 -53 -72 -69 -40 -17 -51 -18 -88 -7 -119 36 -232
235 -246 434 -9 129 28 220 97 244 50 17 68 16 116 -8z"/>
<path d="M15450 24623 c0 -5 14 -16 30 -25 17 -9 30 -25 30 -35 0 -32 -189
-586 -207 -605 -10 -11 -28 -18 -43 -16 -14 1 -27 -2 -30 -6 -6 -11 279 -108
292 -100 5 4 -4 15 -21 25 -17 10 -31 27 -31 36 0 10 21 80 46 156 44 132 47
138 70 133 95 -24 102 -40 84 -194 -21 -179 -15 -202 57 -238 46 -23 146 -26
165 -5 11 11 9 13 -11 8 -13 -3 -33 -1 -43 4 -19 10 -19 19 -13 138 9 150 1
175 -72 221 l-45 29 70 0 c77 0 111 12 154 58 48 51 62 127 34 182 -21 39 -76
86 -133 111 -48 22 -360 130 -375 130 -4 0 -8 -3 -8 -7z m315 -118 c17 -9 38
-28 46 -42 32 -59 -4 -198 -63 -248 -33 -28 -83 -33 -139 -14 -19 7 -35 13
-36 14 -4 2 83 259 96 283 14 26 49 29 96 7z"/>
<path d="M7839 24404 c-1 -5 -2 -25 -3 -44 -1 -29 -4 -35 -21 -32 -87 12 -145
12 -186 -1 -103 -32 -200 -122 -234 -216 -50 -142 2 -332 122 -441 70 -64 129
-84 237 -78 111 6 191 42 253 115 25 29 51 53 58 53 7 0 19 -10 28 -22 34 -51
25 -3 -19 106 -46 112 -74 151 -60 84 21 -99 19 -134 -10 -188 -43 -80 -126
-121 -201 -101 -126 34 -256 248 -270 442 -9 129 28 197 123 225 99 29 185 -8
241 -103 44 -76 44 -33 -1 85 -41 108 -55 135 -57 116z"/>
<path d="M16416 24281 c-4 -5 3 -12 14 -16 33 -10 42 -38 26 -82 -18 -52 -182
-434 -214 -502 -28 -56 -55 -75 -85 -59 -21 11 -36 3 -21 -11 12 -12 498 -221
513 -221 6 0 11 5 11 11 0 5 18 53 41 105 22 53 39 100 37 106 -2 6 -21 -12
-42 -41 -43 -58 -108 -101 -154 -101 -47 0 -160 48 -167 71 -4 12 16 72 52
156 54 127 61 138 84 135 13 -1 36 -16 52 -32 23 -26 27 -39 27 -90 0 -33 4
-60 8 -60 4 0 16 24 27 53 10 28 35 89 56 134 20 45 35 84 32 87 -3 3 -25 -12
-49 -34 -51 -47 -80 -56 -128 -40 -20 6 -36 13 -36 15 0 6 98 232 114 264 21
40 45 40 125 0 83 -41 95 -67 88 -176 -2 -46 -2 -83 2 -83 5 0 75 150 87 190
4 12 -50 40 -237 120 -133 58 -245 106 -249 108 -5 2 -11 -1 -14 -7z"/>
<path d="M17185 23604 c-250 -225 -313 -274 -352 -274 -43 0 -23 -20 67 -65
50 -25 90 -42 90 -39 0 4 -13 22 -30 40 -25 29 -28 37 -19 62 5 15 39 57 75
93 l65 64 96 -50 c52 -27 98 -56 100 -63 9 -21 -18 -210 -32 -229 -12 -15 -18
-16 -44 -6 -17 6 -33 7 -36 3 -6 -10 263 -155 271 -147 3 3 1 14 -5 25 -16 30
-14 62 24 404 43 381 42 371 10 386 -14 7 -29 12 -33 11 -4 0 -115 -97 -247
-215z m120 -69 l-18 -134 -81 41 c-44 22 -86 45 -93 50 -9 7 18 36 95 105 58
52 108 90 110 83 2 -6 -4 -72 -13 -145z"/>
<path d="M17946 23492 c-10 -21 -37 -70 -61 -108 -24 -38 -40 -71 -34 -72 5
-2 31 16 59 41 56 50 106 77 144 77 29 0 90 -23 99 -37 7 -11 -333 -553 -355
-567 -17 -10 -24 -9 -92 19 -12 6 -17 4 -15 -3 4 -12 305 -202 320 -202 17 0
9 17 -15 29 -41 22 -49 56 -25 102 17 34 314 516 324 527 8 9 64 -33 79 -60
22 -36 22 -116 2 -183 -29 -94 -14 -89 52 18 29 45 59 92 67 103 15 21 10 25
-244 183 -143 89 -266 164 -274 166 -9 4 -20 -8 -31 -33z"/>
<path d="M6505 23486 c-16 -8 -42 -26 -57 -42 -114 -122 -7 -314 160 -289 85
13 154 112 138 198 -20 109 -143 176 -241 133z"/>
<path d="M5368 23121 c-42 -17 -87 -45 -310 -197 -62 -42 -82 -77 -29 -49 49
25 38 38 244 -261 181 -264 183 -268 162 -300 -8 -13 -21 -24 -27 -24 -8 0 -9
-3 -2 -10 8 -8 49 15 137 76 70 48 127 92 127 97 0 5 -8 6 -17 2 -58 -24 -64
-19 -167 132 l-76 112 33 25 c39 30 82 33 117 9 14 -9 64 -54 111 -100 95 -91
117 -99 185 -67 42 20 104 88 104 114 0 17 -2 17 -25 -6 -31 -31 -44 -25 -130
56 -33 31 -71 64 -85 73 -33 23 -105 21 -160 -4 l-45 -20 36 38 c53 55 73 99
72 160 -1 132 -117 198 -255 144z m43 -98 c57 -51 92 -115 93 -170 1 -42 -3
-49 -47 -89 -27 -24 -52 -44 -56 -44 -7 0 -150 207 -170 248 -14 27 -5 46 35
73 48 31 97 25 145 -18z"/>
<path d="M18771 22890 c-110 -23 -222 -114 -282 -231 -31 -59 -34 -71 -34
-159 0 -82 3 -102 25 -144 79 -155 279 -250 437 -205 102 28 213 131 265 247
33 70 32 210 -1 272 -37 72 -81 120 -145 162 -86 56 -178 76 -265 58z m274
-91 c108 -95 39 -323 -152 -500 -103 -95 -196 -122 -263 -77 -53 36 -72 81
-66 154 9 113 71 230 182 342 111 111 228 143 299 81z"/>
<path d="M4461 22462 c-118 -97 -208 -178 -202 -180 7 -2 18 1 24 7 20 20 52
12 84 -21 54 -57 365 -442 376 -466 8 -18 6 -27 -11 -45 -25 -27 -28 -42 -8
-34 13 5 383 304 425 343 11 10 5 22 -40 75 -30 34 -66 76 -81 93 -37 44 -42
30 -11 -34 34 -71 41 -136 19 -181 -19 -37 -114 -119 -139 -119 -9 0 -61 55
-116 122 -108 131 -108 133 -46 162 39 19 72 14 123 -16 18 -11 35 -18 38 -15
8 8 -177 227 -187 222 -4 -3 -1 -21 7 -40 23 -56 18 -112 -12 -140 -15 -14
-31 -25 -35 -25 -13 0 -183 208 -194 237 -9 23 -5 30 35 66 96 85 158 85 263
0 41 -33 55 -17 19 21 -16 17 -48 57 -72 89 -23 31 -43 57 -44 56 0 0 -97 -80
-215 -177z"/>
<path d="M19630 22341 c0 -5 7 -14 15 -21 30 -25 16 -57 -67 -152 -175 -200
-331 -369 -347 -378 -12 -6 -27 -4 -45 6 -33 16 -36 17 -36 6 0 -12 231 -215
237 -208 4 3 -1 14 -10 24 -10 10 -17 28 -17 39 0 12 44 71 102 137 l101 117
40 -38 c35 -34 38 -42 34 -76 -3 -22 -31 -81 -66 -140 -68 -113 -75 -147 -40
-203 26 -43 95 -84 140 -84 l34 1 -32 14 c-45 19 -43 40 17 150 63 116 66 159
17 231 l-32 49 55 -28 c134 -69 280 2 280 135 0 82 -59 156 -281 352 -85 75
-99 84 -99 67z m234 -221 c55 -61 47 -114 -31 -201 -78 -86 -160 -92 -231 -16
l-23 24 100 111 c129 142 130 142 185 82z"/>
<path d="M3895 21970 c-70 -71 -74 -83 -17 -54 19 9 41 13 54 9 19 -6 322
-305 315 -311 -1 -1 -144 17 -317 40 l-315 43 -62 -61 c-65 -62 -82 -91 -38
-62 13 9 32 16 41 16 17 0 402 -387 436 -439 21 -30 23 -72 6 -89 -6 -6 -8
-15 -5 -19 8 -7 147 125 147 139 0 4 -18 -2 -39 -13 -36 -19 -42 -19 -68 -5
-24 13 -157 143 -306 302 -47 49 -47 51 -20 47 15 -2 177 -23 358 -48 449 -60
438 -78 144 225 -123 128 -230 243 -237 257 -13 24 -13 38 3 76 14 33 -11 17
-80 -53z"/>
<path d="M3240 21315 c0 -4 9 -18 20 -32 11 -14 20 -29 20 -34 0 -4 -24 -15
-53 -23 -129 -37 -221 -145 -247 -288 -29 -154 73 -328 242 -413 62 -30 80
-35 142 -34 86 0 137 19 211 78 69 55 109 118 131 204 18 74 31 86 71 68 47
-22 38 0 -22 52 -33 28 -82 72 -108 98 -42 41 -47 50 -38 68 6 11 7 22 3 25
-7 4 -161 -162 -201 -217 -21 -30 -3 -33 27 -4 16 15 37 27 48 27 22 0 145
-97 169 -133 19 -30 9 -65 -32 -110 -44 -48 -91 -63 -158 -48 -121 27 -308
181 -364 301 -42 89 -42 150 0 213 59 90 168 113 272 57 31 -16 58 -26 61 -21
3 4 -36 43 -85 87 -90 78 -109 92 -109 79z"/>
<path d="M2532 20460 c-88 -114 -119 -168 -69 -122 13 12 32 22 43 22 17 0
198 -131 462 -335 56 -44 71 -73 53 -111 -24 -53 12 -19 98 94 87 112 120 173
68 124 -13 -12 -32 -22 -44 -22 -29 0 -506 365 -518 396 -6 17 -5 31 3 44 14
23 15 30 4 30 -5 0 -50 -54 -100 -120z"/>
<path d="M2224 20025 c3 -8 9 -21 12 -29 4 -10 -13 -26 -49 -49 -82 -53 -133
-131 -144 -218 -7 -63 10 -111 57 -153 69 -62 150 -61 309 3 135 55 185 61
239 31 51 -29 66 -57 59 -111 -6 -49 -30 -85 -78 -117 -45 -32 -130 -27 -211
10 -37 17 -58 22 -58 15 1 -16 218 -163 227 -154 4 4 1 13 -5 19 -22 22 -13
37 43 72 154 99 208 308 103 402 -77 71 -155 71 -333 0 -136 -55 -181 -64
-225 -46 -92 38 -91 153 2 210 41 25 131 27 188 4 23 -9 44 -14 47 -10 4 3 4
7 2 9 -56 42 -181 127 -185 127 -4 0 -3 -7 0 -15z"/>
<path d="M1624 19078 c-148 -265 -161 -294 -100 -233 21 21 29 23 53 15 50
-18 536 -296 547 -313 7 -12 7 -26 -1 -47 -8 -23 -8 -30 0 -30 11 0 292 489
285 495 -29 20 -218 112 -218 105 0 -5 20 -28 44 -50 85 -78 98 -153 44 -251
-34 -62 -52 -75 -84 -62 -56 23 -254 140 -254 150 0 7 13 27 29 45 28 32 33
33 100 32 39 0 71 2 71 6 0 3 -21 16 -47 29 -27 12 -83 43 -126 68 -43 24 -81
43 -83 40 -3 -2 11 -28 31 -57 39 -58 43 -92 17 -132 l-18 -27 -123 69 c-146
82 -151 86 -151 114 0 36 62 127 100 147 42 23 71 24 138 4 76 -23 84 -8 15
29 -32 17 -72 41 -88 52 -17 11 -35 23 -41 27 -6 3 -65 -92 -140 -225z"/>
<path d="M1445 18429 c-64 -9 -110 -34 -162 -86 -59 -58 -90 -112 -178 -306
-66 -146 -76 -187 -34 -133 18 23 27 27 51 22 38 -8 534 -235 564 -259 21 -16
24 -24 18 -55 -11 -61 10 -28 82 128 92 203 98 221 99 325 0 79 -4 97 -28 146
-68 139 -261 241 -412 218z m33 -149 c40 -11 108 -38 151 -59 197 -100 259
-205 197 -337 -28 -60 -43 -68 -93 -50 -33 12 -330 147 -491 223 -70 33 -78
50 -52 112 26 59 65 98 116 116 54 19 88 18 172 -5z"/>
<path d="M1042 16929 c-139 -69 -114 -278 39 -319 136 -37 259 102 205 231
-41 96 -148 135 -244 88z"/>
<path d="M484 15826 c-42 -18 -96 -84 -116 -143 -9 -26 -31 -120 -48 -208 -17
-88 -34 -170 -37 -182 -8 -34 13 -28 26 7 9 27 14 30 53 30 51 0 578 -104 608
-120 14 -8 20 -21 20 -45 0 -72 18 -30 44 103 15 75 29 145 32 155 8 27 -15
20 -26 -8 -5 -14 -17 -28 -25 -31 -8 -4 -83 6 -165 22 l-150 28 6 35 c8 46 34
84 65 92 13 4 78 8 144 8 135 1 159 9 189 61 28 47 29 151 3 177 -18 17 -18
17 -12 -10 12 -47 -5 -55 -136 -62 -143 -9 -168 -22 -210 -105 l-28 -55 -1 55
c-1 98 -55 177 -138 200 -47 13 -60 12 -98 -4z m86 -167 c92 -20 136 -81 120
-168 -4 -23 -10 -44 -12 -46 -6 -6 -254 43 -292 57 -27 11 -28 14 -24 60 10
95 74 126 208 97z"/>
<path d="M226 14898 c-4 -18 -17 -132 -31 -253 -14 -121 -27 -230 -29 -242 -5
-34 20 -28 27 6 7 32 30 42 80 35 18 -2 150 -18 294 -34 144 -17 274 -35 288
-40 20 -8 25 -16 25 -45 0 -19 4 -35 9 -35 11 0 14 20 46 300 14 124 28 234
30 246 4 20 -2 21 -103 32 -59 7 -115 12 -124 12 -33 0 -18 -16 27 -29 59 -17
104 -48 133 -91 21 -31 23 -43 20 -113 -7 -116 -3 -114 -192 -92 -171 19 -167
17 -140 85 18 44 46 64 107 75 20 4 37 10 37 14 0 4 -55 13 -122 20 -68 7
-136 15 -152 18 -42 8 -30 -12 24 -40 56 -29 83 -72 74 -116 l-7 -33 -76 7
c-150 14 -234 30 -244 46 -6 9 -7 43 -2 84 6 62 11 73 44 106 26 27 48 38 81
43 130 20 131 28 8 43 -51 6 -101 14 -110 18 -13 5 -18 0 -22 -27z"/>
<path d="M274 14059 c-41 -12 -110 -87 -124 -135 -24 -83 -43 -441 -24 -446 5
-2 10 7 12 19 6 39 25 45 138 44 205 -2 526 -21 539 -31 7 -6 15 -24 19 -40
11 -60 26 -30 26 53 0 46 3 125 6 175 5 60 3 92 -3 92 -6 0 -13 -17 -17 -39
-10 -62 -15 -64 -177 -62 l-96 1 -6 96 c-10 147 -47 215 -142 260 -52 25 -98
29 -151 13z m195 -186 c49 -24 81 -75 81 -129 0 -24 -3 -44 -7 -47 -17 -8
-353 12 -372 23 -16 8 -21 20 -21 50 0 69 27 103 95 121 48 13 183 2 224 -18z"/>
<path d="M349 13147 c-139 -48 -218 -155 -227 -307 -14 -246 159 -415 408
-397 189 13 312 118 340 292 11 69 -1 168 -30 232 -29 65 -101 136 -173 169
-88 40 -223 45 -318 11z m373 -176 c35 -14 70 -37 92 -61 31 -34 36 -47 36
-88 0 -119 -126 -198 -335 -209 -119 -6 -199 7 -275 45 -73 36 -103 81 -97
143 7 85 77 146 207 181 94 26 292 20 372 -11z"/>
<path d="M820 12170 c-25 -4 -71 -11 -102 -14 -32 -4 -58 -11 -58 -16 0 -4 21
-11 48 -15 64 -9 134 -41 167 -75 29 -30 44 -81 45 -147 0 -40 -2 -43 -37 -52
-59 -16 -598 -80 -622 -74 -13 3 -24 17 -29 36 -10 40 -34 49 -27 10 5 -27 35
-275 35 -287 0 -3 5 -6 10 -6 6 0 10 11 10 24 0 19 22 56 33 56 1 0 126 16
277 35 151 19 296 35 322 35 45 0 47 -1 58 -36 28 -85 26 -1 -6 251 -18 149
-34 273 -34 278 0 8 -27 8 -90 -3z"/>
<path d="M13983 11358 c-68 -22 -107 -99 -89 -175 5 -20 1231 -1252 4159
-4181 2284 -2284 4165 -4160 4181 -4169 98 -52 229 59 196 164 -10 31 -796
822 -4159 4186 -2397 2399 -4162 4156 -4183 4168 -41 21 -57 22 -105 7z"/>
<path d="M955 11275 c-27 -7 -76 -19 -108 -25 -68 -14 -66 -30 5 -30 122 0
187 -51 208 -164 11 -59 11 -70 -3 -83 -13 -14 -254 -72 -299 -73 -15 0 -18 9
-18 49 0 57 29 100 80 121 42 18 24 36 -22 22 -18 -6 -69 -18 -113 -27 -44 -9
-90 -18 -102 -21 -36 -7 -27 -21 18 -28 57 -9 93 -30 107 -61 24 -53 18 -62
-60 -79 -214 -47 -229 -49 -245 -33 -25 24 -44 126 -33 169 12 42 64 92 121
114 45 18 53 39 12 31 -16 -3 -64 -11 -108 -18 -44 -7 -81 -13 -83 -14 -1 -1
22 -122 53 -270 30 -147 55 -269 55 -272 0 -2 5 -1 10 2 6 3 10 21 10 39 0 27
5 36 28 45 49 19 566 122 602 119 27 -2 38 -9 48 -30 17 -36 34 -36 26 -1 -4
14 -30 139 -59 277 -37 185 -55 251 -65 253 -8 1 -37 -5 -65 -12z"/>
<path d="M490 10303 c0 -23 54 -193 61 -193 5 0 9 17 9 38 0 51 26 74 91 80
65 6 461 -18 457 -28 -2 -5 -55 -48 -118 -96 -63 -48 -151 -115 -195 -149
-126 -97 -149 -105 -166 -55 -10 27 -29 42 -29 23 0 -20 84 -293 90 -293 4 0
13 13 20 29 8 20 103 101 302 257 283 222 290 228 284 257 -3 17 -9 33 -11 36
-3 2 -148 15 -323 27 -372 26 -388 28 -427 54 -32 21 -45 25 -45 13z"/>
<path d="M1395 9559 c-38 -16 -86 -35 -107 -41 -60 -18 -45 -30 30 -23 88 9
142 -6 180 -50 38 -43 71 -139 56 -163 -14 -22 -284 -126 -296 -114 -5 5 -12
28 -15 50 -6 47 20 100 62 122 24 13 34 30 18 30 -18 0 -273 -104 -273 -112 0
-4 26 -8 59 -8 67 0 102 -21 120 -70 9 -28 8 -32 -17 -41 -164 -64 -268 -99
-279 -95 -20 8 -63 111 -63 152 0 59 31 101 122 165 40 29 16 26 -93 -11
l-107 -37 97 -256 c53 -143 101 -257 108 -257 9 0 10 7 4 23 -17 44 2 63 101
101 328 126 467 177 495 182 28 5 34 2 51 -26 46 -75 25 3 -67 245 -54 143
-102 260 -107 261 -5 1 -40 -11 -79 -27z"/>
<path d="M1533 8685 c-113 -25 -220 -98 -270 -182 -39 -66 -44 -184 -13 -277
30 -91 167 -376 181 -376 7 0 8 7 4 18 -11 25 -8 53 7 68 14 14 492 243 553
265 36 13 38 13 61 -16 49 -62 32 -10 -54 167 -78 160 -97 190 -146 236 -98
93 -203 124 -323 97z m304 -134 c73 -34 137 -151 102 -186 -19 -19 -560 -275
-580 -275 -59 0 -101 156 -63 236 25 53 109 121 208 169 154 75 254 91 333 56z"/>
<path d="M2293 7439 c-23 -11 -52 -36 -63 -54 -28 -45 -29 -133 -1 -202 11
-29 19 -53 17 -53 -2 0 -26 15 -54 34 -83 55 -165 55 -224 0 -57 -55 -59 -131
-8 -234 40 -82 203 -327 207 -313 2 7 -1 21 -7 32 -22 42 -21 43 319 260 215
138 246 150 274 109 8 -13 18 -20 22 -16 10 9 -180 309 -234 370 -74 83 -166
108 -248 67z m261 -133 c18 -13 40 -40 51 -59 19 -35 19 -37 0 -57 -10 -11
-72 -54 -137 -96 -132 -85 -131 -85 -167 -10 -43 89 -15 159 86 214 72 39 123
42 167 8z m-266 -253 c17 -20 32 -40 32 -45 0 -9 -185 -131 -238 -156 -34 -16
-34 -16 -58 11 -13 15 -27 39 -30 52 -13 52 64 133 158 166 67 24 95 18 136
-28z"/>
<path d="M2869 6736 c-36 -29 -79 -62 -95 -73 -44 -33 -24 -36 50 -8 77 29
115 31 161 9 39 -18 115 -113 115 -143 0 -14 -38 -50 -122 -115 -113 -86 -124
-93 -140 -79 -43 38 -42 114 1 169 42 53 8 41 -77 -27 -48 -39 -99 -78 -115
-87 -27 -16 -32 -40 -6 -33 103 28 124 26 164 -17 14 -15 25 -29 25 -32 0 -11
-248 -190 -263 -190 -19 0 -95 94 -103 127 -12 48 3 103 45 157 22 30 38 56
35 59 -3 3 -34 -16 -68 -41 -34 -26 -75 -56 -89 -67 l-27 -20 151 -200 c83
-110 159 -209 170 -220 16 -17 19 -17 19 -3 0 9 -4 20 -10 23 -19 12 -10 41
23 72 17 18 131 106 252 197 225 171 250 183 287 149 10 -9 21 -14 24 -11 4 5
-333 459 -339 458 -1 -1 -32 -25 -68 -54z"/>
<path d="M3500 5894 c-52 -25 -122 -59 -155 -74 -33 -15 -123 -58 -200 -95
-117 -57 -149 -68 -198 -70 -31 -1 -59 -4 -62 -6 -2 -2 27 -38 65 -79 37 -41
71 -72 75 -68 4 4 0 17 -9 30 -9 12 -16 30 -16 39 0 26 47 77 94 101 100 53
346 166 346 160 0 -4 -56 -104 -124 -222 -130 -227 -144 -243 -187 -204 -32
29 -35 6 -3 -29 135 -146 165 -177 170 -180 3 -1 7 16 9 38 1 26 18 68 48 120
l46 80 146 64 c80 35 147 62 149 60 6 -6 -218 -409 -242 -436 -16 -18 -27 -22
-47 -17 -14 3 -25 3 -25 -1 0 -10 181 -205 191 -205 5 0 6 13 3 28 -7 34 -8
31 193 409 87 164 142 277 137 285 -28 51 -21 52 -256 -53 -121 -55 -222 -98
-224 -97 -1 2 51 97 116 213 l119 210 -21 22 c-12 13 -26 23 -32 23 -6 0 -54
-21 -106 -46z"/>
</g>
</svg>
