<svg version="1.0" xmlns="http://www.w3.org/2000/svg" width="500" viewBox="0 0 2560 2560"><path d="M1206 46c0 .5 1.1 1 2.4 1 1.4 0 3.2.8 4.1 1.7 1.5 1.5 1.7 3.4 1.1 15.7-.3 7.8-.9 21.4-1.2 30.3-.4 8.9-1.2 17.2-1.8 18.5-.6 1.3-2.5 3-4.1 3.8l-3 1.5 5 .6c7.6 1.1 15.5 1 15.5-.1 0-.6-.7-1-1.5-1-3 0-6.4-2.4-7.4-5.2-.9-2.5.1-48.4 1.1-49.3.2-.2 9.8 12.6 21.3 28.4 17.3 23.5 21.5 28.7 23.7 28.9l2.6.3.6-9.3c.3-5.1.9-20.2 1.4-33.5.9-25.5 1.1-26.6 5.9-28.4 4.9-1.9 2.2-2.9-7.8-2.9-9.6 0-12.3 1.1-6 2.3 1.7.4 3.8 1.8 4.7 3.2 1.5 2.3 1.6 4.7.8 23.8l-.9 21.2-18.8-25.6c-17.7-24.1-19.1-25.7-22.5-26.3-5.8-.9-15.2-.7-15.2.4zm-69.5 1.1c-7.1.3-15.4.7-18.2.8-2.9 0-5.3.5-5.3 1.1 0 .5 1 1 2.3 1 1.3 0 3.1.6 4.1 1.3 1.6 1.2 2 4.6 3.3 32 .9 16.8 1.3 31.7.9 33.2-.5 1.8-1.5 2.7-3.6 3.2-1.7.3-3 1-3 1.6 0 .7 4.3.8 12.8.4 7-.4 19.8-1 28.4-1.3l15.7-.7-.5-6.1c-.3-3.4-.7-8.9-1-12.4-.3-3.4-1-6.2-1.5-6.2s-.9 1-.9 2.3c0 4.5-3.1 12.8-6.1 16.2-3.3 3.7-10.5 5.9-17.6 5.3-5.2-.4-5.9-2.5-6.7-19.6L1139 85h3.6c5.2 0 9.2 2.8 11.7 8.2 1.2 2.7 2.6 4.8 3 4.8.5 0 .6-2.1.3-4.8-.3-2.6-.8-9.1-1.2-14.5-.3-5.3-.9-9.7-1.3-9.7s-1.3 1.9-2 4.2c-1.8 5.8-6 9.8-10.4 9.8h-3.4l-.6-6.8c-1.1-11.2-.8-24.7.5-26 1.9-1.9 15.4-1.5 18.8.5 3.2 1.9 6.3 6.9 7.9 13 1.6 5.9 3.6 5.6 2.7-.3-.3-2.6-.6-7.5-.6-11V46l-9.2.2c-5.1.1-15.1.5-22.3.9zm173 4.3c-.2.6-.6 5-.9 9.7-.3 4.7-.9 10-1.2 11.7-1.1 5.5 1 3.5 5.1-5.1 4.8-9.9 8.3-12.7 15.7-12.7h4.8l-.5 3.7c-.3 2.1-2.1 16.5-4 32-1.8 15.5-3.9 29.1-4.5 30.2-1.1 2.2-4.5 3.5-7.7 2.9-1.1-.2-2.1.1-2.2.7-.1.6 5.8 1.7 13.6 2.7 7.6.9 15.9 1.9 18.6 2.2 5.8.8 6.1-.5.5-2.4-4.3-1.5-4.3-1.5-4.6-7-.3-5.2 6.2-61.7 7.1-62.7.3-.2 2.4.1 4.8.7 7.4 2 11.2 8 12.6 20 .7 5.7 2 6.5 2.7 1.7.2-1.7 1.1-7.3 1.9-12.2.8-5 1.4-9.2 1.2-9.3-.2-.2-13.1-1.9-28.7-3.8-15.6-1.8-29.6-3.5-31.1-3.7-1.6-.2-3 .1-3.2.7zm-261 3.4c-15.4 1.9-28.1 3.5-28.2 3.6 0 .1.5 3.7 1.2 8.1.7 4.4 1.6 10.2 2 12.9.8 6 1.8 5 3.3-3.2.6-3.5 1.9-8 2.9-10 2.1-4.4 7.5-8.2 11.4-8.2 3.3 0 2.6-3.3 7.4 35.3 2.6 21 3.3 29.3 2.5 30.7-1.3 2.4-4.1 4-6.9 4-1.2 0-2.1.4-2.1 1 0 1.4 2.3 1.3 20-1 8.5-1.1 16.1-2 16.8-2 .6 0 1.2-.5 1.2-1 0-.6-2-1-4.5-1-3.6 0-4.8-.5-6-2.4-1.1-1.7-2.8-12.3-5.5-33.8-2.1-17.2-3.6-31.6-3.3-32.1.8-1.3 7.4-.8 10.8.9 3.9 1.8 7.8 7.1 10.4 14 2 5.1 5 7.7 3.8 3.3-.4-1.3-1-7-1.4-12.7l-.6-10.2-3.6.1c-2 .1-16.2 1.7-31.6 3.7zm-71.8 11.1c-7.8 1.6-10.2 3.4-5.1 3.8 4.1.3 5.2 1 6.7 4 1.7 3.4 9.3 39.1 8.4 39.9-.3.3-11.3-8.4-24.5-19.5l-24-20-8.6 1.6c-8.5 1.7-11.3 3.3-5.6 3.3 2 0 3.4.7 4.3 2.2C930 84 941 136 941 141.2c0 2.9-.6 4.2-3.2 6.2-4 3.1-2.9 3.2 7.9.9 8.5-1.8 11.5-3.3 6.6-3.3-1.9 0-4.3-.9-5.8-2.3-2.3-1.9-3.1-4.9-7.5-25.6-2.7-12.9-4.8-23.6-4.7-23.7.2-.2 12.6 10 27.7 22.6 23.5 19.7 27.9 22.9 30 22.4 1.4-.3 2.6-.6 2.6-.7.1-.1-2.7-13.7-6.2-30.2-7.2-34.2-7.5-37.5-3.9-40.3 4.6-3.7 3.8-3.8-7.8-1.3zm490.6 14.5c-16.6 5.4-26.3 20.1-26.4 39.8 0 6.3.5 8.9 2.7 13.8 4.5 10.2 15.3 18 27.3 19.9 4.7.7 7 .5 17.4-1.4 3.9-.8 4.3-.3 3.7 4.9-.1 1.1.3 1.7 1.1 1.4 1.2-.4 7.3-24.7 6.5-25.6-1-.9-2.3.9-3.6 4.8-3.2 9.5-12.5 15.9-21.6 14.6-10.9-1.5-15.5-7.8-16.2-22.2-.9-19.7 9.2-42.7 20.4-46.4 12.7-4.2 26.1 7.2 25.2 21.4-.1 3.1.1 5.7.6 5.8.5.2 2.4-5.2 4.2-12 2.5-9.6 2.9-12.2 1.8-12.2-.8 0-1.4.6-1.4 1.3 0 .7-.6 2.2-1.4 3.3-1.4 1.8-1.7 1.7-6.3-2.8-2.6-2.6-7-5.7-9.8-6.9-6.2-2.8-18.1-3.5-24.2-1.5zM854 95.6c-10.6 2.9-20.1 10.8-24.1 20.2-7.6 17.5.9 42.3 17.6 51 4.4 2.4 6.1 2.7 15 2.7 9.1 0 10.6-.3 16.6-3.1 8.7-4.1 14.1-9.2 17.8-16.5 3.9-7.8 4.8-16.2 2.7-25.3-5.5-23.7-23.3-35-45.6-29zm9.6 3.5c11.9 5.7 21.7 26.4 21.8 45.9.1 7.3-.3 9.3-2.5 13.5-2 4.1-3.4 5.3-7.2 6.9-4 1.7-5.1 1.8-8.8.7-11.9-3.6-23.2-23.5-24.6-43.4-.9-12.9 2.8-22 9.7-24.4 5-1.7 6.8-1.6 11.6.8zm681.4-1.4c0 .5 1.4 1.6 3 2.5 1.7.9 3 2.5 3 3.5 0 3.2-18.9 58.6-20.7 60.5-1 1.1-2.8 1.8-4.3 1.6-1.4-.1-2.7.2-3 .6-.6 1.1 27.9 10.8 29.2 10 .5-.4-.4-1.5-2.1-2.5-1.7-1-3.1-2.7-3.1-3.6 0-1 2.1-8 4.6-15.6 4.4-13.2 4.7-13.8 7-13.3 9.5 2.4 10.2 4 8.4 19.4-2.1 17.9-1.5 20.2 5.7 23.8 4.6 2.3 14.6 2.6 16.5.5 1.1-1.1.9-1.3-1.1-.8-1.3.3-3.3.1-4.3-.4-1.9-1-1.9-1.9-1.3-13.8.9-15 .1-17.5-7.2-22.1l-4.5-2.9h7c7.7 0 11.1-1.2 15.4-5.8 4.8-5.1 6.2-12.7 3.4-18.2-2.1-3.9-7.6-8.6-13.3-11.1-4.8-2.2-36-13-37.5-13-.4 0-.8.3-.8.7zm31.5 11.8c1.7.9 3.8 2.8 4.6 4.2 3.2 5.9-.4 19.8-6.3 24.8-3.3 2.8-8.3 3.3-13.9 1.4-1.9-.7-3.5-1.3-3.6-1.4-.4-.2 8.3-25.9 9.6-28.3 1.4-2.6 4.9-2.9 9.6-.7zm-792.6 10.1c-.1.5-.2 2.5-.3 4.4-.1 2.9-.4 3.5-2.1 3.2-8.7-1.2-14.5-1.2-18.6.1-10.3 3.2-20 12.2-23.4 21.6-5 14.2.2 33.2 12.2 44.1 7 6.4 12.9 8.4 23.7 7.8 11.1-.6 19.1-4.2 25.3-11.5 2.5-2.9 5.1-5.3 5.8-5.3.7 0 1.9 1 2.8 2.2 3.4 5.1 2.5.3-1.9-10.6-4.6-11.2-7.4-15.1-6-8.4 2.1 9.9 1.9 13.4-1 18.8-4.3 8-12.6 12.1-20.1 10.1-12.6-3.4-25.6-24.8-27-44.2-.9-12.9 2.8-19.7 12.3-22.5 9.9-2.9 18.5.8 24.1 10.3 4.4 7.6 4.4 3.3-.1-8.5-4.1-10.8-5.5-13.5-5.7-11.6zm857.7 12.3c-.4.5.3 1.2 1.4 1.6 3.3 1 4.2 3.8 2.6 8.2-1.8 5.2-18.2 43.4-21.4 50.2-2.8 5.6-5.5 7.5-8.5 5.9-2.1-1.1-3.6-.3-2.1 1.1 1.2 1.2 49.8 22.1 51.3 22.1.6 0 1.1-.5 1.1-1.1 0-.5 1.8-5.3 4.1-10.5 2.2-5.3 3.9-10 3.7-10.6-.2-.6-2.1 1.2-4.2 4.1-4.3 5.8-10.8 10.1-15.4 10.1-4.7 0-16-4.8-16.7-7.1-.4-1.2 1.6-7.2 5.2-15.6 5.4-12.7 6.1-13.8 8.4-13.5 1.3.1 3.6 1.6 5.2 3.2 2.3 2.6 2.7 3.9 2.7 9 0 3.3.4 6 .8 6s1.6-2.4 2.7-5.3c1-2.8 3.5-8.9 5.6-13.4 2-4.5 3.5-8.4 3.2-8.7-.3-.3-2.5 1.2-4.9 3.4-5.1 4.7-8 5.6-12.8 4-2-.6-3.6-1.3-3.6-1.5 0-.6 9.8-23.2 11.4-26.4 2.1-4 4.5-4 12.5 0 8.3 4.1 9.5 6.7 8.8 17.6-.2 4.6-.2 8.3.2 8.3.5 0 7.5-15 8.7-19 .4-1.2-5-4-23.7-12-13.3-5.8-24.5-10.6-24.9-10.8-.5-.2-1.1.1-1.4.7zm76.9 67.7c-25 22.5-31.3 27.4-35.2 27.4-4.3 0-2.3 2 6.7 6.5 5 2.5 9 4.2 9 3.9 0-.4-1.3-2.2-3-4-2.5-2.9-2.8-3.7-1.9-6.2.5-1.5 3.9-5.7 7.5-9.3l6.5-6.4 9.6 5c5.2 2.7 9.8 5.6 10 6.3.9 2.1-1.8 21-3.2 22.9-1.2 1.5-1.8 1.6-4.4.6-1.7-.6-3.3-.7-3.6-.3-.6 1 26.3 15.5 27.1 14.7.3-.3.1-1.4-.5-2.5-1.6-3-1.4-6.2 2.4-40.4 4.3-38.1 4.2-37.1 1-38.6-1.4-.7-2.9-1.2-3.3-1.1-.4 0-11.5 9.7-24.7 21.5zm12 6.9-1.8 13.4-8.1-4.1c-4.4-2.2-8.6-4.5-9.3-5-.9-.7 1.8-3.6 9.5-10.5 5.8-5.2 10.8-9 11-8.3.2.6-.4 7.2-1.3 14.5zm64.1 4.3c-1 2.1-3.7 7-6.1 10.8-2.4 3.8-4 7.1-3.4 7.2.5.2 3.1-1.6 5.9-4.1 5.6-5 10.6-7.7 14.4-7.7 2.9 0 9 2.3 9.9 3.7.7 1.1-33.3 55.3-35.5 56.7-1.7 1-2.4.9-9.2-1.9-1.2-.6-1.7-.4-1.5.3.4 1.2 30.5 20.2 32 20.2 1.7 0 .9-1.7-1.5-2.9-4.1-2.2-4.9-5.6-2.5-10.2 1.7-3.4 31.4-51.6 32.4-52.7.8-.9 6.4 3.3 7.9 6 2.2 3.6 2.2 11.6.2 18.3-2.9 9.4-1.4 8.9 5.2-1.8 2.9-4.5 5.9-9.2 6.7-10.3 1.5-2.1 1-2.5-24.4-18.3-14.3-8.9-26.6-16.4-27.4-16.6-.9-.4-2 .8-3.1 3.3zm-1144.1.6c-1.6.8-4.2 2.6-5.7 4.2-11.4 12.2-.7 31.4 16 28.9 8.5-1.3 15.4-11.2 13.8-19.8-2-10.9-14.3-17.6-24.1-13.3zm-113.7 36.5c-4.2 1.7-8.7 4.5-31 19.7-6.2 4.2-8.2 7.7-2.9 4.9 4.9-2.5 3.8-3.8 24.4 26.1 18.1 26.4 18.3 26.8 16.2 30-.8 1.3-2.1 2.4-2.7 2.4-.8 0-.9.3-.2 1 .8.8 4.9-1.5 13.7-7.6 7-4.8 12.7-9.2 12.7-9.7s-.8-.6-1.7-.2c-5.8 2.4-6.4 1.9-16.7-13.2l-7.6-11.2 3.3-2.5c3.9-3 8.2-3.3 11.7-.9 1.4.9 6.4 5.4 11.1 10 9.5 9.1 11.7 9.9 18.5 6.7 4.2-2 10.4-8.8 10.4-11.4 0-1.7-.2-1.7-2.5.6-3.1 3.1-4.4 2.5-13-5.6-3.3-3.1-7.1-6.4-8.5-7.3-3.3-2.3-10.5-2.1-16 .4l-4.5 2 3.6-3.8c5.3-5.5 7.3-9.9 7.2-16-.1-13.2-11.7-19.8-25.5-14.4zm4.3 9.8c5.7 5.1 9.2 11.5 9.3 17 .1 4.2-.3 4.9-4.7 8.9-2.7 2.4-5.2 4.4-5.6 4.4-.7 0-15-20.7-17-24.8-1.4-2.7-.5-4.6 3.5-7.3 4.8-3.1 9.7-2.5 14.5 1.8zm1336 13.3c-11 2.3-22.2 11.4-28.2 23.1-3.1 5.9-3.4 7.1-3.4 15.9 0 8.2.3 10.2 2.5 14.4 7.9 15.5 27.9 25 43.7 20.5 10.2-2.8 21.3-13.1 26.5-24.7 3.3-7 3.2-21-.1-27.2-3.7-7.2-8.1-12-14.5-16.2-8.6-5.6-17.8-7.6-26.5-5.8zm27.4 9.1c10.8 9.5 3.9 32.3-15.2 50-10.3 9.5-19.6 12.2-26.3 7.7-5.3-3.6-7.2-8.1-6.6-15.4.9-11.3 7.1-23 18.2-34.2 11.1-11.1 22.8-14.3 29.9-8.1zM446.1 313.8c-11.8 9.7-20.8 17.8-20.2 18 .7.2 1.8-.1 2.4-.7 2-2 5.2-1.2 8.4 2.1 5.4 5.7 36.5 44.2 37.6 46.6.8 1.8.6 2.7-1.1 4.5-2.5 2.7-2.8 4.2-.8 3.4 1.3-.5 38.3-30.4 42.5-34.3 1.1-1 .5-2.2-4-7.5-3-3.4-6.6-7.6-8.1-9.3-3.7-4.4-4.2-3-1.1 3.4 3.4 7.1 4.1 13.6 1.9 18.1-1.9 3.7-11.4 11.9-13.9 11.9-.9 0-6.1-5.5-11.6-12.2-10.8-13.1-10.8-13.3-4.6-16.2 3.9-1.9 7.2-1.4 12.3 1.6 1.8 1.1 3.5 1.8 3.8 1.5.8-.8-17.7-22.7-18.7-22.2-.4.3-.1 2.1.7 4 2.3 5.6 1.8 11.2-1.2 14-1.5 1.4-3.1 2.5-3.5 2.5-1.3 0-18.3-20.8-19.4-23.7-.9-2.3-.5-3 3.5-6.6 9.6-8.5 15.8-8.5 26.3 0 4.1 3.3 5.5 1.7 1.9-2.1-1.6-1.7-4.8-5.7-7.2-8.9-2.3-3.1-4.3-5.7-4.4-5.6 0 0-9.7 8-21.5 17.7zM1963 325.9c0 .5.7 1.4 1.5 2.1 3 2.5 1.6 5.7-6.7 15.2-17.5 20-33.1 36.9-34.7 37.8-1.2.6-2.7.4-4.5-.6-3.3-1.6-3.6-1.7-3.6-.6 0 1.2 23.1 21.5 23.7 20.8.4-.3-.1-1.4-1-2.4-1-1-1.7-2.8-1.7-3.9 0-1.2 4.4-7.1 10.2-13.7l10.1-11.7 4 3.8c3.5 3.4 3.8 4.2 3.4 7.6-.3 2.2-3.1 8.1-6.6 14-6.8 11.3-7.5 14.7-4 20.3 2.6 4.3 9.5 8.4 14 8.4l3.4-.1-3.2-1.4c-4.5-1.9-4.3-4 1.7-15 6.3-11.6 6.6-15.9 1.7-23.1l-3.2-4.9 5.5 2.8c13.4 6.9 28-.2 28-13.5 0-8.2-5.9-15.6-28.1-35.2-8.5-7.5-9.9-8.4-9.9-6.7zm23.4 22.1c5.5 6.1 4.7 11.4-3.1 20.1-7.8 8.6-16 9.2-23.1 1.6l-2.3-2.4 10-11.1c12.9-14.2 13-14.2 18.5-8.2zM389.5 363c-7 7.1-7.4 8.3-1.7 5.4 1.9-.9 4.1-1.3 5.4-.9 1.9.6 32.2 30.5 31.5 31.1-.1.1-14.4-1.7-31.7-4l-31.5-4.3-6.2 6.1c-6.5 6.2-8.2 9.1-3.8 6.2 1.3-.9 3.2-1.6 4.1-1.6 1.7 0 40.2 38.7 43.6 43.9 2.1 3 2.3 7.2.6 8.9-.6.6-.8 1.5-.5 1.9.8.7 14.7-12.5 14.7-13.9 0-.4-1.8.2-3.9 1.3-3.6 1.9-4.2 1.9-6.8.5-2.4-1.3-15.7-14.3-30.6-30.2-4.7-4.9-4.7-5.1-2-4.7 1.5.2 17.7 2.3 35.8 4.8 44.9 6 43.8 7.8 14.4-22.5-12.3-12.8-23-24.3-23.7-25.7-1.3-2.4-1.3-3.8.3-7.6 1.4-3.3-1.1-1.7-8 5.3zM324 428.5c0 .4.9 1.8 2 3.2 1.1 1.4 2 2.9 2 3.4 0 .4-2.4 1.5-5.3 2.3-12.9 3.7-22.1 14.5-24.7 28.8-2.9 15.4 7.3 32.8 24.2 41.3 6.2 3 8 3.5 14.2 3.4 8.6 0 13.7-1.9 21.1-7.8 6.9-5.5 10.9-11.8 13.1-20.4 1.8-7.4 3.1-8.6 7.1-6.8 4.7 2.2 3.8 0-2.2-5.2-3.3-2.8-8.2-7.2-10.8-9.8-4.2-4.1-4.7-5-3.8-6.8.6-1.1.7-2.2.3-2.5-.7-.4-16.1 16.2-20.1 21.7-2.1 3-.3 3.3 2.7.4 1.6-1.5 3.7-2.7 4.8-2.7 2.2 0 14.5 9.7 16.9 13.3 1.9 3 .9 6.5-3.2 11-4.4 4.8-9.1 6.3-15.8 4.8-12.1-2.7-30.8-18.1-36.4-30.1-4.2-8.9-4.2-15 0-21.3 5.9-9 16.8-11.3 27.2-5.7 3.1 1.6 5.8 2.6 6.1 2.1.3-.4-3.6-4.3-8.5-8.7-9-7.8-10.9-9.2-10.9-7.9zM253.2 514c-8.8 11.4-11.9 16.8-6.9 12.2 1.3-1.2 3.2-2.2 4.3-2.2 1.7 0 19.8 13.1 46.2 33.5 5.6 4.4 7.1 7.3 5.3 11.1-2.4 5.3 1.2 1.9 9.8-9.4 8.7-11.2 12-17.3 6.8-12.4-1.3 1.2-3.2 2.2-4.4 2.2-2.9 0-50.6-36.5-51.8-39.6-.6-1.7-.5-3.1.3-4.4 1.4-2.3 1.5-3 .4-3-.5 0-5 5.4-10 12zm-30.8 43.5c.3.8.9 2.1 1.2 2.9.4 1-1.3 2.6-4.9 4.9-8.2 5.3-13.3 13.1-14.4 21.8-.7 6.3 1 11.1 5.7 15.3 6.9 6.2 15 6.1 30.9-.3 13.5-5.5 18.5-6.1 23.9-3.1 5.1 2.9 6.6 5.7 5.9 11.1-.6 4.9-3 8.5-7.8 11.7-4.5 3.2-13 2.7-21.1-1-3.7-1.7-5.8-2.2-5.8-1.5.1 1.6 21.8 16.3 22.7 15.4.4-.4.1-1.3-.5-1.9-2.2-2.2-1.3-3.7 4.3-7.2 15.4-9.9 20.8-30.8 10.3-40.2-7.7-7.1-15.5-7.1-33.3 0-13.6 5.5-18.1 6.4-22.5 4.6-9.2-3.8-9.1-15.3.2-21 4.1-2.5 13.1-2.7 18.8-.4 2.3.9 4.4 1.4 4.7 1 .4-.3.4-.7.2-.9-5.6-4.2-18.1-12.7-18.5-12.7-.4 0-.3.7 0 1.5zm-60 94.7c-14.8 26.5-16.1 29.4-10 23.3 2.1-2.1 2.9-2.3 5.3-1.5 5 1.8 53.6 29.6 54.7 31.3.7 1.2.7 2.6-.1 4.7-.8 2.3-.8 3 0 3 1.1 0 29.2-48.9 28.5-49.5-2.9-2-21.8-11.2-21.8-10.5 0 .5 2 2.8 4.4 5 8.5 7.8 9.8 15.3 4.4 25.1-3.4 6.2-5.2 7.5-8.4 6.2-5.6-2.3-25.4-14-25.4-15 0-.7 1.3-2.7 2.9-4.5 2.8-3.2 3.3-3.3 10-3.2 3.9 0 7.1-.2 7.1-.6 0-.3-2.1-1.6-4.7-2.9-2.7-1.2-8.3-4.3-12.6-6.8-4.3-2.4-8.1-4.3-8.3-4-.3.2 1.1 2.8 3.1 5.7 3.9 5.8 4.3 9.2 1.7 13.2l-1.8 2.7-12.3-6.9c-14.6-8.2-15.1-8.6-15.1-11.4 0-3.6 6.2-12.7 10-14.7 4.2-2.3 7.1-2.4 13.8-.4 7.6 2.3 8.4.8 1.5-2.9-3.2-1.7-7.2-4.1-8.8-5.2-1.7-1.1-3.5-2.3-4.1-2.7-.6-.3-6.5 9.2-14 22.5zm-17.9 64.9c-6.4.9-11 3.4-16.2 8.6-5.9 5.8-9 11.2-17.8 30.6-6.6 14.6-7.6 18.7-3.4 13.3 1.8-2.3 2.7-2.7 5.1-2.2 3.8.8 53.4 23.5 56.4 25.9 2.1 1.6 2.4 2.4 1.8 5.5-1.1 6.1 1 2.8 8.2-12.8 9.2-20.3 9.8-22.1 9.9-32.5 0-7.9-.4-9.7-2.8-14.6-6.8-13.9-26.1-24.1-41.2-21.8zm3.3 14.9c4 1.1 10.8 3.8 15.1 5.9 19.7 10 25.9 20.5 19.7 33.7-2.8 6-4.3 6.8-9.3 5-3.3-1.2-33-14.7-49.1-22.3-7-3.3-7.8-5-5.2-11.2 2.6-5.9 6.5-9.8 11.6-11.6 5.4-1.9 8.8-1.8 17.2.5zm-43.6 135.1c-13.9 6.9-11.4 27.8 3.9 31.9 13.6 3.7 25.9-10.2 20.5-23.1-4.1-9.6-14.8-13.5-24.4-8.8zM48.4 977.4c-4.2 1.8-9.6 8.4-11.6 14.3-.9 2.6-3.1 12-4.8 20.8-1.7 8.8-3.4 17-3.7 18.2-.8 3.4 1.3 2.8 2.6-.7.9-2.7 1.4-3 5.3-3 5.1 0 57.8 10.4 60.8 12 1.4.8 2 2.1 2 4.5 0 7.2 1.8 3 4.4-10.3 1.5-7.5 2.9-14.5 3.2-15.5.8-2.7-1.5-2-2.6.8-.5 1.4-1.7 2.8-2.5 3.1-.8.4-8.3-.6-16.5-2.2l-15-2.8.6-3.5c.8-4.6 3.4-8.4 6.5-9.2 1.3-.4 7.8-.8 14.4-.8 13.5-.1 15.9-.9 18.9-6.1 2.8-4.7 2.9-15.1.3-17.7-1.8-1.7-1.8-1.7-1.2 1 1.2 4.7-.5 5.5-13.6 6.2-14.3.9-16.8 2.2-21 10.5l-2.8 5.5-.1-5.5c-.1-9.8-5.5-17.7-13.8-20-4.7-1.3-6-1.2-9.8.4zm8.6 16.7c9.2 2 13.6 8.1 12 16.8-.4 2.3-1 4.4-1.2 4.6-.6.6-25.4-4.3-29.2-5.7-2.7-1.1-2.8-1.4-2.4-6 1-9.5 7.4-12.6 20.8-9.7zm-34.4 76.1c-.4 1.8-1.7 13.2-3.1 25.3-1.4 12.1-2.7 23-2.9 24.2-.5 3.4 2 2.8 2.7-.6.7-3.2 3-4.2 8-3.5 1.8.2 15 1.8 29.4 3.4 14.4 1.7 27.4 3.5 28.8 4 2 .8 2.5 1.6 2.5 4.5 0 1.9.4 3.5.9 3.5 1.1 0 1.4-2 4.6-30 1.4-12.4 2.8-23.4 3-24.6.4-2-.2-2.1-10.3-3.2-5.9-.7-11.5-1.2-12.4-1.2-3.3 0-1.8 1.6 2.7 2.9 5.9 1.7 10.4 4.8 13.3 9.1 2.1 3.1 2.3 4.3 2 11.3-.7 11.6-.3 11.4-19.2 9.2-17.1-1.9-16.7-1.7-14-8.5 1.8-4.4 4.6-6.4 10.7-7.5 2-.4 3.7-1 3.7-1.4 0-.4-5.5-1.3-12.2-2-6.8-.7-13.6-1.5-15.2-1.8-4.2-.8-3 1.2 2.4 4 5.6 2.9 8.3 7.2 7.4 11.6l-.7 3.3-7.6-.7c-15-1.4-23.4-3-24.4-4.6-.6-.9-.7-4.3-.2-8.4.6-6.2 1.1-7.3 4.4-10.6 2.6-2.7 4.8-3.8 8.1-4.3 13-2 13.1-2.8.8-4.3-5.1-.6-10.1-1.4-11-1.8-1.3-.5-1.8 0-2.2 2.7zm4.8 83.9c-4.1 1.2-11 8.7-12.4 13.5-2.4 8.3-4.3 44.1-2.4 44.6.5.2 1-.7 1.2-1.9.6-3.9 2.5-4.5 13.8-4.4 20.5.2 52.6 2.1 53.9 3.1.7.6 1.5 2.4 1.9 4 1.1 6 2.6 3 2.6-5.3 0-4.6.3-12.5.6-17.5.5-6 .3-9.2-.3-9.2s-1.3 1.7-1.7 3.9c-1 6.2-1.5 6.4-17.7 6.2l-9.6-.1-.6-9.6c-1-14.7-4.7-21.5-14.2-26-5.2-2.5-9.8-2.9-15.1-1.3zm19.5 18.6c4.9 2.4 8.1 7.5 8.1 12.9 0 2.4-.3 4.4-.7 4.7-1.7.8-35.3-1.2-37.2-2.3-1.6-.8-2.1-2-2.1-5 0-6.9 2.7-10.3 9.5-12.1 4.8-1.3 18.3-.2 22.4 1.8zm-12 72.6c-13.9 4.8-21.8 15.5-22.7 30.7-1.4 24.6 15.9 41.5 40.8 39.7 18.9-1.3 31.2-11.8 34-29.2 1.1-6.9-.1-16.8-3-23.2-2.9-6.5-10.1-13.6-17.3-16.9-8.8-4-22.3-4.5-31.8-1.1zm37.3 17.6c3.5 1.4 7 3.7 9.2 6.1 3.1 3.4 3.6 4.7 3.6 8.8 0 11.9-12.6 19.8-33.5 20.9-11.9.6-19.9-.7-27.5-4.5-7.3-3.6-10.3-8.1-9.7-14.3.7-8.5 7.7-14.6 20.7-18.1 9.4-2.6 29.2-2 37.2 1.1zM82 1343c-2.5.4-7.1 1.1-10.2 1.4-3.2.4-5.8 1.1-5.8 1.6 0 .4 2.1 1.1 4.8 1.5 6.4.9 13.4 4.1 16.7 7.5 2.9 3 4.4 8.1 4.5 14.7 0 4-.2 4.3-3.7 5.2-5.9 1.6-59.8 8-62.2 7.4-1.3-.3-2.4-1.7-2.9-3.6-1-4-3.4-4.9-2.7-1 .5 2.7 3.5 27.5 3.5 28.7 0 .3.5.6 1 .6.6 0 1-1.1 1-2.4 0-1.9 2.2-5.6 3.3-5.6.1 0 12.6-1.6 27.7-3.5s29.6-3.5 32.2-3.5c4.5 0 4.7.1 5.8 3.6 2.8 8.5 2.6.1-.6-25.1-1.8-14.9-3.4-27.3-3.4-27.8 0-.8-2.7-.8-9 .3zm1316.3 81.2c-6.8 2.2-10.7 9.9-8.9 17.5.5 2 123.1 125.2 415.9 418.1 228.4 228.4 416.5 416 418.1 416.9 9.8 5.2 22.9-5.9 19.6-16.4-1-3.1-79.6-82.2-415.9-418.6-239.7-239.9-416.2-415.6-418.3-416.8-4.1-2.1-5.7-2.2-10.5-.7zm-1302.8 8.3c-2.7.7-7.6 1.9-10.8 2.5-6.8 1.4-6.6 3 .5 3 12.2 0 18.7 5.1 20.8 16.4 1.1 5.9 1.1 7-.3 8.3-1.3 1.4-25.4 7.2-29.9 7.3-1.5 0-1.8-.9-1.8-4.9 0-5.7 2.9-10 8-12.1 4.2-1.8 2.4-3.6-2.2-2.2-1.8.6-6.9 1.8-11.3 2.7-4.4.9-9 1.8-10.2 2.1-3.6.7-2.7 2.1 1.8 2.8 5.7.9 9.3 3 10.7 6.1 2.4 5.3 1.8 6.2-6 7.9-21.4 4.7-22.9 4.9-24.5 3.3-2.5-2.4-4.4-12.6-3.3-16.9 1.2-4.2 6.4-9.2 12.1-11.4 4.5-1.8 5.3-3.9 1.2-3.1-1.6.3-6.4 1.1-10.8 1.8s-8.1 1.3-8.3 1.4c-.1.1 2.2 12.2 5.3 27 3 14.7 5.5 26.9 5.5 27.2 0 .2.5.1 1-.2.6-.3 1-2.1 1-3.9 0-2.7.5-3.6 2.8-4.5 4.9-1.9 56.6-12.2 60.2-11.9 2.7.2 3.8.9 4.8 3 1.7 3.6 3.4 3.6 2.6.1-.4-1.4-3-13.9-5.9-27.7-3.7-18.5-5.5-25.1-6.5-25.3-.8-.1-3.7.5-6.5 1.2zM49 1529.7c0 2.3 5.4 19.3 6.1 19.3.5 0 .9-1.7.9-3.8 0-5.1 2.6-7.4 9.1-8 6.5-.6 46.1 1.8 45.7 2.8-.2.5-5.5 4.8-11.8 9.6-6.3 4.8-15.1 11.5-19.5 14.9-12.6 9.7-14.9 10.5-16.6 5.5-1-2.7-2.9-4.2-2.9-2.3 0 2 8.4 29.3 9 29.3.4 0 1.3-1.3 2-2.9.8-2 10.3-10.1 30.2-25.7 28.3-22.2 29-22.8 28.4-25.7-.3-1.7-.9-3.3-1.1-3.6-.3-.2-14.8-1.5-32.3-2.7-37.2-2.6-38.8-2.8-42.7-5.4-3.2-2.1-4.5-2.5-4.5-1.3zm90.5 74.4c-3.8 1.6-8.6 3.5-10.7 4.1-6 1.8-4.5 3 3 2.3 8.8-.9 14.2.6 18 5 3.8 4.3 7.1 13.9 5.6 16.3-1.4 2.2-28.4 12.6-29.6 11.4-.5-.5-1.2-2.8-1.5-5-.6-4.7 2-10 6.2-12.2 2.4-1.3 3.4-3 1.8-3-1.8 0-27.3 10.4-27.3 11.2 0 .4 2.6.8 5.9.8 6.7 0 10.2 2.1 12 7 .9 2.8.8 3.2-1.7 4.1-16.4 6.4-26.8 9.9-27.9 9.5-2-.8-6.3-11.1-6.3-15.2 0-5.9 3.1-10.1 12.2-16.5 4-2.9 1.6-2.6-9.3 1.1l-10.7 3.7 9.7 25.6c5.3 14.3 10.1 25.7 10.8 25.7.9 0 1-.7.4-2.3-1.7-4.4.2-6.3 10.1-10.1 32.8-12.6 46.7-17.7 49.5-18.2 2.8-.5 3.4-.2 5.1 2.6 4.6 7.5 2.5-.3-6.7-24.5-5.4-14.3-10.2-26-10.7-26.1-.5-.1-4 1.1-7.9 2.7zm13.8 87.4c-11.3 2.5-22 9.8-27 18.2-3.9 6.6-4.4 18.4-1.3 27.7 3 9.1 16.7 37.6 18.1 37.6.7 0 .8-.7.4-1.8-1.1-2.5-.8-5.3.7-6.8 1.4-1.4 49.2-24.3 55.3-26.5 3.6-1.3 3.8-1.3 6.1 1.6 4.9 6.2 3.2 1-5.4-16.7-7.8-16-9.7-19-14.6-23.6-9.8-9.3-20.3-12.4-32.3-9.7zm30.4 13.4c7.3 3.4 13.7 15.1 10.2 18.6-1.9 1.9-56 27.5-58 27.5-5.9 0-10.1-15.6-6.3-23.6 2.5-5.3 10.9-12.1 20.8-16.9 15.4-7.5 25.4-9.1 33.3-5.6zm45.6 111.2c-2.3 1.1-5.2 3.6-6.3 5.4-2.8 4.5-2.9 13.3-.1 20.2 1.1 2.9 1.9 5.3 1.7 5.3-.2 0-2.6-1.5-5.4-3.4-8.3-5.5-16.5-5.5-22.4 0-5.7 5.5-5.9 13.1-.8 23.4 4 8.2 20.3 32.7 20.7 31.3.2-.7-.1-2.1-.7-3.2-2.2-4.2-2.1-4.3 31.9-26 21.5-13.8 24.6-15 27.4-10.9.8 1.3 1.8 2 2.2 1.6 1-.9-18-30.9-23.4-37-7.4-8.3-16.6-10.8-24.8-6.7zm26.1 13.3c1.8 1.3 4 4 5.1 5.9 1.9 3.5 1.9 3.7 0 5.7-1 1.1-7.2 5.4-13.7 9.6-13.2 8.5-13.1 8.5-16.7 1-4.3-8.9-1.5-15.9 8.6-21.4 7.2-3.9 12.3-4.2 16.7-.8zm-26.6 25.3c1.7 2 3.2 4 3.2 4.5 0 .9-18.5 13.1-23.8 15.6-3.4 1.6-3.4 1.6-5.8-1.1-1.3-1.5-2.7-3.9-3-5.2-1.3-5.2 6.4-13.3 15.8-16.6 6.7-2.4 9.5-1.8 13.6 2.8zm58.1 31.7c-3.6 2.9-7.9 6.2-9.5 7.3-4.4 3.3-2.4 3.6 5 .8 7.7-2.9 11.5-3.1 16.1-.9 3.9 1.8 11.5 11.3 11.5 14.3 0 1.4-3.8 5-12.2 11.5-11.3 8.6-12.4 9.3-14 7.9-4.3-3.8-4.2-11.4.1-16.9 4.2-5.3.8-4.1-7.7 2.7-4.8 3.9-9.9 7.8-11.5 8.7-2.7 1.6-3.2 4-.6 3.3 10.3-2.8 12.4-2.6 16.4 1.7 1.4 1.5 2.5 2.9 2.5 3.2 0 1.1-24.8 19-26.3 19-1.9 0-9.5-9.4-10.3-12.7-1.2-4.8.3-10.3 4.5-15.7 2.2-3 3.8-5.6 3.5-5.9-.3-.3-3.4 1.6-6.8 4.1-3.4 2.6-7.5 5.6-8.9 6.7l-2.7 2 15.1 20c8.3 11 15.9 20.9 17 22 1.6 1.7 1.9 1.7 1.9.3 0-.9-.4-2-1-2.3-1.9-1.2-1-4.1 2.3-7.2 1.7-1.8 13.1-10.6 25.2-19.7 22.5-17.1 25-18.3 28.7-14.9 1 .9 2.1 1.4 2.4 1.1.4-.5-33.3-45.9-33.9-45.8-.1.1-3.2 2.5-6.8 5.4zm63.1 84.2c-5.2 2.5-12.2 5.9-15.5 7.4-3.3 1.5-12.3 5.8-20 9.5-11.7 5.7-14.9 6.8-19.8 7-3.1.1-5.9.4-6.2.6-.2.2 2.7 3.8 6.5 7.9 3.7 4.1 7.1 7.2 7.5 6.8.4-.4 0-1.7-.9-3-.9-1.2-1.6-3-1.6-3.9 0-2.6 4.7-7.7 9.4-10.1 10-5.3 34.6-16.6 34.6-16 0 .4-5.6 10.4-12.4 22.2-13 22.7-14.4 24.3-18.7 20.4-3.2-2.9-3.5-.6-.3 2.9 13.5 14.6 16.5 17.7 17 18 .3.1.7-1.6.9-3.8.1-2.6 1.8-6.8 4.8-12l4.6-8 14.6-6.4c8-3.5 14.7-6.2 14.9-6 .6.6-21.8 40.9-24.2 43.6-1.6 1.8-2.7 2.2-4.7 1.7-1.4-.3-2.5-.3-2.5.1 0 1 18.1 20.5 19.1 20.5.5 0 .6-1.3.3-2.8-.7-3.4-.8-3.1 19.3-40.9 8.7-16.4 14.2-27.7 13.7-28.5-2.8-5.1-2.1-5.2-25.6 5.3-12.1 5.5-22.2 9.8-22.4 9.7-.1-.2 5.1-9.7 11.6-21.3l11.9-21-2.1-2.2c-1.2-1.3-2.6-2.3-3.2-2.3-.6 0-5.4 2.1-10.6 4.6z"/></svg>