<?xml version="1.0" standalone="no"?>
<!DOCTYPE svg PUBLIC "-//W3C//DTD SVG 20010904//EN"
 "http://www.w3.org/TR/2001/REC-SVG-20010904/DTD/svg10.dtd">
<svg version="1.0" xmlns="http://www.w3.org/2000/svg"
 width="77" height="77" viewBox="0 0 2560.000000 2560.000000"
 preserveAspectRatio="xMidYMid meet">

<g transform="translate(0.000000,2560.000000) scale(0.100000,-0.100000)"
fill="#000000" stroke="none">
<path d="M13230 23633 c0 -16 9 -22 40 -27 61 -10 80 -35 80 -103 0 -93 -59
-891 -71 -967 -13 -80 -45 -124 -99 -135 -20 -4 -36 -14 -38 -22 -2 -13 14
-17 100 -23 57 -3 136 -9 176 -13 59 -5 72 -3 72 9 0 8 -18 19 -45 26 -24 6
-59 25 -77 41 -29 26 -33 35 -36 98 -4 65 45 793 54 802 6 6 -15 36 339 -484
180 -264 338 -495 352 -512 21 -29 30 -33 69 -33 40 0 44 2 44 23 0 53 71 987
80 1056 12 86 33 126 74 141 66 25 76 30 76 40 0 5 -12 10 -27 10 -40 0 -252
19 -290 25 -28 5 -33 3 -33 -13 0 -13 9 -22 28 -27 52 -13 93 -38 107 -66 20
-38 19 -139 -5 -454 -11 -143 -20 -270 -20 -283 0 -13 -4 -22 -10 -20 -5 2
-120 165 -256 363 -136 198 -275 401 -310 451 l-63 91 -123 6 c-68 4 -138 9
-155 13 -29 6 -33 4 -33 -13z"/>
<path d="M12025 23594 c-225 -18 -416 -33 -422 -33 -7 -1 -13 -7 -13 -15 0 -9
18 -15 52 -19 61 -8 76 -20 89 -75 10 -47 79 -931 79 -1020 0 -75 -18 -101
-78 -109 -33 -4 -42 -10 -42 -26 0 -17 5 -19 43 -14 23 3 244 20 490 38 246
18 452 36 456 39 5 3 3 48 -5 100 -7 52 -16 146 -20 208 -5 81 -11 112 -20
112 -19 0 -21 -7 -38 -104 -40 -231 -135 -315 -361 -317 -114 -1 -122 6 -135
121 -17 156 -33 427 -27 444 5 11 19 16 50 16 108 0 182 -58 220 -170 10 -32
21 -46 36 -48 25 -4 25 -13 6 126 -8 62 -18 173 -21 247 -7 128 -8 136 -27
133 -15 -2 -23 -17 -34 -57 -17 -67 -56 -140 -89 -164 -23 -17 -139 -45 -148
-36 -6 5 -37 403 -38 486 -1 37 4 68 11 77 34 40 237 52 313 18 77 -34 130
-112 168 -246 13 -47 21 -61 36 -61 12 0 18 6 15 15 -2 8 -6 95 -9 193 l-5
177 -61 -1 c-34 -1 -245 -16 -471 -35z"/>
<path d="M10720 23419 c-302 -71 -281 -64 -274 -84 5 -12 15 -14 40 -9 46 8
81 -2 98 -29 13 -19 126 -480 126 -512 0 -12 -447 -121 -457 -111 -11 11 -113
462 -113 502 0 46 17 67 68 85 31 11 45 39 20 39 -10 0 -214 -47 -505 -115
-13 -3 -23 -12 -23 -20 0 -11 13 -15 54 -15 63 0 77 -10 100 -72 31 -84 229
-952 230 -1010 1 -62 -12 -81 -66 -93 -15 -4 -31 -11 -34 -17 -19 -30 29 -24
279 34 212 49 267 65 265 77 -2 12 -15 15 -50 12 -63 -3 -83 10 -102 66 -24
73 -117 475 -111 481 10 10 450 110 456 104 15 -16 120 -500 114 -525 -7 -28
-38 -52 -79 -63 -24 -6 -34 -23 -21 -36 6 -5 532 116 541 125 16 16 -11 29
-49 23 -49 -8 -83 11 -103 59 -27 65 -234 977 -234 1031 0 58 14 75 73 89 17
5 27 14 27 26 0 10 -3 19 -7 18 -5 0 -123 -27 -263 -60z"/>
<path d="M16153 22941 c-87 -109 -259 -325 -382 -480 -230 -288 -275 -333
-348 -347 -66 -13 -34 -34 127 -85 85 -26 163 -49 173 -49 31 0 18 27 -24 45
-53 24 -79 59 -79 104 1 58 39 122 180 302 15 19 20 18 202 -38 l187 -58 6
-60 c3 -33 7 -127 8 -208 2 -138 1 -149 -18 -163 -15 -11 -34 -13 -72 -8 -44
5 -53 4 -53 -9 0 -11 21 -23 68 -36 37 -12 153 -47 257 -79 158 -49 191 -57
198 -45 6 10 2 20 -13 30 -47 33 -52 60 -75 418 -8 127 -17 262 -20 300 -3 39
-14 193 -25 344 -11 151 -23 278 -27 282 -5 4 -31 14 -60 22 l-52 16 -158
-198z m21 -228 c3 -87 9 -197 13 -245 5 -82 5 -88 -13 -87 -38 1 -319 95 -319
107 0 16 297 392 305 387 4 -2 10 -75 14 -162z"/>
<path d="M8865 22863 c-63 -10 -139 -37 -418 -150 -260 -105 -330 -142 -256
-136 102 8 107 6 144 -68 46 -89 367 -894 378 -946 10 -47 9 -54 -9 -74 -10
-11 -31 -27 -46 -35 -27 -14 -39 -44 -18 -44 10 0 521 205 554 222 12 7 15 13
8 20 -7 7 -30 5 -74 -6 -76 -21 -108 -12 -138 36 -17 29 -52 110 -131 311
l-19 48 31 11 c18 6 75 32 129 58 119 59 211 141 261 232 33 60 34 68 34 168
0 94 -3 111 -28 166 -55 118 -157 183 -295 189 -42 2 -90 1 -107 -2z m-29 -99
c48 -23 88 -74 139 -179 103 -212 101 -369 -6 -442 -45 -31 -136 -69 -144 -61
-12 12 -226 558 -231 590 -5 31 -2 40 21 60 54 48 157 62 221 32z"/>
<path d="M17425 22719 c-4 -6 -5 -11 -4 -13 2 -1 21 -13 42 -25 44 -27 54 -57
37 -114 -18 -61 -437 -991 -478 -1062 -81 -139 -144 -189 -241 -188 -31 1 -62
3 -70 5 -8 1 -16 -5 -19 -14 -2 -13 14 -22 75 -41 43 -14 103 -28 134 -31 76
-10 188 15 257 56 111 67 157 147 433 760 99 222 191 414 202 426 22 24 23 24
122 10 11 -2 20 3 20 10 0 11 -471 232 -495 232 -5 0 -12 -5 -15 -11z"/>
<path d="M7145 22061 c-360 -210 -451 -271 -395 -264 8 1 29 7 46 14 45 18 76
5 111 -44 38 -55 479 -817 504 -872 28 -62 25 -92 -16 -128 -37 -33 -48 -64
-17 -52 9 3 205 115 435 248 272 157 416 246 412 254 -2 7 -30 53 -62 101 -31
48 -76 124 -101 169 -37 71 -46 81 -61 73 -17 -8 -16 -13 6 -82 14 -40 27
-107 30 -149 10 -140 -35 -216 -176 -299 -87 -50 -133 -60 -161 -35 -18 16
-250 408 -265 447 -8 21 30 47 96 64 70 18 131 -2 201 -65 50 -45 78 -55 78
-28 0 7 -20 41 -43 77 -48 71 -160 262 -189 323 -19 38 -25 42 -44 29 -9 -5
-8 -24 2 -72 27 -129 -6 -215 -102 -263 l-31 -16 -127 220 c-70 121 -130 235
-133 252 -6 40 14 62 105 117 163 96 278 74 414 -80 56 -64 56 -64 76 -52 9 6
0 30 -37 91 -28 46 -70 123 -93 172 -24 49 -45 89 -48 88 -3 0 -189 -107 -415
-238z"/>
<path d="M18427 22253 c-4 -3 11 -23 33 -43 30 -28 40 -45 40 -68 0 -22 -52
-116 -186 -339 -212 -351 -234 -391 -264 -492 -52 -171 17 -321 205 -446 107
-71 166 -90 280 -90 116 0 153 15 238 93 75 71 120 135 279 397 219 362 232
379 296 380 20 0 49 -3 63 -7 19 -6 28 -4 32 6 4 10 -10 24 -41 42 -26 15 -94
56 -150 92 -74 46 -107 61 -115 53 -7 -7 3 -25 36 -60 81 -86 76 -101 -148
-471 -168 -278 -201 -326 -274 -393 -67 -63 -130 -91 -201 -91 -107 1 -235 76
-275 160 -25 53 -16 145 22 226 36 77 426 724 456 756 24 26 74 29 118 7 28
-15 49 -13 49 4 0 10 -462 291 -477 291 -5 0 -13 -3 -16 -7z"/>
<path d="M5794 21140 c-236 -186 -430 -343 -432 -348 -1 -5 29 -44 68 -88 40
-43 101 -118 138 -166 40 -52 71 -84 79 -81 18 7 16 22 -7 70 -72 150 -92 292
-52 370 26 49 86 113 107 113 15 0 667 -817 697 -873 28 -52 22 -73 -33 -132
-36 -38 -49 -60 -45 -71 6 -15 8 -15 24 -2 9 8 127 102 262 208 135 106 247
195 249 197 3 2 0 8 -7 15 -8 8 -24 2 -63 -23 -63 -40 -105 -43 -148 -8 -29
23 -701 867 -701 880 0 16 100 69 149 80 89 19 177 -13 312 -115 41 -31 77
-56 82 -56 28 0 8 40 -67 135 -47 58 -105 135 -128 171 -24 35 -46 64 -49 64
-3 0 -198 -153 -435 -340z"/>
<path d="M12871 21418 c-220 -596 -963 -2587 -1242 -3332 l-59 -159 36 -116
c19 -64 228 -631 464 -1261 235 -630 656 -1755 935 -2500 279 -745 658 -1758
842 -2250 185 -492 337 -904 338 -915 2 -11 17 -54 33 -96 79 -196 644 -1726
670 -1814 234 -767 251 -1419 55 -2028 -129 -403 -307 -666 -527 -778 -66 -35
-191 -69 -248 -69 l-38 0 0 -90 0 -90 2885 0 2885 0 0 88 0 88 -84 11 c-311
42 -648 320 -1077 888 -350 464 -657 1024 -917 1670 -44 110 -196 511 -337
890 -141 380 -471 1262 -732 1960 -261 699 -670 1792 -908 2430 -239 638 -647
1732 -908 2430 -262 699 -689 1842 -950 2540 -261 699 -580 1552 -708 1897
l-234 628 -83 0 c-76 0 -83 -2 -91 -22z"/>
<path d="M19905 21300 c-4 -7 7 -26 24 -44 39 -40 40 -77 3 -132 -47 -70 -608
-748 -651 -787 -23 -20 -49 -37 -58 -37 -9 0 -36 11 -60 25 -38 23 -44 24 -49
10 -4 -9 -5 -17 -3 -19 14 -10 738 -602 752 -615 16 -14 20 -14 27 -1 20 36
163 222 211 274 42 47 49 59 39 71 -11 13 -16 12 -39 -6 -153 -119 -294 -163
-412 -128 -43 13 -164 105 -190 146 -16 23 -16 30 -4 59 14 34 636 798 684
840 33 30 65 30 118 0 32 -19 44 -21 52 -12 8 9 -45 57 -203 186 -117 96 -218
176 -224 178 -6 2 -13 -2 -17 -8z"/>
<path d="M4851 20317 c-9 -12 -7 -22 9 -49 27 -46 15 -59 -80 -93 -92 -32
-134 -60 -209 -141 -85 -91 -125 -177 -129 -280 -4 -73 -1 -87 24 -138 51
-105 155 -172 281 -183 67 -5 113 2 383 63 41 9 111 17 155 18 66 1 88 -3 125
-22 123 -64 161 -166 104 -281 -50 -100 -179 -171 -282 -156 -68 10 -172 56
-248 110 -57 41 -68 45 -80 33 -12 -12 5 -32 123 -148 189 -184 202 -195 215
-182 8 8 7 20 -5 43 -20 42 -14 55 31 70 57 18 131 58 187 99 148 109 257 310
242 442 -17 142 -136 264 -279 285 -76 12 -169 1 -358 -42 -91 -21 -201 -40
-245 -42 -70 -4 -85 -2 -124 19 -132 71 -148 218 -34 318 106 93 266 88 417
-11 42 -28 76 -33 76 -12 0 5 -64 73 -143 151 -120 120 -145 141 -156 129z"/>
<path d="M21085 20291 c-3 -6 6 -28 20 -48 51 -75 53 -72 -295 -388 -135 -123
-269 -252 -299 -287 -76 -91 -112 -170 -112 -251 0 -82 6 -108 48 -188 60
-117 166 -224 273 -277 47 -23 68 -27 140 -27 79 0 92 3 162 38 99 48 137 79
401 320 120 109 241 214 268 233 59 39 99 43 147 14 18 -11 37 -18 43 -15 11
8 12 32 0 37 -9 3 -123 126 -184 197 -27 33 -40 42 -48 34 -8 -8 -4 -26 16
-67 51 -104 35 -127 -276 -410 -311 -282 -377 -326 -510 -334 -70 -4 -82 -2
-128 23 -28 16 -69 47 -92 69 -112 112 -109 224 10 361 62 72 611 569 651 590
37 19 60 14 106 -27 26 -23 38 -28 46 -20 9 9 7 17 -9 34 -134 151 -358 394
-364 396 -4 2 -10 -2 -14 -7z"/>
<path d="M3789 17823 l-173 -277 24 -15 c13 -9 40 -26 61 -39 l38 -22 172 275
c94 152 170 277 168 279 -2 2 -30 20 -61 40 l-57 36 -172 -277z"/>
<path d="M22057 17813 c-54 -34 -57 -37 -44 -57 8 -11 78 -131 157 -266 78
-135 148 -251 155 -258 9 -10 22 -7 68 20 31 18 57 35 57 39 0 11 -320 554
-328 556 -4 0 -33 -15 -65 -34z"/>
<path d="M23703 16363 c-7 -3 -13 -16 -13 -30 0 -14 -8 -38 -17 -55 -11 -18
-215 -178 -512 -401 -272 -205 -498 -375 -503 -378 -5 -3 -1 -33 9 -67 l18
-62 100 -1 c55 0 127 -2 160 -4 33 -2 157 -4 275 -6 118 -2 235 -6 260 -9 l45
-5 -115 -81 c-119 -83 -552 -393 -559 -400 -2 -2 4 -31 14 -64 l18 -60 582 0
c636 0 641 0 722 -59 69 -50 71 -33 11 155 -37 116 -59 169 -69 169 -11 0 -13
-12 -11 -56 3 -51 1 -60 -27 -91 -56 -64 -104 -71 -499 -72 -195 0 -343 4
-343 9 -2 8 473 350 639 461 72 48 108 45 140 -13 13 -24 30 -43 38 -43 19 0
19 1 -20 126 -19 60 -53 168 -75 241 -32 102 -45 131 -56 127 -8 -4 -15 -15
-15 -26 0 -44 -34 -80 -172 -178 -143 -101 -143 -101 -193 -96 -27 3 -131 6
-230 8 -99 1 -202 5 -228 8 l-49 5 97 70 c53 39 167 122 254 185 331 244 355
260 401 260 11 0 28 -10 39 -21 24 -26 57 -19 46 9 -4 9 -37 112 -73 227 -35
116 -67 213 -71 216 -3 4 -12 4 -18 2z"/>
<path d="M2006 15733 c-82 -247 -151 -453 -153 -459 -2 -6 3 -14 11 -17 11 -5
20 3 30 26 20 49 43 67 84 67 37 0 905 -284 999 -327 64 -29 77 -50 68 -114
-6 -40 -4 -49 8 -49 11 0 58 127 172 471 86 258 155 471 154 473 -2 1 -49 15
-104 31 -55 15 -142 42 -194 61 -52 18 -98 31 -103 28 -20 -13 -3 -32 65 -73
139 -86 207 -180 207 -288 0 -55 -53 -222 -80 -251 -12 -12 -32 -22 -45 -22
-18 0 -499 155 -513 165 -1 1 7 28 18 58 36 96 116 141 239 136 49 -3 56 -1
59 17 2 16 -8 22 -70 38 -40 10 -149 44 -241 76 -156 52 -169 55 -178 39 -7
-14 -4 -21 13 -30 34 -18 118 -100 134 -131 17 -33 18 -103 3 -149 -7 -19 -13
-36 -15 -38 -7 -8 -498 163 -515 180 -11 11 -19 32 -19 47 0 31 38 149 63 198
22 43 87 99 133 115 35 12 144 15 249 6 20 -1 30 3 33 13 2 12 -24 24 -100 49
-57 18 -121 41 -143 51 -41 18 -116 50 -119 50 -1 0 -68 -201 -150 -447z"/>
<path d="M1825 14527 c-98 -48 -179 -172 -214 -327 -18 -80 -111 -608 -111
-629 0 -38 25 -21 43 28 20 56 36 65 107 62 62 -2 944 -159 1002 -177 59 -19
78 -45 78 -106 0 -36 4 -48 15 -48 8 0 15 2 15 5 0 3 20 119 45 257 25 139 45
260 45 270 0 34 -26 18 -40 -24 -27 -77 -36 -78 -322 -28 -136 24 -252 46
-258 50 -7 4 -6 28 3 79 26 132 66 151 326 151 253 0 309 20 360 129 22 48 26
70 26 151 0 80 -4 102 -23 138 -13 24 -28 41 -35 39 -13 -5 -13 -9 5 -54 10
-26 9 -37 -1 -57 -8 -14 -21 -28 -30 -32 -9 -3 -91 -10 -183 -15 -182 -9 -227
-17 -279 -52 -39 -26 -102 -115 -120 -170 -7 -21 -15 -40 -19 -42 -3 -2 -7 28
-8 66 -4 107 -33 188 -91 251 -65 71 -125 100 -215 105 -60 3 -79 0 -121 -20z
m89 -278 c195 -25 283 -93 287 -221 2 -74 -11 -149 -27 -155 -14 -5 -460 72
-498 87 -58 22 -71 74 -40 163 20 59 66 104 123 121 57 16 61 16 155 5z"/>
<path d="M24310 14086 c0 -55 -17 -86 -54 -101 -41 -17 -968 -145 -1049 -145
-47 0 -58 4 -75 25 -11 14 -23 41 -26 61 -7 37 -29 43 -34 8 -3 -22 124 -963
131 -970 2 -3 40 3 83 12 44 9 135 24 204 33 96 13 125 20 125 31 0 11 -23 18
-91 26 -222 28 -308 97 -339 271 -20 111 -19 166 3 186 22 20 58 27 334 63
114 15 211 24 215 20 5 -4 8 -38 8 -76 0 -94 -32 -141 -132 -190 -101 -50 -99
-81 5 -59 31 6 143 24 247 38 146 21 190 30 190 41 0 8 -15 18 -35 23 -104 25
-145 41 -179 72 -37 34 -61 87 -61 138 0 31 -19 26 293 68 217 28 239 30 261
16 27 -18 43 -73 52 -180 14 -160 -53 -246 -239 -312 -43 -15 -77 -30 -77 -34
1 -25 18 -28 95 -15 44 8 130 18 190 22 l110 7 -3 30 c-2 17 -30 229 -63 472
-32 243 -59 445 -59 448 0 3 -7 5 -15 5 -10 0 -15 -10 -15 -34z"/>
<path d="M1885 12966 c-143 -33 -228 -80 -316 -174 -95 -101 -144 -221 -157
-380 -24 -292 93 -518 331 -636 107 -53 207 -76 332 -76 390 0 635 246 637
640 1 206 -86 393 -235 506 -61 45 -175 98 -247 114 -87 18 -276 22 -345 6z
m313 -297 c303 -34 502 -182 478 -356 -27 -201 -297 -328 -659 -310 -304 15
-518 119 -562 272 -57 194 114 346 445 398 53 9 205 7 298 -4z"/>
<path d="M23236 12478 c-3 -7 -7 -161 -9 -343 -4 -255 -2 -349 9 -413 35 -204
142 -325 303 -339 174 -16 307 121 344 354 6 40 14 73 18 73 4 0 9 -17 13 -37
9 -59 60 -157 107 -208 61 -66 123 -95 201 -95 107 0 183 54 235 166 43 96 51
167 55 509 3 298 2 320 -14 323 -13 3 -18 -3 -18 -21 0 -39 -21 -87 -43 -99
-15 -8 -140 -10 -417 -9 -467 1 -663 9 -707 26 -31 13 -36 23 -46 104 -3 19
-26 26 -31 9z m529 -425 l108 -6 -5 -87 c-12 -203 -119 -293 -328 -277 -188
15 -280 100 -280 259 0 53 17 89 50 105 28 14 273 18 455 6z m641 -14 c56 -14
67 -35 62 -115 -3 -54 -8 -68 -33 -95 -41 -42 -87 -60 -176 -66 -93 -7 -196
10 -261 43 -64 32 -87 80 -88 177 l0 67 226 0 c134 0 243 -5 270 -11z"/>
<path d="M2668 11204 c-3 -52 -6 -60 -33 -75 -20 -12 -201 -45 -540 -98 -280
-45 -521 -81 -535 -81 -38 0 -68 26 -81 70 -12 39 -39 56 -39 24 0 -18 59
-387 63 -390 1 -1 27 -7 57 -13 30 -5 199 -40 375 -76 176 -36 355 -73 398
-82 42 -9 77 -19 77 -23 0 -6 -75 -53 -570 -355 -124 -76 -226 -138 -228 -140
-1 -1 11 -87 28 -191 16 -104 30 -201 30 -216 0 -21 5 -28 20 -28 17 0 20 7
20 46 0 58 12 79 52 93 45 16 959 161 1014 161 60 0 94 -19 122 -69 24 -43 56
-48 47 -7 -12 53 -45 266 -45 290 0 19 -5 26 -20 26 -17 0 -20 -7 -20 -40 0
-57 -23 -106 -61 -129 -17 -11 -73 -27 -123 -36 -204 -38 -876 -141 -876 -135
0 4 108 74 240 156 734 455 795 494 795 511 0 18 -9 21 -280 77 -71 15 -179
38 -240 51 -60 13 -229 49 -374 80 -146 31 -267 58 -269 60 -7 6 14 10 489 85
245 38 466 70 491 70 57 0 74 -13 95 -77 13 -39 21 -50 31 -44 11 7 6 58 -30
282 -36 228 -46 274 -60 277 -14 3 -17 -6 -20 -54z"/>
<path d="M23333 10009 c-156 -60 -232 -257 -159 -411 52 -111 150 -172 276
-171 125 0 217 58 271 170 28 59 31 72 27 142 -2 56 -10 89 -28 125 -31 62
-107 130 -167 150 -63 22 -156 20 -220 -5z"/>
<path d="M8035 8518 c-456 -1090 -1307 -2096 -1991 -2353 -78 -29 -244 -65
-303 -65 l-41 0 0 -90 0 -90 2000 0 2000 0 0 90 0 90 -39 0 c-22 0 -72 6 -113
14 -210 41 -402 144 -650 350 -376 313 -584 643 -683 1080 -14 66 -46 302 -77
588 -29 263 -55 478 -58 478 -3 0 -23 -42 -45 -92z"/>
<path d="M2900 8401 c-86 -28 -148 -81 -192 -164 -31 -56 -32 -203 -4 -257 49
-91 106 -138 201 -166 106 -30 218 1 297 83 140 145 96 391 -87 486 -44 22
-170 33 -215 18z"/>
<path d="M22517 8283 c-88 -170 -263 -565 -283 -638 -27 -100 -32 -235 -13
-327 39 -184 170 -338 370 -433 236 -111 450 -96 627 44 99 79 170 191 308
486 70 149 135 286 146 305 22 42 22 46 4 53 -8 3 -26 -12 -44 -39 -37 -51
-62 -56 -139 -25 -82 31 -861 399 -903 426 -55 35 -65 60 -47 113 12 34 12 44
1 53 -10 8 -16 4 -27 -18z m-51 -417 c53 -19 891 -413 930 -437 60 -37 63 -89
9 -187 -58 -107 -159 -178 -270 -189 -203 -21 -653 186 -786 362 -49 64 -69
122 -69 194 0 93 45 210 96 250 32 25 39 25 90 7z"/>
<path d="M21518 6417 c-147 -221 -268 -408 -270 -415 -2 -8 46 -43 112 -83 63
-39 138 -88 167 -110 29 -21 57 -39 62 -39 28 0 15 28 -46 99 -37 43 -79 99
-92 125 -30 62 -38 150 -18 209 15 45 81 151 120 195 39 42 66 31 281 -109
111 -72 210 -140 220 -150 19 -18 19 -18 -8 -53 -69 -91 -156 -116 -268 -78
-32 10 -60 17 -63 14 -17 -18 2 -41 58 -71 34 -19 128 -79 209 -133 134 -90
168 -106 168 -77 0 5 -16 30 -36 56 -48 62 -74 119 -74 164 0 38 36 116 61
132 12 7 65 -23 227 -132 116 -77 219 -152 228 -166 14 -22 15 -30 3 -58 -33
-82 -120 -186 -184 -220 -67 -35 -176 -25 -299 28 -37 16 -66 15 -66 -3 0 -4
42 -36 93 -69 50 -33 121 -84 156 -112 35 -28 65 -50 67 -49 3 4 517 778 528
796 4 7 1 14 -7 18 -8 3 -29 -10 -50 -31 -42 -42 -66 -44 -132 -8 -87 46 -853
562 -869 585 -21 30 -20 51 4 97 19 38 18 51 -4 51 -6 0 -131 -182 -278 -403z"/>
<path d="M4665 6000 c-4 -6 7 -33 24 -60 36 -59 40 -106 11 -143 -12 -15 -206
-171 -433 -348 -227 -177 -420 -329 -429 -337 -16 -14 -20 -13 -39 4 -43 39
-63 94 -64 174 0 65 4 84 32 140 18 36 57 96 88 134 47 59 53 72 42 84 -12 11
-30 0 -121 -72 -59 -47 -136 -105 -172 -128 -35 -23 -63 -48 -62 -55 3 -13
652 -846 672 -863 8 -5 28 7 60 37 47 43 217 182 266 216 19 13 21 19 11 30
-10 12 -23 10 -89 -19 -154 -66 -273 -80 -351 -40 -39 21 -111 91 -111 109 1
14 812 652 872 685 61 33 82 29 144 -30 39 -37 58 -48 65 -41 8 8 -46 84 -192
272 -112 143 -207 260 -211 261 -4 0 -10 -5 -13 -10z"/>
<path d="M20910 5576 c-9 -12 -9 -20 4 -38 30 -43 21 -54 -79 -103 -112 -55
-198 -132 -267 -240 -108 -167 -115 -322 -19 -442 98 -123 250 -155 466 -98
335 89 402 99 473 69 139 -58 164 -214 50 -320 -47 -45 -93 -65 -158 -71 -76
-7 -149 11 -239 59 -63 33 -76 37 -88 25 -12 -11 -3 -23 59 -77 40 -36 108
-98 151 -139 60 -58 80 -72 89 -63 10 10 8 20 -7 48 -26 48 -16 59 84 103 131
57 211 134 277 267 69 139 56 258 -41 362 -115 124 -220 136 -525 58 -226 -57
-309 -63 -384 -26 -86 43 -132 120 -123 202 12 96 109 202 211 229 97 26 220
-14 388 -125 26 -17 28 -17 35 -1 4 13 -6 29 -39 59 -24 23 -96 88 -159 146
-150 138 -144 133 -159 116z"/>
<path d="M5288 4498 c-373 -403 -419 -449 -473 -475 -34 -16 -37 -16 -86 4
-41 18 -51 19 -56 8 -3 -9 9 -26 29 -42 18 -15 75 -68 126 -117 69 -68 95 -87
104 -78 8 8 4 21 -17 53 -51 78 -46 120 28 209 71 84 431 470 439 470 5 0 6
-25 3 -57 -6 -59 -30 -381 -61 -805 l-18 -237 55 -48 c30 -26 82 -75 117 -108
49 -46 65 -56 72 -45 6 10 0 24 -21 47 -34 39 -36 66 -10 108 28 46 674 737
713 763 40 26 91 28 132 7 21 -11 32 -13 40 -5 8 8 -4 24 -41 58 -29 26 -88
80 -132 120 -87 79 -112 81 -62 3 33 -50 39 -97 19 -134 -17 -33 -110 -139
-347 -395 -211 -228 -216 -232 -219 -200 -4 33 2 121 58 838 l29 375 -32 27
c-18 15 -35 28 -38 28 -3 0 -161 -168 -351 -372z"/>
<path d="M19787 4418 c-151 -135 -203 -186 -195 -195 8 -10 18 -7 46 12 45 31
67 31 106 4 48 -34 708 -781 724 -819 13 -32 12 -36 -17 -77 -33 -46 -38 -63
-20 -63 5 0 102 82 214 182 156 139 202 185 194 195 -9 10 -18 7 -47 -12 -56
-38 -85 -31 -153 35 -43 41 -591 661 -637 718 -50 64 -55 103 -17 144 25 27
33 58 16 58 -5 0 -102 -82 -214 -182z"/>
<path d="M6700 3779 c-35 -60 -86 -139 -113 -174 -46 -61 -52 -85 -23 -85 7 0
23 12 37 26 39 42 135 113 181 134 28 13 65 20 109 20 77 0 147 -30 242 -105
82 -65 80 -77 -34 -246 -50 -74 -116 -171 -146 -216 -31 -46 -59 -83 -63 -83
-17 0 -104 87 -116 117 -20 46 -17 124 5 183 16 41 17 51 5 61 -18 15 -28 7
-65 -59 -36 -64 -155 -245 -206 -311 -52 -69 -23 -84 53 -26 60 46 106 65 157
65 41 0 116 -30 136 -54 9 -10 -21 -60 -128 -217 -162 -237 -177 -254 -220
-244 -73 16 -211 134 -237 202 -24 62 -15 158 25 256 17 43 29 83 25 88 -12
21 -32 3 -82 -74 -29 -45 -77 -113 -107 -150 -30 -38 -55 -72 -55 -77 0 -17
782 -542 798 -535 12 4 8 13 -21 43 -43 43 -47 74 -18 130 22 42 530 791 570
838 39 47 60 54 107 37 141 -52 83 -2 -312 268 -213 145 -399 271 -413 280
l-26 17 -65 -109z"/>
<path d="M18995 3725 c-93 -20 -259 -103 -324 -161 -56 -50 -112 -127 -155
-212 -27 -54 -59 -92 -75 -92 -5 0 -29 15 -54 34 -29 22 -49 31 -58 26 -11 -7
-10 -12 3 -27 8 -10 68 -96 132 -191 120 -179 137 -222 102 -252 -17 -14 -9
-43 10 -36 13 5 420 281 439 298 5 5 5 12 -2 19 -7 7 -25 3 -61 -15 -97 -49
-123 -34 -243 140 -93 134 -102 160 -75 212 22 42 76 89 131 114 77 35 161 31
250 -12 136 -65 333 -295 426 -497 130 -280 87 -486 -120 -581 -46 -21 -72
-26 -146 -26 -78 -1 -97 3 -145 26 -30 15 -83 55 -117 89 -43 41 -68 59 -79
55 -8 -3 -14 -12 -12 -18 2 -7 55 -91 117 -186 100 -150 117 -170 129 -158 13
13 13 19 -2 51 -10 20 -16 46 -14 58 3 20 10 23 88 29 108 9 158 22 229 58 80
41 107 61 179 132 126 124 184 263 184 438 0 148 -37 260 -135 404 -151 222
-379 329 -602 281z"/>
<path d="M17737 2991 c-116 -56 -155 -79 -149 -89 7 -10 15 -10 36 -2 45 17
110 12 139 -10 14 -11 42 -50 62 -87 43 -78 325 -672 325 -684 0 -13 -13 -7
-495 231 -247 122 -489 240 -537 262 -89 41 -113 44 -151 15 -18 -12 -6 -41
206 -489 124 -261 232 -496 241 -522 26 -77 21 -120 -18 -159 -20 -21 -31 -39
-26 -46 5 -9 42 4 131 47 68 32 139 65 157 72 60 23 34 45 -38 32 -54 -10 -94
-1 -125 28 -13 12 -48 73 -79 135 -70 143 -246 515 -246 521 0 11 58 -16 498
-233 251 -124 467 -229 480 -234 19 -7 36 -2 85 25 34 18 97 48 140 66 101 44
99 65 -4 45 -65 -13 -79 9 -295 465 -108 228 -205 439 -215 469 -28 81 -25
114 15 159 62 68 30 64 -137 -17z"/>
<path d="M8120 3006 c0 -8 19 -25 43 -39 63 -37 82 -62 81 -108 -2 -52 -480
-1029 -505 -1029 -26 0 -105 58 -132 98 -51 75 -59 167 -27 321 10 52 17 98
14 103 -15 23 -35 -2 -84 -104 -30 -62 -75 -150 -101 -194 l-47 -82 500 -246
c275 -136 502 -245 503 -244 2 2 19 43 39 91 20 48 61 137 91 198 75 149 58
154 -72 21 -111 -112 -166 -145 -247 -145 -56 0 -122 15 -149 35 -17 12 1 52
223 503 151 308 253 502 273 523 37 38 64 40 138 12 51 -19 69 -19 69 1 0 10
-582 299 -601 299 -5 0 -9 -6 -9 -14z"/>
<path d="M9436 2413 c-51 -174 -320 -1010 -335 -1043 -29 -67 -60 -92 -118
-95 -83 -5 -67 -27 44 -59 54 -16 127 -39 162 -52 60 -23 81 -24 81 -4 0 4
-22 22 -49 39 -28 16 -55 40 -62 52 -22 42 -2 139 86 419 48 151 92 290 97
308 5 17 12 32 16 32 4 0 74 -174 156 -387 82 -214 171 -445 199 -515 l49
-128 42 -10 c22 -6 88 -26 145 -45 58 -19 108 -32 113 -29 16 10 8 25 -19 35
-45 17 -73 49 -73 84 0 35 282 940 311 997 27 53 64 78 114 78 26 0 45 5 48
13 4 10 -39 27 -151 62 -87 27 -163 51 -169 53 -7 2 -13 -3 -13 -11 0 -8 20
-27 45 -41 49 -29 75 -69 75 -114 0 -17 -12 -70 -26 -118 -35 -123 -214 -688
-219 -693 -3 -2 -9 7 -14 20 -5 13 -104 272 -221 574 -117 303 -214 555 -217
561 -3 9 -66 34 -86 34 -3 0 -8 -8 -11 -17z"/>
<path d="M11305 1944 c-11 -2 -45 -9 -75 -15 -100 -20 -196 -74 -280 -158
-130 -131 -188 -273 -197 -486 -5 -104 -2 -131 16 -200 63 -228 206 -362 455
-425 96 -24 243 -26 335 -5 190 45 363 206 432 402 25 70 49 209 49 278 -3
348 -254 593 -625 610 -49 2 -99 2 -110 -1z m208 -50 c69 -24 128 -81 166
-162 50 -110 64 -194 58 -357 -13 -314 -114 -564 -271 -663 -59 -37 -155 -42
-218 -12 -130 61 -202 226 -201 460 2 359 142 679 322 734 61 19 88 19 144 0z"/>
<path d="M15323 1916 c-170 -56 -256 -224 -199 -393 67 -200 329 -268 486
-126 204 183 89 513 -184 529 -35 2 -79 -2 -103 -10z"/>
<path d="M12970 1828 c-74 -10 -159 -46 -228 -95 -72 -51 -96 -42 -110 38 -5
29 -13 44 -22 44 -20 0 -22 -53 -13 -280 7 -158 10 -180 25 -183 19 -4 20 0
37 122 14 102 37 150 97 209 81 80 178 115 282 103 146 -17 250 -137 304 -352
20 -78 23 -113 22 -274 -1 -158 -4 -197 -23 -265 -43 -160 -101 -248 -194
-297 -34 -18 -58 -22 -132 -22 -78 0 -98 3 -145 27 -129 64 -184 148 -215 330
-4 28 -11 37 -25 37 -19 0 -20 -8 -20 -220 0 -213 1 -220 20 -220 15 0 20 7
20 25 0 39 27 95 45 95 9 0 31 -11 48 -24 18 -14 64 -40 102 -58 69 -33 71
-33 215 -33 133 0 151 3 219 28 266 97 411 319 411 627 0 368 -196 596 -550
640 -46 5 -89 9 -95 9 -5 -1 -39 -6 -75 -11z"/>
</g>
</svg>
