<svg version="1.0" xmlns="http://www.w3.org/2000/svg" width="77" height="77" viewBox="0 0 2560 2560"><path d="M1323 196.7c0 1.6.9 2.2 4 2.7 6.1 1 8 3.5 8 10.3 0 9.3-5.9 89.1-7.1 96.7-1.3 8-4.5 12.4-9.9 13.5-2 .4-3.6 1.4-3.8 2.2-.2 1.3 1.4 1.7 10 2.3 5.7.3 13.6.9 17.6 1.3 5.9.5 7.2.3 7.2-.9 0-.8-1.8-1.9-4.5-2.6-2.4-.6-5.9-2.5-7.7-4.1-2.9-2.6-3.3-3.5-3.6-9.8-.4-6.5 4.5-79.3 5.4-80.2.6-.6-1.5-3.6 33.9 48.4 18 26.4 33.8 49.5 35.2 51.2 2.1 2.9 3 3.3 6.9 3.3 4 0 4.4-.2 4.4-2.3 0-5.3 7.1-98.7 8-105.6 1.2-8.6 3.3-12.6 7.4-14.1 6.6-2.5 7.6-3 7.6-4 0-.5-1.2-1-2.7-1-4 0-25.2-1.9-29-2.5-2.8-.5-3.3-.3-3.3 1.3 0 1.3.9 2.2 2.8 2.7 5.2 1.3 9.3 3.8 10.7 6.6 2 3.8 1.9 13.9-.5 45.4-1.1 14.3-2 27-2 28.3 0 1.3-.4 2.2-1 2-.5-.2-12-16.5-25.6-36.3-13.6-19.8-27.5-40.1-31-45.1l-6.3-9.1-12.3-.6c-6.8-.4-13.8-.9-15.5-1.3-2.9-.6-3.3-.4-3.3 1.3zm-120.5 3.9c-22.5 1.8-41.6 3.3-42.2 3.3-.7.1-1.3.7-1.3 1.5 0 .9 1.8 1.5 5.2 1.9 6.1.8 7.6 2 8.9 7.5 1 4.7 7.9 93.1 7.9 102 0 7.5-1.8 10.1-7.8 10.9-3.3.4-4.2 1-4.2 2.6 0 1.7.5 1.9 4.3 1.4 2.3-.3 24.4-2 49-3.8 24.6-1.8 45.2-3.6 45.6-3.9.5-.3.3-4.8-.5-10-.7-5.2-1.6-14.6-2-20.8-.5-8.1-1.1-11.2-2-11.2-1.9 0-2.1.7-3.8 10.4-4 23.1-13.5 31.5-36.1 31.7-11.4.1-12.2-.6-13.5-12.1-1.7-15.6-3.3-42.7-2.7-44.4.5-1.1 1.9-1.6 5-1.6 10.8 0 18.2 5.8 22 17 1 3.2 2.1 4.6 3.6 4.8 2.5.4 2.5 1.3.6-12.6-.8-6.2-1.8-17.3-2.1-24.7-.7-12.8-.8-13.6-2.7-13.3-1.5.2-2.3 1.7-3.4 5.7-1.7 6.7-5.6 14-8.9 16.4-2.3 1.7-13.9 4.5-14.8 3.6-.6-.5-3.7-40.3-3.8-48.6-.1-3.7.4-6.8 1.1-7.7 3.4-4 23.7-5.2 31.3-1.8 7.7 3.4 13 11.2 16.8 24.6 1.3 4.7 2.1 6.1 3.6 6.1 1.2 0 1.8-.6 1.5-1.5-.2-.8-.6-9.5-.9-19.3l-.5-17.7-6.1.1c-3.4.1-24.5 1.6-47.1 3.5zM1072 218.1c-30.2 7.1-28.1 6.4-27.4 8.4.5 1.2 1.5 1.4 4 .9 4.6-.8 8.1.2 9.8 2.9 1.3 1.9 12.6 48 12.6 51.2 0 1.2-44.7 12.1-45.7 11.1-1.1-1.1-11.3-46.2-11.3-50.2 0-4.6 1.7-6.7 6.8-8.5 3.1-1.1 4.5-3.9 2-3.9-1 0-21.4 4.7-50.5 11.5-1.3.3-2.3 1.2-2.3 2 0 1.1 1.3 1.5 5.4 1.5 6.3 0 7.7 1 10 7.2 3.1 8.4 22.9 95.2 23 101 .1 6.2-1.2 8.1-6.6 9.3-1.5.4-3.1 1.1-3.4 1.7-1.9 3 2.9 2.4 27.9-3.4 21.2-4.9 26.7-6.5 26.5-7.7-.2-1.2-1.5-1.5-5-1.2-6.3.3-8.3-1-10.2-6.6-2.4-7.3-11.7-47.5-11.1-48.1 1-1 45-11 45.6-10.4 1.5 1.6 12 50 11.4 52.5-.7 2.8-3.8 5.2-7.9 6.3-2.4.6-3.4 2.3-2.1 3.6.6.5 53.2-11.6 54.1-12.5 1.6-1.6-1.1-2.9-4.9-2.3-4.9.8-8.3-1.1-10.3-5.9-2.7-6.5-23.4-97.7-23.4-103.1 0-5.8 1.4-7.5 7.3-8.9 1.7-.5 2.7-1.4 2.7-2.6 0-1-.3-1.9-.7-1.8-.5 0-12.3 2.7-26.3 6zm543.3 47.8c-8.7 10.9-25.9 32.5-38.2 48-23 28.8-27.5 33.3-34.8 34.7-6.6 1.3-3.4 3.4 12.7 8.5 8.5 2.6 16.3 4.9 17.3 4.9 3.1 0 1.8-2.7-2.4-4.5-5.3-2.4-7.9-5.9-7.9-10.4.1-5.8 3.9-12.2 18-30.2 1.5-1.9 2-1.8 20.2 3.8l18.7 5.8.6 6c.3 3.3.7 12.7.8 20.8.2 13.8.1 14.9-1.8 16.3-1.5 1.1-3.4 1.3-7.2.8-4.4-.5-5.3-.4-5.3.9 0 1.1 2.1 2.3 6.8 3.6 3.7 1.2 15.3 4.7 25.7 7.9 15.8 4.9 19.1 5.7 19.8 4.5.6-1 .2-2-1.3-3-4.7-3.3-5.2-6-7.5-41.8-.8-12.7-1.7-26.2-2-30-.3-3.9-1.4-19.3-2.5-34.4-1.1-15.1-2.3-27.8-2.7-28.2-.5-.4-3.1-1.4-6-2.2l-5.2-1.6-15.8 19.8zm2.1 22.8c.3 8.7.9 19.7 1.3 24.5.5 8.2.5 8.8-1.3 8.7-3.8-.1-31.9-9.5-31.9-10.7 0-1.6 29.7-39.2 30.5-38.7.4.2 1 7.5 1.4 16.2zm-730.9-15c-6.3 1-13.9 3.7-41.8 15-26 10.5-33 14.2-25.6 13.6 10.2-.8 10.7-.6 14.4 6.8 4.6 8.9 36.7 89.4 37.8 94.6 1 4.7.9 5.4-.9 7.4-1 1.1-3.1 2.7-4.6 3.5-2.7 1.4-3.9 4.4-1.8 4.4 1 0 52.1-20.5 55.4-22.2 1.2-.7 1.5-1.3.8-2s-3-.5-7.4.6c-7.6 2.1-10.8 1.2-13.8-3.6-1.7-2.9-5.2-11-13.1-31.1l-1.9-4.8 3.1-1.1c1.8-.6 7.5-3.2 12.9-5.8 11.9-5.9 21.1-14.1 26.1-23.2 3.3-6 3.4-6.8 3.4-16.8 0-9.4-.3-11.1-2.8-16.6-5.5-11.8-15.7-18.3-29.5-18.9-4.2-.2-9-.1-10.7.2zm-2.9 9.9c4.8 2.3 8.8 7.4 13.9 17.9 10.3 21.2 10.1 36.9-.6 44.2-4.5 3.1-13.6 6.9-14.4 6.1-1.2-1.2-22.6-55.8-23.1-59-.5-3.1-.2-4 2.1-6 5.4-4.8 15.7-6.2 22.1-3.2zm858.9 4.5c-.4.6-.5 1.1-.4 1.3.2.1 2.1 1.3 4.2 2.5 4.4 2.7 5.4 5.7 3.7 11.4-1.8 6.1-43.7 99.1-47.8 106.2-8.1 13.9-14.4 18.9-24.1 18.8-3.1-.1-6.2-.3-7-.5-.8-.1-1.6.5-1.9 1.4-.2 1.3 1.4 2.2 7.5 4.1 4.3 1.4 10.3 2.8 13.4 3.1 7.6 1 18.8-1.5 25.7-5.6 11.1-6.7 15.7-14.7 43.3-76 9.9-22.2 19.1-41.4 20.2-42.6 2.2-2.4 2.3-2.4 12.2-1 1.1.2 2-.3 2-1 0-1.1-47.1-23.2-49.5-23.2-.5 0-1.2.5-1.5 1.1zm-1028 65.8c-36 21-45.1 27.1-39.5 26.4.8-.1 2.9-.7 4.6-1.4 4.5-1.8 7.6-.5 11.1 4.4 3.8 5.5 47.9 81.7 50.4 87.2 2.8 6.2 2.5 9.2-1.6 12.8-3.7 3.3-4.8 6.4-1.7 5.2.9-.3 20.5-11.5 43.5-24.8 27.2-15.7 41.6-24.6 41.2-25.4-.2-.7-3-5.3-6.2-10.1-3.1-4.8-7.6-12.4-10.1-16.9-3.7-7.1-4.6-8.1-6.1-7.3-1.7.8-1.6 1.3.6 8.2 1.4 4 2.7 10.7 3 14.9 1 14-3.5 21.6-17.6 29.9-8.7 5-13.3 6-16.1 3.5-1.8-1.6-25-40.8-26.5-44.7-.8-2.1 3-4.7 9.6-6.4 7-1.8 13.1.2 20.1 6.5 5 4.5 7.8 5.5 7.8 2.8 0-.7-2-4.1-4.3-7.7-4.8-7.1-16-26.2-18.9-32.3-1.9-3.8-2.5-4.2-4.4-2.9-.9.5-.8 2.4.2 7.2 2.7 12.9-.6 21.5-10.2 26.3l-3.1 1.6-12.7-22c-7-12.1-13-23.5-13.3-25.2-.6-4 1.4-6.2 10.5-11.7 16.3-9.6 27.8-7.4 41.4 8 5.6 6.4 5.6 6.4 7.6 5.2.9-.6 0-3-3.7-9.1-2.8-4.6-7-12.3-9.3-17.2-2.4-4.9-4.5-8.9-4.8-8.8-.3 0-18.9 10.7-41.5 23.8zm1128.2-19.2c-.4.3 1.1 2.3 3.3 4.3 3 2.8 4 4.5 4 6.8 0 2.2-5.2 11.6-18.6 33.9-21.2 35.1-23.4 39.1-26.4 49.2-5.2 17.1 1.7 32.1 20.5 44.6 10.7 7.1 16.6 9 28 9 11.6 0 15.3-1.5 23.8-9.3 7.5-7.1 12-13.5 27.9-39.7 21.9-36.2 23.2-37.9 29.6-38 2 0 4.9.3 6.3.7 1.9.6 2.8.4 3.2-.6.4-1-1-2.4-4.1-4.2-2.6-1.5-9.4-5.6-15-9.2-7.4-4.6-10.7-6.1-11.5-5.3-.7.7.3 2.5 3.6 6 8.1 8.6 7.6 10.1-14.8 47.1-16.8 27.8-20.1 32.6-27.4 39.3-6.7 6.3-13 9.1-20.1 9.1-10.7-.1-23.5-7.6-27.5-16-2.5-5.3-1.6-14.5 2.2-22.6 3.6-7.7 42.6-72.4 45.6-75.6 2.4-2.6 7.4-2.9 11.8-.7 2.8 1.5 4.9 1.3 4.9-.4 0-1-46.2-29.1-47.7-29.1-.5 0-1.3.3-1.6.7zM579.4 446c-23.6 18.6-43 34.3-43.2 34.8-.1.5 2.9 4.4 6.8 8.8 4 4.3 10.1 11.8 13.8 16.6 4 5.2 7.1 8.4 7.9 8.1 1.8-.7 1.6-2.2-.7-7-7.2-15-9.2-29.2-5.2-37 2.6-4.9 8.6-11.3 10.7-11.3 1.5 0 66.7 81.7 69.7 87.3 2.8 5.2 2.2 7.3-3.3 13.2-3.6 3.8-4.9 6-4.5 7.1.6 1.5.8 1.5 2.4.2.9-.8 12.7-10.2 26.2-20.8 13.5-10.6 24.7-19.5 24.9-19.7.3-.2 0-.8-.7-1.5-.8-.8-2.4-.2-6.3 2.3-6.3 4-10.5 4.3-14.8.8-2.9-2.3-70.1-86.7-70.1-88 0-1.6 10-6.9 14.9-8 8.9-1.9 17.7 1.3 31.2 11.5 4.1 3.1 7.7 5.6 8.2 5.6 2.8 0 .8-4-6.7-13.5-4.7-5.8-10.5-13.5-12.8-17.1-2.4-3.5-4.6-6.4-4.9-6.4-.3 0-19.8 15.3-43.5 34zm707.7-27.8c-22 59.6-96.3 258.7-124.2 333.2l-5.9 15.9 3.6 11.6c1.9 6.4 22.8 63.1 46.4 126.1 23.5 63 65.6 175.5 93.5 250 27.9 74.5 65.8 175.8 84.2 225 18.5 49.2 33.7 90.4 33.8 91.5.2 1.1 1.7 5.4 3.3 9.6 7.9 19.6 64.4 172.6 67 181.4 23.4 76.7 25.1 141.9 5.5 202.8-12.9 40.3-30.7 66.6-52.7 77.8-6.6 3.5-19.1 6.9-24.8 6.9h-3.8v18h577v-17.6l-8.4-1.1c-31.1-4.2-64.8-32-107.7-88.8-35-46.4-65.7-102.4-91.7-167-4.4-11-19.6-51.1-33.7-89-14.1-38-47.1-126.2-73.2-196-26.1-69.9-67-179.2-90.8-243-23.9-63.8-64.7-173.2-90.8-243-26.2-69.9-68.9-184.2-95-254-26.1-69.9-58-155.2-70.8-189.7l-23.4-62.8h-8.3c-7.6 0-8.3.2-9.1 2.2zm703.4 11.8c-.4.7.7 2.6 2.4 4.4 3.9 4 4 7.7.3 13.2-4.7 7-60.8 74.8-65.1 78.7-2.3 2-4.9 3.7-5.8 3.7-.9 0-3.6-1.1-6-2.5-3.8-2.3-4.4-2.4-4.9-1-.4.9-.5 1.7-.3 1.9 1.4 1 73.8 60.2 75.2 61.5 1.6 1.4 2 1.4 2.7.1 2-3.6 16.3-22.2 21.1-27.4 4.2-4.7 4.9-5.9 3.9-7.1-1.1-1.3-1.6-1.2-3.9.6-15.3 11.9-29.4 16.3-41.2 12.8-4.3-1.3-16.4-10.5-19-14.6-1.6-2.3-1.6-3-.4-5.9 1.4-3.4 63.6-79.8 68.4-84 3.3-3 6.5-3 11.8 0 3.2 1.9 4.4 2.1 5.2 1.2.8-.9-4.5-5.7-20.3-18.6-11.7-9.6-21.8-17.6-22.4-17.8-.6-.2-1.3.2-1.7.8zM485.1 528.3c-.9 1.2-.7 2.2.9 4.9 2.7 4.6 1.5 5.9-8 9.3-9.2 3.2-13.4 6-20.9 14.1-8.5 9.1-12.5 17.7-12.9 28-.4 7.3-.1 8.7 2.4 13.8 5.1 10.5 15.5 17.2 28.1 18.3 6.7.5 11.3-.2 38.3-6.3 4.1-.9 11.1-1.7 15.5-1.8 6.6-.1 8.8.3 12.5 2.2 12.3 6.4 16.1 16.6 10.4 28.1-5 10-17.9 17.1-28.2 15.6-6.8-1-17.2-5.6-24.8-11-5.7-4.1-6.8-4.5-8-3.3-1.2 1.2.5 3.2 12.3 14.8 18.9 18.4 20.2 19.5 21.5 18.2.8-.8.7-2-.5-4.3-2-4.2-1.4-5.5 3.1-7 5.7-1.8 13.1-5.8 18.7-9.9 14.8-10.9 25.7-31 24.2-44.2-1.7-14.2-13.6-26.4-27.9-28.5-7.6-1.2-16.9-.1-35.8 4.2-9.1 2.1-20.1 4-24.5 4.2-7 .4-8.5.2-12.4-1.9-13.2-7.1-14.8-21.8-3.4-31.8 10.6-9.3 26.6-8.8 41.7 1.1 4.2 2.8 7.6 3.3 7.6 1.2 0-.5-6.4-7.3-14.3-15.1-12-12-14.5-14.1-15.6-12.9zm1623.4 2.6c-.3.6.6 2.8 2 4.8 5.1 7.5 5.3 7.2-29.5 38.8-13.5 12.3-26.9 25.2-29.9 28.7-7.6 9.1-11.2 17-11.2 25.1 0 8.2.6 10.8 4.8 18.8 6 11.7 16.6 22.4 27.3 27.7 4.7 2.3 6.8 2.7 14 2.7 7.9 0 9.2-.3 16.2-3.8 9.9-4.8 13.7-7.9 40.1-32 12-10.9 24.1-21.4 26.8-23.3 5.9-3.9 9.9-4.3 14.7-1.4 1.8 1.1 3.7 1.8 4.3 1.5 1.1-.8 1.2-3.2 0-3.7-.9-.3-12.3-12.6-18.4-19.7-2.7-3.3-4-4.2-4.8-3.4-.8.8-.4 2.6 1.6 6.7 5.1 10.4 3.5 12.7-27.6 41-31.1 28.2-37.7 32.6-51 33.4-7 .4-8.2.2-12.8-2.3-2.8-1.6-6.9-4.7-9.2-6.9-11.2-11.2-10.9-22.4 1-36.1 6.2-7.2 61.1-56.9 65.1-59 3.7-1.9 6-1.4 10.6 2.7 2.6 2.3 3.8 2.8 4.6 2 .9-.9.7-1.7-.9-3.4-13.4-15.1-35.8-39.4-36.4-39.6-.4-.2-1 .2-1.4.7zM378.9 777.7l-17.3 27.7 2.4 1.5c1.3.9 4 2.6 6.1 3.9l3.8 2.2 17.2-27.5c9.4-15.2 17-27.7 16.8-27.9-.2-.2-3-2-6.1-4l-5.7-3.6-17.2 27.7zm1826.8 1c-5.4 3.4-5.7 3.7-4.4 5.7.8 1.1 7.8 13.1 15.7 26.6 7.8 13.5 14.8 25.1 15.5 25.8.9 1 2.2.7 6.8-2 3.1-1.8 5.7-3.5 5.7-3.9 0-1.1-32-55.4-32.8-55.6-.4 0-3.3 1.5-6.5 3.4zm164.6 145c-.7.3-1.3 1.6-1.3 3s-.8 3.8-1.7 5.5c-1.1 1.8-21.5 17.8-51.2 40.1-27.2 20.5-49.8 37.5-50.3 37.8-.5.3-.1 3.3.9 6.7l1.8 6.2 10 .1c5.5 0 12.7.2 16 .4 3.3.2 15.7.4 27.5.6 11.8.2 23.5.6 26 .9l4.5.5-11.5 8.1c-11.9 8.3-55.2 39.3-55.9 40-.2.2.4 3.1 1.4 6.4l1.8 6h58.2c63.6 0 64.1 0 72.2 5.9 6.9 5 7.1 3.3 1.1-15.5-3.7-11.6-5.9-16.9-6.9-16.9-1.1 0-1.3 1.2-1.1 5.6.3 5.1.1 6-2.7 9.1-5.6 6.4-10.4 7.1-49.9 7.2-19.5 0-34.3-.4-34.3-.9-.2-.8 47.3-35 63.9-46.1 7.2-4.8 10.8-4.5 14 1.3 1.3 2.4 3 4.3 3.8 4.3 1.9 0 1.9-.1-2-12.6-1.9-6-5.3-16.8-7.5-24.1-3.2-10.2-4.5-13.1-5.6-12.7-.8.4-1.5 1.5-1.5 2.6 0 4.4-3.4 8-17.2 17.8-14.3 10.1-14.3 10.1-19.3 9.6-2.7-.3-13.1-.6-23-.8-9.9-.1-20.2-.5-22.8-.8l-4.9-.5 9.7-7c5.3-3.9 16.7-12.2 25.4-18.5 33.1-24.4 35.5-26 40.1-26 1.1 0 2.8 1 3.9 2.1 2.4 2.6 5.7 1.9 4.6-.9-.4-.9-3.7-11.2-7.3-22.7-3.5-11.6-6.7-21.3-7.1-21.6-.3-.4-1.2-.4-1.8-.2zm-2169.7 63c-8.2 24.7-15.1 45.3-15.3 45.9-.2.6.3 1.4 1.1 1.7 1.1.5 2-.3 3-2.6 2-4.9 4.3-6.7 8.4-6.7 3.7 0 90.5 28.4 99.9 32.7 6.4 2.9 7.7 5 6.8 11.4-.6 4-.4 4.9.8 4.9 1.1 0 5.8-12.7 17.2-47.1 8.6-25.8 15.5-47.1 15.4-47.3-.2-.1-4.9-1.5-10.4-3.1-5.5-1.5-14.2-4.2-19.4-6.1-5.2-1.8-9.8-3.1-10.3-2.8-2 1.3-.3 3.2 6.5 7.3 13.9 8.6 20.7 18 20.7 28.8 0 5.5-5.3 22.2-8 25.1-1.2 1.2-3.2 2.2-4.5 2.2-1.8 0-49.9-15.5-51.3-16.5-.1-.1.7-2.8 1.8-5.8 3.6-9.6 11.6-14.1 23.9-13.6 4.9.3 5.6.1 5.9-1.7.2-1.6-.8-2.2-7-3.8-4-1-14.9-4.4-24.1-7.6-15.6-5.2-16.9-5.5-17.8-3.9-.7 1.4-.4 2.1 1.3 3 3.4 1.8 11.8 10 13.4 13.1 1.7 3.3 1.8 10.3.3 14.9-.7 1.9-1.3 3.6-1.5 3.8-.7.8-49.8-16.3-51.5-18-1.1-1.1-1.9-3.2-1.9-4.7 0-3.1 3.8-14.9 6.3-19.8 2.2-4.3 8.7-9.9 13.3-11.5 3.5-1.2 14.4-1.5 24.9-.6 2 .1 3-.3 3.3-1.3.2-1.2-2.4-2.4-10-4.9-5.7-1.8-12.1-4.1-14.3-5.1-4.1-1.8-11.6-5-11.9-5-.1 0-6.8 20.1-15 44.7zm-18.1 120.6c-9.8 4.8-17.9 17.2-21.4 32.7-1.8 8-11.1 60.8-11.1 62.9 0 3.8 2.5 2.1 4.3-2.8 2-5.6 3.6-6.5 10.7-6.2 6.2.2 94.4 15.9 100.2 17.7 5.9 1.9 7.8 4.5 7.8 10.6 0 3.6.4 4.8 1.5 4.8.8 0 1.5-.2 1.5-.5s2-11.9 4.5-25.7c2.5-13.9 4.5-26 4.5-27 0-3.4-2.6-1.8-4 2.4-2.7 7.7-3.6 7.8-32.2 2.8-13.6-2.4-25.2-4.6-25.8-5-.7-.4-.6-2.8.3-7.9 2.6-13.2 6.6-15.1 32.6-15.1 25.3 0 30.9-2 36-12.9 2.2-4.8 2.6-7 2.6-15.1 0-8-.4-10.2-2.3-13.8-1.3-2.4-2.8-4.1-3.5-3.9-1.3.5-1.3.9.5 5.4 1 2.6.9 3.7-.1 5.7-.8 1.4-2.1 2.8-3 3.2-.9.3-9.1 1-18.3 1.5-18.2.9-22.7 1.7-27.9 5.2-3.9 2.6-10.2 11.5-12 17-.7 2.1-1.5 4-1.9 4.2-.3.2-.7-2.8-.8-6.6-.4-10.7-3.3-18.8-9.1-25.1-6.5-7.1-12.5-10-21.5-10.5-6-.3-7.9 0-12.1 2zm8.9 27.8c19.5 2.5 28.3 9.3 28.7 22.1.2 7.4-1.1 14.9-2.7 15.5-1.4.5-46-7.2-49.8-8.7-5.8-2.2-7.1-7.4-4-16.3 2-5.9 6.6-10.4 12.3-12.1 5.7-1.6 6.1-1.6 15.5-.5zm2239.6 16.3c0 5.5-1.7 8.6-5.4 10.1-4.1 1.7-96.8 14.5-104.9 14.5-4.7 0-5.8-.4-7.5-2.5-1.1-1.4-2.3-4.1-2.6-6.1-.7-3.7-2.9-4.3-3.4-.8-.3 2.2 12.4 96.3 13.1 97 .2.3 4-.3 8.3-1.2 4.4-.9 13.5-2.4 20.4-3.3 9.6-1.3 12.5-2 12.5-3.1s-2.3-1.8-9.1-2.6c-22.2-2.8-30.8-9.7-33.9-27.1-2-11.1-1.9-16.6.3-18.6 2.2-2 5.8-2.7 33.4-6.3 11.4-1.5 21.1-2.4 21.5-2 .5.4.8 3.8.8 7.6 0 9.4-3.2 14.1-13.2 19-10.1 5-9.9 8.1.5 5.9 3.1-.6 14.3-2.4 24.7-3.8 14.6-2.1 19-3 19-4.1 0-.8-1.5-1.8-3.5-2.3-10.4-2.5-14.5-4.1-17.9-7.2-3.7-3.4-6.1-8.7-6.1-13.8 0-3.1-1.9-2.6 29.3-6.8 21.7-2.8 23.9-3 26.1-1.6 2.7 1.8 4.3 7.3 5.2 18 1.4 16-5.3 24.6-23.9 31.2-4.3 1.5-7.7 3-7.7 3.4.1 2.5 1.8 2.8 9.5 1.5 4.4-.8 13-1.8 19-2.2l11-.7-.3-3c-.2-1.7-3-22.9-6.3-47.2-3.2-24.3-5.9-44.5-5.9-44.8 0-.3-.7-.5-1.5-.5-1 0-1.5 1-1.5 3.4zm-2242.5 112c-14.3 3.3-22.8 8-31.6 17.4-9.5 10.1-14.4 22.1-15.7 38-2.4 29.2 9.3 51.8 33.1 63.6 10.7 5.3 20.7 7.6 33.2 7.6 39 0 63.5-24.6 63.7-64 .1-20.6-8.6-39.3-23.5-50.6-6.1-4.5-17.5-9.8-24.7-11.4-8.7-1.8-27.6-2.2-34.5-.6zm31.3 29.7c30.3 3.4 50.2 18.2 47.8 35.6-2.7 20.1-29.7 32.8-65.9 31-30.4-1.5-51.8-11.9-56.2-27.2-5.7-19.4 11.4-34.6 44.5-39.8 5.3-.9 20.5-.7 29.8.4zm2103.8 19.1c-.3.7-.7 16.1-.9 34.3-.4 25.5-.2 34.9.9 41.3 3.5 20.4 14.2 32.5 30.3 33.9 17.4 1.6 30.7-12.1 34.4-35.4.6-4 1.4-7.3 1.8-7.3.4 0 .9 1.7 1.3 3.7.9 5.9 6 15.7 10.7 20.8 6.1 6.6 12.3 9.5 20.1 9.5 10.7 0 18.3-5.4 23.5-16.6 4.3-9.6 5.1-16.7 5.5-50.9.3-29.8.2-32-1.4-32.3-1.3-.3-1.8.3-1.8 2.1 0 3.9-2.1 8.7-4.3 9.9-1.5.8-14 1-41.7.9-46.7-.1-66.3-.9-70.7-2.6-3.1-1.3-3.6-2.3-4.6-10.4-.3-1.9-2.6-2.6-3.1-.9zm52.9 42.5 10.8.6-.5 8.7c-1.2 20.3-11.9 29.3-32.8 27.7-18.8-1.5-28-10-28-25.9 0-5.3 1.7-8.9 5-10.5 2.8-1.4 27.3-1.8 45.5-.6zm64.1 1.4c5.6 1.4 6.7 3.5 6.2 11.5-.3 5.4-.8 6.8-3.3 9.5-4.1 4.2-8.7 6-17.6 6.6-9.3.7-19.6-1-26.1-4.3-6.4-3.2-8.7-8-8.8-17.7v-6.7h22.6c13.4 0 24.3.5 27 1.1zm-2173.8 83.5c-.3 5.2-.6 6-3.3 7.5-2 1.2-20.1 4.5-54 9.8-28 4.5-52.1 8.1-53.5 8.1-3.8 0-6.8-2.6-8.1-7-1.2-3.9-3.9-5.6-3.9-2.4 0 1.8 5.9 38.7 6.3 39 .1.1 2.7.7 5.7 1.3 3 .5 19.9 4 37.5 7.6 17.6 3.6 35.5 7.3 39.8 8.2 4.2.9 7.7 1.9 7.7 2.3 0 .6-7.5 5.3-57 35.5-12.4 7.6-22.6 13.8-22.8 14-.1.1 1.1 8.7 2.8 19.1 1.6 10.4 3 20.1 3 21.6 0 2.1.5 2.8 2 2.8 1.7 0 2-.7 2-4.6 0-5.8 1.2-7.9 5.2-9.3 4.5-1.6 95.9-16.1 101.4-16.1 6 0 9.4 1.9 12.2 6.9 2.4 4.3 5.6 4.8 4.7.7-1.2-5.3-4.5-26.6-4.5-29 0-1.9-.5-2.6-2-2.6-1.7 0-2 .7-2 4 0 5.7-2.3 10.6-6.1 12.9-1.7 1.1-7.3 2.7-12.3 3.6-20.4 3.8-87.6 14.1-87.6 13.5 0-.4 10.8-7.4 24-15.6 73.4-45.5 79.5-49.4 79.5-51.1 0-1.8-.9-2.1-28-7.7-7.1-1.5-17.9-3.8-24-5.1-6-1.3-22.9-4.9-37.4-8-14.6-3.1-26.7-5.8-26.9-6-.7-.6 1.4-1 48.9-8.5 24.5-3.8 46.6-7 49.1-7 5.7 0 7.4 1.3 9.5 7.7 1.3 3.9 2.1 5 3.1 4.4 1.1-.7.6-5.8-3-28.2-3.6-22.8-4.6-27.4-6-27.7-1.4-.3-1.7.6-2 5.4zm2066.5 119.5c-15.6 6-23.2 25.7-15.9 41.1 5.2 11.1 15 17.2 27.6 17.1 12.5 0 21.7-5.8 27.1-17 2.8-5.9 3.1-7.2 2.7-14.2-.2-5.6-1-8.9-2.8-12.5-3.1-6.2-10.7-13-16.7-15-6.3-2.2-15.6-2-22 .5zM803.5 1708.2c-45.6 109-130.7 209.6-199.1 235.3-7.8 2.9-24.4 6.5-30.3 6.5H570v18h400v-18h-3.9c-2.2 0-7.2-.6-11.3-1.4-21-4.1-40.2-14.4-65-35-37.6-31.3-58.4-64.3-68.3-108-1.4-6.6-4.6-30.2-7.7-58.8-2.9-26.3-5.5-47.8-5.8-47.8-.3 0-2.3 4.2-4.5 9.2zM290 1719.9c-8.6 2.8-14.8 8.1-19.2 16.4-3.1 5.6-3.2 20.3-.4 25.7 4.9 9.1 10.6 13.8 20.1 16.6 10.6 3 21.8-.1 29.7-8.3 14-14.5 9.6-39.1-8.7-48.6-4.4-2.2-17-3.3-21.5-1.8zm1961.7 11.8c-8.8 17-26.3 56.5-28.3 63.8-2.7 10-3.2 23.5-1.3 32.7 3.9 18.4 17 33.8 37 43.3 23.6 11.1 45 9.6 62.7-4.4 9.9-7.9 17-19.1 30.8-48.6 7-14.9 13.5-28.6 14.6-30.5 2.2-4.2 2.2-4.6.4-5.3-.8-.3-2.6 1.2-4.4 3.9-3.7 5.1-6.2 5.6-13.9 2.5-8.2-3.1-86.1-39.9-90.3-42.6-5.5-3.5-6.5-6-4.7-11.3 1.2-3.4 1.2-4.4.1-5.3-1-.8-1.6-.4-2.7 1.8zm-5.1 41.7c5.3 1.9 89.1 41.3 93 43.7 6 3.7 6.3 8.9.9 18.7-5.8 10.7-15.9 17.8-27 18.9-20.3 2.1-65.3-18.6-78.6-36.2-4.9-6.4-6.9-12.2-6.9-19.4 0-9.3 4.5-21 9.6-25 3.2-2.5 3.9-2.5 9-.7zm-94.8 144.9c-14.7 22.1-26.8 40.8-27 41.5-.2.8 4.6 4.3 11.2 8.3 6.3 3.9 13.8 8.8 16.7 11 2.9 2.1 5.7 3.9 6.2 3.9 2.8 0 1.5-2.8-4.6-9.9-3.7-4.3-7.9-9.9-9.2-12.5-3-6.2-3.8-15-1.8-20.9 1.5-4.5 8.1-15.1 12-19.5 3.9-4.2 6.6-3.1 28.1 10.9 11.1 7.2 21 14 22 15 1.9 1.8 1.9 1.8-.8 5.3-6.9 9.1-15.6 11.6-26.8 7.8-3.2-1-6-1.7-6.3-1.4-1.7 1.8.2 4.1 5.8 7.1 3.4 1.9 12.8 7.9 20.9 13.3 13.4 9 16.8 10.6 16.8 7.7 0-.5-1.6-3-3.6-5.6-4.8-6.2-7.4-11.9-7.4-16.4 0-3.8 3.6-11.6 6.1-13.2 1.2-.7 6.5 2.3 22.7 13.2 11.6 7.7 21.9 15.2 22.8 16.6 1.4 2.2 1.5 3 .3 5.8-3.3 8.2-12 18.6-18.4 22-6.7 3.5-17.6 2.5-29.9-2.8-3.7-1.6-6.6-1.5-6.6.3 0 .4 4.2 3.6 9.3 6.9 5 3.3 12.1 8.4 15.6 11.2 3.5 2.8 6.5 5 6.7 4.9.3-.4 51.7-77.8 52.8-79.6.4-.7.1-1.4-.7-1.8-.8-.3-2.9 1-5 3.1-4.2 4.2-6.6 4.4-13.2.8-8.7-4.6-85.3-56.2-86.9-58.5-2.1-3-2-5.1.4-9.7 1.9-3.8 1.8-5.1-.4-5.1-.6 0-13.1 18.2-27.8 40.3zM466.5 1960c-.4.6.7 3.3 2.4 6 3.6 5.9 4 10.6 1.1 14.3-1.2 1.5-20.6 17.1-43.3 34.8-22.7 17.7-42 32.9-42.9 33.7-1.6 1.4-2 1.3-3.9-.4-4.3-3.9-6.3-9.4-6.4-17.4 0-6.5.4-8.4 3.2-14 1.8-3.6 5.7-9.6 8.8-13.4 4.7-5.9 5.3-7.2 4.2-8.4-1.2-1.1-3 0-12.1 7.2-5.9 4.7-13.6 10.5-17.2 12.8-3.5 2.3-6.3 4.8-6.2 5.5.3 1.3 65.2 84.6 67.2 86.3.8.5 2.8-.7 6-3.7 4.7-4.3 21.7-18.2 26.6-21.6 1.9-1.3 2.1-1.9 1.1-3-1-1.2-2.3-1-8.9 1.9-15.4 6.6-27.3 8-35.1 4-3.9-2.1-11.1-9.1-11.1-10.9.1-1.4 81.2-65.2 87.2-68.5 6.1-3.3 8.2-2.9 14.4 3 3.9 3.7 5.8 4.8 6.5 4.1.8-.8-4.6-8.4-19.2-27.2-11.2-14.3-20.7-26-21.1-26.1-.4 0-1 .5-1.3 1zm1624.5 42.4c-.9 1.2-.9 2 .4 3.8 3 4.3 2.1 5.4-7.9 10.3-11.2 5.5-19.8 13.2-26.7 24-10.8 16.7-11.5 32.2-1.9 44.2 9.8 12.3 25 15.5 46.6 9.8 33.5-8.9 40.2-9.9 47.3-6.9 13.9 5.8 16.4 21.4 5 32-4.7 4.5-9.3 6.5-15.8 7.1-7.6.7-14.9-1.1-23.9-5.9-6.3-3.3-7.6-3.7-8.8-2.5-1.2 1.1-.3 2.3 5.9 7.7 4 3.6 10.8 9.8 15.1 13.9 6 5.8 8 7.2 8.9 6.3 1-1 .8-2-.7-4.8-2.6-4.8-1.6-5.9 8.4-10.3 13.1-5.7 21.1-13.4 27.7-26.7 6.9-13.9 5.6-25.8-4.1-36.2-11.5-12.4-22-13.6-52.5-5.8-22.6 5.7-30.9 6.3-38.4 2.6-8.6-4.3-13.2-12-12.3-20.2 1.2-9.6 10.9-20.2 21.1-22.9 9.7-2.6 22 1.4 38.8 12.5 2.6 1.7 2.8 1.7 3.5.1.4-1.3-.6-2.9-3.9-5.9-2.4-2.3-9.6-8.8-15.9-14.6-15-13.8-14.4-13.3-15.9-11.6zM528.8 2110.2c-37.3 40.3-41.9 44.9-47.3 47.5-3.4 1.6-3.7 1.6-8.6-.4-4.1-1.8-5.1-1.9-5.6-.8-.3.9.9 2.6 2.9 4.2 1.8 1.5 7.5 6.8 12.6 11.7 6.9 6.8 9.5 8.7 10.4 7.8.8-.8.4-2.1-1.7-5.3-5.1-7.8-4.6-12 2.8-20.9 7.1-8.4 43.1-47 43.9-47 .5 0 .6 2.5.3 5.7-.6 5.9-3 38.1-6.1 80.5l-1.8 23.7 5.5 4.8c3 2.6 8.2 7.5 11.7 10.8 4.9 4.6 6.5 5.6 7.2 4.5.6-1 0-2.4-2.1-4.7-3.4-3.9-3.6-6.6-1-10.8 2.8-4.6 67.4-73.7 71.3-76.3 4-2.6 9.1-2.8 13.2-.7 2.1 1.1 3.2 1.3 4 .5.8-.8-.4-2.4-4.1-5.8-2.9-2.6-8.8-8-13.2-12-8.7-7.9-11.2-8.1-6.2-.3 3.3 5 3.9 9.7 1.9 13.4-1.7 3.3-11 13.9-34.7 39.5-21.1 22.8-21.6 23.2-21.9 20-.4-3.3.2-12.1 5.8-83.8l2.9-37.5-3.2-2.7c-1.8-1.5-3.5-2.8-3.8-2.8-.3 0-16.1 16.8-35.1 37.2zm1449.9 8c-15.1 13.5-20.3 18.6-19.5 19.5.8 1 1.8.7 4.6-1.2 4.5-3.1 6.7-3.1 10.6-.4 4.8 3.4 70.8 78.1 72.4 81.9 1.3 3.2 1.2 3.6-1.7 7.7-3.3 4.6-3.8 6.3-2 6.3.5 0 10.2-8.2 21.4-18.2 15.6-13.9 20.2-18.5 19.4-19.5-.9-1-1.8-.7-4.7 1.2-5.6 3.8-8.5 3.1-15.3-3.5-4.3-4.1-59.1-66.1-63.7-71.8-5-6.4-5.5-10.3-1.7-14.4 2.5-2.7 3.3-5.8 1.6-5.8-.5 0-10.2 8.2-21.4 18.2zM670 2182.1c-3.5 6-8.6 13.9-11.3 17.4-4.6 6.1-5.2 8.5-2.3 8.5.7 0 2.3-1.2 3.7-2.6 3.9-4.2 13.5-11.3 18.1-13.4 2.8-1.3 6.5-2 10.9-2 7.7 0 14.7 3 24.2 10.5 8.2 6.5 8 7.7-3.4 24.6-5 7.4-11.6 17.1-14.6 21.6-3.1 4.6-5.9 8.3-6.3 8.3-1.7 0-10.4-8.7-11.6-11.7-2-4.6-1.7-12.4.5-18.3 1.6-4.1 1.7-5.1.5-6.1-1.8-1.5-2.8-.7-6.5 5.9-3.6 6.4-15.5 24.5-20.6 31.1-5.2 6.9-2.3 8.4 5.3 2.6 6-4.6 10.6-6.5 15.7-6.5 4.1 0 11.6 3 13.6 5.4.9 1-2.1 6-12.8 21.7-16.2 23.7-17.7 25.4-22 24.4-7.3-1.6-21.1-13.4-23.7-20.2-2.4-6.2-1.5-15.8 2.5-25.6 1.7-4.3 2.9-8.3 2.5-8.8-1.2-2.1-3.2-.3-8.2 7.4-2.9 4.5-7.7 11.3-10.7 15-3 3.8-5.5 7.2-5.5 7.7 0 1.7 78.2 54.2 79.8 53.5 1.2-.4.8-1.3-2.1-4.3-4.3-4.3-4.7-7.4-1.8-13 2.2-4.2 53-79.1 57-83.8 3.9-4.7 6-5.4 10.7-3.7 14.1 5.2 8.3.2-31.2-26.8-21.3-14.5-39.9-27.1-41.3-28l-2.6-1.7-6.5 10.9zm1229.5 5.4c-9.3 2-25.9 10.3-32.4 16.1-5.6 5-11.2 12.7-15.5 21.2-2.7 5.4-5.9 9.2-7.5 9.2-.5 0-2.9-1.5-5.4-3.4-2.9-2.2-4.9-3.1-5.8-2.6-1.1.7-1 1.2.3 2.7.8 1 6.8 9.6 13.2 19.1 12 17.9 13.7 22.2 10.2 25.2-1.7 1.4-.9 4.3 1 3.6 1.3-.5 42-28.1 43.9-29.8.5-.5.5-1.2-.2-1.9s-2.5-.3-6.1 1.5c-9.7 4.9-12.3 3.4-24.3-14-9.3-13.4-10.2-16-7.5-21.2 2.2-4.2 7.6-8.9 13.1-11.4 7.7-3.5 16.1-3.1 25 1.2 13.6 6.5 33.3 29.5 42.6 49.7 13 28 8.7 48.6-12 58.1-4.6 2.1-7.2 2.6-14.6 2.6-7.8.1-9.7-.3-14.5-2.6-3-1.5-8.3-5.5-11.7-8.9-4.3-4.1-6.8-5.9-7.9-5.5-.8.3-1.4 1.2-1.2 1.8.2.7 5.5 9.1 11.7 18.6 10 15 11.7 17 12.9 15.8 1.3-1.3 1.3-1.9-.2-5.1-1-2-1.6-4.6-1.4-5.8.3-2 1-2.3 8.8-2.9 10.8-.9 15.8-2.2 22.9-5.8 8-4.1 10.7-6.1 17.9-13.2 12.6-12.4 18.4-26.3 18.4-43.8 0-14.8-3.7-26-13.5-40.4-15.1-22.2-37.9-32.9-60.2-28.1zm-125.8 73.4c-11.6 5.6-15.5 7.9-14.9 8.9.7 1 1.5 1 3.6.2 4.5-1.7 11-1.2 13.9 1 1.4 1.1 4.2 5 6.2 8.7 4.3 7.8 32.5 67.2 32.5 68.4 0 1.3-1.3.7-49.5-23.1-24.7-12.2-48.9-24-53.7-26.2-8.9-4.1-11.3-4.4-15.1-1.5-1.8 1.2-.6 4.1 20.6 48.9 12.4 26.1 23.2 49.6 24.1 52.2 2.6 7.7 2.1 12-1.8 15.9-2 2.1-3.1 3.9-2.6 4.6.5.9 4.2-.4 13.1-4.7 6.8-3.2 13.9-6.5 15.7-7.2 6-2.3 3.4-4.5-3.8-3.2-5.4 1-9.4.1-12.5-2.8-1.3-1.2-4.8-7.3-7.9-13.5-7-14.3-24.6-51.5-24.6-52.1 0-1.1 5.8 1.6 49.8 23.3 25.1 12.4 46.7 22.9 48 23.4 1.9.7 3.6.2 8.5-2.5 3.4-1.8 9.7-4.8 14-6.6 10.1-4.4 9.9-6.5-.4-4.5-6.5 1.3-7.9-.9-29.5-46.5-10.8-22.8-20.5-43.9-21.5-46.9-2.8-8.1-2.5-11.4 1.5-15.9 6.2-6.8 3-6.4-13.7 1.7zm-961.7-1.5c0 .8 1.9 2.5 4.3 3.9 6.3 3.7 8.2 6.2 8.1 10.8-.2 5.2-48 102.9-50.5 102.9-2.6 0-10.5-5.8-13.2-9.8-5.1-7.5-5.9-16.7-2.7-32.1 1-5.2 1.7-9.8 1.4-10.3-1.5-2.3-3.5.2-8.4 10.4-3 6.2-7.5 15-10.1 19.4l-4.7 8.2 50 24.6c27.5 13.6 50.2 24.5 50.3 24.4.2-.2 1.9-4.3 3.9-9.1s6.1-13.7 9.1-19.8c7.5-14.9 5.8-15.4-7.2-2.1-11.1 11.2-16.6 14.5-24.7 14.5-5.6 0-12.2-1.5-14.9-3.5-1.7-1.2.1-5.2 22.3-50.3 15.1-30.8 25.3-50.2 27.3-52.3 3.7-3.8 6.4-4 13.8-1.2 5.1 1.9 6.9 1.9 6.9-.1 0-1-58.2-29.9-60.1-29.9-.5 0-.9.6-.9 1.4zm131.6 59.3c-5.1 17.4-32 101-33.5 104.3-2.9 6.7-6 9.2-11.8 9.5-8.3.5-6.7 2.7 4.4 5.9 5.4 1.6 12.7 3.9 16.2 5.2 6 2.3 8.1 2.4 8.1.4 0-.4-2.2-2.2-4.9-3.9-2.8-1.6-5.5-4-6.2-5.2-2.2-4.2-.2-13.9 8.6-41.9 4.8-15.1 9.2-29 9.7-30.8.5-1.7 1.2-3.2 1.6-3.2.4 0 7.4 17.4 15.6 38.7 8.2 21.4 17.1 44.5 19.9 51.5l4.9 12.8 4.2 1c2.2.6 8.8 2.6 14.5 4.5 5.8 1.9 10.8 3.2 11.3 2.9 1.6-1 .8-2.5-1.9-3.5-4.5-1.7-7.3-4.9-7.3-8.4s28.2-94 31.1-99.7c2.7-5.3 6.4-7.8 11.4-7.8 2.6 0 4.5-.5 4.8-1.3.4-1-3.9-2.7-15.1-6.2-8.7-2.7-16.3-5.1-16.9-5.3-.7-.2-1.3.3-1.3 1.1s2 2.7 4.5 4.1c4.9 2.9 7.5 6.9 7.5 11.4 0 1.7-1.2 7-2.6 11.8-3.5 12.3-21.4 68.8-21.9 69.3-.3.2-.9-.7-1.4-2-.5-1.3-10.4-27.2-22.1-57.4-11.7-30.3-21.4-55.5-21.7-56.1-.3-.9-6.6-3.4-8.6-3.4-.3 0-.8.8-1.1 1.7zm186.9 46.9c-1.1.2-4.5.9-7.5 1.5-10 2-19.6 7.4-28 15.8-13 13.1-18.8 27.3-19.7 48.6-.5 10.4-.2 13.1 1.6 20 6.3 22.8 20.6 36.2 45.5 42.5 9.6 2.4 24.3 2.6 33.5.5 19-4.5 36.3-20.6 43.2-40.2 2.5-7 4.9-20.9 4.9-27.8-.3-34.8-25.4-59.3-62.5-61-4.9-.2-9.9-.2-11 .1zm20.8 5c6.9 2.4 12.8 8.1 16.6 16.2 5 11 6.4 19.4 5.8 35.7-1.3 31.4-11.4 56.4-27.1 66.3-5.9 3.7-15.5 4.2-21.8 1.2-13-6.1-20.2-22.6-20.1-46 .2-35.9 14.2-67.9 32.2-73.4 6.1-1.9 8.8-1.9 14.4 0zm381-2.2c-17 5.6-25.6 22.4-19.9 39.3 6.7 20 32.9 26.8 48.6 12.6 20.4-18.3 8.9-51.3-18.4-52.9-3.5-.2-7.9.2-10.3 1zm-235.3 8.8c-7.4 1-15.9 4.6-22.8 9.5-7.2 5.1-9.6 4.2-11-3.8-.5-2.9-1.3-4.4-2.2-4.4-2 0-2.2 5.3-1.3 28 .7 15.8 1 18 2.5 18.3 1.9.4 2 0 3.7-12.2 1.4-10.2 3.7-15 9.7-20.9 8.1-8 17.8-11.5 28.2-10.3 14.6 1.7 25 13.7 30.4 35.2 2 7.8 2.3 11.3 2.2 27.4-.1 15.8-.4 19.7-2.3 26.5-4.3 16-10.1 24.8-19.4 29.7-3.4 1.8-5.8 2.2-13.2 2.2-7.8 0-9.8-.3-14.5-2.7-12.9-6.4-18.4-14.8-21.5-33-.4-2.8-1.1-3.7-2.5-3.7-1.9 0-2 .8-2 22 0 21.3.1 22 2 22 1.5 0 2-.7 2-2.5 0-3.9 2.7-9.5 4.5-9.5.9 0 3.1 1.1 4.8 2.4 1.8 1.4 6.4 4 10.2 5.8 6.9 3.3 7.1 3.3 21.5 3.3 13.3 0 15.1-.3 21.9-2.8 26.6-9.7 41.1-31.9 41.1-62.7 0-36.8-19.6-59.6-55-64-4.6-.5-8.9-.9-9.5-.9-.5.1-3.9.6-7.5 1.1z"/></svg>