<?xml version="1.0" standalone="no"?>
<!DOCTYPE svg PUBLIC "-//W3C//DTD SVG 20010904//EN"
 "http://www.w3.org/TR/2001/REC-SVG-20010904/DTD/svg10.dtd">
<svg version="1.0" xmlns="http://www.w3.org/2000/svg"
 width="826.000000pt" height="833.000000pt" viewBox="0 0 826.000000 833.000000"
 preserveAspectRatio="xMidYMid meet">

<g transform="translate(0.000000,833.000000) scale(0.100000,-0.100000)"
fill="#000000" stroke="none">
<path d="M3840 8150 c0 -96 3 -192 6 -212 6 -33 10 -38 34 -38 l28 0 -5 138
-5 137 152 -150 152 -150 -6 94 c-3 52 -6 150 -6 218 l0 123 -30 0 -30 0 0
-137 0 -138 -145 145 -145 145 0 -175z"/>
<path d="M3461 8254 c-47 -8 -86 -15 -87 -17 -2 -2 57 -390 61 -395 1 -1 50 5
108 14 100 16 107 18 107 40 0 33 -11 36 -90 23 -38 -7 -72 -10 -74 -8 -3 2
-8 32 -11 65 l-7 61 64 7 c78 9 89 15 81 45 -6 22 -9 23 -62 17 -31 -4 -65 -8
-75 -9 -16 -2 -21 7 -28 42 -4 25 -6 46 -4 48 2 2 36 9 75 16 40 7 72 15 72
20 -1 4 -1 16 -1 27 0 24 -9 24 -129 4z"/>
<path d="M4755 8068 c-72 -100 -131 -184 -133 -188 -2 -4 11 -10 28 -12 27 -4
35 0 62 39 17 23 32 43 32 43 10 0 161 -31 163 -34 2 -2 9 -26 16 -52 11 -45
15 -49 43 -52 l32 -3 -35 143 c-19 79 -41 175 -50 213 -8 39 -19 73 -22 77 -4
5 -65 -74 -136 -174z m140 -85 c-1 -2 -27 2 -59 8 l-56 12 16 26 c9 14 28 42
43 61 l26 35 16 -70 c8 -39 15 -71 14 -72z"/>
<path d="M3071 8171 c-13 -8 -11 -20 7 -82 11 -41 20 -74 19 -74 -11 -6 -160
-45 -162 -43 -2 2 -12 35 -24 75 -21 70 -22 71 -49 63 -15 -4 -26 -11 -26 -16
1 -5 25 -91 54 -191 54 -186 61 -198 98 -174 11 7 10 22 -9 82 -12 41 -22 80
-23 88 -1 9 27 22 79 37 44 12 80 22 81 21 1 -1 13 -40 26 -87 22 -78 26 -85
48 -82 13 1 26 5 29 7 3 3 -20 91 -50 195 -55 193 -61 204 -98 181z"/>
<path d="M5299 7988 c-23 -73 -48 -145 -55 -160 -15 -30 -41 -36 -76 -17 -16
9 -24 7 -40 -8 -18 -19 -18 -20 1 -37 11 -10 40 -21 64 -23 36 -4 48 -1 75 22
27 23 39 50 82 183 27 86 48 157 47 158 -1 0 -14 4 -29 8 -27 6 -27 6 -69
-126z"/>
<path d="M5587 7892 c-71 -160 -74 -172 -52 -228 29 -77 119 -113 200 -80 42
18 52 34 120 187 51 114 54 125 38 136 -9 7 -22 13 -28 13 -6 0 -37 -59 -69
-130 -32 -72 -68 -137 -79 -145 -36 -26 -82 -19 -111 16 -14 17 -26 38 -26 46
0 9 25 74 55 145 30 70 55 132 55 136 0 5 -11 14 -24 20 -23 10 -25 7 -79
-116z"/>
<path d="M2510 7976 c-75 -28 -90 -36 -90 -45 0 -13 141 -343 151 -355 5 -6
18 -5 33 2 l25 11 -29 67 c-17 36 -30 71 -30 77 0 7 15 19 33 27 38 18 77 73
77 109 0 54 -65 122 -117 121 -10 -1 -34 -7 -53 -14z m90 -66 c27 -27 25 -56
-5 -85 -36 -37 -53 -31 -79 28 l-23 52 21 12 c31 18 63 16 86 -7z"/>
<path d="M2103 7778 c-51 -28 -91 -54 -89 -57 37 -74 192 -341 198 -341 4 0
49 23 98 51 55 32 87 56 83 63 -21 37 -25 37 -89 1 -35 -20 -68 -34 -73 -30
-5 3 -21 27 -36 53 -21 37 -24 49 -13 55 7 4 37 21 66 38 56 32 59 36 39 63
-13 18 -17 17 -79 -18 -71 -39 -71 -39 -101 19 l-15 31 69 37 c65 36 68 39 57
62 -6 14 -14 25 -17 25 -3 0 -47 -23 -98 -52z"/>
<path d="M6126 7748 c-50 -81 -187 -320 -184 -322 14 -12 150 -87 152 -84 2 1
8 13 15 25 10 19 6 24 -39 52 l-49 30 86 147 c82 139 86 147 68 160 -26 19
-32 18 -49 -8z"/>
<path d="M1722 7534 c-51 -36 -92 -69 -92 -73 0 -4 6 -15 13 -26 13 -17 15
-17 52 8 l38 26 95 -132 c52 -73 98 -136 103 -142 6 -6 17 -1 30 12 l21 20
-92 128 c-50 70 -94 133 -96 140 -3 7 9 24 26 37 28 22 31 28 21 47 -7 11 -15
21 -20 21 -4 0 -49 -30 -99 -66z"/>
<path d="M6415 7468 c-102 -133 -115 -157 -115 -207 0 -60 32 -108 88 -133 86
-39 127 -15 253 148 l81 104 -24 20 c-18 15 -25 16 -33 7 -5 -7 -45 -58 -88
-114 -88 -113 -118 -133 -167 -113 -37 15 -50 37 -50 81 0 26 19 58 86 146 84
110 86 114 69 133 -10 11 -21 20 -24 20 -3 0 -37 -42 -76 -92z"/>
<path d="M1403 7285 c-71 -31 -94 -121 -45 -176 34 -38 78 -42 161 -14 52 17
54 17 80 -2 37 -28 36 -78 -2 -107 -27 -20 -29 -20 -59 -3 -29 17 -31 17 -44
0 -21 -28 -12 -47 30 -61 51 -16 95 -2 136 44 50 58 35 143 -33 184 -39 24
-61 25 -118 4 -80 -28 -118 -19 -119 28 0 25 40 58 71 58 19 0 28 6 32 22 10
38 -31 49 -90 23z"/>
<path d="M4034 7113 c22 -72 194 -768 191 -771 -2 -3 -39 16 -82 41 -176 103
-342 162 -489 174 l-84 6 0 -51 c0 -58 -8 -53 110 -72 161 -28 398 -128 392
-166 -5 -28 -393 -1528 -396 -1531 -1 -2 -158 154 -348 345 -342 344 -391 401
-445 520 -28 59 -52 181 -52 257 -1 69 23 176 54 243 76 167 236 287 453 342
l42 11 0 49 0 50 -39 0 c-110 0 -329 -58 -453 -121 -327 -165 -564 -489 -624
-855 -34 -209 0 -466 90 -676 115 -268 205 -381 669 -840 l382 -378 -68 -267
c-38 -148 -121 -470 -185 -718 l-117 -450 -177 -3 -178 -2 0 -55 0 -55 395 0
395 0 0 55 0 55 -164 2 -163 3 175 670 c96 369 176 672 178 674 6 7 532 -509
632 -619 255 -281 332 -445 319 -679 -6 -115 -20 -169 -68 -266 -106 -216
-386 -372 -725 -403 l-79 -7 -3 -52 c-4 -62 -12 -60 146 -42 330 35 643 171
853 367 228 213 351 471 380 794 29 317 -44 599 -235 902 -31 48 -53 92 -50
97 3 5 28 9 55 9 l51 0 -7 33 c-18 79 -15 77 -113 77 l-89 0 -93 112 c-52 61
-231 250 -398 419 -282 286 -304 311 -298 336 4 16 91 351 193 747 180 695
186 720 176 770 -6 28 -9 53 -7 55 2 2 37 -29 78 -70 l75 -74 481 -1912 c264
-1052 480 -1919 480 -1928 0 -13 -25 -15 -175 -15 l-175 0 0 -55 0 -55 745 0
745 0 0 55 0 55 -192 2 -192 3 -104 415 c-57 228 -332 1324 -611 2435 l-507
2020 -378 3 c-356 2 -377 1 -372 -15z"/>
<path d="M6897 6833 c-14 -17 -11 -22 35 -72 l49 -54 21 21 21 20 -43 51 c-47
55 -59 60 -83 34z"/>
<path d="M1081 6585 c-42 -56 -44 -67 -12 -84 14 -8 25 0 60 45 43 55 44 66
11 84 -15 8 -25 1 -59 -45z"/>
<path d="M7365 6398 c-88 -55 -164 -103 -169 -108 -8 -8 58 -112 91 -142 28
-26 88 -48 128 -48 104 0 204 99 205 201 0 36 -57 166 -83 187 -9 8 -55 -16
-172 -90z m176 -30 c40 -78 7 -162 -76 -193 -73 -28 -138 -5 -177 63 l-18 30
113 71 c61 38 118 70 124 71 7 0 22 -19 34 -42z"/>
<path d="M480 6033 c-29 -11 -67 -54 -90 -103 -13 -28 -21 -52 -19 -54 2 -3
84 -43 182 -90 164 -79 178 -83 187 -66 17 32 12 39 -60 71 -38 18 -70 35 -70
39 0 4 37 13 83 19 110 16 115 18 132 52 19 35 19 35 -95 13 -45 -8 -83 -14
-84 -12 -1 2 -8 23 -16 48 -23 67 -90 105 -150 83z m80 -73 c22 -22 26 -60 10
-90 -10 -19 -12 -19 -65 7 -30 15 -55 33 -55 41 0 20 47 62 70 62 11 0 29 -9
40 -20z"/>
<path d="M7745 5994 c-27 -13 -107 -51 -177 -84 l-127 -59 46 -100 c44 -96 47
-99 69 -89 13 6 24 15 24 20 0 5 -13 38 -29 73 l-30 65 49 25 c27 14 54 25 59
25 5 0 23 -30 40 -66 23 -50 35 -65 47 -60 9 3 20 6 26 6 13 0 8 19 -26 92
l-26 58 41 20 c22 12 43 18 48 16 5 -3 21 -35 36 -71 16 -36 31 -65 34 -65 3
1 16 6 28 13 l21 12 -43 95 c-24 52 -48 96 -52 97 -4 1 -30 -9 -58 -23z"/>
<path d="M238 5556 l-36 -104 171 -60 c95 -33 181 -62 192 -66 18 -5 24 6 55
95 29 85 32 101 20 110 -28 17 -43 4 -64 -58 -12 -34 -24 -65 -28 -68 -8 -8
-118 26 -118 36 0 5 11 39 25 76 13 37 23 68 22 69 -1 1 -14 5 -28 9 -26 6
-28 4 -49 -59 -12 -36 -25 -68 -30 -71 -8 -5 -70 13 -83 24 -6 6 12 69 37 132
5 10 -1 19 -19 27 -14 7 -27 12 -28 12 -1 0 -19 -47 -39 -104z"/>
<path d="M7950 5618 c-102 -82 -319 -272 -316 -275 5 -6 53 -10 279 -27 173
-12 174 -12 158 29 -7 18 -22 21 -157 30 l-149 10 113 95 c108 91 119 106 104
142 -6 15 -9 15 -32 -4z"/>
<path d="M135 5208 c-10 -27 -45 -189 -45 -207 0 -12 9 -20 24 -23 25 -5 36 7
36 40 1 46 10 46 180 7 170 -39 179 -39 180 6 0 13 -19 21 -77 34 -43 9 -118
26 -166 37 l-88 20 3 46 c3 42 1 47 -20 50 -12 2 -24 -3 -27 -10z"/>
<path d="M7916 5054 c-93 -19 -171 -36 -173 -38 -3 -2 5 -50 16 -107 12 -56
21 -103 21 -104 0 -1 14 0 30 3 22 3 29 9 26 21 -12 44 -27 133 -23 138 7 7
77 22 103 23 19 0 23 -9 34 -75 13 -73 13 -75 39 -68 14 3 28 7 29 9 4 2 -14
100 -24 136 -4 13 4 18 41 24 25 3 48 4 50 2 3 -2 11 -35 19 -72 7 -37 16 -69
19 -72 2 -3 16 -2 29 1 l24 6 -20 105 c-24 123 2 116 -240 68z"/>
<path d="M50 4770 c0 -16 4 -30 9 -30 5 0 86 -11 181 -25 217 -32 210 -32 210
3 l0 29 -188 26 c-103 15 -193 27 -199 27 -8 0 -13 -13 -13 -30z"/>
<path d="M7975 4622 c-88 -8 -162 -16 -163 -18 -2 -1 -1 -41 3 -88 l7 -86 31
0 30 0 -6 60 c-5 44 -3 60 6 60 6 0 75 7 152 15 77 8 148 15 158 15 12 0 17 8
17 30 0 36 9 35 -235 12z"/>
<path d="M326 4425 l-80 -54 -14 30 c-40 81 -173 77 -208 -6 -8 -19 -14 -62
-14 -95 l0 -60 63 0 c35 0 125 -3 200 -7 l137 -6 0 31 0 32 -80 0 c-44 0 -80
4 -80 9 0 5 38 33 85 62 78 50 85 56 85 86 0 18 -3 33 -7 32 -5 0 -44 -25 -87
-54z m-159 -33 c13 -8 33 -55 33 -78 0 -11 -15 -14 -65 -14 l-65 0 0 32 c0 17
7 40 17 50 16 18 58 24 80 10z"/>
<path d="M7995 4265 c-5 -2 -22 -6 -37 -9 -39 -9 -98 -64 -119 -111 -61 -134
43 -295 191 -295 78 0 159 53 191 125 51 110 -10 246 -124 280 -48 14 -80 17
-102 10z m118 -82 c85 -43 90 -184 9 -242 -69 -49 -179 -28 -222 41 -34 56
-22 149 24 187 47 39 127 45 189 14z"/>
<path d="M0 4021 c0 -39 21 -58 82 -75 34 -9 95 -26 133 -38 l70 -20 -134 -67
-133 -67 147 -39 148 -38 -109 -55 c-153 -76 -152 -75 -146 -111 l4 -31 187
96 c102 53 192 102 199 109 11 10 -13 19 -130 47 l-143 34 125 63 c134 68 136
69 129 75 -5 5 -411 126 -422 126 -4 0 -7 -4 -7 -9z"/>
<path d="M7792 3633 c3 -25 8 -28 78 -41 l75 -13 -3 -55 c-4 -51 -2 -56 31
-89 30 -30 42 -35 81 -35 79 0 114 41 131 152 8 54 32 44 -201 83 -195 32
-196 32 -192 -2z m298 -79 c24 -4 30 -11 30 -30 0 -35 -42 -74 -71 -67 -40 10
-49 23 -49 70 0 44 0 45 30 39 17 -3 44 -9 60 -12z"/>
<path d="M7685 3160 c-16 -55 -26 -102 -24 -105 3 -2 16 -6 29 -7 20 -3 25 4
42 67 11 39 21 71 23 73 1 1 29 -5 62 -14 l60 -17 -20 -73 c-11 -41 -18 -76
-16 -78 2 -2 15 -6 28 -8 23 -3 26 3 44 69 22 79 21 79 94 52 l22 -8 -20 -68
c-22 -77 -19 -93 13 -93 21 0 26 10 51 101 16 56 27 102 25 104 -5 5 -363 105
-375 105 -6 0 -23 -45 -38 -100z"/>
<path d="M364 3046 c-10 -26 4 -48 28 -44 17 2 23 10 23 28 0 18 -6 26 -23 28
-13 2 -25 -3 -28 -12z"/>
<path d="M2190 2241 l0 -691 49 0 48 0 7 68 c8 91 22 136 53 172 38 45 74 60
145 60 83 0 166 -31 298 -109 229 -135 444 -221 556 -221 l34 0 0 53 0 53 -67
12 c-144 24 -312 94 -447 184 -73 49 -236 210 -295 291 -65 89 -157 271 -195
387 -40 125 -53 182 -69 321 l-12 104 -52 3 -53 3 0 -690z"/>
<path d="M7575 2839 c-9 -27 -3 -32 70 -62 33 -14 59 -29 57 -34 -2 -4 -44
-17 -93 -28 -80 -18 -93 -23 -106 -48 -8 -16 -13 -31 -10 -33 2 -2 42 5 88 16
46 11 89 20 95 20 7 0 15 -15 18 -33 3 -19 20 -47 37 -63 25 -24 39 -29 79
-29 34 0 54 6 70 20 27 24 83 136 72 146 -11 10 -345 149 -359 149 -6 0 -15
-9 -18 -21z m268 -144 c42 -18 42 -16 22 -55 -30 -58 -115 -43 -115 19 0 66
12 70 93 36z"/>
<path d="M696 2563 c-25 -51 -49 -93 -53 -93 -3 0 -14 6 -22 14 -33 29 -102
23 -141 -11 -46 -42 -49 -87 -12 -168 l31 -66 180 91 c179 89 181 90 169 115
-6 14 -15 25 -20 25 -5 0 -40 -16 -79 -36 -39 -19 -70 -31 -68 -27 2 5 24 48
49 95 44 85 44 87 29 120 l-16 33 -47 -92z m-91 -138 c36 -35 31 -52 -26 -81
-59 -29 -68 -25 -76 33 -4 34 -2 43 18 57 33 22 56 20 84 -9z"/>
<path d="M811 2154 c-90 -45 -136 -142 -112 -234 41 -155 229 -211 344 -102
112 106 78 287 -65 346 -54 23 -107 20 -167 -10z m159 -49 c108 -56 109 -203
2 -263 -77 -43 -162 -19 -204 58 -24 43 -19 110 9 149 46 61 134 87 193 56z"/>
<path d="M7413 2143 c-17 -6 -16 -38 1 -52 22 -18 48 -2 44 28 -3 25 -20 35
-45 24z"/>
<path d="M6924 1762 c-23 -26 -49 -63 -59 -82 -23 -43 -24 -124 -2 -166 24
-46 91 -102 138 -114 80 -22 146 5 223 91 l45 50 -149 135 c-81 74 -150 134
-152 134 -1 0 -21 -21 -44 -48z m255 -226 c2 -18 -71 -75 -102 -81 -42 -8
-110 18 -137 52 -48 61 -45 123 6 191 l25 32 104 -92 c57 -51 104 -97 104
-102z"/>
<path d="M1255 1654 c-44 -42 -99 -92 -123 -111 l-43 -36 -33 32 c-32 31 -33
31 -51 11 -20 -22 -19 -22 98 -153 l43 -49 23 19 24 19 -32 36 -31 36 125 112
c69 62 125 115 125 119 -1 11 -27 41 -36 41 -5 -1 -45 -35 -89 -76z"/>
<path d="M1533 1504 c-13 -34 -130 -419 -128 -422 2 -2 407 177 414 184 3 2
-5 14 -17 26 l-22 22 -46 -22 c-52 -26 -51 -26 -134 47 l-44 39 16 50 c16 50
15 51 -8 73 -23 21 -24 21 -31 3z m52 -228 c22 -19 38 -36 35 -38 -14 -9 -123
-59 -125 -56 -5 6 37 128 43 128 4 0 25 -16 47 -34z"/>
<path d="M6538 1382 c-42 -37 -77 -71 -77 -76 -1 -5 6 -17 15 -27 16 -17 19
-16 76 34 l60 52 39 -45 c21 -25 39 -48 39 -51 0 -4 -25 -28 -55 -53 -48 -42
-53 -49 -42 -67 17 -28 29 -24 87 28 l53 47 33 -38 33 -38 -59 -50 c-49 -42
-58 -54 -50 -69 6 -10 14 -20 19 -24 6 -3 46 27 90 66 71 62 79 73 68 88 -15
21 -248 291 -250 290 -1 0 -36 -30 -79 -67z"/>
<path d="M1940 1155 c-15 -28 -14 -30 67 -82 24 -16 43 -32 43 -36 0 -12 -60
-97 -68 -97 -4 0 -34 18 -67 40 -55 37 -61 39 -72 23 -21 -28 -16 -36 47 -77
l60 -38 -18 -30 c-29 -50 -38 -53 -80 -26 -98 65 -88 61 -105 34 -16 -24 -16
-24 75 -84 l92 -61 109 162 c60 89 110 165 113 168 3 5 -42 38 -157 112 -25
17 -26 16 -39 -8z"/>
<path d="M6208 1134 c-82 -44 -75 -179 10 -220 34 -16 49 -16 143 1 38 7 69
-11 69 -41 0 -26 -39 -54 -74 -54 -27 0 -36 -5 -41 -21 -13 -42 56 -53 112
-19 67 40 80 122 27 171 -27 26 -72 30 -156 16 -40 -7 -50 -5 -67 12 -13 13
-21 34 -21 56 0 28 5 37 29 50 31 16 71 9 86 -15 8 -14 45 16 45 36 0 37 -110
57 -162 28z"/>
<path d="M2295 933 c3 -16 9 -55 15 -87 14 -84 13 -99 -6 -92 -20 8 -74 -16
-98 -42 -10 -12 -21 -41 -23 -65 -4 -36 -1 -48 22 -75 31 -37 123 -88 135 -75
13 13 183 344 179 347 -2 2 -14 8 -26 15 -20 10 -24 6 -60 -59 -21 -38 -41
-70 -44 -70 -4 0 -12 44 -19 98 -11 92 -14 100 -40 115 -37 23 -40 22 -35 -10z
m49 -244 l25 -12 -27 -53 c-14 -30 -31 -54 -38 -54 -6 0 -23 9 -38 21 -31 25
-34 61 -6 89 23 23 48 25 84 9z"/>
<path d="M5897 936 c-16 -13 -11 -26 78 -189 95 -173 97 -176 121 -165 14 6
23 17 22 24 -7 28 -184 344 -193 344 -5 -1 -18 -7 -28 -14z"/>
<path d="M5504 756 c-86 -40 -124 -116 -104 -212 7 -35 16 -54 23 -51 141 56
145 58 140 78 -8 29 -23 32 -66 14 -47 -20 -47 -20 -47 13 0 63 67 122 138
122 34 0 86 -33 115 -72 12 -16 22 -48 25 -80 5 -70 -23 -114 -91 -142 -45
-19 -51 -19 -92 -5 -42 16 -44 15 -55 -7 -16 -29 -7 -41 40 -54 120 -32 260
72 260 193 0 91 -50 174 -124 208 -55 25 -101 24 -162 -5z"/>
<path d="M2699 738 c-10 -7 -20 -23 -24 -36 -6 -21 -5 -22 34 -16 30 5 51 1
87 -16 113 -55 106 -219 -12 -271 -66 -30 -142 -8 -177 50 l-16 26 -10 -28
c-17 -44 -14 -55 27 -81 84 -56 180 -53 247 6 75 65 101 163 66 244 -12 26
-29 57 -39 67 -41 46 -153 79 -183 55z"/>
<path d="M5140 623 c-8 -3 -20 -6 -27 -8 -8 -3 -6 -24 7 -77 11 -40 26 -101
34 -135 l14 -62 -51 33 c-29 18 -105 68 -170 111 -64 43 -120 76 -123 73 -3
-3 15 -92 40 -196 25 -105 46 -193 46 -196 0 -12 51 -6 55 7 3 6 -8 66 -24
132 -16 66 -28 122 -25 124 2 2 80 -46 174 -107 93 -61 170 -109 170 -107 0
12 -91 383 -97 396 -5 9 -15 14 -23 12z"/>
<path d="M4457 500 c-32 -4 -60 -10 -63 -13 -3 -2 -2 -16 1 -29 6 -24 7 -24
82 -15 41 4 76 7 78 5 1 -2 5 -31 8 -64 l6 -62 -74 -7 c-75 -7 -75 -7 -75 -37
l0 -29 80 7 80 7 0 -52 c0 -49 -1 -51 -29 -51 -15 0 -49 -3 -75 -6 -43 -6 -46
-9 -46 -37 0 -29 1 -29 38 -24 20 3 70 9 110 13 57 5 72 10 72 23 0 9 -9 95
-20 191 -11 96 -20 178 -20 183 0 8 -73 7 -153 -3z"/>
<path d="M3940 482 c0 -5 25 -44 56 -88 31 -43 52 -80 46 -82 -56 -18 -89 -90
-69 -149 19 -56 55 -77 143 -81 l74 -4 0 201 0 201 -30 0 -30 0 0 -80 c0 -44
-3 -80 -7 -80 -5 1 -33 38 -63 83 -48 71 -59 82 -87 85 -18 2 -33 -1 -33 -6z
m190 -277 l0 -65 -35 0 c-80 0 -103 85 -31 116 60 26 66 21 66 -51z"/>
<path d="M3407 374 c-11 -12 -8 -41 6 -53 19 -15 50 9 45 35 -3 19 -38 31 -51
18z"/>
</g>
</svg>
