<?xml version="1.0" standalone="no"?>
<!DOCTYPE svg PUBLIC "-//W3C//DTD SVG 20010904//EN"
 "http://www.w3.org/TR/2001/REC-SVG-20010904/DTD/svg10.dtd">
<svg version="1.0" xmlns="http://www.w3.org/2000/svg"
 width="1200.000000pt" height="1200.000000pt" viewBox="0 0 1200.000000 1200.000000"
 preserveAspectRatio="xMidYMid meet">

<g transform="translate(0.000000,1200.000000) scale(0.100000,-0.100000)"
fill="#000000" stroke="none">
<path d="M5875 10025 c4 -58 5 -105 2 -105 -2 0 -44 45 -93 100 -71 80 -94
100 -116 100 l-26 0 4 -77 c15 -255 13 -244 42 -241 l26 3 -3 104 c-3 122 -11
123 104 -8 59 -67 86 -91 104 -91 l24 0 -6 122 c-4 66 -7 138 -7 160 0 36 -2
38 -31 38 l-31 0 7 -105z"/>
<path d="M6389 9967 c-46 -77 -85 -146 -87 -154 -2 -8 6 -13 23 -13 19 0 31 9
46 35 20 33 22 34 67 29 110 -14 116 -17 126 -56 7 -29 14 -37 38 -40 16 -3
28 0 28 6 0 6 -22 81 -49 166 -47 149 -50 155 -79 161 -29 6 -31 3 -113 -134z
m129 -1 l21 -69 -57 7 c-31 4 -57 8 -59 10 -2 2 13 31 33 65 20 34 38 60 39
59 2 -2 12 -34 23 -72z"/>
<path d="M5395 10089 c-22 -3 -72 -12 -111 -18 l-71 -12 24 -147 c14 -81 26
-152 28 -158 2 -8 35 -6 112 7 59 10 111 19 116 19 4 0 7 11 7 25 0 14 -1 25
-2 25 -2 0 -41 -7 -88 -14 -47 -8 -88 -11 -91 -8 -4 4 -10 24 -13 44 l-7 36
76 13 c70 11 75 13 75 37 0 22 -3 24 -29 19 -15 -3 -51 -9 -78 -13 l-50 -6 -7
37 c-4 20 -5 39 -3 41 2 2 30 9 63 14 99 18 104 19 104 40 0 25 -8 28 -55 19z"/>
<path d="M6826 10034 c-11 -28 -7 -32 49 -45 48 -11 54 -15 50 -33 -3 -12 -12
-52 -21 -91 -8 -38 -20 -75 -26 -82 -16 -20 -59 -15 -85 9 -21 20 -25 20 -39
7 -19 -20 -11 -41 28 -63 45 -27 101 -26 131 2 25 24 34 48 66 189 21 93 27
84 -64 103 -27 6 -57 13 -66 16 -10 2 -19 -2 -23 -12z"/>
<path d="M4963 10002 c-10 -6 -9 -19 2 -56 8 -27 15 -55 15 -62 0 -12 -47 -30
-131 -49 -24 -6 -26 -3 -42 54 -17 60 -25 67 -58 53 -14 -6 -11 -24 26 -155
24 -81 45 -150 47 -152 8 -8 48 8 48 19 0 7 -7 36 -16 66 -12 42 -13 54 -3 61
21 13 141 40 148 34 3 -4 13 -32 22 -63 13 -46 20 -56 35 -54 10 2 23 7 27 11
4 5 -11 74 -34 155 -42 147 -51 161 -86 138z"/>
<path d="M7155 9849 c-37 -115 -38 -141 -9 -186 20 -32 86 -63 133 -63 64 0
94 35 140 160 22 58 36 108 33 111 -4 4 -17 10 -29 13 -19 6 -24 -2 -54 -91
-45 -135 -79 -164 -149 -128 -46 24 -47 54 -10 171 19 57 32 105 29 108 -2 2
-14 7 -26 10 -20 6 -24 -1 -58 -105z"/>
<path d="M4425 9820 c-109 -40 -115 -44 -110 -61 18 -56 113 -273 121 -276 5
-2 18 3 28 10 17 12 17 15 1 52 -10 25 -12 41 -6 43 56 19 119 62 135 93 18
32 18 41 7 78 -8 29 -22 48 -44 61 -40 25 -68 25 -132 0z m105 -52 c41 -44 22
-86 -53 -117 l-48 -21 -8 23 c-5 12 -16 39 -24 60 l-16 38 27 10 c15 6 36 15
47 19 33 14 53 11 75 -12z"/>
<path d="M7586 9648 c-36 -77 -64 -143 -61 -147 2 -4 47 -27 100 -51 80 -36
98 -41 106 -29 15 25 11 29 -66 64 l-75 34 56 118 c30 64 53 122 50 129 -2 6
-13 14 -24 16 -17 5 -29 -14 -86 -134z"/>
<path d="M4035 9639 c-49 -28 -94 -54 -99 -59 -6 -6 115 -248 140 -279 2 -2
50 22 108 53 96 52 105 59 96 77 -6 10 -13 19 -17 19 -3 0 -39 -18 -80 -41
-41 -23 -75 -39 -77 -38 -20 30 -36 60 -36 68 0 6 29 26 65 46 57 32 64 39 55
56 -6 10 -13 19 -15 19 -2 0 -33 -16 -69 -35 l-64 -36 -22 36 c-12 20 -21 37
-19 39 2 2 37 21 76 42 40 21 73 42 73 45 0 3 -6 13 -12 21 -12 15 -22 12
-103 -33z"/>
<path d="M7954 9539 c-75 -129 -83 -169 -47 -226 31 -48 114 -80 162 -62 40
16 68 47 123 138 48 80 50 85 33 97 -11 8 -22 14 -26 14 -4 0 -29 -35 -54 -77
-60 -100 -82 -123 -116 -123 -35 0 -89 45 -89 74 0 12 24 64 54 116 30 52 52
98 50 102 -3 4 -13 12 -24 18 -16 8 -24 -1 -66 -71z"/>
<path d="M3675 9418 c-125 -86 -123 -84 -103 -104 14 -14 19 -13 57 12 23 15
44 25 47 22 2 -3 37 -53 77 -111 l73 -105 23 17 24 18 -77 111 -77 111 41 27
c41 28 49 44 28 62 -10 7 -41 -9 -113 -60z"/>
<path d="M3408 9216 c-74 -39 -108 -82 -108 -137 0 -43 33 -79 74 -79 16 0 54
12 86 26 32 14 66 24 77 22 25 -4 29 -45 6 -70 -21 -23 -85 -58 -107 -58 -9 0
-12 -7 -9 -20 8 -31 18 -33 73 -9 105 45 146 141 84 197 -32 28 -50 28 -121
-3 -69 -31 -107 -30 -111 3 -4 28 46 78 88 87 24 5 28 10 21 28 -10 27 -20 30
-53 13z"/>
<path d="M8491 9107 c-18 -18 -13 -30 29 -64 43 -37 52 -39 69 -20 15 19 -80
102 -98 84z"/>
<path d="M8873 8742 c-109 -104 -111 -108 -96 -129 l15 -23 37 31 c20 18 73
68 119 111 80 77 83 81 66 99 -9 10 -20 19 -23 19 -3 -1 -56 -49 -118 -108z"/>
<path d="M5930 8793 c0 -5 43 -176 94 -380 52 -205 92 -373 89 -373 -2 0 -39
20 -82 45 -175 101 -329 154 -489 169 l-73 7 3 -52 3 -52 105 -18 c120 -20
225 -55 323 -107 46 -25 66 -41 63 -52 -3 -8 -84 -323 -181 -700 -97 -377
-183 -709 -192 -739 l-15 -54 -300 299 c-324 324 -387 395 -441 494 -149 275
-69 612 184 772 64 42 169 85 227 94 l42 7 0 54 0 55 -62 -7 c-35 -4 -95 -13
-134 -21 -445 -89 -793 -444 -878 -894 -21 -108 -21 -313 0 -421 48 -256 161
-474 369 -717 50 -59 235 -246 411 -417 175 -170 318 -317 317 -325 -1 -8 -81
-320 -178 -693 -96 -372 -175 -680 -175 -682 0 -3 -76 -5 -170 -5 l-170 0 0
-55 0 -55 386 0 385 0 -3 53 -3 52 -161 3 -160 2 169 648 c93 356 171 649 173
651 5 5 411 -388 560 -542 271 -281 364 -455 364 -677 0 -330 -218 -569 -603
-660 -45 -11 -120 -23 -167 -27 l-85 -8 -3 -48 c-2 -34 1 -49 12 -53 20 -8
192 13 305 38 550 117 929 488 1016 992 19 114 19 338 0 449 -31 177 -102 354
-213 531 -34 54 -62 100 -62 102 0 2 25 4 55 4 60 0 61 2 43 61 l-11 39 -86 0
-86 0 -70 87 c-38 48 -213 232 -389 410 l-319 322 189 727 c182 703 187 727
177 777 -6 29 -10 53 -9 54 2 2 35 -27 75 -65 l73 -67 464 -1850 c255 -1017
466 -1860 469 -1872 l5 -23 -172 -2 -173 -3 -3 -52 -3 -53 725 0 726 0 0 55 0
55 -185 0 -184 0 -9 33 c-5 17 -272 1079 -593 2359 l-584 2328 -362 0 c-200 0
-363 -3 -363 -7z"/>
<path d="M3018 8666 c-36 -41 -37 -44 -20 -59 16 -15 20 -13 60 33 40 46 41
50 23 60 -25 13 -20 15 -63 -34z"/>
<path d="M9118 8676 c-16 -12 -15 -15 12 -47 16 -19 29 -39 30 -45 0 -9 -100
-94 -188 -160 -12 -9 -12 -14 -1 -32 8 -12 18 -22 22 -22 5 0 54 37 109 82
l101 81 36 -42 c35 -41 37 -42 53 -24 16 17 12 24 -65 120 -45 56 -84 102 -87
102 -3 0 -13 -5 -22 -13z"/>
<path d="M2608 8334 c-25 -13 -135 -161 -126 -169 1 -1 62 -41 134 -88 l132
-85 13 25 c14 27 14 27 -44 66 -17 11 -16 14 8 50 25 35 28 37 82 37 41 0 59
4 69 18 22 28 17 32 -46 32 -54 0 -60 2 -60 20 0 34 -28 79 -60 95 -36 19 -67
19 -102 -1z m92 -64 c11 -11 20 -28 20 -38 0 -29 -58 -114 -73 -106 -6 4 -31
20 -55 36 l-42 29 30 44 c16 24 35 46 42 48 28 11 59 6 78 -13z"/>
<path d="M9415 8079 c-66 -37 -128 -73 -138 -79 -14 -9 -15 -14 -6 -33 6 -12
13 -23 14 -25 1 -2 19 7 39 19 42 24 38 26 80 -38 17 -26 46 -56 65 -67 31
-18 37 -18 74 -5 100 35 103 114 9 268 l-17 28 -120 -68z m134 -57 c28 -60 25
-92 -11 -112 -25 -13 -31 -13 -54 0 -15 8 -37 34 -51 56 l-24 42 53 31 c29 17
56 31 59 31 3 0 16 -22 28 -48z"/>
<path d="M2325 7890 c-27 -55 -47 -101 -44 -103 2 -3 65 -36 139 -75 l135 -71
55 105 c54 103 55 106 35 120 -18 14 -22 11 -57 -60 -21 -41 -42 -77 -47 -81
-8 -5 -64 17 -80 31 -2 2 13 33 33 70 29 52 34 69 24 75 -25 16 -34 9 -66 -56
l-32 -65 -35 17 c-19 9 -35 20 -35 25 0 5 16 41 36 80 28 56 33 73 22 79 -26
17 -34 8 -83 -91z"/>
<path d="M9605 7687 c-77 -33 -142 -62 -144 -64 -2 -1 1 -14 7 -28 12 -25 12
-25 48 -10 49 20 48 20 67 -21 18 -36 18 -36 -13 -83 -34 -54 -35 -60 -17 -85
13 -17 16 -15 46 33 30 50 32 51 53 36 31 -21 77 -19 116 5 39 24 56 62 47
108 -6 33 -53 151 -64 163 -3 3 -69 -21 -146 -54z m142 -54 c21 -51 21 -93 -2
-109 -26 -19 -69 -17 -87 4 -21 23 -51 96 -41 100 4 1 26 11 48 21 57 27 64
26 82 -16z"/>
<path d="M2224 7560 c-39 -16 -79 -70 -110 -152 -18 -46 -31 -84 -29 -86 12
-12 291 -110 296 -104 3 4 18 40 32 80 32 86 34 144 8 192 -32 61 -132 97
-197 70z m116 -67 c51 -30 62 -84 33 -163 -9 -25 -17 -46 -18 -47 -2 -4 -190
68 -198 76 -13 13 23 94 54 124 34 32 85 36 129 10z"/>
<path d="M9730 7281 c-93 -49 -114 -177 -44 -261 53 -62 131 -77 203 -40 60
30 84 77 79 154 -4 71 -35 124 -88 151 -40 20 -108 19 -150 -4z m133 -52 c72
-33 76 -159 6 -195 -83 -42 -169 5 -169 93 0 24 5 53 10 63 23 43 101 63 153
39z"/>
<path d="M2014 7095 c-12 -30 5 -42 87 -60 46 -10 90 -21 97 -25 8 -4 -37 -30
-112 -65 -87 -41 -126 -65 -130 -79 -3 -11 -3 -22 -1 -24 2 -2 71 -21 154 -42
l151 -38 6 25 c4 13 4 26 1 29 -3 3 -47 16 -97 29 -50 13 -93 25 -96 27 -2 2
52 30 120 62 91 42 126 64 130 79 3 12 4 22 2 24 -4 4 -284 73 -297 73 -5 0
-12 -7 -15 -15z"/>
<path d="M9950 6805 c-36 -7 -98 -18 -138 -25 -71 -12 -73 -13 -70 -38 3 -29
11 -31 85 -19 l42 7 12 -75 c11 -70 13 -75 37 -75 27 0 26 -11 6 116 -5 37 -4
42 17 47 13 4 36 7 50 7 24 0 26 -4 38 -80 12 -74 15 -80 37 -80 13 0 24 3 24
8 0 13 -31 186 -36 205 -6 20 -15 20 -104 2z"/>
<path d="M1910 6602 c0 -29 1 -30 63 -37 169 -17 206 -38 193 -109 -11 -60
-33 -70 -137 -62 -50 4 -104 9 -120 13 -27 5 -29 3 -29 -24 0 -34 7 -37 156
-49 119 -10 167 21 180 117 13 98 -40 149 -171 163 -33 4 -77 9 -97 12 -37 6
-38 5 -38 -24z"/>
<path d="M9955 6403 c-22 -1 -67 -5 -100 -8 l-60 -6 7 -87 c3 -48 7 -102 7
-120 1 -29 4 -33 24 -30 21 3 22 6 18 96 l-3 92 46 0 46 0 0 -44 c0 -72 10
-106 31 -106 17 0 19 8 19 80 l0 80 39 0 39 0 7 -85 c7 -81 8 -85 32 -85 l24
0 -6 93 c-10 144 -6 137 -73 135 -31 -1 -75 -3 -97 -5z"/>
<path d="M1955 6146 c-38 -17 -60 -41 -80 -89 -30 -73 -6 -163 56 -208 46 -32
144 -34 186 -3 46 33 75 100 70 162 -9 117 -124 185 -232 138z m147 -75 c29
-26 33 -35 33 -81 0 -46 -4 -55 -33 -81 -46 -41 -111 -41 -152 0 -33 33 -45
69 -36 107 4 15 20 39 36 55 41 41 106 41 152 0z"/>
<path d="M9833 5994 c-24 -37 -30 -142 -10 -181 21 -41 67 -59 106 -44 32 14
44 32 69 110 22 68 45 86 73 52 23 -28 24 -59 5 -106 -14 -32 -13 -36 4 -45
10 -5 21 -10 23 -10 12 0 31 71 31 117 0 63 -25 103 -73 117 -48 14 -80 -15
-111 -99 -28 -75 -49 -97 -74 -76 -20 17 -21 89 -2 136 14 32 14 36 -4 45 -16
8 -22 6 -37 -16z"/>
<path d="M1883 5623 c3 -21 9 -73 13 -117 l7 -78 51 5 c28 3 99 11 159 18
l107 12 0 29 0 30 -65 -7 -65 -7 0 29 c0 17 -3 51 -6 77 -6 40 -10 46 -30 46
-27 0 -28 -8 -15 -98 8 -58 10 -57 -51 -67 -42 -7 -43 -6 -53 98 -6 63 -8 67
-32 67 -24 0 -25 -2 -20 -37z"/>
<path d="M9822 5627 c-40 -48 -54 -154 -27 -206 16 -32 33 -41 75 -41 37 0 57
21 92 98 33 73 53 86 80 52 22 -27 18 -77 -8 -117 -13 -20 -12 -23 5 -33 11
-5 22 -10 26 -10 14 0 36 75 37 122 0 60 -24 99 -70 112 -47 13 -78 -13 -114
-95 -25 -56 -35 -69 -54 -69 -13 0 -26 5 -30 12 -13 21 -4 91 16 126 12 19 20
35 18 36 -2 1 -10 7 -19 14 -13 10 -19 10 -27 -1z"/>
<path d="M9737 5234 c-4 -4 -7 -17 -7 -29 0 -20 13 -24 152 -53 83 -18 152
-31 154 -30 1 2 5 15 9 29 6 25 6 25 -127 53 -73 15 -142 29 -153 32 -11 3
-24 2 -28 -2z"/>
<path d="M2120 5038 c0 -7 6 -35 14 -63 10 -40 16 -49 32 -47 27 5 26 4 11 63
-10 43 -18 55 -35 57 -13 2 -22 -2 -22 -10z"/>
<path d="M9709 4967 c-67 -44 -99 -159 -64 -226 51 -100 190 -119 263 -36 103
117 36 285 -113 285 -37 0 -62 -6 -86 -23z m118 -38 c69 -26 97 -87 70 -152
-20 -46 -66 -71 -120 -64 -109 15 -131 163 -33 211 37 19 46 19 83 5z"/>
<path d="M4140 4060 l0 -670 49 0 48 0 5 84 c10 149 64 210 187 210 91 0 146
-21 328 -126 218 -125 337 -173 486 -193 l47 -6 0 54 0 54 -48 7 c-131 17
-332 102 -461 194 -285 202 -499 591 -527 952 -9 112 -8 110 -64 110 l-50 0 0
-670z"/>
<path d="M9522 4536 c-11 -25 -9 -27 63 -60 41 -19 84 -37 95 -41 11 -3 20 -9
20 -13 0 -4 -59 -22 -130 -41 -97 -25 -134 -39 -141 -53 -6 -11 -9 -22 -6 -24
2 -3 68 -33 146 -69 132 -60 142 -63 151 -45 5 10 10 23 10 27 0 5 -39 26 -87
48 -49 21 -91 41 -95 45 -4 3 50 21 120 39 199 53 201 64 24 143 -70 31 -134
59 -143 63 -10 4 -19 -3 -27 -19z"/>
<path d="M2352 4499 c-63 -27 -118 -49 -123 -49 -5 0 -18 20 -29 45 -20 47
-25 51 -49 36 -12 -8 -6 -30 34 -126 47 -115 65 -139 88 -116 8 8 6 20 -6 46
-9 20 -17 41 -17 48 0 7 54 34 120 61 66 27 120 54 120 60 0 7 -6 19 -12 28
-12 14 -25 11 -126 -33z"/>
<path d="M2462 4201 c-68 -38 -128 -73 -134 -79 -7 -7 -6 -17 2 -31 11 -21 12
-21 106 29 52 28 94 50 94 48 0 -3 -23 -60 -50 -129 -42 -102 -49 -128 -40
-147 9 -20 13 -21 32 -11 46 24 253 140 256 144 6 6 -18 45 -27 45 -5 0 -46
-21 -91 -46 -45 -25 -84 -44 -86 -41 -3 3 17 60 45 127 40 96 48 126 40 141
-5 10 -13 19 -17 19 -4 0 -63 -31 -130 -69z"/>
<path d="M9342 4155 c-10 -23 -9 -31 8 -55 11 -15 20 -31 20 -35 0 -3 -17 -36
-37 -71 l-38 -65 -43 4 c-34 4 -45 1 -52 -14 -6 -10 -10 -22 -10 -26 0 -8 271
-44 326 -43 12 0 25 10 31 23 9 19 -1 38 -75 147 -46 69 -92 133 -102 143 -16
17 -17 17 -28 -8z m134 -229 l17 -29 -34 6 c-19 3 -53 9 -76 12 l-42 7 31 50
31 51 28 -34 c15 -19 35 -47 45 -63z"/>
<path d="M2721 3772 c-45 -78 -84 -147 -87 -155 -2 -7 3 -23 13 -35 l18 -21
164 34 c89 18 166 36 169 40 3 3 -3 14 -14 25 -16 16 -26 18 -56 11 l-38 -9
-46 65 -47 65 21 37 c20 35 20 37 3 60 l-18 24 -82 -141z m112 -109 c5 -8 -14
-16 -60 -27 -37 -8 -69 -13 -71 -11 -4 4 11 34 45 88 l24 38 28 -38 c15 -21
30 -43 34 -50z"/>
<path d="M9040 3698 c-74 -97 -77 -104 -52 -117 16 -9 25 -1 66 54 26 36 50
65 52 65 3 0 52 -36 110 -80 l106 -79 18 22 c10 12 16 25 12 28 -4 3 -62 47
-128 97 l-122 91 -62 -81z"/>
<path d="M3017 3403 l-98 -86 -30 36 c-32 39 -47 45 -66 26 -9 -9 11 -38 79
-116 86 -100 91 -103 109 -87 18 16 18 18 -17 57 -35 38 -35 40 -18 56 11 10
56 50 102 90 79 70 82 75 66 92 -10 11 -20 19 -23 19 -3 -1 -50 -40 -104 -87z"/>
<path d="M3259 3304 c-12 -14 -6 -24 48 -74 l61 -58 -94 -100 c-92 -98 -93
-100 -73 -118 19 -17 21 -16 90 52 39 38 89 91 111 117 l41 48 -79 74 c-43 41
-82 74 -85 75 -4 0 -13 -7 -20 -16z"/>
<path d="M8785 3200 c-37 -38 -38 -41 -22 -57 16 -17 19 -15 59 24 27 27 39
47 35 57 -10 26 -30 19 -72 -24z"/>
<path d="M3539 2985 c-21 -11 -112 -121 -143 -173 -9 -14 10 -42 28 -42 6 1
38 36 71 80 33 43 70 84 82 91 47 25 113 -17 113 -73 0 -25 -17 -55 -65 -118
-59 -79 -62 -86 -48 -102 9 -10 19 -18 24 -18 17 0 140 181 146 214 8 49 -13
93 -60 127 -45 33 -104 38 -148 14z"/>
<path d="M8283 2943 c-29 -20 -29 -28 7 -147 17 -55 28 -101 26 -104 -3 -2
-48 28 -101 67 -95 71 -96 71 -120 54 -13 -10 -23 -22 -21 -28 1 -5 22 -76 46
-157 25 -84 49 -148 56 -148 6 0 17 6 23 14 10 12 6 37 -19 118 -17 57 -34
111 -36 121 -4 11 33 -11 97 -58 56 -41 105 -75 108 -75 3 0 14 7 24 14 17 13
16 20 -16 132 -19 66 -33 121 -32 122 2 2 48 -30 103 -72 100 -75 101 -75 123
-57 l22 18 -124 93 c-68 51 -128 96 -134 100 -5 5 -20 1 -32 -7z"/>
<path d="M3885 2735 c-40 -39 -28 -90 35 -150 44 -41 54 -63 39 -81 -22 -27
-69 -17 -109 24 -32 32 -41 36 -55 26 -21 -16 -8 -43 39 -79 47 -36 93 -48
133 -34 71 23 72 85 3 166 -59 68 -62 96 -11 101 29 3 40 -3 81 -46 46 -48 49
-50 65 -32 16 17 14 21 -22 61 -65 72 -151 91 -198 44z"/>
<path d="M7826 2647 c-17 -13 -17 -15 3 -48 11 -19 21 -37 21 -40 0 -3 -17
-14 -39 -23 -38 -18 -39 -17 -90 8 -46 24 -54 25 -77 13 l-26 -14 55 -31 56
-31 -16 -32 c-35 -71 29 -155 110 -145 38 4 169 67 174 82 3 13 -130 268 -142
271 -6 2 -19 -3 -29 -10z m77 -192 l27 -55 -50 -25 c-60 -31 -68 -31 -97 -3
-25 24 -30 56 -10 80 14 19 77 58 92 58 6 0 23 -25 38 -55z"/>
<path d="M4206 2454 c-37 -80 -66 -147 -64 -149 2 -1 13 -7 24 -13 20 -11 24
-7 57 62 19 41 38 83 42 95 3 11 10 21 14 21 4 0 20 -55 37 -122 26 -112 48
-158 73 -158 4 0 38 64 74 143 l65 142 -25 13 c-13 8 -26 12 -27 10 -2 -2 -20
-41 -41 -88 -21 -47 -42 -89 -45 -93 -4 -4 -22 51 -41 124 -26 99 -39 135 -55
146 -20 13 -23 8 -88 -133z"/>
<path d="M7443 2470 c-22 -9 -22 -10 36 -152 32 -79 65 -144 72 -145 8 -2 21
1 29 6 12 8 4 34 -45 155 -32 80 -61 146 -64 145 -4 0 -16 -4 -28 -9z"/>
<path d="M4699 2357 c-104 -70 -107 -209 -6 -275 32 -22 52 -27 103 -27 67 0
98 15 138 68 30 41 32 123 4 171 -46 79 -167 111 -239 63z m173 -66 c50 -56
34 -142 -32 -176 -39 -20 -69 -19 -108 5 -69 42 -74 132 -10 185 44 38 110 31
150 -14z"/>
<path d="M7161 2369 c-13 -5 -21 -15 -18 -23 3 -7 20 -59 37 -116 17 -57 34
-109 37 -116 3 -7 -15 -18 -46 -29 -53 -17 -56 -21 -42 -44 8 -13 29 -9 135
24 69 21 126 43 126 49 0 6 -4 17 -9 25 -7 11 -16 11 -55 -2 -25 -9 -48 -12
-50 -9 -2 4 -21 59 -41 122 -20 63 -40 118 -44 121 -3 4 -17 3 -30 -2z"/>
<path d="M6768 2267 c-95 -20 -107 -28 -90 -55 7 -9 25 -9 90 4 45 10 85 14
88 11 3 -3 8 -23 11 -44 l5 -39 -71 -13 c-65 -12 -71 -15 -71 -37 0 -28 0 -28
86 -9 36 9 68 14 70 12 2 -2 5 -21 7 -42 l2 -39 -60 -13 c-33 -7 -70 -15 -81
-18 -16 -4 -20 -10 -17 -29 l5 -24 111 24 c61 14 112 26 114 27 1 2 -11 72
-29 155 -36 175 -19 162 -170 129z"/>
<path d="M5138 2258 c-31 -11 -33 -16 -14 -40 11 -15 18 -16 42 -6 76 28 154
-26 154 -106 0 -103 -117 -149 -195 -77 -17 17 -23 18 -38 7 -23 -17 -13 -40
27 -65 78 -48 181 -32 234 37 23 30 27 45 27 98 0 75 -20 108 -85 142 -47 23
-106 28 -152 10z"/>
<path d="M6464 2205 c-4 -8 -3 -30 0 -49 6 -33 6 -33 -36 -40 -42 -7 -44 -6
-84 40 -36 41 -45 46 -68 40 l-27 -7 40 -48 c32 -38 38 -50 26 -55 -8 -3 -22
-21 -31 -40 -23 -47 -12 -97 29 -132 31 -26 34 -27 130 -21 54 3 100 7 102 9
2 1 -4 74 -13 161 -15 153 -16 157 -39 157 -13 0 -26 -7 -29 -15z m10 -151 c3
-9 6 -38 6 -65 l0 -49 -57 0 c-65 0 -93 18 -93 60 0 43 36 66 106 69 21 1 34
-5 38 -15z"/>
<path d="M5753 2035 c-7 -21 -7 -21 65 -28 61 -7 62 -6 62 18 0 24 -3 25 -60
25 -45 0 -62 -4 -67 -15z"/>
</g>
</svg>
