<?xml version="1.0" standalone="no"?>
<!DOCTYPE svg PUBLIC "-//W3C//DTD SVG 20010904//EN"
 "http://www.w3.org/TR/2001/REC-SVG-20010904/DTD/svg10.dtd">
<svg version="1.0" xmlns="http://www.w3.org/2000/svg"
 width="736.000000pt" height="736.000000pt" viewBox="0 0 736.000000 736.000000"
 preserveAspectRatio="xMidYMid meet">

<g transform="translate(0.000000,736.000000) scale(0.100000,-0.100000)"
fill="#000000" stroke="none">
<path d="M3220 5505 c-178 -40 -343 -169 -419 -327 -21 -46 -44 -107 -51 -137
-17 -72 -15 -223 4 -293 25 -94 50 -138 533 -971 174 -301 198 -377 198 -637
0 -212 -16 -287 -100 -455 -63 -128 -128 -217 -222 -306 -471 -444 -1226 -356
-1590 186 -124 184 -180 389 -170 620 11 248 90 450 247 634 139 161 333 283
534 335 139 37 195 35 282 -9 80 -41 88 -42 131 -15 52 32 54 108 4 147 -29
22 -78 14 -153 -26 -53 -28 -103 -45 -182 -60 -426 -84 -743 -377 -853 -786
-23 -89 -26 -118 -26 -265 0 -138 3 -178 22 -245 66 -243 182 -427 366 -580
301 -248 720 -308 1088 -155 167 69 363 230 460 377 56 85 222 407 273 531 21
50 41 92 44 92 3 -1 79 -130 170 -287 102 -177 176 -294 193 -307 24 -18 46
-22 143 -24 63 -2 114 -1 114 3 0 3 -92 165 -204 358 -112 194 -331 573 -486
842 -156 270 -315 546 -355 615 -341 592 -328 564 -341 719 -8 96 8 177 46
229 39 55 167 137 253 164 86 27 252 31 332 9 191 -54 358 -214 415 -399 22
-71 20 -92 -17 -173 -31 -69 -26 -102 19 -125 28 -15 34 -15 63 -1 48 23 53
58 17 127 -16 30 -39 91 -51 135 -62 223 -214 383 -431 451 -69 22 -223 26
-300 9z"/>
<path d="M3813 4123 c6 -10 239 -411 597 -1028 413 -713 449 -772 508 -832
246 -249 637 -250 881 -2 131 133 197 329 172 507 -20 136 -69 239 -167 352
-29 32 -57 76 -64 97 -23 76 -32 91 -60 103 -44 18 -99 -18 -100 -65 0 -38 28
-62 99 -84 62 -19 76 -28 126 -83 107 -118 163 -282 151 -439 -19 -243 -192
-459 -419 -524 -47 -13 -67 -15 -108 -6 -88 19 -196 87 -274 172 -23 25 -257
420 -544 914 -277 479 -516 882 -532 898 -29 26 -32 27 -150 27 -66 0 -118 -3
-116 -7z"/>
</g>
</svg>
