<svg data-name="blob-shape (7)" xmlns="http://www.w3.org/2000/svg" width="361.944" height="305.794"><defs><linearGradient id="a" x1=".209" y1=".085" x2="1.071" y2="1.164" gradientUnits="objectBoundingBox"><stop offset="0" stop-color="#f1f6f9"/><stop offset="1" stop-color="#f1f6f9" stop-opacity="0"/></linearGradient></defs><path data-name="Path 1448" d="M-130.185-142.586c-35.215 14.707-77.815 35.356-94.33 69.48s-7.027 81.723 18.548 114.326c25.575 32.675 78.216 20.7 120.817 36.568 42.6 15.939 75.233 59.718 108.27 46.822 33.037-12.969 55.569-52.816 74.623-91.794C116.87-6.235 132.519-44.271 128.607-81c-3.985-36.732-27.531-72.16-58.829-87.52-31.226-15.432-70.2-10.723-103.6-4.057s-61.152 15.284-96.363 29.991Z" transform="translate(232.734 178.84)" fill="url(#a)"/></svg>