<svg xmlns="http://www.w3.org/2000/svg" width="120" height="120"><g data-name="Group 1203" transform="translate(-384 -1392)" fill="#282f49"><rect data-name="Rectangle 2206" width="12" height="2" rx="1" transform="rotate(90 -500.5 891.5)"/><rect data-name="Rectangle 2271" width="12" height="2" rx="1" transform="rotate(90 -554.5 945.5)"/><rect data-name="Rectangle 2238" width="12" height="2" rx="1" transform="rotate(90 -527.5 918.5)"/><rect data-name="Rectangle 2222" width="12" height="2" rx="1" transform="rotate(90 -514 905)"/><rect data-name="Rectangle 2241" width="12" height="2" rx="1" transform="rotate(90 -541 932)"/><rect data-name="Rectangle 2214" width="12" height="2" rx="1" transform="rotate(90 -446.5 945.5)"/><rect data-name="Rectangle 2289" width="12" height="2" rx="1" transform="rotate(90 -500.5 999.5)"/><rect data-name="Rectangle 2256" width="12" height="2" rx="1" transform="rotate(90 -473.5 972.5)"/><rect data-name="Rectangle 2231" width="12" height="2" rx="1" transform="rotate(90 -460 959)"/><rect data-name="Rectangle 2257" width="12" height="2" rx="1" transform="rotate(90 -487 986)"/><rect data-name="Rectangle 2210" width="12" height="2" rx="1" transform="rotate(90 -473.5 918.5)"/><rect data-name="Rectangle 2279" width="12" height="2" rx="1" transform="rotate(90 -527.5 972.5)"/><rect data-name="Rectangle 2248" width="12" height="2" rx="1" transform="rotate(90 -500.5 945.5)"/><rect data-name="Rectangle 2226" width="12" height="2" rx="1" transform="rotate(90 -487 932)"/><rect data-name="Rectangle 2249" width="12" height="2" rx="1" transform="rotate(90 -514 959)"/><rect data-name="Rectangle 2209" width="12" height="2" rx="1" transform="rotate(90 -487 905)"/><rect data-name="Rectangle 2273" width="12" height="2" rx="1" transform="rotate(90 -541 959)"/><rect data-name="Rectangle 2242" width="12" height="2" rx="1" transform="rotate(90 -514 932)"/><rect data-name="Rectangle 2223" width="12" height="2" rx="1" transform="rotate(90 -500.5 918.5)"/><rect data-name="Rectangle 2243" width="12" height="2" rx="1" transform="rotate(90 -527.5 945.5)"/><rect data-name="Rectangle 2211" width="12" height="2" rx="1" transform="rotate(90 -460 932)"/><rect data-name="Rectangle 2295" width="12" height="2" rx="1" transform="rotate(90 -514 986)"/><rect data-name="Rectangle 2250" width="12" height="2" rx="1" transform="rotate(90 -487 959)"/><rect data-name="Rectangle 2227" width="12" height="2" rx="1" transform="rotate(90 -473.5 945.5)"/><rect data-name="Rectangle 2251" width="12" height="2" rx="1" transform="rotate(90 -500.5 972.5)"/><rect data-name="Rectangle 2207" width="12" height="2" rx="1" transform="rotate(-180 198 699.5)"/><rect data-name="Rectangle 2270" width="12" height="2" rx="1" transform="rotate(-180 198 753.5)"/><rect data-name="Rectangle 2239" width="12" height="2" rx="1" transform="rotate(-180 198 726.5)"/><rect data-name="Rectangle 2224" width="12" height="2" rx="1" transform="rotate(-180 198 713)"/><rect data-name="Rectangle 2244" width="12" height="2" rx="1" transform="rotate(-180 198 740)"/><rect data-name="Rectangle 2215" width="12" height="2" rx="1" transform="rotate(-180 252 699.5)"/><rect data-name="Rectangle 2300" width="12" height="2" rx="1" transform="rotate(-180 252 753.5)"/><rect data-name="Rectangle 2252" width="12" height="2" rx="1" transform="rotate(-180 252 726.5)"/><rect data-name="Rectangle 2228" width="12" height="2" rx="1" transform="rotate(-180 252 713)"/><rect data-name="Rectangle 2253" width="12" height="2" rx="1" transform="rotate(-180 252 740)"/><rect data-name="Rectangle 2212" width="12" height="2" rx="1" transform="rotate(-180 225 699.5)"/><rect data-name="Rectangle 2284" width="12" height="2" rx="1" transform="rotate(-180 225 753.5)"/><rect data-name="Rectangle 2245" width="12" height="2" rx="1" transform="rotate(-180 225 726.5)"/><rect data-name="Rectangle 2229" width="12" height="2" rx="1" transform="rotate(-180 225 713)"/><rect data-name="Rectangle 2246" width="12" height="2" rx="1" transform="rotate(-180 225 740)"/><rect data-name="Rectangle 2208" width="12" height="2" rx="1" transform="rotate(-180 211.5 699.5)"/><rect data-name="Rectangle 2276" width="12" height="2" rx="1" transform="rotate(-180 211.5 753.5)"/><rect data-name="Rectangle 2240" width="12" height="2" rx="1" transform="rotate(-180 211.5 726.5)"/><rect data-name="Rectangle 2225" width="12" height="2" rx="1" transform="rotate(-180 211.5 713)"/><rect data-name="Rectangle 2247" width="12" height="2" rx="1" transform="rotate(-180 211.5 740)"/><rect data-name="Rectangle 2213" width="12" height="2" rx="1" transform="rotate(-180 238.5 699.5)"/><rect data-name="Rectangle 2306" width="12" height="2" rx="1" transform="rotate(-180 238.5 753.5)"/><rect data-name="Rectangle 2254" width="12" height="2" rx="1" transform="rotate(-180 238.5 726.5)"/><rect data-name="Rectangle 2230" width="12" height="2" rx="1" transform="rotate(-180 238.5 713)"/><rect data-name="Rectangle 2255" width="12" height="2" rx="1" transform="rotate(-180 238.5 740)"/></g></svg>