<svg xmlns="http://www.w3.org/2000/svg" width="512" height="512" viewBox="0 0 533.876 533.876" style="enable-background:new 0 0 512 512" xml:space="preserve"><path d="M408.749 450.458H125.105C56.123 450.458 0 394.335 0 325.353V154.324C0 85.328 56.132 29.196 125.127 29.196h25.025c11.518 0 20.855 9.337 20.855 20.855s-9.337 20.855-20.855 20.855h-25.025c-45.997 0-83.418 37.421-83.418 83.418v171.029c0 45.984 37.412 83.396 83.396 83.396h283.643c45.997 0 83.418-37.421 83.418-83.418V154.324c0-45.997-37.421-83.418-83.418-83.418H382.68c-11.518 0-20.855-9.337-20.855-20.855s9.337-20.855 20.855-20.855h26.068c68.995 0 125.127 56.132 125.127 125.127V325.33c.001 68.996-56.131 125.128-125.126 125.128zm-20.855 62.563c0-11.518-9.337-20.855-20.855-20.855H166.836c-11.518 0-20.855 9.337-20.855 20.855s9.337 20.854 20.855 20.854H367.04c11.518.001 20.854-9.336 20.854-20.854zM266.938 348.445c-40.247 0-72.991-32.744-72.991-72.991V134.817c0-28.423 8.336-55.945 24.104-79.593l.157-.233 31.536-45.94a20.857 20.857 0 0 1 34.388.001l31.536 45.94c.053.077.105.154.157.233 15.768 23.647 24.104 51.17 24.104 79.592v140.637c0 40.247-32.744 72.991-72.991 72.991zM252.677 78.478c-11.134 16.747-17.02 36.225-17.02 56.34v140.637c0 17.249 14.033 31.282 31.282 31.282s31.282-14.033 31.282-31.282V134.817c0-20.114-5.886-39.592-17.02-56.34L266.94 57.703z" fill="#6320d6" data-original="#000000" xmlns="http://www.w3.org/2000/svg"/></svg>