<svg xmlns="http://www.w3.org/2000/svg" width="62.786" height="63.93"><g data-name="101-hierarchical-structure (1)"><g data-name="Group 1235"><path data-name="Path 1442" d="M55.996 47.8v-8.424H32.672V28.721a14.392 14.392 0 1 0-2.557 0v10.655H6.786V47.8h-6.79v16.13h16.13V47.8H9.344v-5.867h20.771V47.8h-6.787v16.13h16.13V47.8h-6.786v-5.867h20.771V47.8h-6.787v16.13h16.13V47.8Zm-42.423 2.557v11.016H2.557V50.357Zm23.328 0v11.016H25.885V50.357Zm-5.505-24.128a11.836 11.836 0 1 1 11.833-11.836 11.849 11.849 0 0 1-11.833 11.836Zm28.833 35.144H49.214V50.357h11.015Z" fill="#5d78ff"/></g></g></svg>