<svg xmlns="http://www.w3.org/2000/svg" width="512" height="512" style="enable-background:new 0 0 512 512" xml:space="preserve"><g xmlns="http://www.w3.org/2000/svg" fill="#6320d6"><path d="M100 512h160c55.141 0 100-44.86 100-100V100C360 44.86 315.141 0 260 0H100C44.86 0 0 44.86 0 100v312c0 55.14 44.86 100 100 100zM40 100c0-33.084 26.916-60 60-60h160c33.084 0 60 26.916 60 60v312c0 33.084-26.916 60-60 60H100c-33.084 0-60-26.916-60-60zm412-64c-33.084 0-60 26.916-60 60v280c0 26.073 16.722 48.303 40 56.56V456c0 11.046 8.954 20 20 20s20-8.954 20-20v-23.44c23.278-8.256 40-30.487 40-56.56V96c0-33.084-26.916-60-60-60zm20 340c0 11.028-8.972 20-20 20s-20-8.972-20-20V96c0-11.028 8.972-20 20-20s20 8.972 20 20z" data-original="#000000"/><path d="M100 196h160c11.046 0 20-8.954 20-20s-8.954-20-20-20H100c-11.046 0-20 8.954-20 20s8.954 20 20 20zm0 80h160c11.046 0 20-8.954 20-20s-8.954-20-20-20H100c-11.046 0-20 8.954-20 20s8.954 20 20 20zm0 80h160c11.046 0 20-8.954 20-20s-8.954-20-20-20H100c-11.046 0-20 8.954-20 20s8.954 20 20 20z" data-original="#000000"/></g></svg>