<svg data-name="Layer 1" xmlns="http://www.w3.org/2000/svg" width="103.93" viewBox="0 0 731.413 522.402"><path d="M605.53 330.54a10.056 10.056 0 0 0-6.364-14.044l-2.225-35.665-14.836 11.168 4.388 32.156a10.11 10.11 0 0 0 19.037 6.386Zm64.673 140.196 11.785 3.379 18.642-43.848-17.393-4.987-13.034 45.456z" fill="#ffb8b8"/><path d="m701.578 491.575-37.038-10.62 4.103-14.31 22.728 6.516a14.887 14.887 0 0 1 10.207 18.414Z" fill="#2f2e41"/><path fill="#ffb8b8" d="m651.32 511.018-12.26-.001-5.833-47.288 18.095.001-.002 47.288z"/><path d="M630.303 507.514h23.643v14.887h-38.53a14.887 14.887 0 0 1 14.887-14.887Zm-12.89-189.294s-7 28 5 85l9 98 23 1-3-106 8-44 20 61-7 43 17 8 19-59s-2-82-10-92Z" fill="#2f2e41"/><circle cx="646.457" cy="134.16" r="24.561" fill="#ffb8b8"/><path d="M633.413 171.459s-1.5 3.298 16.5 1.26 22-8 22-8l31.5 138.179-2 12.227-86 5.094v-17.321l15-91.702Z" fill="#e6e6e6"/><path d="m640.776 316.726-27.262-.515-.088-.38a143.238 143.238 0 0 1 1-57.222c5.505-24.382-7.006-57.448-12.64-70.533a7.019 7.019 0 0 1 2.83-8.762l19.299-11.578a9.826 9.826 0 0 1 14.577 5.999l3.374 13.236c15.54 16.71 14.45 50.984 10.792 76.818a363.144 363.144 0 0 1-11.768 52.582Z" fill="#2f2e41"/><path d="m609.913 176.72-2.358 1.613a29.608 29.608 0 0 0-11.396 14.982 71.499 71.499 0 0 0-2.746 10.904c-2 12-11 63-11 63l-4 50 22-5 10-58 10-36Zm78.237 140.244-.207-.575c-1.43-3.964-34.804-97.335-19.041-130.26l-1.544-15.441a10.036 10.036 0 0 1 13.02-10.565l24.117 7.646a4.836 4.836 0 0 1 3.395 4.687c-.1 8.876-.59 31.498-2.98 49.828-2.957 22.66 6.896 79.28 6.996 79.85l.059.335Z" fill="#2f2e41"/><path d="M677.521 292.138a10.056 10.056 0 0 1 12.012-9.669l18.062-30.834 8.209 16.657-18.41 26.727a10.11 10.11 0 0 1-19.873-2.88Z" fill="#ffb8b8"/><path d="m700.913 167.72 1.294.298a9.895 9.895 0 0 1 7.057 6.214l22.15 59.987-26 57-9.5-23.5 12-26-21.5-27.5Zm-29.562-30.165a60.676 60.676 0 0 0 3.154-11.254 20.284 20.284 0 0 0-1.31-11.46 24.917 24.917 0 0 0-6.772-8.119 63.657 63.657 0 0 0-6.06-4.56c-5.942-3.941-7.235-.355-14.363-1.162s-15.115-2.857-20.828 1.398a23.322 23.322 0 0 0-8.41 24.652c1.594 5.42.326 7.206 5.244 10.135a19.18 19.18 0 0 1 5.188-13.13 19.948 19.948 0 0 1 12.94-6.12c3.79-.275 7.565.533 11.276 1.337 3.6.78 7.298 1.6 10.35 3.628 5.059 3.36 7.43 9.363 9.515 14.993" fill="#2f2e41"/><path fill="#e6e6e6" d="M0 233h436v2H0zm0-78h436v2H0zm0-78h436v2H0z"/><path fill="#e6e6e6" d="M347.8 0h2v312h-2zm-87.2 0h2v312h-2zm-87.2 0h2v312h-2zM86.2 0h2v312h-2z"/><path fill="#6320d6" d="M87 78h175v78H87z"/><path fill="#6320d6" d="M87 150v84l91-81-91-3z"/><path d="M262 153v3l-1.14 1.01-2.3 2.04c-44.73 1.35-80.86 33.39-82.49 73.12l-2.05 1.82-.02.01v-84Z" fill="#6320d6"/><path d="M261.5 157c-.21 0-.43 0-.64.01-47.58.3-86.25 34.62-86.84 76.98-.02.34-.02.67-.02 1.01 0 43.01 39.25 78 87.5 78s87.5-34.99 87.5-78-39.25-78-87.5-78Zm0 154c-47.14 0-85.5-34.09-85.5-76 0-.95.02-1.89.07-2.83 1.63-39.73 37.76-71.77 82.49-73.12.97-.04 1.95-.05 2.94-.05 47.14 0 85.5 34.09 85.5 76s-38.36 76-85.5 76Z" fill="#e6e6e6"/><path d="m213.5 234.016-5-.028c.002-.445.803-44.48 51.951-47.534l.298 4.99c-46.388 2.77-47.236 40.949-47.249 42.572Z" fill="#e6e6e6"/><path d="M311.98 233A42.536 42.536 0 0 0 298 202.89a53.437 53.437 0 0 0-36.4-13.95h-.1c-27.47 0-49.89 19.67-50.48 44.06-.02.33-.02.67-.02 1 0 12.76 5.97 24.29 15.55 32.49a53.643 53.643 0 0 0 34.95 12.57h.1c27.8-.05 50.4-20.24 50.4-45.06 0-.33 0-.67-.02-1Z" fill="#e6e6e6"/><path d="m298 202.89-1.5 1.33-68.45 60.94-1.5 1.33C216.97 258.29 211 246.76 211 234c0-.33 0-.67.02-1 .59-24.39 23.01-44.06 50.48-44.06h.1a53.437 53.437 0 0 1 36.4 13.95Z" fill="#6320d6"/></svg>