<svg version="1.0" xmlns="http://www.w3.org/2000/svg" width="170" height="170" viewBox="0 0 2560 2560"><path d="M1226.7 93.7c-1.6 1.5-.6 3.3 1.8 3.3 4.3 0 9.4 2.7 10.5 5.5 1.2 3.2 1.9 108.3.7 113.7-.9 4.2-2.7 5.6-9 6.6-2.7.5-4.2 1.3-4.2 2.2 0 1.3 5.6 1.5 40 1.8 22 .2 45.5 0 52.3-.3 11.7-.7 12.2-.8 11.6-2.7-.3-1.1-.7-11.3-.9-22.6-.2-19.5-.3-20.7-2.1-20.7-1.3 0-2 .8-2.2 2.5-.2 1.4-1.4 6.2-2.8 10.7-4.3 14.3-13.8 25.4-24.2 28.3-2 .5-7.8 1-12.9 1-8.3 0-9.5-.2-12-2.4l-2.8-2.4-.3-55.9c-.4-63.4-.5-62.3 6.5-64.2 2.1-.6 4.8-1.1 6.1-1.1 1.5 0 2.2-.6 2.2-2 0-2-.7-2-28.8-2-15.9 0-29.2.3-29.5.7zM1109 105.5c-52.2 7.6-50 7.3-50 8.9 0 .9 1.8 1.5 5.6 1.8 6.3.5 7.7 1.7 9.4 7.8 1.8 6.1 15 99.6 15 105.7 0 3.2-.4 6.3-.8 6.9-.9 1.5-6.7 4.4-8.6 4.4-1.9 0-3.1 1.9-2 3 .7.7 80-10 100-13.5l3-.5-1.8-8.8c-2.6-12.1-4.8-26-4.8-30.5 0-3-.4-3.7-1.9-3.7-1.6 0-2.1.9-2.5 4.7-1.9 15.4-2.7 19-5.5 24.8-5.1 10.3-11.3 13.9-27.7 16.3l-11.4 1.6-2.5-2.5c-2.4-2.3-2.9-4.6-6.5-29.4-2.1-14.8-3.7-27.2-3.4-27.7.3-.4 3.7-.8 7.6-.8 5.8 0 7.9.5 11.3 2.5 4.2 2.4 8.9 8.7 11.5 15.2 1.2 3.2 3.3 4.3 4.5 2.3.3-.5-.3-5.4-1.4-10.7-1.1-5.4-3-16.9-4.2-25.6-1.9-13.5-2.5-15.7-4-15.7-1.8 0-2.1 1-3.4 9.5-1.6 10.4-9 18-18.5 18.7l-4.5.3-3.9-26.7c-2.1-14.7-3.5-27.9-3.2-29.4.9-3.4 5.6-5.3 16.8-6.7 10.2-1.3 15.9-.3 22 4 5.6 3.8 9.1 9.7 14.8 25 1.3 3.5 1.7 3.8 3.7 2.5.8-.5.9-1.9.3-4.7-.9-3.9-2.3-15.3-3.5-28.8-.6-6.5-.7-6.7-3.3-6.6-1.5.1-22.3 3-46.2 6.4zm327 .1c-31.8 6.1-53 34.9-53 71.9.1 33.9 22.1 57.6 58.3 62.5 21.1 2.9 40.2-3.4 54.8-18 11.8-11.8 17.5-24.8 20-45.4 2.5-20.9-3.1-38.6-16.7-52.2-7.7-7.8-18.2-13.7-29.9-16.9-5.9-1.6-28.3-2.9-33.5-1.9zm29.9 6c17.7 8.8 24.6 39.7 17 75.9-4.5 21.6-15.7 40.3-27.8 46.4-6 3.1-15.1 3.2-20.8.3-16.6-8.6-24-33.8-19.2-66.2 4.5-30.8 17.2-53.3 32.7-58 5.7-1.7 12.6-1.1 18.1 1.6zm-480.8 18c-9.5 2.9-17.5 5.5-17.8 5.8-1.5 1.4 1.5 2.6 6.9 2.6 5.6 0 6.3.2 9.3 3.5 4 4.2 5.5 10.2 5.5 21.8 0 10-3.9 72.9-4.6 73.6-.6.6 1.7 3.4-28-34.7-32.7-41.9-32.6-41.8-32.2-45.6.2-2.6 1.1-3.5 5.1-5.6 3-1.6 4.6-3.1 4.4-4-.2-.8-.7-1.4-1.3-1.4-.5.1-12.7 3.7-27.2 8-20.6 6.1-26.2 8.1-26 9.3.2.9 1.8 1.8 3.9 2.2 2 .3 5 1.6 6.7 3 1.6 1.3 11.7 13.2 22.3 26.4 10.6 13.2 28.5 35.5 39.7 49.5 11.3 14 21 26.1 21.6 26.8 1 1 2.3.9 6.6-.4 3-.9 5.8-1.9 6.2-2.2.7-.8 1.4-8 2.3-22.7.8-13.8 1.4-23.6 2.5-40.5.5-8 1.2-19 1.5-24.5 2.3-36.9 3.1-41.9 8.5-49.3 3.1-4.3 3.6-5.8 2.3-6.5-.5-.2-8.6 2-18.2 4.9zm602.5 3.2c-1.5 1.4-.3 3 3.5 4.7 5.1 2.3 6.3 4.6 5.5 10.4-.6 4.6-26.8 88.9-30.8 99.1-1.1 3-3 6.6-4.2 7.8-1.8 2.1-2.8 2.3-7.8 2-4.2-.3-5.9-.1-6.2.9-.3.8 0 1.6.7 1.8 5.3 2 58.5 18.5 59.5 18.5 3.1 0 .7-2.8-4.2-4.9-7.4-3.1-10.1-6.2-9.9-11.4.1-3.6 10.4-38.2 11.7-39.5.3-.2 3.3.5 6.8 1.7 32.7 10.8 56.2 4.1 67.2-18.9 5.8-12.4 3.8-26.9-5.4-37.4-8.1-9.2-17.6-13.7-51-24.3-14.6-4.6-28.4-9-30.7-9.7-2.3-.8-4.4-1.2-4.7-.8zm55.6 21.3c10 5.1 13 13.1 10.4 27.2-4.9 26.2-15.5 40.7-29.7 40.7-5.9 0-15.8-2.6-16.5-4.4-.4-1 15.3-52 18.4-59.8 2.1-5.1 5-7.1 9.4-6.4 2.2.4 5.8 1.6 8 2.7zm-865.2 51c-24.5 11.4-44.6 21.3-44.8 21.8-.6 1.8 1.7 2.1 6.2.9 5.9-1.6 8.6-.3 12.1 5.9s42.9 90.7 44.4 95.2c2.1 6.5 1.5 8.7-3.4 12.2-4.5 3.2-5.2 4.3-3.6 5.3.4.3 21.5-9.1 46.7-20.9 25.2-11.8 46.4-21.7 46.9-21.9.6-.2.4-1.3-.4-2.7-3.2-5.3-15-29.7-16.1-33.2-1.1-3.6-3.6-4.9-4.6-2.4-.2.7.2 4.2 1.1 7.8 2 8.5 1.9 21.3-.1 27.2-2.9 8.6-13.9 16.9-28 21.2-7.1 2.2-7.7 1.5-19.6-23.5-14.3-30.2-13.5-27.6-9-29.9 10.2-5.2 17.7-3.6 27 5.6 5.1 5.2 6.6 6.2 7.8 5.3 1.1-1 .4-3.1-4.5-12.4-5.4-10.2-15-30.6-16.5-34.9-.4-1.4-1-1.6-2.4-.8-1.7.9-1.8 1.6-1 6.3 1.5 9.2-.4 18.3-4.8 22.9-3.2 3.3-10.1 6.6-11.4 5.3-1.4-1.5-22-46.4-22.6-49.4-.9-4.4 1.1-6.6 9.9-11 11.7-5.7 18-6.9 25.3-4.6 4.6 1.5 7 3.1 12.3 8.5 3.6 3.7 8 8.3 9.6 10.4 2.1 2.6 3.4 3.5 4.3 2.9 1.1-.7.5-2.6-2.6-8.8-2.1-4.3-5.8-12.7-8.2-18.7-2.3-5.9-4.5-10.7-4.9-10.6-.3 0-20.6 9.5-45.1 21zm968.8-15.9c-.3.7 1.4 2.6 3.6 4.3 5.6 4.2 5.8 7.6 1.2 18-6.2 14.5-41.4 86.4-44.3 90.7-2.7 4.1-3.2 4.3-7.3 4.1-2.5-.1-5.6-.3-6.9-.5-7.7-1 1.7 4.2 43.6 24.5l46.7 22.6 4.7-11.5c2.7-6.4 6.8-15.3 9.3-19.9 2.5-4.5 4.2-8.6 3.9-8.9-1.5-1.5-4-.3-6.2 2.9-1.3 1.9-5.6 6.6-9.6 10.4-12.3 11.7-22.3 13.1-38.6 5.4-11-5.3-13.3-7.5-12.6-12.2.6-4.5 22.6-50.1 24.2-50.1 2.1 0 10.2 5.7 12.3 8.8 3.5 4.9 4.8 12.3 3.3 19.4-1 5-1 6.2.1 6.9 2 1.3 2.5 1.1 3.6-1.9 2.9-7.6 7.6-18.1 14.1-31.1 3.9-7.9 7.1-14.5 7.1-14.6 0-.2-.7-.6-1.5-.9-1-.4-3.5 1.3-7.1 4.8-6.2 6.1-12.4 9.6-17.3 9.6-4 0-13.1-3.8-13.1-5.5 0-2.4 22.7-48 24.8-49.9 2.8-2.5 6.6-1.8 16.3 2.9 17.6 8.5 22 18.8 17 40-1.1 4.4-1.7 8.3-1.5 8.7 1.4 2.2 3.4.1 6.3-6.6 1.8-4 5.9-12 9.1-17.7 3.3-5.7 5.6-10.7 5.2-11-1-1-88.3-42.9-89.2-42.9-.5 0-1 .5-1.2 1.2zm151.6 77.9c-.3.6 1 2.7 3 4.8 4.2 4.3 4.6 7.3 1.6 13-3.1 6.1-56.7 84.2-60.6 88.3-4.1 4.4-6.7 4.7-12.5 1.8-3.5-1.8-4-1.9-4.5-.5-.4.9-.5 1.7-.3 1.9 2.4 1.9 45.1 30.7 46.2 31.2 3.3 1.2 2.7-1.9-.9-5-6-5.2-5.4-7.9 5.4-23.9 4.9-7.2 11.6-17.1 14.8-21.9 3.3-4.8 6.3-8.7 6.7-8.8 1.1 0 12 7.4 13.6 9.4 2.2 2.6 2.4 8.9.6 15.2-.9 3.2-4.7 12.6-8.3 20.9-7.9 18-8.8 23.4-5 30.5 3.1 5.7 11 12.2 18.2 14.9 6.5 2.4 18.1 3 17.4.8-.3-.6-2.2-1.3-4.4-1.5-5-.4-7.4-2.6-7.4-6.9 0-1.8 2.9-10.7 6.5-19.7 5.4-13.6 6.5-17.3 6.5-22.2 0-7.7-3.3-14.7-10.2-22.1-3-3.2-4.4-5.3-3.3-4.8 1.1.4 5.1 1.9 9 3.2 32.3 11.6 59-18.4 40.4-45.3-6-8.7-15.5-16.6-43.1-35.4-15.3-10.5-28-19-28.2-19-.3 0-.8.5-1.2 1.1zm45 33c7.7 5.4 11.4 13.1 10 20.7-1.4 7.9-11.1 23.6-17.7 28.6-7.7 5.9-13.6 6.8-21.8 3.6-5.3-2.1-13.9-7.7-13.9-9.1 0-1.4 29.1-43.4 31.3-45.2 2.8-2.2 7.7-1.6 12.1 1.4zM649.5 281.5c-14.3 3.8-21.1 7.5-51.4 27.9-14.1 9.5-26.5 17.7-27.6 18.3-1.5.9-1.7 1.4-.7 2.6 1.1 1.3 1.7 1.2 4.9-.4 5.5-2.8 8.1-2.4 12.1 1.8 4 4.3 56.6 82.6 59.9 89.3 3.1 6.2 2.9 7.8-1.9 12.7-3.5 3.6-3.9 4.3-2.4 4.9 2.7 1 53-33.1 62.7-42.6 23.1-22.7 27.9-50.6 13.2-78.5-4.4-8.3-8.4-13.7-15.8-21-7.4-7.4-15.4-12.3-24.4-14.9-6.7-2-21.6-2-28.6-.1zm6.7 14.3c8.4 4.1 17.8 12.8 26.5 24.4 20.7 27.7 28.2 50.2 22.2 66.4-2.7 7-11.3 16-19.2 19.8-9.4 4.6-8 6-41.3-43.6-27.1-40.6-33.4-50.5-33.4-53.5 0-2.4 7-9 12.8-12.1 11.7-6.2 21.8-6.7 32.4-1.4zM440 452.9c-4.8 1.5-12.5 5.9-17.7 10.1-5.8 4.8-47.6 49.5-48.1 51.5s1.8 2.9 3.1 1.2c2.2-2.6 6.1-4.7 8.9-4.7 1.8 0 4.7 1.7 8.6 4.9 10.3 8.6 74.9 68.9 77.1 72 2.8 3.8 2.6 6.3-.5 11.2-1.9 3-2.3 4.4-1.5 5.2.8.8 1.5.7 2.5-.3 13.2-13.9 45.9-49.8 48.8-53.8 8.1-11 12.7-24.7 11.3-34.1-1.5-10-10.3-21-19.8-24.6-11-4.2-26.5.2-40.4 11.4-3.5 2.8-6.3 4.8-6.3 4.3 0-.4 1.1-2.7 2.5-5.1 5.3-9.2 7.1-22.3 4.5-31.9-1.5-5.8-6.8-12.2-12.5-15.4-4.1-2.2-6.2-2.7-11.5-2.7-3.6 0-7.6.4-9 .8zm-5.4 20.5c7.3 3.4 19.7 15.4 23.1 22.4 4.7 9.6 3.6 15.9-4.6 25.1l-3.8 4.3-19.1-17.6c-20.2-18.7-22.3-21.6-19.8-26.4 1.5-2.9 5.9-7.3 9.1-9 3.3-1.9 9.7-1.3 15.1 1.2zm56.7 39.6c6.1 3.1 18.2 15.7 20.9 21.8 3 6.6 2.7 13.8-.8 20.3-3.5 6.2-9.8 11.9-13.4 11.9-3.5 0-5.6-1.7-27.3-21.9L452 527.8l2.8-3.4c11.2-13.6 24.1-17.6 36.5-11.4zM2069 488.7c-10.4 3.6-17.4 11.1-20.5 21.8-4 13.7 2.5 28.7 15.6 36 4.9 2.7 6.2 3 14.9 3s10-.3 14.9-3c16.4-9.1 21.3-30.2 10.6-46.3-7-10.6-23.1-15.9-35.5-11.5zm-1763 116c-33.5 48.6-32.6 47.3-31 48.3.8.5 2.5-.5 5-3.1 4.2-4.5 6.4-4.8 12.2-1.8 7.8 4 84.3 57 88.6 61.4 4.7 4.9 5 6.5 2.2 11.9-1.9 3.7-1.9 5.6 0 5.6.8 0 57.7-82 58.7-84.6.2-.6-2.2-2.7-5.4-4.5-13.8-8.1-25-15.6-27.2-18.3-1.7-2-4-2.1-4.8-.1-.3 1 1.5 3.7 5.4 7.8 8.6 9 12.5 16.3 13.1 24.7.6 8.8-1.3 14.3-8.4 24.3-5.8 8.2-8.7 10.4-12.6 9.4-2.8-.8-45-29.8-45.5-31.3-.6-1.9 6-9.6 10.1-11.8 5-2.5 11.5-2.6 19.5-.1 4.4 1.3 6.5 1.5 7.2.8 1.5-1.5.4-3-3.9-5.2s-31.4-20.3-35.5-23.8c-6-4.9-7.2-1.3-1.9 5.9 4.7 6.3 7.2 12.5 7.2 17.6 0 4.4-5.5 14.6-7.4 13.9-2.3-.9-41-27.8-43.8-30.5-3.8-3.6-3.5-6.7 1.3-14.3 12.1-19 23.4-22.7 43.2-14.3 7.3 3.1 10 3.4 10.4 1.4.2-.9-1.8-2.8-5.2-4.8-4.5-2.7-12.6-8.7-26-19.3-.7-.5-10.4 12.9-25.5 34.8zm1954.6 8.2c-.3.5.1 2.2.9 3.7 1.8 3.5 1.9 8.3.2 10.4-2.4 3-8.9 7.2-49 31.3-40.6 24.5-48.2 28.7-51.9 28.7-1.1 0-3.8-1.9-5.9-4.2-2.8-3.1-4.2-3.9-4.9-3.2-.8.8 3.5 8.8 15.4 28.4 9.1 15.1 18.6 30 21 33.1 9.6 12.3 26.8 23.3 40.4 26 8.3 1.6 24 .6 31.2-1.9 19.7-6.9 36.7-20.7 44.2-35.9 7.6-15.3 7.4-31.3-.6-50.9-4-9.9-37.4-66.3-39.3-66.4-.6 0-1.4.4-1.7.9zm25.3 45.3c6.9 7.1 11.4 21.2 10 31.1-2.4 15.9-20.5 33.5-49.8 48.1-20.8 10.5-35.7 12.6-47.9 6.9-8.9-4.1-21.3-20.8-19.8-26.6.3-1.3 1.6-3.5 3-4.8 2.1-2.1 60.2-37.7 86-52.7 10.9-6.3 14-6.6 18.5-2zM240.2 704.8c-6.7 13.4-13.4 29.4-12.8 30.8.5 1.3 1.6.6 5.4-3.5 4.4-4.7 5.2-5.1 9.3-5.1 8.7.1 14.1 3.7 41.6 28.5 24 21.6 27.9 25.3 27.3 25.8-.5.5-79.4-8.5-86.2-9.8-2-.4-4.5-1.6-5.4-2.6-1.6-1.7-1.6-2.6-.7-7.2 1.1-5.1.3-8.2-1.6-6.2-.5.6-5.7 11.5-11.5 24.4-7.9 17.3-10.4 23.6-9.5 24.2.8.4 2.4-.2 4.2-1.7 3.5-2.9 8.6-3 28.8-.6l13.7 1.7 16.3 15.6c9 8.5 18.5 17.5 21.2 19.9 2.6 2.3 4.6 4.4 4.4 4.6-.5.6-80.6-7.5-86.2-8.7-7.2-1.4-9.5-3.2-9.5-7.3 0-2.1-.6-3.6-1.6-4-1.6-.6-2.7 1.5-16.9 32.7-4.2 9.3-5.5 13.1-4.7 13.9.8.8 1.9.4 4.1-1.4 5-4.3 6.9-4.3 38.6-1.3 2.8.3 23.2 2.1 45.5 4 22.3 2 43.5 3.8 47.2 4.2l6.6.6 3.1-6 3-6-31.5-29.3c-17.2-16.2-31.4-29.7-31.4-30.2s1.2-.7 2.8-.4c1.5.3 19.1 2.4 39.2 4.6 20.1 2.2 38.1 4.3 40 4.6 3.5.5 3.6.4 6.5-5.6l2.9-6.1-2.5-2.3c-1.3-1.3-12.7-11.5-25.4-22.7-12.6-11.2-23.2-20.6-23.5-20.9-.3-.3-8.4-7.6-18.1-16.3-22.9-20.3-26-24.1-27.5-33.5-.9-5.5-2.9-6.1-5.2-1.4zm2116 77.1c-1 .6-1 1.4-.2 3.5 1.5 4.2 1.2 9.1-.7 10.8-1 .9-3.6 2.5-5.8 3.6-7.3 3.6-92.5 38.2-97 39.3-6.4 1.6-9 .6-12-4.6-1.8-3-3.1-4.2-4.1-3.8-.8.3-1.3 1.1-1.1 1.7 1.3 3.2 38.9 95.1 39 95.2.1.1 2.7-1 5.7-2.5 12.2-5.9 20.7-9.5 26.9-11.6 5.3-1.8 6.7-2.7 6.9-4.5.4-2.1.1-2.2-3.5-1.5-9.6 1.8-13.9 2.2-20.4 1.9-12.6-.6-20.7-6.1-26.3-17.8-4.5-9.5-6.5-16.6-5.5-19.3.4-1.2 2.5-3.1 4.6-4.1 3.4-1.8 47.9-20.2 48.7-20.2.2 0 1.1 2.1 2.1 4.7 4 10.4 1 19.9-8.5 27.1-4.7 3.6-6.5 7.2-3.6 7.2.8 0 5.4-1.9 10.3-4.2 4.8-2.2 15.3-6.7 23.3-9.9 11-4.5 14.5-6.3 14.5-7.6 0-1.6-.9-1.8-7.5-1.5-8.3.4-15-1-19.2-3.9-2.3-1.7-8.5-12.5-7.6-13.4 1.5-1.5 50.4-20.5 52.7-20.5 2 0 3.6.8 4.9 2.5 2.9 3.7 8.1 16.6 8.8 21.9 1.5 10.8-4.7 21.3-17.1 29.3-4.1 2.6-7.4 5.4-7.5 6.1 0 2.4 2.6 2.2 9.3-.8 7.4-3.3 12.1-5.1 21.7-8.1 3.6-1.2 6.9-2.4 7.3-2.9.8-.7-35.3-90.4-37.1-92.2-.4-.4-1.3-.4-2 .1zm30.7 167.9c-8 2.1-13.4 5.5-18.2 11.4-4.9 6.1-7.8 12.2-13.7 29.3-10.6 30.5-16.9 37.9-32.7 38-6.5 0-7.4-.3-11-3.1-5.9-4.7-9.5-12.3-10.1-21.1-.4-6.7-.2-7.9 2.7-13.8 2.5-5 4.6-7.5 9.1-11 6.8-5.2 15.3-9.9 21.1-11.6 3.7-1.2 5.3-3.9 3-5.3-.4-.3-5.9.8-12.2 2.5-6.3 1.7-16.3 4.2-22.4 5.5-14 3.1-13.4 2.9-12.8 5.3.4 1.7 1.3 2.1 4.4 2.1 5 0 5.6 1.4 3.9 8.8-5.4 24 6.1 54.8 24.2 64.7 4.7 2.7 6.2 3 14.3 3 7.8 0 9.8-.4 15-2.8 7.4-3.5 14-10.3 18.2-18.8 1.7-3.5 5.9-14.3 9.3-23.9 7.8-21.9 10.4-27.4 15.2-31.4 12.7-10.9 28.8-5.3 32.8 11.5 3.5 14.3-6.8 29.6-25.2 37.7-2.7 1.2-4.8 2.5-4.8 2.9.1 3.2 2 3 21.4-1.8 11-2.7 20.1-5.1 20.4-5.4.2-.2.2-1.1-.1-2-.4-1-2-1.5-4.7-1.5-5.3 0-5.7-1.3-3.6-10.9 2.1-10 2-16.1-.3-25.4-6.6-25.6-23.1-38.2-43.2-32.9zm62.6 142c-.6.4-1 2.8-1.1 5.4 0 5.8-1.4 7.5-7.8 9.3-5.5 1.5-99.9 14.5-105.9 14.5-6.4 0-8.6-1.5-9.9-6.6-1.2-4.2-3.1-6.5-4.4-5.1-.3.2 1.2 13.1 3.2 28.6 3.3 24.7 4 28.1 5.5 28.1s1.9-1 2.1-5.7c.3-5.1.6-5.9 3.3-7.4 2.2-1.3 17.7-3.8 55.5-8.8 28.9-3.9 54.2-7.1 56.3-7.1 4.7 0 8.3 3.3 9.3 8.4.5 2.7 1.1 3.6 2.3 3.4 1.9-.4 2.1 2-2.4-31.2-1.8-13.7-3.7-25.2-4.2-25.7-.4-.4-1.3-.5-1.8-.1zm-2276.1 28.7c-7 3.5-13.6 10.7-16.4 18.1-5.6 14.9 1.9 32.7 16.7 39.5 7.5 3.5 19 3.3 26.5-.4 22.7-11.1 23.8-43.7 1.8-56.1-4.7-2.6-6.5-3.1-14.5-3.3-8-.3-9.6-.1-14.1 2.2zm2213.2 90.6c-35.6 5.2-54.6 27.7-54.6 64.6 0 10.9 1.9 18.2 8.1 30.4 6.9 13.8 6.5 15.8-2.8 17.7-2.4.5-3.9 1.4-4.1 2.5-.3 1.6 1.6 1.7 23.7 1.7 13.7 0 25.1.4 26.6 1s3.2 2.3 3.8 4c.6 1.7 1.8 2.9 2.5 2.8.7-.2 1.3-.6 1.3-1.1-.1-.4-.1-13.1-.1-28.2 0-23-.2-27.5-1.4-27.5-.9 0-1.7 1.6-2.1 4.2-2.1 13.5-3.3 14.2-26 14.6-16.2.3-17.2.3-19.8-1.8-8.2-6.5-8-25.1.3-35.2 6.5-7.9 19.3-13.3 37.9-15.9 11-1.5 36.3-.7 46.1 1.6 27.9 6.4 41.5 24.1 35.6 46.3-1.9 6.9-5.5 13-10.7 17.6-5.3 4.8-10.8 7.3-21.2 9.4-6.9 1.5-8.2 2-8.2 3.7 0 1.9.8 2 22.8 2.3 21.7.2 22.7.2 22.7-1.7 0-1.4-1-2-4.1-2.5-9.1-1.5-9.8-3.5-4-12.8 2.2-3.5 4.9-9.2 6.1-12.8 2-5.8 2.2-8 1.7-20.5-.6-17.4-2.6-24.2-10.8-36.5-14.2-21.1-41.2-32-69.3-27.9zm-56.6 167.6c0 .5-1.1 7.9-2.5 16.6-2.9 18.6-2.9 18.7-1 18.7.8 0 1.5-.5 1.5-1 0-2.8 4.7-10.5 7.4-12.2 2.7-1.7 4.2-1.9 11.6-1.3 9.5.6 78.9 11 79.8 11.9.7.7.8.6-5.8 4.3-3 1.7-23.3 13.3-45 25.8s-44.3 25.5-50.2 28.8c-10.6 6.1-10.8 6.2-11.4 10.5-.4 2.4-.5 4.5-.2 4.7.2.2 24.2 4.1 53.2 8.5 29 4.4 54.8 8.5 57.3 9 10.4 2.4 13.9 5.2 15.1 12.1.5 2.7 1.3 4.5 2.2 4.7 1.2.2 2-2.9 3.9-15.8 1.3-8.9 2.5-17 2.8-18.1.4-1.4 0-1.9-1.5-1.9-1.3 0-2.1.9-2.5 2.7-.9 4.6-5 9.7-8.7 11-2 .7-5.8 1.1-9 .8-9.6-.9-69-9.9-69-10.5 0-.7-2.6.8 51.8-30.5 46.2-26.6 48.2-27.8 48.2-30.6 0-1.6.9-8.6 2-15.6 1.6-9.9 1.8-12.8.8-13.4-1.7-1.1-2.8-.2-2.8 2.4 0 1.2-.9 3.6-1.9 5.3-1.6 2.6-2.7 3.2-6.2 3.6-4.7.4-96.2-13.2-104.8-15.6-7.1-2-10.7-5.5-11.6-11.2-.4-2.9-1.1-4.4-2.1-4.4-.8 0-1.4.3-1.4.7zm-2102.3 45.9c-.4.4.7 2.2 2.3 4.1 6.1 6.9 3 10.5-16 18.8-16.1 7-20.4 9.7-24.6 15.2-3.7 4.8-5.4 11.5-5.4 21.1v6.6l-4.4-8.8c-5.4-10.8-10-15.7-18.6-19.9-5.3-2.6-7.6-3.2-13-3.2-17 .1-27.2 9.2-30 27-1.6 10.1-.5 19.4 6.6 54.8 3.5 17.5 6.4 32.1 6.4 32.3 0 .3.8.4 1.7.2 1.4-.2 1.7-1.3 1.4-5.5-.2-4.2.2-5.5 2-7.2 3.2-3 7.5-4 59.4-14.6 43.5-8.8 55.3-10.6 58.1-8.7 1.5.9 4.4 6.7 4.4 8.7 0 .8.9 1.5 2 1.5s2-.3 1.9-.8c0-.4-2.6-13.1-5.7-28.2-4.4-21.2-6-27.5-7.2-27.5-1.2 0-1.4 1-1.2 4.3.4 5-1.6 8.8-5.6 10.3-4.1 1.6-51.2 11-52.1 10.5-1.3-.8-3.3-14.3-2.6-17.5.7-3.2 5.5-8 10.8-10.7 1.7-1 10.6-4.8 19.6-8.5 18.9-7.8 22.3-10.4 24.8-18.8 2.8-9.9-1.4-24.7-9.3-32.4-4-3.8-4.6-4.2-5.7-3.1zm-56.9 64.9c4.9 2.1 7.9 5.1 10.7 10.5 2.3 4.6 5.1 15.7 4.2 16.7-1.1 1-48.3 10.3-52.4 10.3-2.9 0-4.9-.6-6.2-1.9-4.6-4.6-5.2-17-1.1-23.6 1.1-1.8 4.2-4.7 6.9-6.4 9.4-6.1 29.6-9 37.9-5.6zm2129.7 54.8c-1.3 3.3-30.5 96.9-30.5 97.5 0 .4 5.3 2 11.8 3.6 6.4 1.6 15.7 4.3 20.7 6.2 6.6 2.4 9.1 3 9.7 2.1 1.2-2 .5-2.8-5.2-6-7.6-4.1-16-11.1-19.2-15.9-5.4-8-6.1-15.2-2.4-27.5 4.1-13.7 6.7-17 12.3-15.7 3.5.8 50.7 15.5 51.2 15.9.7.7-3.1 10.5-5.1 13-3.4 4.4-9.4 6.8-18.8 7.4-6.7.5-8.5.9-8.8 2.2-.2 1.3 1.6 2.1 8.5 3.8 4.8 1.2 16 4.5 24.8 7.4 8.8 2.8 16.4 5.1 17 5.2 2.4.1 1.4-3.5-1.7-5.6-9.2-6.3-14.8-13.9-14.8-20.2 0-3.4 1.7-9.5 3-11 .7-.8 47.2 13.3 52.1 15.9 4.6 2.4 4.9 5.5 1.5 16.4-2.9 9.5-4.6 12.7-8.8 16.6-6.5 6.2-8.9 6.9-24 6.9-12.4 0-13.8.1-13.8 1.7 0 1.2 1.3 2.1 4.3 2.8 7.1 1.9 19.1 5.9 26.3 9 3.8 1.6 7 2.7 7.2 2.5 1-1 30-95 29.6-95.7-1.1-1.7-2.4-.7-4.4 3.2-3.1 6.1-5.8 7.5-12.2 6-7.1-1.6-89.6-27.3-97.9-30.5-9-3.5-10.3-5-9.7-11.9.3-4.1.1-5.7-.9-6-.8-.3-1.6 0-1.8.7zm-2080.8 65.2c-23.2 6-40.4 18.9-48.6 36.6-13.2 28.1 0 69.5 27.5 86.1 17.1 10.4 40.1 11.6 61.1 3.3 11.8-4.6 18.8-9.1 26.9-17.1 11.6-11.4 16.6-24.1 16.5-41.4-.1-16.3-5.6-32.6-15.5-45.7-15.3-20.2-41.6-28.6-67.9-21.8zm58.8 26.5c4.1 1.5 7.5 3.8 10.7 7 15.9 16.3 2.5 42.6-29.7 58.4-24 11.8-48.1 16.2-65.2 11.9-7.8-1.9-13.6-6.1-17.7-12.6-4-6.5-4.2-15.7-.4-23.8 8.9-19.5 41.3-38.4 74.3-43.3 7.4-1.1 22.1.2 28 2.4zm1962.1 75.1c-6.9 14.2-12.6 26.1-12.6 26.4 0 .3.9.5 2 .5s2-.4 2-.9 1.2-2.4 2.7-4.1c4.2-5.1 7.9-4.1 34.5 8.9l22.7 11.1-2.5 5.7c-1.5 3.2-4.1 7.3-6 9-5.6 5.4-12.3 4.8-41.9-3.5-10.6-3-14.8-3.5-19.3-2.1-11.6 3.4-21.4 22.8-18.5 36.3 1.3 6 3.3 5.8 3.3-.2 0-9.8 3-10.4 26.6-4.6 7.8 1.9 16.2 3.4 18.6 3.4 9.2 0 18.3-5.3 24.9-14.5 1.8-2.5 3.4-4.4 3.5-4.2.1.1-.4 2.9-1.2 6.2-.7 3.3-1.4 9.6-1.4 14.1 0 7 .4 8.9 3 14.1 5.8 11.7 14.4 17.5 26.7 18.1 8.9.5 14.2-1.7 22.1-9.2 8.1-7.6 13-15.9 28.8-48.2 11-22.5 14.2-29.9 13.2-30.5-.9-.6-2 .1-3.3 1.9-5 6.7-6.9 7.4-14.6 4.7-5.6-2-87.9-42-94.1-45.7-5.7-3.5-7.1-6.8-5.2-12.4 1.7-4.9 1.7-5.1 0-5.7-1-.4-5 6.9-14 25.4zm79.8 55.8c19.9 9.8 24.7 12.5 25.9 14.8 3.7 7.5-5.8 21-16.2 22.9-11.9 2.3-35.3-10-40.7-21.4-2.3-4.8-1.3-12.9 2.6-21.5 1.6-3.7 3.2-6.7 3.5-6.7.3 0 11.5 5.4 24.9 11.9zm-1969.2 9c-1 .6-.7 2 1.3 6.2 3.5 7.6 3.3 11.7-.7 15.6-2.7 2.6-95 56.9-99.9 58.8-1.1.4-2.2-.8-3.9-4.2-2.9-5.7-3.8-15.4-2-21 1.7-5.2 8.5-14.5 15.9-21.8 5.9-5.8 7.1-7.8 5.2-8.9-.5-.4-5.6 2.2-11.3 5.5-5.6 3.4-14.7 8.4-20.1 11.1l-9.8 4.9 2 3.2c1 1.8 13.9 23.9 28.6 49.2 14.6 25.3 27 46.4 27.5 46.9s2.9-.6 5.7-2.6c5.1-3.6 24.6-15.4 30.1-18.2 2.2-1.1 3.2-2.3 3-3.4-.5-2.1-1.1-2-11.8.9-11.1 3.1-25.8 3.3-31 .5-4.8-2.5-9.8-7.4-12.1-11.8l-1.8-3.6 49.5-28.8c57.4-33.3 56.5-32.9 63.4-25.4 2.2 2.4 4.2 5.1 4.5 6.1.7 2 3 2.6 3.9 1.1.4-.8-32.2-58.3-34.2-60.4-.4-.4-1.3-.4-2 .1zm57.2 96.7c-.7.3-.9 2.3-.6 5.2.2 3-.2 6.1-1.1 8.4-.9 2.1-8.7 15.8-17.5 30.5s-23.4 39.4-32.5 54.7l-16.6 27.9 3.7 4.8c2 2.7 4.3 4.8 5 4.9 1.3 0 20.8-5.8 80.2-24.1 33.8-10.3 37.1-11.2 45-11.3 4.7 0 10 .3 11.8.8 2.3.6 3.2.5 3.2-.4 0-.8-14.6-20.3-21.9-29.2-.4-.4-1.2-.3-1.9.1-1.1.7-.8 1.9 1.3 6.1 6.1 12 1.1 17.2-24 25.4-8.6 2.8-11.2 3.3-12.1 2.3-4.1-4.5-23.7-30.3-23.7-31.2 0-2 19.5-32.5 22.1-34.5 3.4-2.7 4.6-2.5 9.2 1.6 2.6 2.3 4.6 3.4 5.6 3 1.4-.5 1.1-1.3-1.8-4.9-1.9-2.3-9.8-12.4-17.7-22.5-7.8-10-14.3-18.2-14.4-18.1-.1 0-.7.3-1.3.5zm7.5 93.6c6.1 7.8 10.7 14.5 10.3 14.9-1.3 1.2-47.9 15.2-49.1 14.7-1-.3 25.7-43.8 26.9-43.8.4 0 5.8 6.4 11.9 14.2zm1724.6-41.6c-7.6 3.2-12.6 7.7-17.5 15.8-2.2 3.6-2.5 5.2-2.5 14.1 0 8.5.3 10.6 2.3 14.3 9.7 18.2 34 22.8 49.4 9.3 2.4-2.2 5.7-6.5 7.3-9.7 2.6-5.1 3-7 3-13.9s-.4-8.8-2.9-13.8c-3.3-6.5-8.3-11.5-14.8-14.8-5.8-3-18.5-3.6-24.3-1.3zM507 2011.7c-4.7 5.3-11.4 12.5-14.9 16-5.1 5-6.2 6.6-5.3 7.5 1 1 1.8.9 4-.4 16.8-10.4 24.5-13.4 32.5-12.5 7.7 1 13.5 4.4 22 12.8 11 11.2 11.2 10.3-7.2 29.7-8.2 8.6-17 17.7-19.6 20.2l-4.6 4.5-4.4-4.6c-7.4-7.8-8-15-2.4-26.9 1.6-3.4 2.7-6.6 2.3-7.1-1.2-2-3.2-.6-9.1 6.3-3.4 4-11.4 12.7-17.8 19.2-9.6 10-11.3 12.2-10.2 13.3 1.1 1.1 2.2.8 6.8-1.7 6.6-3.6 14.4-5.5 19.1-4.6 3.5.6 12.8 7.1 12.8 8.8 0 1.5-36.2 38.8-39 40.3-3.7 1.9-7.9-.2-15.6-7.9-12.6-12.6-14.2-21.6-6.4-37 2.2-4.5 4.8-9.3 5.8-10.8 1.2-1.9 1.4-3 .6-3.8-.7-.7-5.4 3.3-15.7 13.3l-14.6 14.3 35.4 34c19.4 18.6 36.1 34 36.9 34.2 2.3.5 1.9-1.5-1-5.4-4.7-6.2-3.8-8.7 7.9-21.2 22.1-23.5 62.5-65.1 65.9-67.9 6.4-5.2 8.9-5.2 14.5-.1 2 1.9 4.3 1.8 4.3-.2 0-.8-73.4-72-74.2-72-.2 0-4.2 4.3-8.8 9.7zm1475.2 59.8c-17.8 4-37 18.1-44.1 32.4-1.6 3.1-3.4 7.4-4 9.6-3.3 10.8-5.3 11.9-11.5 6.5-3.1-2.7-6.6-3.3-6.6-1 0 .4 5.7 7.2 12.6 15.1 7 7.9 13.8 15.9 15.1 17.6 2.7 3.6 3.1 3.7 5.2 2.4 1.2-.8.7-2.2-2.7-7.8-8.4-13.9-10-19.7-8.2-30.2 2.6-15.5 14.7-27.3 29.5-28.8 18.6-1.9 47.2 19.3 64.8 48.2 10 16.5 13.2 34.2 8.1 45.1-2.7 5.7-9.6 12.1-16.7 15.5-5.4 2.5-7.3 2.9-15.2 2.9-10.7 0-15.5-1.9-25.5-9.9-6-4.9-8.9-5.9-9.7-3.6-.1.5 3 4.9 7 9.7 3.9 4.7 10.3 12.5 14 17.2 4.5 5.6 7.3 8.3 8.3 7.9 1.9-.7 1.8-1.6-.7-6.4-3.5-7-2.7-8.1 7.2-9.5 13.7-2 20.9-5.4 32.2-15.5 13.2-11.6 21.6-30 21.7-47.2.1-23.2-17.1-51.1-39.1-63.5-12.7-7.2-28.4-9.8-41.7-6.7zm-1363.4 35.3c-1 .2-1.8 1-1.8 1.8 0 1 1.2 1.4 3.9 1.4 7.5 0 9.4 5.9 5 15.6-1 2.3-4 9.3-6.5 15.5-7.6 18.4-6.6 26.2 5.3 39.8 2.4 2.8 4.2 5.1 3.8 5.1-.3 0-2.3-.9-4.3-1.9-15.3-7.8-32.4-6.1-43.1 4.2-13.8 13.3-12 31.6 4.6 47.9 3.7 3.7 7.9 7.6 9.3 8.7 5.1 3.9 51.5 36.4 52.6 36.8 2.9 1.1 2.3-2.2-1-5.6-4.5-4.6-4.6-7.3-.6-14 4-6.9 54.3-78.4 59.2-84.4 5-5.9 7.7-6.7 13.6-3.8 3.6 1.8 4.7 2 5.3.9.5-.7.5-1.6.1-1.9-2.4-2.2-45.4-31.9-46.1-31.9-2.5 0-1.9 2.3 1.3 5.1 5.5 4.8 5 8.2-2.7 19.4-16.4 23.8-24.2 34.5-25.3 34.5-.6 0-3.9-2-7.2-4.5-9.8-7.2-10.2-13.6-1.8-31.7 7.8-17 8.9-19.5 10.2-23.2 4.4-12.3-1.9-23.7-17.1-30.7-5.7-2.6-13-4-16.7-3.1zm15.4 87.9c5.2 2 14.8 8.2 14.8 9.5 0 .5-6.8 10.6-15.1 22.4-16.6 23.5-18.5 25.4-24.6 23.3-4.7-1.5-11.7-8.6-13.3-13.4-2.5-7.6.6-17.7 9-29 4.7-6.3 7.3-8.7 13-11.9 5.3-3 10.2-3.3 16.2-.9zM1838 2173c-23.3 6.7-42.8 24-50.1 44.5-3.2 9.3-3.7 24.7-1 35.4 6 23.7 24 45.7 43.6 53 8.4 3.2 19.7 4.4 27.4 3.1 25.3-4.3 45.9-18.6 56-38.7 7-14 8-33 2.7-48.8-8.1-24-27.2-43.6-47.6-49-7.7-2.1-22.9-1.8-31 .5zm4.2 11.1c16.8 5.6 33.4 22.9 45.7 47.6 13 25.8 14 47.4 2.8 59.2-6.4 6.7-16.5 8.9-27 5.7-25.3-7.6-54.9-50.3-56.5-81.7-.6-13.2 1.3-19.8 7.7-25.9 7.4-7.2 16-8.7 27.3-4.9zm-1084 20.1c-2 4.6-6.5 14.1-9.9 21.1-3.5 7.1-6.1 13.3-5.8 13.8 1.3 2 3.5.6 6.8-4.4 8.8-13.2 14.8-17.8 26.3-20.2 15.5-3.2 30.3 3.7 37.5 17.5 2.2 4.1 2.4 5.7 2.3 17.5 0 11.9-.3 13.8-3.3 23-8.6 26-25 49-41.4 58.1-4.7 2.6-6.1 2.9-14.2 2.9-7.5 0-9.7-.4-13.4-2.3-10.2-5.5-18-16-20.1-27.1-1-5.3-.2-12.2 2.4-20.6 2.1-6.5 2-8.5-.2-8.5-1.2 0-3.4 3.3-7.4 11.2-3.2 6.2-7.8 15.1-10.3 19.7-2.4 4.6-4.2 8.7-3.9 9.2 1.1 1.8 3.2.8 6.3-3.2 4.6-5.6 6.5-5 11.8 3.8 7.9 13 21.5 22.6 38.3 26.9 7.9 2.1 22.5 2.3 30 .5 15.2-3.7 28.8-13.6 38.9-28.1 16.3-23.5 19-51.7 7-72.1-6.6-11.3-17-20.5-30.4-27.2-10.2-5-15.9-6.1-29.1-5.4-13.7.8-14.3.4-12-7.4 1.6-5.6 1.4-6.9-1-6.9-.9 0-2.9 3.3-5.2 8.2zm944.6 39.1c-17.1 6.7-20.2 9.3-9.8 8.1 9.3-1 13.3 1.5 17.6 11.2 6.1 13.9 29 74 28.3 74.2-.4.2-15.1-8-32.6-18.1-17.5-10.1-41.7-24.2-53.8-31.2-12.1-7-22.5-13.1-23.2-13.7-1.4-1.1-9.3 1-9.9 2.7-.2.6 7.9 22.4 18.2 48.5 21.5 54.9 23.4 60.4 23.4 66 0 3.6-.6 4.8-4 8.3-7 7-4.6 7.1 11.7.7 8.1-3.1 15.6-6 16.6-6.3.9-.4 1.7-1.4 1.7-2.2 0-1.4-.9-1.6-6.5-1-8.6 1-12.6-1.4-16.2-9.5-.8-1.9-2.5-5.8-3.7-8.5-5.2-11.6-21.9-55.6-21.3-56.1.3-.4 22.9 12.3 50.1 28l49.5 28.7 3.8-1.9c2.1-1 8.5-3.6 14.3-5.7 11.9-4.4 12.2-4.5 11.1-6.3-.6-1-1.7-1.1-5.4-.1-4 1-5.1.9-7.2-.5-3.4-2.2-3.6-2.6-21.1-47.3-24.5-62.4-24.3-61.6-17.4-68.5 7.5-7.5 6.1-7.5-14.2.5zm-697.6 53.3c.2 1 2.1 2.2 4.3 2.9 7.3 2.1 10.3 4.2 11.5 8.1 1.2 3.4.2 8.2-12.1 60.5-10.5 44.6-13.7 56.9-14.9 56.9-3.3 0-11.4-3.6-15.1-6.8-7.5-6.4-10.7-16.8-10.8-35.5-.1-6.9-.3-7.7-2-7.7-1.4 0-2.1.9-2.6 3.2-1.9 9.1-6.9 29-8.7 34.2-1 3.2-1.6 6.2-1.1 6.6.6.5 105.8 25.6 110.7 26.4 1 .1 1.2-.6 4.6-17.9 1.2-6.1 3-14.3 4.1-18.4 2.3-9.1 2.3-9.1.1-9.1-1.3 0-3.1 2.2-5.7 7.2-7.7 14.8-15.8 23.5-24 25.8-4.9 1.4-16 .9-17.7-.8-1.1-1.1 23.2-106.1 26.1-112.7 1-2.2 2.5-4.6 3.5-5.4 1.7-1.5 9.3-1.8 14.6-.6 2 .4 2.9.2 3.4-1 .3-.9 0-1.8-.7-2-2.1-.8-65.5-15.5-66.7-15.5-.6 0-1 .7-.8 1.6zm503.8 9.1c-18.3 4-33.6 7.6-33.8 7.8-.3.2-.2 1.1.1 1.8.4 1.2 1.5 1.3 5.9.5 7.2-1.3 12.2.2 14.4 4.4 1.6 3.1 26.7 114.8 26 115.5-.9.9-11.7 1.5-15.9.9-9.2-1.4-17.8-10-25.8-25.9-3-5.9-4.4-7.7-6-7.7-1.8 0-2 .4-1.4 2.7 2.1 8.3 6.4 29.6 7 34.4.4 3.1 1.1 6.2 1.5 6.9.6 1 12.7-1.3 56.6-11 30.8-6.8 56-12.4 56.2-12.5.1-.1-.9-4-2.2-8.6-1.3-4.6-3.6-14-5.1-20.9-3.4-15.8-3.2-15.2-5.2-14.8-1.5.3-1.9 1.9-2.4 10.8-.3 5.8-1 12.3-1.4 14.5-1.9 9.4-7 17.2-13.4 20.4-3.8 2-12.1 4.5-12.7 3.9-1-1.1-24.4-110.3-24.4-114.2 0-5.9 2.5-8.6 10.1-11.1 6.2-2 7.1-2.6 6.1-4.1-.5-.8-10.7 1.1-34.2 6.3zm-363 19.6c0 4.9-8 100.7-9.1 108.2-.6 4.4-1.8 9.5-2.6 11.3-1.7 3.6-5.8 6.2-9.6 6.2-2 0-4.6 2.6-3.5 3.5.6.5 36.2 3.4 36.6 3 1-.9-.9-3.5-2.5-3.5-.9 0-3.6-.9-6-2.1-6.1-3-7.5-6.1-7.4-17.3.1-10.8 3.9-60.8 4.9-65 .8-3.1-1.2-5.9 47.4 66.7l17.9 26.7h5.3c3 0 10 .5 15.7 1.1 8 .8 10.4.7 11-.2 1.2-2 .3-2.6-4.3-3.2-5.8-.8-7.8-3.5-7.8-11.2 0-9.6 7.8-99.6 9.1-104.3 1.4-5 5.5-8.8 10.4-9.8 2-.3 3.5-1.2 3.5-2s-.1-1.4-.2-1.4c-.2 0-7.7-.7-16.8-1.5-20.2-1.8-19-1.8-19 0 0 .8 1.7 1.9 4.2 2.5 8.9 2.5 11.8 6.6 11.8 17.2 0 7.3-5.9 80.1-6.6 80.7-.2.2-.6.2-.7 0-.7-.8-35.8-53.1-53.5-79.5-16.2-24.3-18.4-27.2-21.3-27.8-5.6-1.1-6.9-.8-6.9 1.7zm209 2.4c-27.2 2-49.7 3.7-49.9 3.9-.2.2.4 6.3 1.3 13.6s1.6 17 1.6 21.6c0 8.1.1 8.3 2.2 8 2-.3 2.4-1.1 3-6.3 1.9-14.8 7.6-26.5 15.4-31.5 5.8-3.6 12.1-5 23.4-5 13.5 0 12.9-1.3 15 31.5.6 8.8 1.3 18.8 1.6 22.2l.6 6.3h-6.6c-7.2 0-12.4-1.9-16.3-6.2-1.9-2-5.9-9.8-7.6-15.1-.7-1.8-3.2-2.3-4.1-.9-.3.5.1 4.6.8 9.3 1.2 7.2 2.4 23.4 3 38.6.1 2.3.5 4.5.9 4.9 1.4 1.5 3.5-.7 4.2-4.4.9-5.3 5.6-15.2 8.6-17.9 3.2-2.9 7.2-4.3 12.4-4.3 5.4 0 4.8-2.4 7 30.8 1.5 22 1.5 24.5.1 26.7-2.1 3.2-10.5 4.8-21.7 4.3-7.5-.3-9.4-.8-13.6-3.4-6.3-3.9-10.7-10.6-14.2-21.8-2-6.5-3.3-9.2-4.6-9.4-1.6-.4-1.7.2-1.1 6 .4 3.5.7 12.5.8 20.1 0 10.1.4 14 1.3 14.3 1.2.5 86.8-5.1 95.3-6.2 6.1-.8 5.5-3-1.2-3.8-6.8-.9-8.4-2.7-9.7-10.7-1.7-10.7-7.5-99.8-6.9-105.5.7-6.5 1.5-7.3 7.7-8.9 4.9-1.2 6.7-3.9 2.8-4.1-1.1-.1-24.3 1.4-51.5 3.3z"/></svg>