<svg xmlns="http://www.w3.org/2000/svg" width="512" height="512" style="enable-background:new 0 0 512 512" xml:space="preserve"><g xmlns="http://www.w3.org/2000/svg" fill="#6320d6"><path d="M96 392c-11.046 0-20 8.954-20 20v60H56c-11.046 0-20 8.954-20 20s8.954 20 20 20h80c11.046 0 20-8.954 20-20s-8.954-20-20-20h-20v-60c0-11.046-8.954-20-20-20zm320 0c-11.046 0-20 8.954-20 20v60h-20c-11.046 0-20 8.954-20 20s8.954 20 20 20h80c11.046 0 20-8.954 20-20s-8.954-20-20-20h-20v-60c0-11.046-8.954-20-20-20zM412 0H100C44.86 0 0 44.86 0 100v160c0 55.14 44.86 100 100 100h312c55.14 0 100-44.86 100-100V100C512 44.86 467.14 0 412 0zm60 260c0 33.084-26.916 60-60 60H100c-33.084 0-60-26.916-60-60V100c0-33.084 26.916-60 60-60h312c33.084 0 60 26.916 60 60z" data-original="#000000"/><path d="M412 240H292c-11.046 0-20 8.954-20 20s8.954 20 20 20h120c11.046 0 20-8.954 20-20s-8.954-20-20-20zm0-80H292c-11.046 0-20 8.954-20 20s8.954 20 20 20h120c11.046 0 20-8.954 20-20s-8.954-20-20-20zm0-80H292c-11.046 0-20 8.954-20 20s8.954 20 20 20h120c11.046 0 20-8.954 20-20s-8.954-20-20-20zM100 280h120c11.046 0 20-8.954 20-20V100c0-11.046-8.954-20-20-20H100c-11.046 0-20 8.954-20 20v160c0 11.046 8.954 20 20 20zm20-160h80v120h-80z" data-original="#000000"/></g></svg>