<?xml version="1.0"?>
<svg xmlns="http://www.w3.org/2000/svg" xmlns:xlink="http://www.w3.org/1999/xlink" xmlns:svgjs="http://svgjs.com/svgjs" version="1.1" width="512" height="512" x="0" y="0" viewBox="0 0 512 512" style="enable-background:new 0 0 512 512" xml:space="preserve"><g><g xmlns="http://www.w3.org/2000/svg"><path d="m412 0h-312c-55.14 0-100 44.86-100 100v312c0 55.14 44.86 100 100 100h312c55.141 0 100-44.86 100-100v-312c0-55.14-44.859-100-100-100zm60 412c0 33.084-26.916 60-60 60h-312c-33.084 0-60-26.916-60-60v-312c0-33.084 26.916-60 60-60h312c33.084 0 60 26.916 60 60z" fill="#6320d6" data-original="#000000" style=""/><path d="m256 156c-77.196 0-140 62.804-140 140s62.804 140 140 140 140-62.804 140-140-62.804-140-140-140zm97.989 120h-38.507c-1.262-24.255-4.859-47.745-10.975-67.42 25.091 13.977 43.576 38.437 49.482 67.42zm-117.414 40h38.849c-2.545 43.399-12.971 69.987-19.425 78.185-6.453-8.198-16.879-34.786-19.424-78.185zm0-40c2.545-43.399 12.971-69.987 19.425-78.185 6.454 8.198 16.88 34.786 19.425 78.185zm-29.082-67.42c-6.116 19.675-9.714 43.165-10.975 67.42h-38.506c5.905-28.983 24.391-53.442 49.481-67.42zm-49.482 107.42h38.506c1.262 24.255 4.859 47.745 10.975 67.42-25.089-13.978-43.575-38.437-49.481-67.42zm146.496 67.42c6.116-19.675 9.714-43.165 10.975-67.42h38.507c-5.906 28.983-24.391 53.443-49.482 67.42z" fill="#6320d6" data-original="#000000" style=""/><path d="m412 80h-116c-11.046 0-20 8.954-20 20s8.954 20 20 20h116c11.046 0 20-8.954 20-20s-8.954-20-20-20z" fill="#6320d6" data-original="#000000" style=""/><circle cx="100" cy="100" r="20" fill="#6320d6" data-original="#000000" style=""/><circle cx="180" cy="100" r="20" fill="#6320d6" data-original="#000000" style=""/></g></g></svg>
