<svg data-name="Layer 1" xmlns="http://www.w3.org/2000/svg" width="103.93" viewBox="0 0 823.5 539.233"><ellipse cx="118" cy="530.233" rx="118" ry="9" fill="#e6e6e6"/><path d="m156.218 135.46-47.076-12.838q18.856-17.793 16.405-33.524h30.671Z" fill="#9f616a"/><path fill="#2f2e41" d="m161.211 496.376-15.206 2.139-18.318-168.331-29.244 167.618-15.692.713V285.961h97.005l-18.545 210.415z"/><path d="M90.648 530.31a10.695 10.695 0 0 0 10.607-7.817l1.111-16.574-2.239-11.755c-5.907-4.855-11.88-4.754-17.912 0l-1.924 24.621a10.695 10.695 0 0 0 10.357 11.524Zm62.768 0a10.695 10.695 0 0 0 10.607-7.817l1.11-16.574-2.238-11.755c-5.908-4.855-11.88-4.754-17.913 0l-1.923 24.621a10.695 10.695 0 0 0 10.357 11.524Z" fill="#2f2e41"/><circle cx="149.799" cy="84.105" r="27.104" fill="#9f616a"/><path d="M184.036 289.527H80.61c13.405-62.124 13.368-112.158 2.69-152.622a10.813 10.813 0 0 1 6.576-12.854L117.7 113.35c8.354 10.788 20.142 15.5 38.517 8.56l14.58 2.99a14.982 14.982 0 0 1 11.958 15.666c-1.073 15.826-.65 31.772-1.573 45.538-2.86 42.628-4.094 75.86 2.853 103.424Z" fill="#e6e6e6"/><path d="M135.533 48.442s15.692-17.832 34.237-.713l4.993 1.426-3.566 2.853s18.545 8.56 17.118 26.391c0 0-2.853-.713-4.28 0s-2.14 8.56-2.14 8.56-2.139-5.707-2.852-6.42-10.7 7.846-27.105-4.993c0 0-4.992 12.839-10.699 11.412s-13.552-.713-17.118 8.56c0 0-19.258-41.37 11.412-47.076Z" fill="#2f2e41"/><path d="m189.028 273.835-9.156 12.272a12.027 12.027 0 0 0 2.595 16.94 12.027 12.027 0 0 0 18.92-7.847l2.62-16.372L209 208.214l-3.566-35.663-22.825 8.56 6.42 30.67Z" fill="#9f616a"/><path d="m179.756 189.67 27.817-12.84-1.426-10.105a41.488 41.488 0 0 0-26.49-38.682l-8.46-3.281Z" fill="#e6e6e6"/><path d="m78.472 270.982 9.156 12.272a12.027 12.027 0 0 1-2.595 16.94 12.027 12.027 0 0 1-18.92-7.848l-2.62-16.37L58.5 205.36l3.566-35.663 22.825 8.559-6.42 30.67Z" fill="#9f616a"/><path d="m87.744 186.816-27.817-12.839 1.426-10.105a41.488 41.488 0 0 1 26.49-38.682l8.46-3.281ZM816 459.733H340a7.508 7.508 0 0 1-7.5-7.5v-207a7.508 7.508 0 0 1 7.5-7.5h476a7.508 7.508 0 0 1 7.5 7.5v207a7.508 7.508 0 0 1-7.5 7.5Zm-476-219a4.505 4.505 0 0 0-4.5 4.5v207a4.505 4.505 0 0 0 4.5 4.5h476a4.505 4.505 0 0 0 4.5-4.5v-207a4.505 4.505 0 0 0-4.5-4.5Z" fill="#e6e6e6"/><path d="M359.5 263.233a4.5 4.5 0 0 0 0 9h63a4.5 4.5 0 0 0 0-9Zm431.29 31.295v83.45H365.96V334.04c2.941-1.89 5.901-3.77 8.887-5.588 12.754-7.805 26.406-15.104 41.284-17.81a62.32 62.32 0 0 1 21.312-.265c7.466 1.233 14.611 3.805 21.686 6.386 6.977 2.554 13.971 5.188 21.268 6.67a62.272 62.272 0 0 0 21.57.425c13.661-2.049 26.495-7.539 39.275-12.506 12.86-4.993 26.112-9.711 40.03-10.332 13.74-.62 27.312 2.625 40.35 6.652 26.583 8.204 53.726 20.372 81.874 12.026 28.582-8.46 54.872-32.886 86.548-25.64a1.192 1.192 0 0 1 .746.47Z" fill="#e6e6e6"/><path d="M790.79 295.982a1.283 1.283 0 0 1-1.454.639 47.368 47.368 0 0 0-11.512-1.189c-31.158.55-55.113 25.632-85.578 29.384-27.468 3.379-53.322-9.978-79.148-16.958-13.42-3.627-27.255-5.552-41.064-3.086-13.703 2.439-26.563 8.044-39.477 13.02-12.434 4.789-25.357 9.241-38.82 9.463-14.803.248-28.133-5.854-41.862-10.501-7.14-2.422-14.466-4.337-22.031-4.523a66.645 66.645 0 0 0-21.712 3.36c-14.59 4.64-27.733 12.905-40.532 21.118a1.137 1.137 0 0 1-.753.204 1.374 1.374 0 0 1-.586-2.5l.586-.373c2.935-1.89 5.889-3.77 8.869-5.588 12.727-7.805 26.35-15.104 41.197-17.81a62.062 62.062 0 0 1 21.268-.265c7.45 1.233 14.58 3.805 21.64 6.386 6.963 2.554 13.943 5.188 21.224 6.67a62.014 62.014 0 0 0 21.526.425c13.631-2.049 26.438-7.539 39.192-12.506 12.834-4.993 26.058-9.711 39.947-10.332 13.711-.62 27.255 2.625 40.266 6.652 26.527 8.204 53.613 20.372 81.702 12.026 28.523-8.46 54.758-32.886 86.367-25.64a1.19 1.19 0 0 1 .745.47 1.367 1.367 0 0 1 0 1.454Z" fill="#6320d6"/><circle cx="424.496" cy="311.459" r="6.208" fill="#6320d6"/><circle cx="581.479" cy="303.477" r="6.208" fill="#6320d6"/><circle cx="773.052" cy="295.494" r="6.208" fill="#6320d6"/><path d="M421 413.233a4.5 4.5 0 0 0 0 9h63a4.5 4.5 0 0 0 0-9Z" fill="#e6e6e6"/><circle cx="380.5" cy="417.233" r="17" fill="#6320d6"/><path d="M573 413.233a4.5 4.5 0 0 0 0 9h63a4.5 4.5 0 0 0 0-9Z" fill="#e6e6e6"/><circle cx="532.5" cy="417.233" r="17" fill="#6320d6"/><path d="M725 413.233a4.5 4.5 0 0 0 0 9h63a4.5 4.5 0 0 0 0-9Z" fill="#e6e6e6"/><circle cx="684.5" cy="417.233" r="17" fill="#6320d6"/><path data-name="Path 78" d="M783.419 181.842H548.581c-4.578 0-8.288-2.643-8.293-5.9V124.9c.005-3.257 3.715-5.9 8.293-5.9h234.838c4.578 0 8.288 2.643 8.293 5.9v51.041c-.004 3.257-3.715 5.897-8.293 5.901Zm-234.838-60.484c-2.747 0-4.973 1.586-4.976 3.54v51.041c0 1.954 2.229 3.538 4.976 3.54h234.838c2.747 0 4.973-1.586 4.976-3.54V124.9c0-1.954-2.229-3.538-4.976-3.54Z" fill="#e6e6e6"/><path d="M601.68 148.007a5.006 5.006 0 0 0-5 5v35a5.006 5.006 0 0 0 5 5h179a5.006 5.006 0 0 0 5-5v-35a5.006 5.006 0 0 0-5-5Z" fill="#6320d6"/><circle cx="626.679" cy="171.007" r="11" fill="#fff"/><path d="M676.81 166.233a4.5 4.5 0 0 0 0 9h63a4.5 4.5 0 0 0 0-9Z" fill="#fff"/><path data-name="Path 78" d="M607.419 62.842H372.581c-4.578 0-8.288-2.643-8.293-5.9V5.9c.005-3.257 3.715-5.9 8.293-5.9h234.838c4.578 0 8.288 2.643 8.293 5.9v51.041c-.004 3.257-3.715 5.897-8.293 5.901ZM372.581 2.358c-2.747 0-4.973 1.586-4.976 3.54v51.041c0 1.954 2.229 3.538 4.976 3.54h234.838c2.747 0 4.973-1.586 4.976-3.54V5.9c0-1.954-2.229-3.538-4.976-3.54Z" fill="#e6e6e6"/><path d="M425.679 29.007a5.006 5.006 0 0 0-5 5v35a5.006 5.006 0 0 0 5 5h179a5.006 5.006 0 0 0 5-5v-35a5.006 5.006 0 0 0-5-5Z" fill="#6320d6"/><circle cx="450.679" cy="52.007" r="11" fill="#fff"/><path d="M500.81 47.233a4.5 4.5 0 0 0 0 9h63a4.5 4.5 0 0 0 0-9Z" fill="#fff"/></svg>