<svg xmlns="http://www.w3.org/2000/svg" width="512" height="512" style="enable-background:new 0 0 512 512" xml:space="preserve"><g xmlns="http://www.w3.org/2000/svg" fill="#6320d6"><path d="M256 312h80c11.046 0 20-8.954 20-20v-40c0-11.046-8.954-20-20-20s-20 8.954-20 20v20h-40v-20c0-11.046-8.954-20-20-20s-20 8.954-20 20v40c0 11.046 8.954 20 20 20z" data-original="#000000"/><path d="M492 392H216c-11.028 0-20-8.972-20-20V212c0-11.028 8.972-20 20-20h160c11.028 0 20 8.972 20 20v120c0 11.046 8.954 20 20 20s20-8.954 20-20V212c0-33.084-26.916-60-60-60H216c-33.084 0-60 26.916-60 60v160c0 7.011 1.22 13.74 3.44 20H136c-11.028 0-20-8.972-20-20V60c0-33.084-26.916-60-60-60H20C8.954 0 0 8.954 0 20s8.954 20 20 20h36c11.028 0 20 8.972 20 20v312c0 27.631 18.78 50.946 44.241 57.885A59.663 59.663 0 0 0 116 452c0 33.084 26.916 60 60 60s60-26.916 60-60c0-7.011-1.22-13.74-3.44-20h126.88a59.718 59.718 0 0 0-3.44 20c0 33.084 26.916 60 60 60s60-26.916 60-60c0-7.011-1.22-13.74-3.44-20H492c11.046 0 20-8.954 20-20s-8.954-20-20-20zm-316 80c-11.028 0-20-8.972-20-20s8.972-20 20-20 20 8.972 20 20-8.972 20-20 20zm260-20c0 11.028-8.972 20-20 20s-20-8.972-20-20 8.972-20 20-20 20 8.972 20 20z" data-original="#000000"/></g></svg>