<svg xmlns="http://www.w3.org/2000/svg" width="63.931" height="63.93"><g data-name="Group 1234"><g data-name="Group 1223"><g data-name="Group 1222"><path data-name="Path 1441" d="M60.712 3.219a11 11 0 0 0-15.548 0L.268 48.114 0 63.93l15.816-.268 44.895-44.895a10.995 10.995 0 0 0 0-15.548ZM14.74 61.123l-12.14.206.206-12.139 3.707-3.705 11.932 11.933Zm5.512-5.512L8.32 43.677l33.253-33.252 11.933 11.932ZM58.9 16.96l-3.59 3.59L43.381 8.618l3.591-3.591A8.437 8.437 0 1 1 58.9 16.96Z" fill="#5d78ff"/></g></g><g data-name="Group 1225"><g data-name="Group 1224"><path data-name="Rectangle 2423" fill="#5d78ff" d="m31.078 31.048 1.807-1.807 1.808 1.807-1.808 1.807z"/></g></g><g data-name="Group 1227"><g data-name="Group 1226"><path data-name="Rectangle 2424" fill="#5d78ff" d="m35.777 26.348 1.807-1.807 1.808 1.807-1.808 1.807z"/></g></g><g data-name="Group 1229"><g data-name="Group 1228"><path data-name="Rectangle 2425" fill="#5d78ff" d="m26.376 35.748 1.807-1.807 1.808 1.807-1.808 1.807z"/></g></g><g data-name="Group 1231"><g data-name="Group 1230"><path data-name="Rectangle 2426" fill="#5d78ff" d="m21.717 40.405 1.766-1.766 1.807 1.808-1.766 1.765z"/></g></g><g data-name="Group 1233"><g data-name="Group 1232"><path data-name="Rectangle 2427" fill="#5d78ff" d="M30.555 61.352H62.65v2.556H30.555z"/></g></g></g></svg>