<?xml version="1.0"?>
<svg xmlns="http://www.w3.org/2000/svg" xmlns:xlink="http://www.w3.org/1999/xlink" xmlns:svgjs="http://svgjs.com/svgjs" version="1.1" width="512" height="512" x="0" y="0" viewBox="0 0 512.07 512.07" style="enable-background:new 0 0 512 512" xml:space="preserve" class=""><g><path xmlns="http://www.w3.org/2000/svg" d="m392.035 432.07h-272.021c-66.157 0-119.979-53.823-119.979-119.979v-164.021c0-66.168 53.832-120 120-120h94c26.536 1.056 26.516 38.953 0 40h-94c-44.112 0-80 35.888-80 80v164.02c0 44.101 35.879 79.979 79.979 79.979h272.021c44.112 0 80-35.888 80-80v-164c0-15.328-3.829-29.708-11.074-41.585-5.752-9.43-2.771-21.737 6.659-27.489 9.429-5.752 21.736-2.772 27.489 6.659 11.073 18.153 16.926 39.735 16.926 62.415v164c0 66.169-53.832 120.001-120 120.001zm-20 60c0-11.046-8.954-20-20-20h-192c-26.536 1.056-26.516 38.953 0 40h192c11.046 0 20-8.954 20-20zm-36.942-302.839s75.394-86.267 75.506-86.402c10.697-12.912 15.726-29.217 14.16-45.912-1.566-16.694-9.539-31.779-22.451-42.477-12.912-10.697-29.218-15.726-45.911-14.159-16.694 1.566-31.78 9.539-42.414 22.376l-73.286 87.578c-7.089 8.471-5.969 21.084 2.503 28.173 8.471 7.089 21.085 5.968 28.173-2.503l73.35-87.654c3.881-4.685 9.354-7.577 15.41-8.146 6.064-.565 11.973 1.257 16.656 5.138 9.522 7.563 11.006 22.62 3.149 31.895l-74.963 85.77c-11.326 12.844-1.87 33.276 15.052 33.162 5.57 0 11.113-2.315 15.066-6.839zm66.942 162.737h-91c-26.536-1.056-26.516-38.953 0-40h91c26.536 1.056 26.516 38.953 0 40zm-176.081-24.172c54.79-29.628 73.827-89.948 37.553-136.017-13.813-16.858-33.33-27.279-54.954-29.343-53.886-4.682-84.978 38.135-97.256 82.033-4.431 13.111-9.013 26.669-17.039 41.156-17.695 31.307 11.705 66.976 45.341 66.444 26.603.001 60.499-9.527 86.355-24.273zm-21.202-125.54c10.931 1.043 20.81 6.327 27.816 14.877 6.193 7.558 9.467 16.821 9.467 26.789-1.396 46.8-70.689 67.746-102.436 68.149-4.505-.001-8.562-2.761-10.092-5.359-.62-1.052-.507-1.255-.261-1.7 9.777-17.646 15.179-33.632 19.945-47.736 6.677-19.76 11.502-34.036 25.551-45.726h.001c7.432-6.184 16.566-9.482 26.071-9.482 1.307 0 2.62.062 3.938.188z" fill="#6320d6" data-original="#000000" style="" class=""/></g></svg>
