<?xml version="1.0"?>
<svg xmlns="http://www.w3.org/2000/svg" xmlns:xlink="http://www.w3.org/1999/xlink" xmlns:svgjs="http://svgjs.com/svgjs" version="1.1" width="512" height="512" x="0" y="0" viewBox="0 0 512 512" style="enable-background:new 0 0 512 512" xml:space="preserve"><g><path xmlns="http://www.w3.org/2000/svg" d="m392 512h-272c-66.168 0-120-53.832-120-120v-272c0-66.168 53.832-120 120-120h272c66.168 0 120 53.832 120 120v272c0 66.168-53.832 120-120 120zm-272-472c-44.112 0-80 35.888-80 80v272c0 44.112 35.888 80 80 80h272c44.112 0 80-35.888 80-80v-272c0-44.112-35.888-80-80-80zm312 89c0-11.046-8.954-20-20-20h-312c-11.046 0-20 8.954-20 20s8.954 20 20 20h312c11.046 0 20-8.954 20-20zm1 187c0-11.046-8.954-20-20-20h-117c-11.046 0-20 8.954-20 20s8.954 20 20 20h117c11.046 0 20-8.954 20-20zm0-80c0-11.046-8.954-20-20-20h-224c-11.046 0-20 8.954-20 20s8.954 20 20 20h224c11.046 0 20-8.954 20-20zm-196 80c0-11.046-8.954-20-20-20h-117c-11.046 0-20 8.954-20 20s8.954 20 20 20h117c11.046 0 20-8.954 20-20zm0 80c0-11.046-8.954-20-20-20h-117c-11.046 0-20 8.954-20 20s8.954 20 20 20h117c11.046 0 20-8.954 20-20zm155 0c0-11.046-8.954-20-20-20h-76c-11.046 0-20 8.954-20 20s8.954 20 20 20h76c11.046 0 20-8.954 20-20zm-312-162c0 13.807 11.193 25 25 25s25-11.193 25-25-11.193-25-25-25-25 11.193-25 25z" fill="#6320d6" data-original="#000000" style=""/></g></svg>
