<svg xmlns="http://www.w3.org/2000/svg" width="512" height="512" style="enable-background:new 0 0 512 512" xml:space="preserve"><path xmlns="http://www.w3.org/2000/svg" d="M392 512H120C53.832 512 0 458.168 0 392V120C0 53.832 53.832 0 120 0h272c66.168 0 120 53.832 120 120v272c0 66.168-53.832 120-120 120zM120 40c-44.112 0-80 35.888-80 80v272c0 44.112 35.888 80 80 80h272c44.112 0 80-35.888 80-80V120c0-44.112-35.888-80-80-80zm312 89c0-11.046-8.954-20-20-20H100c-11.046 0-20 8.954-20 20s8.954 20 20 20h312c11.046 0 20-8.954 20-20zm1 187c0-11.046-8.954-20-20-20H296c-11.046 0-20 8.954-20 20s8.954 20 20 20h117c11.046 0 20-8.954 20-20zm0-80c0-11.046-8.954-20-20-20H189c-11.046 0-20 8.954-20 20s8.954 20 20 20h224c11.046 0 20-8.954 20-20zm-196 80c0-11.046-8.954-20-20-20H100c-11.046 0-20 8.954-20 20s8.954 20 20 20h117c11.046 0 20-8.954 20-20zm0 80c0-11.046-8.954-20-20-20H100c-11.046 0-20 8.954-20 20s8.954 20 20 20h117c11.046 0 20-8.954 20-20zm155 0c0-11.046-8.954-20-20-20h-76c-11.046 0-20 8.954-20 20s8.954 20 20 20h76c11.046 0 20-8.954 20-20zM80 234c0 13.807 11.193 25 25 25s25-11.193 25-25-11.193-25-25-25-25 11.193-25 25z" fill="#6320d6" data-original="#000000"/></svg>