<svg data-name="Layer 1" xmlns="http://www.w3.org/2000/svg" width="103.93" viewBox="0 0 773.114 610.804"><path data-name="Rectangle 62" fill="#e6e6e6" d="M309.473 12.711h463.641v220.006H309.473z"/><path data-name="Rectangle 75" fill="#fff" d="M322.731 31.577h437.126v183.558H322.731z"/><path data-name="Rectangle 80" fill="#6320d6" d="M309.276 0h463.641v19.697H309.276z"/><circle data-name="Ellipse 90" cx="323.913" cy="11.582" r="3.651" fill="#fff"/><circle data-name="Ellipse 91" cx="337.77" cy="11.582" r="3.651" fill="#fff"/><circle data-name="Ellipse 92" cx="351.627" cy="11.582" r="3.651" fill="#fff"/><path fill="#f2f2f2" d="M584.272 61.279h72.676v124.155h-72.676z"/><path fill="#6320d6" d="M425.64 61.277h146.59v34.175H425.64z"/><path fill="#f2f2f2" d="M425.64 104.969h146.59v36.771H425.64zm0 46.288h146.59v34.175H425.64z"/><path d="M221.203 367.101a17.867 17.867 0 0 0-19.79-17.862 17.202 17.202 0 0 0-2.348.433l-60.464-51.828 3.613-19.475-29.801-9.658-8.986 31.21a18.103 18.103 0 0 0 7.68 20.205l74.382 47.044a17.068 17.068 0 0 0 .091 1.752 17.867 17.867 0 0 0 21.691 15.502 17.382 17.382 0 0 0 2.105-.608 17.92 17.92 0 0 0 11.827-16.715Z" fill="#9f616a"/><path d="M70.882 427.21h77.958c0 2.24 80.345 4.059 80.345 4.059a20.884 20.884 0 0 1 3.426 3.247 20.152 20.152 0 0 1 4.71 12.99v3.248a20.305 20.305 0 0 1-20.298 20.298H70.882a20.315 20.315 0 0 1-20.298-20.298v-3.247a20.326 20.326 0 0 1 20.298-20.298Z" fill="#3f3d56"/><path fill="#3f3d56" d="M134.573 470.245h21.109v136.399h-21.109z"/><path d="M215.763 608.34c0 2.555-31.988.989-71.447.989s-71.447 1.566-71.447-.988 31.988-22.806 71.447-22.806 71.447 20.252 71.447 22.806Z" fill="#3f3d56"/><path fill="#9f616a" d="m196.707 589.916 19.906-.002 9.471-51.632-29.381.002.004 51.632z"/><path d="m191.63 609.212 64.189-.002v-.812a24.984 24.984 0 0 0-24.984-24.984h-.002l-39.205.002Z" fill="#2f2e41"/><path d="m226.481 557.898 39.687-88.997a32.616 32.616 0 0 0-14.32-41.868l-86.082-46.16-39.282-3.342-36.234-3.294-.262.443c-.334.564-8.125 14.021-2.858 28.776 3.994 11.192 14.385 19.935 30.882 25.984 38.507 14.12 82.991 26.187 100.329 30.72a5.604 5.604 0 0 1 3.59 2.857 5.68 5.68 0 0 1 .319 4.544L185.38 550.4a7.307 7.307 0 0 0 6.185 9.79l27.55 2.006q.35.033.698.033a7.302 7.302 0 0 0 6.668-4.33Z" fill="#cbcbcb"/><path fill="#9f616a" d="m183.716 589.916 19.906-.002 9.472-51.632-29.381.002.003 51.632z"/><path d="m178.639 609.212 64.19-.002v-.812a24.984 24.984 0 0 0-24.984-24.984h-.003l-39.204.002Z" fill="#2f2e41"/><path d="m211.867 562.77 39.687-88.997a32.616 32.616 0 0 0-14.32-41.869l-86.083-46.16-39.281-3.342-28.38-2.461.003-.39c-.334.565-8.125 14.021-2.859 28.777 3.995 11.192 6.266 19.934 22.764 25.984 38.507 14.119 82.99 26.187 100.329 30.719a5.604 5.604 0 0 1 3.59 2.857 5.68 5.68 0 0 1 .319 4.545l-36.87 82.837a7.307 7.307 0 0 0 6.185 9.79l27.55 2.006q.35.034.698.034a7.302 7.302 0 0 0 6.668-4.33Z" fill="#cbcbcb"/><path d="M137.075 381.564c1.902-1.346 29.228 12.99 34.1 1.624-22.734-56.833-7.068-81.374-20.994-113.965a40.581 40.581 0 0 0-26.9-23.025l-36.13-1.824-.187.09a42.227 42.227 0 0 0-23.089 44.799c.129 35.469 21.35 62.52 13.93 88.247a8.317 8.317 0 0 0 .786 6.468 7.93 7.93 0 0 0 5.06 3.75l47.704-6.364a8.061 8.061 0 0 0 6.522-1.262Z" fill="#2f2e41"/><circle cx="99.209" cy="190.998" r="39.882" fill="#9f616a"/><path d="M86.505 227.605c2.12.927 6.459-15.958 4.515-19.335-2.89-5.022-2.72-4.986-4.639-8.309s-2.348-7.87.137-10.794 8.236-2.536 9.37 1.13c-.73-6.963 6.157-12.56 12.979-14.132s14.017-.597 20.876-1.996c7.96-1.625 16.243-8.297 13.067-17.051a12.33 12.33 0 0 0-2.405-3.953c-3.67-4.126-8.802-5.888-13.821-7.591-10.442-3.544-21.168-7.132-32.188-6.741-18.105.643-35.22 13.159-41.319 30.218a42.473 42.473 0 0 0-1.76 6.536c-3.782 20.337 8.028 40.397 27.21 48.14Z" fill="#2f2e41"/><path d="m295.654 291.738 4.574 27.156a1.672 1.672 0 0 1-.097.9l-35.88 89.653a1.672 1.672 0 0 1-3.222-.551l-1.52-36.028a1.672 1.672 0 0 1 .121-.7l32.827-80.781a1.672 1.672 0 0 1 3.197.351Z" fill="#3f3d56"/><path fill="#6320d6" d="m293.114 293.823 4.346 23.33-31.841 81.811-4.134-26.317 31.629-78.824z"/><path d="M153.804 409.03c.784 3.058 103.64 6.368 104.707 5.443a21.674 21.674 0 0 0 2.474-3.828 150.42 150.42 0 0 0 2.076-3.856l-1.69-32.529-101.322-10.828s-4.482 27.146-5.89 39.617a29.957 29.957 0 0 0-.355 5.98Z" fill="#3f3d56"/><path opacity=".1" style="isolation:isolate" d="m248.114 377.702.009 28.025-44.814-3.186 1.983-27.884 42.822 3.045zm-58.397 4.855.271-.034-2.116 11.914-24.897-1.77.85-11.951 25.892 1.841z"/><path d="M367.247 553.628c.784 3.058 103.64 6.368 104.707 5.443a21.674 21.674 0 0 0 2.474-3.827l-106.826-7.596a29.957 29.957 0 0 0-.355 5.98Z" transform="translate(-213.443 -144.598)" opacity=".1" style="isolation:isolate"/><path d="m112.503 360.453 86.764 16.192a17.078 17.078 0 0 0 .734 1.593 17.906 17.906 0 0 0 11.491 8.973 17.72 17.72 0 0 0 14.4-2.609 17.864 17.864 0 0 0-18.476-30.511 17.168 17.168 0 0 0-2.02 1.272l-75.36-25.744-3.858-19.43-31.26 2.069 3.24 32.57a17.767 17.767 0 0 0 14.345 15.625Z" fill="#9f616a"/><path d="m93.86 326.785 45.422-14.929-10.596-30.423a18.135 18.135 0 0 0-20.107-11.923 18.135 18.135 0 0 0-15.153 18.088Z" fill="#2f2e41"/><path d="M382 610.804H1a1 1 0 1 1 0-2h381a1 1 0 0 1 0 2Z" fill="#cbcbcb"/><path d="M530.207 579.297c18.274 9.457 26.398 30.049 26.398 30.049s-21.502 5.258-39.776-4.2-26.399-30.048-26.399-30.048 21.503-5.258 39.777 4.2Z" fill="#f1f1f1"/><path d="M524.363 586.11c10.905 17.448 32.086 23.88 32.086 23.88s3.502-21.857-7.403-39.306-32.086-23.881-32.086-23.881-3.501 21.858 7.403 39.306Z" fill="#f1f1f1"/><path d="M590 610.407H476a1 1 0 0 1 0-2h114a1 1 0 0 1 0 2Z" fill="#cbcbcb"/></svg>