<!DOCTYPE svg PUBLIC "-//W3C//DTD SVG 20010904//EN"
 "http://www.w3.org/TR/2001/REC-SVG-20010904/DTD/svg10.dtd">
<svg version="1.0" xmlns="http://www.w3.org/2000/svg"
 width="100px" viewBox="0 0 1242.000000 1248.000000"
 preserveAspectRatio="xMidYMid meet">

<g transform="translate(0.000000,1248.000000) scale(0.100000,-0.100000)"
fill="#000000" stroke="none">
<path class="change-fill" style="fill: var(--primary);" d="M5885 12418 c-110 -5 -206 -11 -213 -13 -16 -6 -13 -251 3 -248 5 1
19 30 31 65 40 119 79 168 134 168 l27 0 7 -192 c3 -106 9 -255 13 -330 l6
-138 -41 0 c-23 0 -42 -4 -42 -10 0 -12 47 -12 234 -3 90 4 135 10 133 17 -2
6 -22 9 -44 8 l-41 -3 -6 83 c-3 46 -8 155 -11 243 -3 88 -8 199 -12 248 l-6
87 26 0 c62 0 105 -45 150 -156 12 -32 29 -60 36 -62 13 -4 13 4 -5 191 l-6
57 -86 -2 c-48 0 -177 -5 -287 -10z"/>
<path class="change-fill" style="fill: var(--primary);" d="M6600 12410 c0 -5 11 -10 25 -10 22 0 25 -4 25 -35 0 -19 -7 -83 -14
-142 -8 -59 -25 -192 -37 -295 l-23 -188 -35 0 c-72 0 -13 -19 109 -34 146
-19 180 -20 180 -6 0 6 -14 10 -31 10 -28 0 -30 2 -25 28 3 15 12 88 21 162 9
74 17 135 18 136 4 5 182 -19 189 -25 4 -3 -2 -76 -12 -161 -11 -85 -20 -156
-20 -157 0 -2 -13 -3 -30 -3 -16 0 -30 -4 -30 -8 0 -5 51 -14 113 -21 61 -7
131 -15 155 -18 28 -4 42 -2 42 6 0 6 -12 11 -26 11 l-27 0 7 78 c4 42 22 192
39 332 l32 255 33 -3 c17 -2 32 1 32 6 0 10 -130 29 -255 38 -51 4 -66 3 -55
-5 8 -6 23 -11 34 -11 15 0 17 -5 13 -27 -3 -16 -11 -81 -18 -145 -6 -64 -15
-121 -18 -127 -5 -7 -35 -7 -99 1 -108 13 -100 -4 -77 183 8 66 15 123 15 128
0 4 14 7 30 7 17 0 30 4 30 8 0 5 -64 16 -142 25 -167 20 -168 20 -168 7z"/>
<path class="change-fill" style="fill: var(--primary);" d="M4821 12257 c-8 -10 -40 -16 -99 -19 -107 -6 -178 -34 -227 -91 -74
-87 -66 -218 18 -303 48 -47 104 -64 212 -64 137 0 200 -31 212 -103 11 -69
-54 -127 -143 -127 -62 0 -134 34 -203 96 -45 40 -71 54 -71 38 0 -13 61 -198
70 -213 8 -14 11 -13 16 6 6 23 17 26 149 37 166 14 265 103 265 235 0 73 -17
124 -57 170 -41 49 -103 71 -197 71 -194 0 -272 49 -232 144 28 68 130 90 215
47 24 -13 66 -43 93 -68 26 -26 51 -44 54 -41 6 7 -44 179 -55 191 -5 4 -13 1
-20 -6z"/>
<path class="change-fill" style="fill: var(--primary);" d="M7783 12190 c-145 -34 -263 -223 -263 -420 0 -156 117 -269 311 -301
61 -10 140 1 186 25 35 18 103 90 131 136 63 108 85 291 45 381 -58 131 -253
217 -410 179z m204 -39 c79 -36 82 -86 17 -307 -74 -257 -124 -344 -198 -344
-37 0 -90 30 -107 61 -20 39 -4 153 46 308 68 214 96 269 150 291 30 13 46 11
92 -9z"/>
<path class="change-fill" style="fill: var(--primary);" d="M3982 12035 c-61 -27 -64 -107 -4 -135 24 -11 29 -9 48 16 49 60 75
-20 34 -101 -27 -53 -25 -67 5 -30 58 70 67 173 22 228 -28 33 -63 41 -105 22z"/>
<path class="change-fill" style="fill: var(--primary);" d="M8570 11952 c0 -5 11 -14 25 -20 l24 -11 -80 -168 c-142 -295 -159
-355 -125 -436 45 -108 262 -213 368 -178 65 21 101 74 208 299 131 278 116
253 145 242 40 -15 37 5 -3 25 -75 36 -102 45 -102 35 0 -6 11 -16 25 -22 14
-6 25 -15 25 -20 0 -18 -202 -434 -226 -466 -71 -92 -187 -96 -260 -9 -23 27
-26 38 -22 87 3 45 24 99 113 288 65 139 114 232 122 232 8 0 23 -5 34 -10 13
-8 19 -7 19 0 0 10 -260 140 -281 140 -5 0 -9 -4 -9 -8z"/>
<path class="change-fill" style="fill: var(--primary);" d="M3568 11830 c-59 -31 -89 -59 -50 -47 12 4 30 9 40 12 14 4 38 -35
129 -209 124 -237 142 -286 124 -346 -21 -69 -121 -132 -185 -116 -60 15 -85
51 -250 368 l-87 168 25 12 c25 11 35 28 17 28 -12 0 -253 -129 -266 -142 -7
-7 0 -8 21 -4 l30 7 113 -216 c123 -233 162 -282 241 -306 112 -34 323 74 366
187 26 67 12 108 -120 359 -64 121 -116 225 -116 232 0 6 9 15 20 18 19 6 29
26 13 25 -5 -1 -34 -14 -65 -30z"/>
<path class="change-fill" style="fill: var(--primary);" d="M9460 11401 c-88 -29 -158 -86 -221 -179 -104 -156 -105 -288 -2
-402 59 -66 109 -99 211 -139 65 -26 83 -38 88 -57 3 -13 9 -24 14 -24 4 0 40
48 80 108 91 133 86 128 104 113 9 -8 16 -8 20 -2 5 8 -100 88 -207 156 -37
23 -50 9 -15 -17 l28 -19 -59 -87 c-32 -48 -68 -96 -80 -106 -20 -18 -23 -19
-56 -3 -102 49 -90 164 38 356 128 191 217 259 302 231 70 -23 100 -96 93
-227 -3 -55 -1 -83 6 -83 9 1 103 141 114 171 2 5 -4 9 -14 9 -9 0 -48 31 -85
69 -88 90 -171 132 -266 137 -38 2 -79 0 -93 -5z"/>
<path class="change-fill" style="fill: var(--primary);" d="M2508 11182 c-94 -67 -144 -110 -138 -116 6 -6 17 -3 30 9 20 18 21
18 35 -1 7 -10 95 -129 194 -264 l180 -245 -25 -22 c-13 -12 -20 -25 -14 -28
6 -3 106 64 224 150 l214 157 -59 99 c-33 54 -64 99 -69 99 -5 0 -7 -43 -3
-98 5 -85 3 -104 -14 -144 -18 -39 -87 -109 -97 -97 -32 39 -376 519 -376 525
0 5 16 20 35 33 19 13 35 30 35 37 0 8 -1 14 -2 14 -2 0 -69 -49 -150 -108z"/>
<path class="change-fill" style="fill: var(--primary);" d="M10240 10934 c0 -4 7 -16 17 -26 18 -20 40 5 -288 -335 l-156 -161
-21 21 c-12 11 -25 17 -29 13 -8 -9 217 -229 225 -221 3 3 -3 14 -13 25 -17
18 -16 20 13 57 17 21 68 75 114 121 l83 82 69 -69 69 -70 -107 -115 c-60 -64
-112 -116 -116 -116 -4 0 -13 7 -20 15 -7 8 -20 15 -28 15 -10 0 2 -19 33 -51
79 -80 185 -172 192 -166 3 4 -5 15 -17 25 l-23 19 228 236 c126 131 234 237
241 237 6 0 17 -7 24 -15 7 -8 16 -13 20 -10 4 2 -43 54 -103 114 -61 60 -115
107 -120 104 -5 -3 1 -15 12 -27 l21 -22 -107 -113 -108 -113 -69 71 -69 70
51 58 c28 32 75 82 106 112 54 54 56 54 76 36 11 -10 22 -16 25 -13 6 5 -199
211 -216 216 -5 2 -9 0 -9 -4z"/>
<path class="change-fill" style="fill: var(--primary);" d="M2065 10820 c-27 -27 -46 -53 -42 -56 4 -4 17 2 30 14 l23 22 176
-178 c101 -101 185 -195 197 -219 41 -82 20 -157 -59 -209 -33 -22 -48 -26
-84 -22 -58 7 -83 27 -290 237 l-169 172 23 24 c13 14 20 28 16 32 -4 4 -57
-43 -118 -105 -62 -61 -109 -115 -105 -119 4 -4 15 1 24 10 16 16 28 6 198
-162 190 -190 233 -220 311 -221 122 0 303 172 304 289 0 67 -38 120 -224 309
-170 173 -178 183 -163 200 10 10 17 22 17 25 0 16 -19 4 -65 -43z"/>
<path class="change-fill" style="fill: var(--primary);" d="M6265 10258 c-3 -7 -135 -362 -294 -789 l-290 -777 19 -58 c10 -33
87 -241 170 -464 84 -223 221 -589 305 -815 84 -225 264 -707 400 -1070 136
-363 257 -689 270 -725 12 -36 84 -229 160 -430 153 -405 183 -497 215 -655
80 -396 0 -817 -191 -1003 -42 -41 -125 -82 -167 -82 -30 0 -32 -2 -32 -35 l0
-35 1290 0 1290 0 0 35 c0 31 -3 35 -27 35 -16 1 -52 11 -82 24 -196 85 -455
394 -661 791 -93 178 -134 275 -287 685 -20 52 -46 122 -59 155 -12 33 -66
177 -119 320 -53 143 -109 294 -125 335 -16 41 -113 300 -215 575 -103 275
-199 534 -215 575 -16 41 -86 228 -155 415 -70 187 -141 378 -160 425 -18 47
-53 141 -79 210 -25 69 -111 301 -191 515 -81 215 -180 480 -221 590 -41 110
-163 439 -272 730 l-198 530 -37 3 c-24 2 -39 -1 -42 -10z"/>
<path class="change-fill" style="fill: var(--primary);" d="M1361 10061 c-93 -123 -129 -183 -72 -123 l31 33 203 -154 c250 -191
307 -241 307 -272 0 -29 -25 -55 -51 -55 -23 0 -36 27 -21 42 16 16 -2 44 -39
64 -25 13 -36 13 -60 4 -76 -32 -78 -130 -2 -169 51 -26 107 -7 166 58 74 82
101 169 73 236 -29 68 -60 98 -253 245 -103 78 -192 147 -197 151 -6 5 -3 16
7 27 9 10 17 22 17 25 0 23 -29 -7 -109 -112z"/>
<path class="change-fill" style="fill: var(--primary);" d="M10877 10113 c-87 -59 -112 -83 -89 -83 4 0 39 9 77 20 38 11 88 20
110 20 40 0 105 -31 105 -50 0 -5 -117 -98 -260 -205 l-261 -196 -19 23 c-11
13 -19 26 -20 31 0 8 -30 10 -30 2 0 -4 174 -240 216 -294 1 -1 7 0 13 4 7 4
1 19 -15 41 -15 19 -25 36 -23 38 53 42 507 380 516 383 19 8 45 -54 38 -90
-7 -30 -56 -126 -91 -174 -34 -48 8 -27 100 48 68 56 94 84 88 92 -5 7 -84
112 -176 235 -91 122 -170 222 -174 222 -5 0 -52 -30 -105 -67z"/>
<path class="change-fill" style="fill: var(--primary);" d="M11385 9342 c-47 -16 -107 -58 -132 -94 -34 -50 -40 -120 -19 -222 9
-43 16 -103 16 -133 0 -47 -4 -59 -29 -84 -43 -43 -101 -41 -146 4 -79 79 -72
162 33 370 9 18 -25 3 -113 -49 -94 -56 -113 -74 -76 -74 20 0 26 -12 60 -120
29 -89 80 -163 138 -197 39 -23 59 -28 108 -27 72 1 119 20 173 69 69 62 79
131 43 304 -23 110 -19 142 21 176 40 34 79 32 123 -6 67 -59 70 -149 9 -266
-19 -36 -32 -68 -30 -71 4 -3 159 80 175 95 3 2 -5 10 -16 18 -13 9 -26 36
-33 67 -26 109 -83 193 -153 227 -43 21 -110 26 -152 13z"/>
<path class="change-fill" style="fill: var(--primary);" d="M837 9284 l-17 -36 94 -111 c52 -62 158 -186 235 -277 128 -149 141
-168 136 -195 -6 -29 -5 -29 10 -10 17 20 65 110 65 120 0 15 -17 1 -32 -25
l-18 -31 -75 85 -76 86 46 85 c26 47 53 85 60 85 15 0 172 -29 197 -36 16 -5
16 -8 3 -33 -8 -16 -11 -31 -8 -35 8 -7 162 263 162 284 1 10 -5 8 -17 -8
l-18 -23 -348 55 c-192 31 -356 56 -365 56 -10 0 -25 -16 -34 -36z m391 -218
c4 -5 -79 -146 -87 -146 -6 0 -171 186 -171 193 0 4 253 -42 258 -47z"/>
<path class="change-fill" style="fill: var(--primary);" d="M727 8047 c-42 -129 -42 -127 -22 -127 10 0 26 37 50 113 40 129 39
127 22 127 -7 0 -28 -47 -50 -113z"/>
<path class="change-fill" style="fill: var(--primary);" d="M11666 8122 c-4 -7 61 -229 71 -241 2 -3 8 0 14 6 7 7 -1 45 -26 127
-34 107 -46 129 -59 108z"/>
<path class="change-fill" style="fill: var(--primary);" d="M86 6978 c-2 -12 -12 -120 -21 -238 -9 -118 -17 -226 -18 -239 -1
-13 4 -26 11 -28 8 -3 12 6 12 28 l0 32 53 -6 c28 -3 167 -15 307 -27 306 -25
296 -23 295 -52 0 -13 5 -24 10 -26 9 -2 21 115 49 459 l7 86 -73 7 c-40 4
-90 10 -110 13 -48 7 -50 -10 -5 -33 85 -43 140 -126 141 -216 0 -31 -1 -59
-4 -62 -5 -5 -196 9 -278 20 -43 5 -43 6 -37 37 10 45 49 83 101 97 62 18 62
26 1 33 -128 15 -247 20 -247 10 0 -6 11 -14 24 -17 39 -10 82 -57 90 -100 4
-21 4 -42 -1 -46 -4 -5 -73 -3 -153 3 l-145 12 2 54 c4 78 35 122 118 161 36
17 65 35 65 41 0 5 -36 9 -79 9 -44 0 -86 3 -95 6 -10 4 -17 -1 -20 -18z"/>
<path class="change-fill" style="fill: var(--primary);" d="M12360 6817 l0 -34 -122 -6 c-68 -4 -219 -10 -335 -13 l-213 -7 0 31
c0 18 -5 32 -10 32 -10 0 -9 -28 6 -284 10 -172 41 -255 120 -325 60 -53 122
-71 239 -71 198 0 301 75 335 245 14 67 4 465 -11 465 -5 0 -9 -15 -9 -33z m7
-297 c-8 -97 -38 -128 -146 -155 -80 -21 -326 -25 -389 -6 -68 19 -110 65
-124 134 -6 31 -9 59 -7 62 5 4 401 21 563 23 l109 2 -6 -60z"/>
<path class="change-fill" style="fill: var(--primary);" d="M610 6202 c0 -5 15 -13 34 -16 19 -4 40 -13 47 -22 22 -26 -9 -43
-91 -50 -139 -11 -184 -35 -199 -106 l-7 -33 -21 47 c-31 68 -70 90 -155 86
-108 -6 -148 -49 -156 -168 -6 -82 18 -449 30 -456 4 -3 8 10 8 29 0 34 1 35
52 41 29 3 130 11 223 16 94 6 217 15 275 19 58 5 108 7 113 4 4 -2 7 -17 7
-34 0 -16 5 -29 11 -29 7 0 9 12 6 33 -3 17 -9 89 -13 160 -3 70 -10 130 -15
133 -5 3 -9 -10 -9 -29 l0 -35 -107 -6 c-60 -4 -136 -9 -170 -12 l-63 -6 0 36
c0 21 4 46 10 56 12 23 61 40 115 40 54 0 143 17 173 32 35 18 52 60 52 128 0
64 -18 113 -48 129 -28 14 -102 24 -102 13z m-255 -324 c21 -19 51 -95 41
-105 -4 -4 -233 -23 -278 -23 -37 0 -38 1 -38 34 0 88 39 115 167 116 71 0 85
-3 108 -22z"/>
<path class="change-fill" style="fill: var(--primary);" d="M11689 5898 c0 -2 -15 -124 -33 -271 -37 -312 -48 -276 92 -296 85
-13 113 -8 78 13 -11 6 -41 31 -67 54 -63 57 -85 115 -81 211 l2 34 53 -6 c28
-3 100 -11 160 -18 118 -13 124 -18 92 -79 -17 -33 -53 -55 -108 -65 -46 -9
-48 -22 -4 -29 78 -13 245 -28 257 -24 8 2 -6 16 -31 30 -25 15 -51 38 -59 52
-13 26 -18 81 -8 92 4 3 72 -2 152 -12 l146 -17 0 -26 c0 -87 -46 -150 -135
-186 -33 -13 -61 -28 -63 -33 -3 -10 77 -22 151 -22 42 0 47 2 47 23 0 12 7
76 15 142 8 66 19 163 25 215 6 52 13 105 15 118 4 15 1 22 -9 22 -9 0 -16
-12 -18 -27 -3 -32 13 -31 -185 -8 -73 8 -193 22 -265 30 -208 24 -198 21
-198 55 0 17 -4 30 -10 30 -5 0 -10 -1 -11 -2z"/>
<path class="change-fill" style="fill: var(--primary);" d="M487 5194 c-134 -32 -238 -107 -272 -197 -24 -63 -17 -189 15 -272
31 -79 106 -155 177 -179 119 -40 309 -8 415 69 114 84 142 226 76 403 -29 80
-104 154 -177 176 -66 19 -155 19 -234 0z m365 -176 c50 -25 63 -119 23 -166
-34 -41 -99 -66 -287 -112 -204 -50 -274 -52 -319 -12 -24 21 -32 39 -36 73
-3 26 0 55 6 67 21 39 98 73 258 113 221 56 302 65 355 37z"/>
<path class="change-fill" style="fill: var(--primary);" d="M11560 5083 c0 -2 5 -13 10 -23 8 -15 3 -34 -24 -87 -39 -79 -66
-163 -66 -208 0 -115 93 -214 216 -230 106 -14 174 33 268 187 26 43 59 86 73
98 63 49 153 3 153 -80 0 -89 -78 -165 -208 -199 -23 -7 -42 -16 -42 -20 0 -8
163 -51 189 -51 5 0 6 11 4 24 -3 15 5 41 21 68 87 150 75 301 -31 369 -88 55
-190 56 -261 2 -19 -14 -63 -70 -98 -124 -82 -127 -133 -160 -197 -128 -38 19
-57 52 -57 97 0 103 73 176 228 226 28 10 52 21 52 26 0 4 -44 17 -97 29 -136
30 -133 30 -133 24z"/>
<path class="change-fill" style="fill: var(--primary);" d="M4056 4384 c-129 -273 -296 -516 -488 -706 -103 -102 -158 -146 -280
-221 -41 -25 -168 -67 -205 -67 -31 0 -33 -2 -33 -35 l0 -35 895 0 895 0 0 34
c0 32 -1 33 -48 39 -53 6 -110 28 -184 70 -12 6 -64 45 -115 85 -153 119 -254
268 -303 442 -11 41 -32 174 -45 294 -14 121 -27 221 -28 222 -2 2 -29 -53
-61 -122z"/>
<path class="change-fill" style="fill: var(--primary);" d="M1040 4406 c0 -3 4 -16 9 -29 10 -26 54 -4 -458 -230 l-134 -59 -18
23 c-36 48 -28 9 22 -102 28 -63 54 -117 57 -121 4 -3 111 14 237 38 127 24
238 43 248 42 11 -2 -55 -60 -182 -161 l-200 -157 14 -33 c66 -154 92 -208
100 -207 6 1 8 7 6 13 -2 7 -4 18 -5 25 -1 11 568 272 594 272 5 0 12 -9 15
-20 6 -20 25 -28 25 -10 0 15 -48 120 -55 120 -3 0 -5 -14 -3 -32 l3 -32 -140
-62 c-317 -140 -415 -182 -415 -179 0 4 255 213 443 364 37 30 67 55 67 57 0
5 -52 114 -54 114 -5 0 -580 -108 -612 -115 -48 -10 -12 8 207 104 112 49 231
101 263 116 l60 26 17 -23 c10 -12 20 -21 22 -18 7 7 -114 280 -124 280 -5 0
-9 -2 -9 -4z"/>
<path class="change-fill" style="fill: var(--primary);" d="M11301 4225 c-29 -74 -51 -141 -48 -148 3 -6 10 1 16 17 6 15 17 26
24 23 432 -169 607 -242 602 -254 -3 -7 -8 -20 -12 -29 -4 -11 -2 -15 7 -12
10 3 120 258 120 280 0 19 -20 6 -26 -18 -5 -18 -11 -23 -23 -19 -9 3 -148 58
-309 122 l-293 117 6 28 c4 15 3 28 -2 28 -5 0 -33 -61 -62 -135z"/>
<path class="change-fill" style="fill: var(--primary);" d="M11158 3734 c-102 -31 -193 -149 -239 -312 -15 -56 -26 -75 -44 -84
-14 -6 -22 -14 -20 -19 3 -4 59 -38 125 -74 106 -59 119 -69 110 -85 -6 -11
-6 -21 -1 -25 11 -6 153 246 144 255 -3 3 -14 -7 -25 -21 l-20 -26 -96 54
c-116 66 -122 70 -122 95 0 58 59 108 127 108 91 -1 334 -122 430 -215 67 -65
84 -116 57 -172 -29 -59 -85 -85 -200 -91 -52 -3 -94 -9 -94 -13 0 -8 171 -99
185 -99 3 0 5 7 5 15 0 9 25 46 56 82 82 96 117 178 118 273 1 126 -62 223
-195 301 -111 65 -208 82 -301 53z"/>
<path class="change-fill" style="fill: var(--primary);" d="M10662 3048 c-22 -29 -38 -56 -35 -61 3 -6 14 1 24 14 l17 23 44 -34
c267 -210 436 -346 432 -349 -2 -2 -162 25 -355 60 l-351 64 -25 -30 c-13 -17
-33 -42 -43 -56 l-19 -26 264 -209 c146 -115 265 -214 265 -221 0 -6 -4 -15
-10 -18 -12 -7 -13 -25 -2 -25 12 0 86 100 79 107 -4 3 -14 -4 -24 -16 l-18
-22 -155 123 c-86 68 -168 133 -184 146 -16 12 -27 24 -25 26 4 2 384 -68 497
-92 l43 -10 85 105 c46 58 84 109 84 114 0 14 -11 10 -28 -10 -16 -19 -25 -14
-262 175 -135 107 -251 202 -259 209 -13 13 -12 17 3 34 10 10 13 22 8 25 -5
3 -28 -18 -50 -46z"/>
<path class="change-fill" style="fill: var(--primary);" d="M1499 2981 c-82 -52 -90 -132 -19 -203 32 -32 44 -38 81 -38 107 0
173 110 119 198 -24 38 -75 72 -111 72 -14 0 -45 -13 -70 -29z"/>
<path class="change-fill" style="fill: var(--primary);" d="M2241 2325 c-40 -41 -70 -79 -66 -84 3 -6 25 -1 53 11 92 41 208 22
271 -46 l24 -25 -109 -117 -108 -116 -28 31 c-34 37 -36 78 -8 138 10 24 15
45 11 47 -9 6 -201 -198 -201 -213 0 -15 6 -14 36 6 50 32 165 11 164 -30 -1
-6 -45 -59 -99 -116 l-97 -104 -28 18 c-67 44 -92 139 -62 239 20 65 4 58 -69
-27 l-58 -69 34 -33 c126 -124 353 -324 361 -319 5 3 -1 17 -13 30 l-23 24 30
33 c17 17 90 97 164 177 74 80 160 173 193 208 l60 63 22 -21 c13 -12 26 -17
29 -12 5 9 -389 382 -404 382 -3 0 -39 -34 -79 -75z"/>
<path class="change-fill" style="fill: var(--primary);" d="M9849 1956 c-51 -35 -75 -88 -60 -136 15 -50 81 -110 122 -110 70 0
139 66 139 132 0 110 -113 174 -201 114z"/>
<path class="change-fill" style="fill: var(--primary);" d="M3050 1772 c0 -6 20 -25 45 -42 25 -17 45 -33 45 -36 0 -10 -161
-239 -171 -242 -5 -2 -26 13 -45 32 -34 34 -36 40 -31 84 3 26 9 57 12 70 15
48 -14 17 -93 -97 -80 -117 -93 -149 -45 -111 45 35 91 42 140 20 24 -10 43
-23 43 -29 0 -14 -169 -261 -179 -261 -16 0 -92 73 -108 103 -12 25 -14 49
-10 114 3 46 3 83 -1 83 -8 0 -115 -171 -110 -175 28 -28 434 -293 436 -285 2
6 -6 18 -18 28 -21 17 -21 17 160 282 99 146 186 264 193 263 7 -1 23 -5 36
-9 44 -13 14 13 -130 111 -150 102 -169 113 -169 97z"/>
<path class="change-fill" style="fill: var(--primary);" d="M8845 1454 c-82 -46 -151 -88 -153 -94 -5 -14 1 -13 43 7 19 9 36 15
39 12 11 -13 306 -558 306 -567 0 -14 -25 -22 -67 -22 -41 0 -109 40 -162 94
-36 37 -51 44 -51 25 0 -6 28 -57 62 -114 l62 -104 61 34 c33 18 147 81 254
139 107 59 197 109 200 112 7 7 -101 224 -112 224 -5 0 -5 -30 0 -67 15 -128
-1 -204 -48 -218 -11 -4 -22 -5 -23 -3 -11 12 -306 558 -306 565 0 5 16 17 36
26 19 10 32 22 29 27 -3 6 -9 10 -13 9 -4 -1 -74 -39 -157 -85z"/>
<path class="change-fill" style="fill: var(--primary);" d="M3560 1450 c0 -5 3 -10 8 -10 39 -1 30 -23 -118 -309 l-152 -292 -32
7 c-49 10 -24 -7 116 -80 69 -37 129 -63 132 -58 3 5 -6 14 -20 21 l-25 11
102 198 c188 362 204 392 214 388 6 -2 18 -7 28 -11 10 -4 17 -3 17 4 0 9
-248 141 -265 141 -3 0 -5 -4 -5 -10z"/>
<path class="change-fill" style="fill: var(--primary);" d="M4015 1114 c-25 -53 -45 -100 -45 -105 0 -19 24 -8 68 32 61 54 115
79 174 79 47 0 98 -16 98 -32 0 -12 -217 -588 -224 -596 -4 -3 -27 1 -51 10
-29 11 -47 13 -51 7 -3 -6 -4 -11 -3 -13 2 -1 78 -30 169 -64 105 -39 168 -58
174 -52 6 6 -2 14 -23 21 -24 8 -31 16 -26 28 4 9 45 117 91 241 47 124 96
255 110 292 24 65 26 67 50 56 25 -12 45 -4 28 11 -10 9 -469 181 -484 181 -5
0 -30 -43 -55 -96z"/>
<path class="change-fill" style="fill: var(--primary);" d="M8110 1118 c-135 -49 -249 -94 -253 -98 -9 -8 52 -210 64 -210 3 0
11 30 17 67 14 84 53 149 112 184 85 52 79 57 138 -109 29 -81 52 -150 52
-154 0 -3 -18 -9 -39 -13 -48 -8 -88 11 -125 57 -14 18 -28 29 -32 26 -8 -9
87 -278 98 -278 4 0 8 18 8 41 0 58 25 104 67 124 19 9 36 15 37 13 2 -1 25
-61 51 -133 26 -71 49 -135 52 -140 4 -12 -41 -30 -98 -40 -46 -9 -110 18
-167 69 -22 20 -43 33 -45 29 -10 -15 69 -178 84 -175 15 3 379 135 442 159
47 19 48 36 2 27 -19 -3 -35 -4 -35 -2 0 3 -49 139 -110 303 -60 164 -109 299
-107 300 1 1 12 8 25 14 21 11 31 32 15 30 -5 0 -118 -41 -253 -91z"/>
<path class="change-fill" style="fill: var(--primary);" d="M7280 896 c-30 -7 -83 -25 -116 -40 -34 -15 -72 -26 -85 -24 -17 2
-23 -2 -22 -12 8 -59 33 -194 37 -197 11 -11 24 9 29 45 10 61 65 161 101 183
17 11 49 19 73 19 91 0 155 -100 198 -307 52 -249 16 -363 -113 -363 -47 0
-95 32 -164 109 -26 29 -51 51 -56 49 -8 -3 34 -196 45 -208 2 -2 8 2 13 10 6
10 28 13 84 12 77 -3 174 16 231 45 96 50 158 143 170 256 11 108 -35 268 -99
344 -63 75 -201 108 -326 79z"/>
<path class="change-fill" style="fill: var(--primary); "d="M6603 793 c-71 -2 -123 -8 -123 -13 0 -6 11 -10 25 -10 14 0 27 -6
30 -12 2 -7 6 -81 10 -164 l6 -151 -96 -7 c-53 -4 -99 -6 -101 -4 -2 2 -6 77
-10 166 l-7 162 31 0 c18 0 32 5 32 10 0 6 -29 10 -68 10 -109 0 -252 -12
-252 -21 0 -5 13 -9 29 -9 l29 0 6 -82 c3 -46 8 -164 11 -263 3 -99 8 -210 11
-247 6 -68 6 -68 -19 -68 -14 0 -29 -4 -32 -10 -4 -6 31 -10 97 -10 123 0 208
9 208 22 0 5 -12 8 -27 6 l-28 -3 -8 144 c-4 79 -6 150 -3 158 4 9 30 13 99
13 l94 0 7 -92 c3 -50 6 -120 6 -155 0 -61 -1 -63 -25 -63 -14 0 -25 -5 -25
-11 0 -9 25 -10 92 -5 50 3 120 6 155 6 35 0 63 4 63 10 0 6 -13 10 -30 10
-29 0 -30 2 -30 43 -1 23 -7 170 -14 327 -8 157 -12 288 -9 293 2 4 15 7 29 7
13 0 24 5 24 10 0 6 -15 9 -32 8 -18 -1 -88 -4 -155 -5z"/>
<path class="change-fill" style="fill: var(--primary);" d="M5203 690 c-38 -23 -51 -46 -59 -103 -12 -84 40 -137 134 -137 81 0
125 48 123 137 0 55 -22 87 -72 107 -52 21 -87 20 -126 -4z"/>
</g>
</svg>
