<svg xmlns="http://www.w3.org/2000/svg" width="357" height="315.029"><defs><linearGradient id="a" x1=".929" y1=".111" x2=".263" y2=".935" gradientUnits="objectBoundingBox"><stop offset="0" stop-color="#f1f6f9"/><stop offset="1" stop-color="#f1f6f9" stop-opacity="0"/></linearGradient></defs><path data-name="Path 1449" d="M76.1-157.222C91.746-135.8 87.2-94.273 99.993-61.945c12.7 32.328 42.661 55.459 39.248 73.282-3.318 17.823-40.007 30.337-65.6 43.325-25.5 12.988-39.912 26.545-60.01 42.566-20.1 16.116-46.074 34.6-63.328 27.682-17.349-6.921-25.976-39.153-59.915-59.82s-93.1-29.768-105.325-51.478 22.373-56.028 43.609-93.949c21.331-37.921 29.2-79.35 53.563-96.793 24.459-17.444 65.414-10.9 103.9-6.921 38.396 3.982 74.326 5.404 89.965 26.829Z" fill="url(#a)" transform="translate(217.489 188.626)"/></svg>