<svg xmlns="http://www.w3.org/2000/svg" width="48.5" height="64.667"><g data-name="Group 1250" fill="#5d78ff"><path data-name="Path 1466" d="M24.25 0A24.277 24.277 0 0 0 0 24.25C0 42.14 22.374 63.4 23.326 64.3a1.349 1.349 0 0 0 1.847 0c.953-.9 23.327-22.16 23.327-40.05A24.277 24.277 0 0 0 24.25 0Zm0 61.434C20.016 57.207 2.694 39.006 2.694 24.25a21.556 21.556 0 1 1 43.111 0c.001 14.756-17.321 32.957-21.555 37.184Z"/><path data-name="Path 1467" d="M24.25 10.778A13.472 13.472 0 1 0 37.722 24.25 13.488 13.488 0 0 0 24.25 10.778Zm0 24.25A10.778 10.778 0 1 1 35.028 24.25 10.789 10.789 0 0 1 24.25 35.028Z"/></g></svg>