<svg xmlns="http://www.w3.org/2000/svg" width="65.388" height="59.939"><g data-name="Group 1254" fill="#5d78ff"><path data-name="Path 1475" d="M52.627 27.163a6.773 6.773 0 0 0-3.855-3.261l-3.714-1.237a4.085 4.085 0 0 1-2.5-2.359l-.54-1.352a4.007 4.007 0 0 0-2.293-2.271 4.179 4.179 0 0 0-3.342.149 8.213 8.213 0 0 1-7.37 0 4.225 4.225 0 0 0-3.342-.148 4 4 0 0 0-2.293 2.272l-.54 1.349a4.09 4.09 0 0 1-2.5 2.36l-3.714 1.239a6.772 6.772 0 0 0-3.855 3.257L3.534 44.475a6.843 6.843 0 0 0-.8 3.2v6.811a5.455 5.455 0 0 0 5.449 5.449h49.031a5.455 5.455 0 0 0 5.449-5.449v-6.811a6.852 6.852 0 0 0-.8-3.206Zm7.311 27.327a2.727 2.727 0 0 1-2.724 2.724H8.173a2.727 2.727 0 0 1-2.724-2.724v-6.811a4.118 4.118 0 0 1 .482-1.924l9.235-17.315a4.061 4.061 0 0 1 2.312-1.952l3.713-1.238a6.791 6.791 0 0 0 4.17-3.93l.54-1.349a1.3 1.3 0 0 1 .75-.744 1.378 1.378 0 0 1 .508-.094 1.536 1.536 0 0 1 .662.153 10.941 10.941 0 0 0 9.743 0 1.48 1.48 0 0 1 1.171-.06 1.3 1.3 0 0 1 .75.742l.54 1.352a6.793 6.793 0 0 0 4.166 3.93l3.714 1.236a4.063 4.063 0 0 1 2.312 1.956l9.235 17.311a4.129 4.129 0 0 1 .481 1.925Z"/><path data-name="Path 1476" d="M64.214 12.215A45.9 45.9 0 0 0 32.694 0 45.9 45.9 0 0 0 1.173 12.215a3.643 3.643 0 0 0 0 5.356l6.279 5.872a4.061 4.061 0 0 0 5.462 0A27.421 27.421 0 0 1 20 18.639a3.623 3.623 0 0 0 2.182-3.158l.934-6.255a32.677 32.677 0 0 1 19.159 0l.915 6.056a3.74 3.74 0 0 0 2.168 3.368 27.573 27.573 0 0 1 7.1 4.81 4.059 4.059 0 0 0 5.462 0l6.3-5.888a3.643 3.643 0 0 0 0-5.356Zm-1.863 3.366-6.3 5.888a1.326 1.326 0 0 1-1.737 0 30.242 30.242 0 0 0-7.782-5.277 1.159 1.159 0 0 1-.636-1.112l-1.062-7.117a1.361 1.361 0 0 0-.95-1.1A37.8 37.8 0 0 0 32.72 5.058 38.343 38.343 0 0 0 21.5 6.859a1.361 1.361 0 0 0-.952 1.1l-1.078 7.318a1 1 0 0 1-.62.887 30.242 30.242 0 0 0-7.8 5.285 1.329 1.329 0 0 1-1.737 0l-6.277-5.868a.915.915 0 0 1 0-1.375A43.181 43.181 0 0 1 32.694 2.725a43.181 43.181 0 0 1 29.658 11.48.915.915 0 0 1 0 1.375Z"/><path data-name="Path 1477" d="M32.694 30.186c-9.929 0-17.709 4.786-17.709 10.9s7.78 10.9 17.709 10.9 17.709-4.786 17.709-10.9-7.779-10.9-17.709-10.9Zm0 19.071c-8.123 0-14.985-3.743-14.985-8.173s6.862-8.173 14.985-8.173 14.985 3.744 14.985 8.173-6.862 8.173-14.985 8.173Z"/><path data-name="Path 1478" d="M21.796 39.04c-1.578 0-2.725.859-2.725 2.043s1.147 2.043 2.725 2.043 2.724-.859 2.724-2.043-1.147-2.043-2.724-2.043Z"/><path data-name="Path 1479" d="M28.607 43.808c-1.578 0-2.724.859-2.724 2.043s1.147 2.043 2.724 2.043 2.724-.859 2.724-2.043-1.146-2.043-2.724-2.043Z"/><path data-name="Path 1480" d="M36.78 43.808c-1.578 0-2.724.859-2.724 2.043s1.147 2.043 2.724 2.043 2.724-.859 2.724-2.043-1.146-2.043-2.724-2.043Z"/><path data-name="Path 1481" d="M28.607 34.273c-1.578 0-2.724.859-2.724 2.043s1.147 2.043 2.724 2.043 2.724-.859 2.724-2.043-1.146-2.043-2.724-2.043Z"/><path data-name="Path 1482" d="M36.78 34.273c-1.578 0-2.724.859-2.724 2.043s1.147 2.043 2.724 2.043 2.724-.859 2.724-2.043-1.146-2.043-2.724-2.043Z"/><path data-name="Path 1483" d="M43.591 39.04c-1.578 0-2.724.859-2.724 2.043s1.147 2.043 2.724 2.043 2.725-.859 2.725-2.043-1.149-2.043-2.725-2.043Z"/></g></svg>