<svg data-name="Group 1256" xmlns="http://www.w3.org/2000/svg" width="63.43" height="63.43"><path data-name="Path 1490" d="M31.715 0A31.715 31.715 0 1 0 63.43 31.715 31.751 31.751 0 0 0 31.715 0Zm1.322 60.72v-3.9a1.322 1.322 0 0 0-2.643 0v3.9A29.062 29.062 0 0 1 2.71 33.037h3.9a1.322 1.322 0 1 0 0-2.643h-3.9A29.062 29.062 0 0 1 30.394 2.71v3.9a1.322 1.322 0 1 0 2.643 0v-3.9A29.062 29.062 0 0 1 60.72 30.394h-3.9a1.322 1.322 0 0 0 0 2.643h3.9A29.062 29.062 0 0 1 33.037 60.72Z" fill="#5d78ff"/><path data-name="Path 1491" d="M34.227 32.359a2.535 2.535 0 0 0 .13-.644 2.571 2.571 0 0 0-.5-1.463l8.307-17.8a1.324 1.324 0 1 0-2.4-1.117l-8.3 17.788a2.623 2.623 0 0 0 .248 5.235 2.536 2.536 0 0 0 .644-.13l10.315 10.315a1.322 1.322 0 0 0 1.869-1.869Z" fill="#5d78ff"/></svg>