<?xml version="1.0" standalone="no"?>
<!DOCTYPE svg PUBLIC "-//W3C//DTD SVG 20010904//EN"
 "http://www.w3.org/TR/2001/REC-SVG-20010904/DTD/svg10.dtd">
<svg version="1.0" xmlns="http://www.w3.org/2000/svg"
 width="2560.000000pt" height="2560.000000pt" viewBox="0 0 2560.000000 2560.000000"
 preserveAspectRatio="xMidYMid meet">

<g transform="translate(0.000000,2560.000000) scale(0.100000,-0.100000)"
fill="#000000" stroke="none">
<path d="M12267 24663 c-16 -15 -6 -33 18 -33 43 0 94 -27 105 -55 12 -32 19
-1083 7 -1137 -9 -42 -27 -56 -90 -66 -27 -5 -42 -13 -42 -22 0 -13 56 -15
400 -18 220 -2 455 0 523 3 117 7 122 8 116 27 -3 11 -7 113 -9 226 -2 195 -3
207 -21 207 -13 0 -20 -8 -22 -25 -2 -14 -14 -62 -28 -107 -43 -143 -138 -254
-242 -283 -20 -5 -78 -10 -129 -10 -83 0 -95 2 -120 24 l-28 24 -3 559 c-4
634 -5 623 65 642 21 6 48 11 61 11 15 0 22 6 22 20 0 20 -7 20 -288 20 -159
0 -292 -3 -295 -7z"/>
<path d="M11090 24545 c-522 -76 -500 -73 -500 -89 0 -9 18 -15 56 -18 63 -5
77 -17 94 -78 18 -61 150 -996 150 -1057 0 -32 -4 -63 -8 -69 -9 -15 -67 -44
-86 -44 -19 0 -31 -19 -20 -30 7 -7 800 100 1000 135 l30 5 -18 88 c-26 121
-48 260 -48 305 0 30 -4 37 -19 37 -16 0 -21 -9 -25 -47 -19 -154 -27 -190
-55 -248 -51 -103 -113 -139 -277 -163 l-114 -16 -25 25 c-24 23 -29 46 -65
294 -21 148 -37 272 -34 277 3 4 37 8 76 8 58 0 79 -5 113 -25 42 -24 89 -87
115 -152 12 -32 33 -43 45 -23 3 5 -3 54 -14 107 -11 54 -30 169 -42 256 -19
135 -25 157 -40 157 -18 0 -21 -10 -34 -95 -16 -104 -90 -180 -185 -187 l-45
-3 -39 267 c-21 147 -35 279 -32 294 9 34 56 53 168 67 102 13 159 3 220 -40
56 -38 91 -97 148 -250 13 -35 17 -38 37 -25 8 5 9 19 3 47 -9 39 -23 153 -35
288 -6 65 -7 67 -33 66 -15 -1 -223 -30 -462 -64z"/>
<path d="M14360 24544 c-318 -61 -530 -349 -530 -719 1 -339 221 -576 583
-625 211 -29 402 34 548 180 118 118 175 248 200 454 25 209 -31 386 -167 522
-77 78 -182 137 -299 169 -59 16 -283 29 -335 19z m299 -60 c177 -88 246 -397
170 -759 -45 -216 -157 -403 -278 -464 -60 -31 -151 -32 -208 -3 -166 86 -240
338 -192 662 45 308 172 533 327 580 57 17 126 11 181 -16z"/>
<path d="M9851 24304 c-95 -29 -175 -55 -178 -58 -15 -14 15 -26 69 -26 56 0
63 -2 93 -35 40 -42 55 -102 55 -218 0 -100 -39 -729 -46 -736 -6 -6 17 -34
-280 347 -327 419 -326 418 -322 456 2 26 11 35 51 56 30 16 46 31 44 40 -2 8
-7 14 -13 14 -5 -1 -127 -37 -272 -80 -206 -61 -262 -81 -260 -93 2 -9 18 -18
39 -22 20 -3 50 -16 67 -30 16 -13 117 -132 223 -264 106 -132 285 -355 397
-495 113 -140 210 -261 216 -268 10 -10 23 -9 66 4 30 9 58 19 62 22 7 8 14
80 23 227 8 138 14 236 25 405 5 80 12 190 15 245 23 369 31 419 85 493 31 43
36 58 23 65 -5 2 -86 -20 -182 -49z"/>
<path d="M15876 24272 c-15 -14 -3 -30 35 -47 51 -23 63 -46 55 -104 -6 -46
-268 -889 -308 -991 -11 -30 -30 -66 -42 -78 -18 -21 -28 -23 -78 -20 -42 3
-59 1 -62 -9 -3 -8 0 -16 7 -18 53 -20 585 -185 595 -185 31 0 7 28 -42 49
-74 31 -101 62 -99 114 1 36 104 382 117 395 3 2 33 -5 68 -17 327 -108 562
-41 672 189 58 124 38 269 -54 374 -81 92 -176 137 -510 243 -146 46 -284 90
-307 97 -23 8 -44 12 -47 8z m556 -213 c100 -51 130 -131 104 -272 -49 -262
-155 -407 -297 -407 -59 0 -158 26 -165 44 -4 10 153 520 184 598 21 51 50 71
94 64 22 -4 58 -16 80 -27z"/>
<path d="M7780 23549 c-245 -114 -446 -213 -448 -218 -6 -18 17 -21 62 -9 59
16 86 3 121 -59 35 -62 429 -907 444 -952 21 -65 15 -87 -34 -122 -45 -32 -52
-43 -36 -53 4 -3 215 91 467 209 252 118 464 217 469 219 6 2 4 13 -4 27 -32
53 -150 297 -161 332 -11 36 -36 49 -46 24 -2 -7 2 -42 11 -78 20 -85 19 -213
-1 -272 -29 -86 -139 -169 -280 -212 -71 -22 -77 -15 -196 235 -143 302 -135
276 -90 299 102 52 177 36 270 -56 51 -52 66 -62 78 -53 11 10 4 31 -45 124
-54 102 -150 306 -165 349 -4 14 -10 16 -24 8 -17 -9 -18 -16 -10 -63 15 -92
-4 -183 -48 -229 -32 -33 -101 -66 -114 -53 -14 15 -220 464 -226 494 -9 44
11 66 99 110 117 57 180 69 253 46 46 -15 70 -31 123 -85 36 -37 80 -83 96
-104 21 -26 34 -35 43 -29 11 7 5 26 -26 88 -21 43 -58 127 -82 187 -23 59
-45 107 -49 106 -3 0 -206 -95 -451 -210z"/>
<path d="M17468 23708 c-3 -7 14 -26 36 -43 56 -42 58 -76 12 -180 -62 -145
-414 -864 -443 -907 -27 -41 -32 -43 -73 -41 -25 1 -56 3 -69 5 -77 10 17 -42
436 -245 l467 -226 47 115 c27 64 68 153 93 199 25 45 42 86 39 89 -15 15 -40
3 -62 -29 -13 -19 -56 -66 -96 -104 -123 -117 -223 -131 -386 -54 -110 53
-133 75 -126 122 6 45 226 501 242 501 21 0 102 -57 123 -88 35 -49 48 -123
33 -194 -10 -50 -10 -62 1 -69 20 -13 25 -11 36 19 29 76 76 181 141 311 39
79 71 145 71 146 0 2 -7 6 -15 9 -10 4 -35 -13 -71 -48 -62 -61 -124 -96 -173
-96 -40 0 -131 38 -131 55 0 24 227 480 248 499 28 25 66 18 163 -29 176 -85
220 -188 170 -400 -11 -44 -17 -83 -15 -87 14 -22 34 -1 63 66 18 40 59 120
91 177 33 57 56 107 52 110 -10 10 -883 429 -892 429 -5 0 -10 -5 -12 -12z"/>
<path d="M18984 22929 c-3 -6 10 -27 30 -48 42 -43 46 -73 16 -130 -31 -61
-567 -842 -606 -883 -41 -44 -67 -47 -125 -18 -35 18 -40 19 -45 5 -4 -9 -5
-17 -3 -19 24 -19 451 -307 462 -312 33 -12 27 19 -9 50 -60 52 -54 79 54 239
49 72 116 171 148 219 33 48 63 87 67 88 11 0 120 -74 136 -94 22 -26 24 -89
6 -152 -9 -32 -47 -126 -83 -209 -79 -180 -88 -234 -50 -305 31 -57 110 -122
182 -149 65 -24 181 -30 174 -8 -3 6 -22 13 -44 15 -50 4 -74 26 -74 69 0 18
29 107 65 197 54 136 65 173 65 222 0 77 -33 147 -102 221 -30 32 -44 53 -33
48 11 -4 51 -19 90 -32 323 -116 590 184 404 453 -60 87 -155 166 -431 354
-153 105 -280 190 -282 190 -3 0 -8 -5 -12 -11z m450 -330 c77 -54 114 -131
100 -207 -14 -79 -111 -236 -177 -286 -77 -59 -136 -68 -218 -36 -53 21 -139
77 -139 91 0 14 291 434 313 452 28 22 77 16 121 -14z"/>
<path d="M6495 22785 c-143 -38 -211 -75 -514 -279 -141 -95 -265 -177 -276
-183 -15 -9 -17 -14 -7 -26 11 -13 17 -12 49 4 55 28 81 24 121 -18 40 -43
566 -826 599 -893 31 -62 29 -78 -19 -127 -35 -36 -39 -43 -24 -49 27 -10 530
331 627 426 231 227 279 506 132 785 -44 83 -84 137 -158 210 -74 74 -154 123
-244 149 -67 20 -216 20 -286 1z m67 -143 c84 -41 178 -128 265 -244 207 -277
282 -502 222 -664 -27 -70 -113 -160 -192 -198 -94 -46 -80 -60 -413 436 -271
406 -334 505 -334 535 0 24 70 90 128 121 117 62 218 67 324 14z"/>
<path d="M4400 21071 c-48 -15 -125 -59 -177 -101 -58 -48 -476 -495 -481
-515 -5 -20 18 -29 31 -12 22 26 61 47 89 47 18 0 47 -17 86 -49 103 -86 749
-689 771 -720 28 -38 26 -63 -5 -112 -19 -30 -23 -44 -15 -52 8 -8 15 -7 25 3
132 139 459 498 488 538 81 110 127 247 113 341 -15 100 -103 210 -198 246
-110 42 -265 -2 -404 -114 -35 -28 -63 -48 -63 -43 0 4 11 27 25 51 53 92 71
223 45 319 -15 58 -68 122 -125 154 -41 22 -62 27 -115 27 -36 0 -76 -4 -90
-8z m-54 -205 c73 -34 197 -154 231 -224 47 -96 36 -159 -46 -251 l-38 -43
-191 176 c-202 187 -223 216 -198 264 15 29 59 73 91 90 33 19 97 13 151 -12z
m567 -396 c61 -31 182 -157 209 -218 30 -66 27 -138 -8 -203 -35 -62 -98 -119
-134 -119 -35 0 -56 17 -273 219 l-187 173 28 34 c112 136 241 176 365 114z"/>
<path d="M20690 20713 c-104 -36 -174 -111 -205 -218 -40 -137 25 -287 156
-360 49 -27 62 -30 149 -30 87 0 100 3 149 30 164 91 213 302 106 463 -70 106
-231 159 -355 115z"/>
<path d="M3060 19553 c-335 -486 -326 -473 -310 -483 8 -5 25 5 50 31 42 45
64 48 122 18 78 -40 843 -570 886 -614 47 -49 50 -65 22 -119 -19 -37 -19 -56
0 -56 8 0 577 820 587 846 2 6 -22 27 -54 45 -138 81 -250 156 -272 183 -17
20 -40 21 -48 1 -3 -10 15 -37 54 -78 86 -90 125 -163 131 -247 6 -88 -13
-143 -84 -243 -58 -82 -87 -104 -126 -94 -28 8 -450 298 -455 313 -6 19 60 96
101 118 50 25 115 26 195 1 44 -13 65 -15 72 -8 15 15 4 30 -39 52 -43 22
-314 203 -355 238 -60 49 -72 13 -19 -59 47 -63 72 -125 72 -176 0 -44 -55
-146 -74 -139 -23 9 -410 278 -438 305 -38 36 -35 67 13 143 121 190 234 227
432 143 73 -31 100 -34 104 -14 2 9 -18 28 -52 48 -45 27 -126 87 -260 193 -7
5 -104 -129 -255 -348z"/>
<path d="M22606 19471 c-3 -5 1 -22 9 -37 18 -35 19 -83 2 -104 -24 -30 -89
-72 -490 -313 -406 -245 -482 -287 -519 -287 -11 0 -38 19 -59 42 -28 31 -42
39 -49 32 -8 -8 35 -88 154 -284 91 -151 186 -300 210 -331 96 -123 268 -233
404 -260 83 -16 240 -6 312 19 197 69 367 207 442 359 76 153 74 313 -6 509
-40 99 -374 663 -393 664 -6 0 -14 -4 -17 -9z m253 -453 c69 -71 114 -212 100
-311 -24 -159 -205 -335 -498 -481 -208 -105 -357 -126 -479 -69 -89 41 -213
208 -198 266 3 13 16 35 30 48 21 21 602 377 860 527 109 63 140 66 185 20z"/>
<path d="M2402 18552 c-67 -134 -134 -294 -128 -308 5 -13 16 -6 54 35 44 47
52 51 93 51 87 -1 141 -37 416 -285 240 -216 279 -253 273 -258 -5 -5 -794 85
-862 98 -20 4 -45 16 -54 26 -16 17 -16 26 -7 72 11 51 3 82 -16 62 -5 -6 -57
-115 -115 -244 -79 -173 -104 -236 -95 -242 8 -4 24 2 42 17 35 29 86 30 288
6 l137 -17 163 -156 c90 -85 185 -175 212 -199 26 -23 46 -44 44 -46 -5 -6
-806 75 -862 87 -72 14 -95 32 -95 73 0 21 -6 36 -16 40 -16 6 -27 -15 -169
-327 -42 -93 -55 -131 -47 -139 8 -8 19 -4 41 14 50 43 69 43 386 13 28 -3
232 -21 455 -40 223 -20 435 -38 472 -42 l66 -6 31 60 30 60 -315 293 c-172
162 -314 297 -314 302 0 5 12 7 28 4 15 -3 191 -24 392 -46 201 -22 381 -43
400 -46 35 -5 36 -4 65 56 l29 61 -25 23 c-13 13 -127 115 -254 227 -126 112
-232 206 -235 209 -3 3 -84 76 -181 163 -229 203 -260 241 -275 335 -9 55 -29
61 -52 14z"/>
<path d="M23562 17781 c-10 -6 -10 -14 -2 -35 15 -42 12 -91 -7 -108 -10 -9
-36 -25 -58 -36 -73 -36 -925 -382 -970 -393 -64 -16 -90 -6 -120 46 -18 30
-31 42 -41 38 -8 -3 -13 -11 -11 -17 13 -32 389 -951 390 -952 1 -1 27 10 57
25 122 59 207 95 269 116 53 18 67 27 69 45 4 21 1 22 -35 15 -96 -18 -139
-22 -204 -19 -126 6 -207 61 -263 178 -45 95 -65 166 -55 193 4 12 25 31 46
41 34 18 479 202 487 202 2 0 11 -21 21 -47 40 -104 10 -199 -85 -271 -47 -36
-65 -72 -36 -72 8 0 54 19 103 42 48 22 153 67 233 99 110 45 145 63 145 76 0
16 -9 18 -75 15 -83 -4 -150 10 -192 39 -23 17 -85 125 -76 134 15 15 504 205
527 205 20 0 36 -8 49 -25 29 -37 81 -166 88 -219 15 -108 -47 -213 -171 -293
-41 -26 -74 -54 -75 -61 0 -24 26 -22 93 8 74 33 121 51 217 81 36 12 69 24
73 29 8 7 -353 904 -371 922 -4 4 -13 4 -20 -1z"/>
<path d="M23869 16102 c-80 -21 -134 -55 -182 -114 -49 -61 -78 -122 -137
-293 -106 -305 -169 -379 -327 -380 -65 0 -74 3 -110 31 -59 47 -95 123 -101
211 -4 67 -2 79 27 138 25 50 46 75 91 110 68 52 153 99 211 116 37 12 53 39
30 53 -4 3 -59 -8 -122 -25 -63 -17 -163 -42 -224 -55 -140 -31 -134 -29 -128
-53 4 -17 13 -21 44 -21 50 0 56 -14 39 -88 -54 -240 61 -548 242 -647 47 -27
62 -30 143 -30 78 0 98 4 150 28 74 35 140 103 182 188 17 35 59 143 93 239
78 219 104 274 152 314 127 109 288 53 328 -115 35 -143 -68 -296 -252 -377
-27 -12 -48 -25 -48 -29 1 -32 20 -30 214 18 110 27 201 51 204 54 2 2 2 11
-1 20 -4 10 -20 15 -47 15 -53 0 -57 13 -36 109 21 100 20 161 -3 254 -66 256
-231 382 -432 329z"/>
<path d="M24495 14682 c-6 -4 -10 -28 -11 -54 0 -58 -14 -75 -78 -93 -55 -15
-999 -145 -1059 -145 -64 0 -86 15 -99 66 -12 42 -31 65 -44 51 -3 -2 12 -131
32 -286 33 -247 40 -281 55 -281 15 0 19 10 21 57 3 51 6 59 33 74 22 13 177
38 555 88 289 39 542 71 563 71 47 0 83 -33 93 -84 5 -27 11 -36 23 -34 19 4
21 -20 -24 312 -18 137 -37 252 -42 257 -4 4 -13 5 -18 1z"/>
<path d="M1734 14395 c-70 -35 -136 -107 -164 -181 -56 -149 19 -327 167 -395
75 -35 190 -33 265 4 227 111 238 437 18 561 -47 26 -65 31 -145 33 -80 3 -96
1 -141 -22z"/>
<path d="M23866 13489 c-356 -52 -546 -277 -546 -646 0 -109 19 -182 81 -304
69 -138 65 -158 -28 -177 -24 -5 -39 -14 -41 -25 -3 -16 16 -17 237 -17 137 0
251 -4 266 -10 15 -6 32 -23 38 -40 6 -17 18 -29 25 -28 7 2 13 6 13 11 -1 4
-1 131 -1 282 0 230 -2 275 -14 275 -9 0 -17 -16 -21 -42 -21 -135 -33 -142
-260 -146 -162 -3 -172 -3 -198 18 -82 65 -80 251 3 352 65 79 193 133 379
159 110 15 363 7 461 -16 279 -64 415 -241 356 -463 -19 -69 -55 -130 -107
-176 -53 -48 -108 -73 -212 -94 -69 -15 -82 -20 -82 -37 0 -19 8 -20 228 -23
217 -2 227 -2 227 17 0 14 -10 20 -41 25 -91 15 -98 35 -40 128 22 35 49 92
61 128 20 58 22 80 17 205 -6 174 -26 242 -108 365 -142 211 -412 320 -693
279z"/>
<path d="M23300 11813 c0 -5 -11 -79 -25 -166 -29 -186 -29 -187 -10 -187 8 0
15 5 15 10 0 28 47 105 74 122 27 17 42 19 116 13 95 -6 789 -110 798 -119 7
-7 8 -6 -58 -43 -30 -17 -233 -133 -450 -258 -217 -125 -443 -255 -502 -288
-106 -61 -108 -62 -114 -105 -4 -24 -5 -45 -2 -47 2 -2 242 -41 532 -85 290
-44 548 -85 573 -90 104 -24 139 -52 151 -121 5 -27 13 -45 22 -47 12 -2 20
29 39 158 13 89 25 170 28 181 4 14 0 19 -15 19 -13 0 -21 -9 -25 -27 -9 -46
-50 -97 -87 -110 -20 -7 -58 -11 -90 -8 -96 9 -690 99 -690 105 0 7 -26 -8
518 305 462 266 482 278 482 306 0 16 9 86 20 156 16 99 18 128 8 134 -17 11
-28 2 -28 -24 0 -12 -9 -36 -19 -53 -16 -26 -27 -32 -62 -36 -47 -4 -962 132
-1048 156 -71 20 -107 55 -116 112 -4 29 -11 44 -21 44 -8 0 -14 -3 -14 -7z"/>
<path d="M2277 11354 c-4 -4 7 -22 23 -41 61 -69 30 -105 -160 -188 -161 -70
-204 -97 -246 -152 -37 -48 -54 -115 -54 -211 l0 -66 -44 88 c-54 108 -100
157 -186 199 -53 26 -76 32 -130 32 -170 -1 -272 -92 -300 -270 -16 -101 -5
-194 66 -548 35 -175 64 -321 64 -323 0 -3 8 -4 17 -2 14 2 17 13 14 55 -2 42
2 55 20 72 32 30 75 40 594 146 435 88 553 106 581 87 15 -9 44 -67 44 -87 0
-8 9 -15 20 -15 11 0 20 3 19 8 0 4 -26 131 -57 282 -44 212 -60 275 -72 275
-12 0 -14 -10 -12 -43 4 -50 -16 -88 -56 -103 -41 -16 -512 -110 -521 -105
-13 8 -33 143 -26 175 7 32 55 80 108 107 17 10 106 48 196 85 189 78 223 104
248 188 28 99 -14 247 -93 324 -40 38 -46 42 -57 31z m-569 -649 c49 -21 79
-51 107 -105 23 -46 51 -157 42 -167 -11 -10 -483 -103 -524 -103 -29 0 -49 6
-62 19 -46 46 -52 170 -11 236 11 18 42 47 69 64 94 61 296 90 379 56z"/>
<path d="M23005 10157 c-13 -33 -305 -969 -305 -975 0 -4 53 -20 118 -36 64
-16 157 -43 207 -62 66 -24 91 -30 97 -21 12 20 5 28 -52 60 -76 41 -160 111
-192 159 -54 80 -61 152 -24 275 41 137 67 170 123 157 35 -8 507 -155 512
-159 7 -7 -31 -105 -51 -130 -34 -44 -94 -68 -188 -74 -67 -5 -85 -9 -88 -22
-2 -13 16 -21 85 -38 48 -12 160 -45 248 -74 88 -28 164 -51 170 -52 24 -1 14
35 -17 56 -92 63 -148 139 -148 202 0 34 17 95 30 110 7 8 472 -133 521 -159
46 -24 49 -55 15 -164 -29 -95 -46 -127 -88 -166 -65 -62 -89 -69 -240 -69
-124 0 -138 -1 -138 -17 0 -12 13 -21 43 -28 71 -19 191 -59 263 -90 38 -16
70 -27 72 -25 10 10 300 950 296 957 -11 17 -24 7 -44 -32 -31 -61 -58 -75
-122 -60 -71 16 -896 273 -979 305 -90 35 -103 50 -97 119 3 41 1 57 -9 60 -8
3 -16 0 -18 -7z"/>
<path d="M2197 9505 c-232 -60 -404 -189 -486 -366 -132 -281 0 -695 275 -861
171 -104 401 -116 611 -33 118 46 188 91 269 171 116 114 166 241 165 414 -1
163 -56 326 -155 457 -153 202 -416 286 -679 218z m588 -265 c41 -15 75 -38
107 -70 159 -163 25 -426 -297 -584 -240 -118 -481 -162 -652 -119 -78 19
-136 61 -177 126 -40 65 -42 157 -4 238 89 195 413 384 743 433 74 11 221 -2
280 -24z"/>
<path d="M22406 8489 c-69 -142 -126 -261 -126 -264 0 -3 9 -5 20 -5 11 0 20
4 20 9 0 5 12 24 27 41 42 51 79 41 345 -89 l227 -111 -25 -57 c-15 -32 -41
-73 -60 -90 -56 -54 -123 -48 -419 35 -106 30 -148 35 -193 21 -116 -34 -214
-228 -185 -363 13 -60 33 -58 33 2 0 98 30 104 266 46 78 -19 162 -34 186 -34
92 0 183 53 249 145 18 25 34 44 35 42 1 -1 -4 -29 -12 -62 -7 -33 -14 -96
-14 -141 0 -70 4 -89 30 -141 58 -117 144 -175 267 -181 89 -5 142 17 221 92
81 76 130 159 288 482 110 225 142 299 132 305 -9 6 -20 -1 -33 -19 -50 -67
-69 -74 -146 -47 -56 20 -879 420 -941 457 -57 35 -71 68 -52 124 17 49 17 51
0 57 -10 4 -50 -69 -140 -254z m798 -558 c199 -98 247 -125 259 -148 37 -75
-58 -210 -162 -229 -119 -23 -353 100 -407 214 -23 48 -13 129 26 215 16 37
32 67 35 67 3 0 115 -54 249 -119z"/>
<path d="M3512 7841 c-10 -6 -7 -20 13 -62 35 -76 33 -117 -7 -156 -27 -26
-950 -569 -999 -588 -11 -4 -22 8 -39 42 -29 57 -38 154 -20 210 17 52 85 145
159 218 59 58 71 78 52 89 -5 4 -56 -22 -113 -55 -56 -34 -147 -84 -201 -111
l-98 -49 20 -32 c10 -18 139 -239 286 -492 146 -253 270 -464 275 -469 5 -5
29 6 57 26 51 36 246 154 301 182 22 11 32 23 30 34 -5 21 -11 20 -118 -9
-111 -31 -258 -33 -310 -5 -48 25 -98 74 -121 118 l-18 36 495 288 c574 333
565 329 634 254 22 -24 42 -51 45 -61 7 -20 30 -26 39 -11 4 8 -322 583 -342
604 -4 4 -13 4 -20 -1z"/>
<path d="M4084 6874 c-7 -3 -9 -23 -6 -52 2 -30 -2 -61 -11 -84 -9 -21 -87
-158 -175 -305 -88 -147 -234 -394 -325 -547 l-166 -279 37 -48 c20 -27 43
-48 50 -49 13 0 208 58 802 241 338 103 371 112 450 113 47 0 100 -3 118 -8
23 -6 32 -5 32 4 0 8 -146 203 -219 292 -4 4 -12 3 -19 -1 -11 -7 -8 -19 13
-61 61 -120 11 -172 -240 -254 -86 -28 -112 -33 -121 -23 -41 45 -237 303
-237 312 0 20 195 325 221 345 34 27 46 25 92 -16 26 -23 46 -34 56 -30 14 5
11 13 -18 49 -19 23 -98 124 -177 225 -78 100 -143 182 -144 181 -1 0 -7 -3
-13 -5z m75 -936 c61 -78 107 -145 103 -149 -13 -12 -479 -152 -491 -147 -10
3 257 438 269 438 4 0 58 -64 119 -142z"/>
<path d="M21405 6354 c-76 -32 -126 -77 -175 -158 -22 -36 -25 -52 -25 -141 0
-85 3 -106 23 -143 97 -182 340 -228 494 -93 24 22 57 65 73 97 26 51 30 70
30 139 0 69 -4 88 -29 138 -33 65 -83 115 -148 148 -58 30 -185 36 -243 13z"/>
<path d="M5070 5483 c-47 -53 -114 -125 -149 -160 -51 -50 -62 -66 -53 -75 10
-10 18 -9 40 4 168 104 245 134 325 125 77 -10 135 -44 220 -128 110 -112 112
-103 -72 -297 -82 -86 -170 -177 -196 -202 l-46 -45 -44 46 c-74 78 -80 150
-24 269 16 34 27 66 23 71 -12 20 -32 6 -91 -63 -34 -40 -114 -127 -178 -192
-96 -100 -113 -122 -102 -133 11 -11 22 -8 68 17 66 36 144 55 191 46 35 -6
128 -71 128 -88 0 -15 -362 -388 -390 -403 -37 -19 -79 2 -156 79 -126 126
-142 216 -64 370 22 45 48 93 58 108 12 19 14 30 6 38 -7 7 -54 -33 -157 -133
l-146 -143 354 -340 c194 -186 361 -340 369 -342 23 -5 19 15 -10 54 -47 62
-38 87 79 212 221 235 625 651 659 679 64 52 89 52 145 1 20 -19 43 -18 43 2
0 8 -734 720 -742 720 -2 0 -42 -43 -88 -97z"/>
<path d="M19822 4885 c-178 -40 -370 -181 -441 -324 -16 -31 -34 -74 -40 -96
-33 -108 -53 -119 -115 -65 -31 27 -66 33 -66 10 0 -4 57 -72 126 -151 70 -79
138 -159 151 -176 27 -36 31 -37 52 -24 12 8 7 22 -27 78 -84 139 -100 197
-82 302 26 155 147 273 295 288 186 19 472 -193 648 -482 100 -165 132 -342
81 -451 -27 -57 -96 -121 -167 -155 -54 -25 -73 -29 -152 -29 -107 0 -155 19
-255 99 -60 49 -89 59 -97 36 -1 -5 30 -49 70 -97 39 -47 103 -125 140 -172
45 -56 73 -83 83 -79 19 7 18 16 -7 64 -35 70 -27 81 72 95 137 20 209 54 322
155 132 116 216 300 217 472 1 232 -171 511 -391 635 -127 72 -284 98 -417 67z"/>
<path d="M6188 4532 c-10 -2 -18 -10 -18 -18 0 -10 12 -14 39 -14 75 0 94 -59
50 -156 -10 -23 -40 -93 -65 -155 -76 -184 -66 -262 53 -398 24 -28 42 -51 38
-51 -3 0 -23 9 -43 19 -153 78 -324 61 -431 -42 -138 -133 -120 -316 46 -479
37 -37 79 -76 93 -87 51 -39 515 -364 526 -368 29 -11 23 22 -10 56 -45 46
-46 73 -6 140 40 69 543 784 592 844 50 59 77 67 136 38 36 -18 47 -20 53 -9
5 7 5 16 1 19 -24 22 -454 319 -461 319 -25 0 -19 -23 13 -51 55 -48 50 -82
-27 -194 -164 -238 -242 -345 -253 -345 -6 0 -39 20 -72 45 -98 72 -102 136
-18 317 78 170 89 195 102 232 44 123 -19 237 -171 307 -57 26 -130 40 -167
31z m154 -879 c52 -20 148 -82 148 -95 0 -5 -68 -106 -151 -224 -166 -235
-185 -254 -246 -233 -47 15 -117 86 -133 134 -25 76 6 177 90 290 47 63 73 87
130 119 53 30 102 33 162 9z"/>
<path d="M18380 3870 c-233 -67 -428 -240 -501 -445 -32 -93 -37 -247 -10
-354 60 -237 240 -457 436 -530 84 -32 197 -44 274 -31 253 43 459 186 560
387 70 140 80 330 27 488 -81 240 -272 436 -476 490 -77 21 -229 18 -310 -5z
m42 -111 c168 -56 334 -229 457 -476 130 -258 140 -474 28 -592 -64 -67 -165
-89 -270 -57 -253 76 -549 503 -565 817 -6 132 13 198 77 259 74 72 160 87
273 49z"/>
<path d="M7582 3558 c-20 -46 -65 -141 -99 -211 -35 -71 -61 -133 -58 -138 13
-20 35 -6 68 44 88 132 148 178 263 202 155 32 303 -37 375 -175 22 -41 24
-57 23 -175 0 -119 -3 -138 -33 -230 -86 -260 -250 -490 -414 -581 -47 -26
-61 -29 -142 -29 -75 0 -97 4 -134 23 -102 55 -180 160 -201 271 -10 53 -2
122 24 206 21 65 20 85 -2 85 -12 0 -34 -33 -74 -112 -32 -62 -78 -151 -103
-197 -24 -46 -42 -87 -39 -92 11 -18 32 -8 63 32 46 56 65 50 118 -38 79 -130
215 -226 383 -269 79 -21 225 -23 300 -5 152 37 288 136 389 281 163 235 190
517 70 721 -66 113 -170 205 -304 272 -102 50 -159 61 -291 54 -137 -8 -143
-4 -120 74 16 56 14 69 -10 69 -9 0 -29 -33 -52 -82z"/>
<path d="M17028 3167 c-171 -67 -202 -93 -98 -81 93 10 133 -15 176 -112 61
-139 290 -740 283 -742 -4 -2 -151 80 -326 181 -175 101 -417 242 -538 312
-121 70 -225 131 -232 137 -14 11 -93 -10 -99 -27 -2 -6 79 -224 182 -485 215
-549 234 -604 234 -660 0 -36 -6 -48 -40 -83 -70 -70 -46 -71 117 -7 81 31
156 60 166 63 9 4 17 14 17 22 0 14 -9 16 -65 10 -86 -10 -126 14 -162 95 -8
19 -25 58 -37 85 -52 116 -219 556 -213 561 3 4 229 -123 501 -280 l495 -287
38 19 c21 10 85 36 143 57 119 44 122 45 111 63 -6 10 -17 11 -54 1 -40 -10
-51 -9 -72 5 -34 22 -36 26 -211 473 -245 624 -243 616 -174 685 75 75 61 75
-142 -5z"/>
<path d="M10052 2634 c2 -10 21 -22 43 -29 73 -21 103 -42 115 -81 12 -34 2
-82 -121 -605 -105 -446 -137 -569 -149 -569 -33 0 -114 36 -151 68 -75 64
-107 168 -108 355 -1 69 -3 77 -20 77 -14 0 -21 -9 -26 -32 -19 -91 -69 -290
-87 -342 -10 -32 -16 -62 -11 -66 6 -5 1058 -256 1107 -264 10 -1 12 6 46 179
12 61 30 143 41 184 23 91 23 91 1 91 -13 0 -31 -22 -57 -72 -77 -148 -158
-235 -240 -258 -49 -14 -160 -9 -177 8 -11 11 232 1061 261 1127 10 22 25 46
35 54 17 15 93 18 146 6 20 -4 29 -2 34 10 3 9 0 18 -7 20 -21 8 -655 155
-667 155 -6 0 -10 -7 -8 -16z"/>
<path d="M15090 2543 c-183 -40 -336 -76 -338 -78 -3 -2 -2 -11 1 -18 4 -12
15 -13 59 -5 72 13 122 -2 144 -44 16 -31 267 -1148 260 -1155 -9 -9 -117 -15
-159 -9 -92 14 -178 100 -258 259 -30 59 -44 77 -60 77 -18 0 -20 -4 -14 -27
21 -83 64 -296 70 -344 4 -31 11 -62 15 -69 6 -10 127 13 566 110 308 68 560
124 562 125 1 1 -9 40 -22 86 -13 46 -36 140 -51 209 -34 158 -32 152 -52 148
-15 -3 -19 -19 -24 -108 -3 -58 -10 -123 -14 -145 -19 -94 -70 -172 -134 -204
-38 -20 -121 -45 -127 -39 -10 11 -244 1103 -244 1142 0 59 25 86 101 111 62
20 71 26 61 41 -5 8 -107 -11 -342 -63z"/>
<path d="M11460 2347 c0 -49 -80 -1007 -91 -1082 -6 -44 -18 -95 -26 -113 -17
-36 -58 -62 -96 -62 -20 0 -46 -26 -35 -35 6 -5 362 -34 366 -30 10 9 -9 35
-25 35 -9 0 -36 9 -60 21 -61 30 -75 61 -74 173 1 108 39 608 49 650 8 31 -12
59 474 -667 l179 -267 53 0 c30 0 100 -5 157 -11 80 -8 104 -7 110 2 12 20 3
26 -43 32 -58 8 -78 35 -78 112 0 96 78 996 91 1043 14 50 55 88 104 98 20 3
35 12 35 20 0 8 -1 14 -2 14 -2 0 -77 7 -168 15 -202 18 -190 18 -190 0 0 -8
17 -19 42 -25 89 -25 118 -66 118 -172 0 -73 -59 -801 -66 -807 -2 -2 -6 -2
-7 0 -7 8 -358 531 -535 795 -162 243 -184 272 -213 278 -56 11 -69 8 -69 -17z"/>
<path d="M13550 2323 c-272 -20 -497 -37 -499 -39 -2 -2 4 -63 13 -136 9 -73
16 -170 16 -216 0 -81 1 -83 22 -80 20 3 24 11 30 63 19 148 76 265 154 315
58 36 121 50 234 50 135 0 129 13 150 -315 6 -88 13 -188 16 -222 l6 -63 -66
0 c-72 0 -124 19 -163 62 -19 20 -59 98 -76 151 -7 18 -32 23 -41 9 -3 -5 1
-46 8 -93 12 -72 24 -234 30 -386 1 -23 5 -45 9 -49 14 -15 35 7 42 44 9 53
56 152 86 179 32 29 72 43 124 43 54 0 48 24 70 -308 15 -220 15 -245 1 -267
-21 -32 -105 -48 -217 -43 -75 3 -94 8 -136 34 -63 39 -107 106 -142 218 -20
65 -33 92 -46 94 -16 4 -17 -2 -11 -60 4 -35 7 -125 8 -201 0 -101 4 -140 13
-143 12 -5 868 51 953 62 61 8 55 30 -12 38 -68 9 -84 27 -97 107 -17 107 -75
998 -69 1055 7 65 15 73 77 89 49 12 67 39 28 41 -11 1 -243 -14 -515 -33z"/>
</g>
</svg>
