<?xml version="1.0"?>
<svg xmlns="http://www.w3.org/2000/svg" xmlns:xlink="http://www.w3.org/1999/xlink" xmlns:svgjs="http://svgjs.com/svgjs" version="1.1" width="512" height="512" x="0" y="0" viewBox="0 0 512 512" style="enable-background:new 0 0 512 512" xml:space="preserve" class=""><g><g xmlns="http://www.w3.org/2000/svg"><path d="m100 512h160c55.141 0 100-44.86 100-100v-312c0-55.14-44.859-100-100-100h-160c-55.14 0-100 44.86-100 100v312c0 55.14 44.86 100 100 100zm-60-412c0-33.084 26.916-60 60-60h160c33.084 0 60 26.916 60 60v312c0 33.084-26.916 60-60 60h-160c-33.084 0-60-26.916-60-60z" fill="#6320d6" data-original="#000000" style="" class=""/><path d="m452 36c-33.084 0-60 26.916-60 60v280c0 26.073 16.722 48.303 40 56.56v23.44c0 11.046 8.954 20 20 20s20-8.954 20-20v-23.44c23.278-8.256 40-30.487 40-56.56v-280c0-33.084-26.916-60-60-60zm20 340c0 11.028-8.972 20-20 20s-20-8.972-20-20v-280c0-11.028 8.972-20 20-20s20 8.972 20 20z" fill="#6320d6" data-original="#000000" style="" class=""/><path d="m100 196h160c11.046 0 20-8.954 20-20s-8.954-20-20-20h-160c-11.046 0-20 8.954-20 20s8.954 20 20 20z" fill="#6320d6" data-original="#000000" style="" class=""/><path d="m100 276h160c11.046 0 20-8.954 20-20s-8.954-20-20-20h-160c-11.046 0-20 8.954-20 20s8.954 20 20 20z" fill="#6320d6" data-original="#000000" style="" class=""/><path d="m100 356h160c11.046 0 20-8.954 20-20s-8.954-20-20-20h-160c-11.046 0-20 8.954-20 20s8.954 20 20 20z" fill="#6320d6" data-original="#000000" style="" class=""/></g></g></svg>
