<?xml version="1.0"?>
<svg xmlns="http://www.w3.org/2000/svg" xmlns:xlink="http://www.w3.org/1999/xlink" xmlns:svgjs="http://svgjs.com/svgjs" version="1.1" width="512" height="512" x="0" y="0" viewBox="0 0 512 512" style="enable-background:new 0 0 512 512" xml:space="preserve"><g><g xmlns="http://www.w3.org/2000/svg"><path d="m96 392c-11.046 0-20 8.954-20 20v60h-20c-11.046 0-20 8.954-20 20s8.954 20 20 20h80c11.046 0 20-8.954 20-20s-8.954-20-20-20h-20v-60c0-11.046-8.954-20-20-20z" fill="#6320d6" data-original="#000000" style=""/><path d="m416 392c-11.046 0-20 8.954-20 20v60h-20c-11.046 0-20 8.954-20 20s8.954 20 20 20h80c11.046 0 20-8.954 20-20s-8.954-20-20-20h-20v-60c0-11.046-8.954-20-20-20z" fill="#6320d6" data-original="#000000" style=""/><path d="m412 0h-312c-55.14 0-100 44.86-100 100v160c0 55.14 44.86 100 100 100h312c55.14 0 100-44.86 100-100v-160c0-55.14-44.86-100-100-100zm60 260c0 33.084-26.916 60-60 60h-312c-33.084 0-60-26.916-60-60v-160c0-33.084 26.916-60 60-60h312c33.084 0 60 26.916 60 60z" fill="#6320d6" data-original="#000000" style=""/><path d="m412 240h-120c-11.046 0-20 8.954-20 20s8.954 20 20 20h120c11.046 0 20-8.954 20-20s-8.954-20-20-20z" fill="#6320d6" data-original="#000000" style=""/><path d="m412 160h-120c-11.046 0-20 8.954-20 20s8.954 20 20 20h120c11.046 0 20-8.954 20-20s-8.954-20-20-20z" fill="#6320d6" data-original="#000000" style=""/><path d="m412 80h-120c-11.046 0-20 8.954-20 20s8.954 20 20 20h120c11.046 0 20-8.954 20-20s-8.954-20-20-20z" fill="#6320d6" data-original="#000000" style=""/><path d="m100 280h120c11.046 0 20-8.954 20-20v-160c0-11.046-8.954-20-20-20h-120c-11.046 0-20 8.954-20 20v160c0 11.046 8.954 20 20 20zm20-160h80v120h-80z" fill="#6320d6" data-original="#000000" style=""/></g></g></svg>
