<?xml version="1.0"?>
<svg xmlns="http://www.w3.org/2000/svg" xmlns:xlink="http://www.w3.org/1999/xlink" xmlns:svgjs="http://svgjs.com/svgjs" version="1.1" width="512" height="512" x="0" y="0" viewBox="0 0 512 512" style="enable-background:new 0 0 512 512" xml:space="preserve"><g><g xmlns="http://www.w3.org/2000/svg"><path d="m256 312h80c11.046 0 20-8.954 20-20v-40c0-11.046-8.954-20-20-20s-20 8.954-20 20v20h-40v-20c0-11.046-8.954-20-20-20s-20 8.954-20 20v40c0 11.046 8.954 20 20 20z" fill="#6320d6" data-original="#000000" style=""/><path d="m492 392h-276c-11.028 0-20-8.972-20-20v-160c0-11.028 8.972-20 20-20h160c11.028 0 20 8.972 20 20v120c0 11.046 8.954 20 20 20s20-8.954 20-20v-120c0-33.084-26.916-60-60-60h-160c-33.084 0-60 26.916-60 60v160c0 7.011 1.22 13.74 3.44 20h-23.44c-11.028 0-20-8.972-20-20v-312c0-33.084-26.916-60-60-60h-36c-11.046 0-20 8.954-20 20s8.954 20 20 20h36c11.028 0 20 8.972 20 20v312c0 27.631 18.78 50.946 44.241 57.885-2.726 6.849-4.241 14.306-4.241 22.115 0 33.084 26.916 60 60 60s60-26.916 60-60c0-7.011-1.22-13.74-3.44-20h126.88c-2.22 6.26-3.44 12.989-3.44 20 0 33.084 26.916 60 60 60s60-26.916 60-60c0-7.011-1.22-13.74-3.44-20h19.44c11.046 0 20-8.954 20-20s-8.954-20-20-20zm-316 80c-11.028 0-20-8.972-20-20s8.972-20 20-20 20 8.972 20 20-8.972 20-20 20zm260-20c0 11.028-8.972 20-20 20s-20-8.972-20-20 8.972-20 20-20 20 8.972 20 20z" fill="#6320d6" data-original="#000000" style=""/></g></g></svg>
